0, 0, Header, 1, 18, 480
1, 0, Start_track
1, 0, Title_t, ""
1, 0, Copyright_t, "Copyright (C) 2010 "
1, 0, Text_t, "\201y\203T\203C\203g\226¼\201z URL"
1, 0, Tempo, 500000
1, 0, Marker_t, "Setup"
1, 0, Time_signature, 4, 2, 24, 8
1, 240, Tempo, 500000
1, 480, Tempo, 375000
1, 1920, Marker_t, "Start"
1, 1920, End_track
2, 0, Start_track
2, 0, Title_t, "System Setup"
2, 0, MIDI_port, 0
2, 0, Text_t, "---- Reset --------------------------------------------------"
2, 0, System_exclusive, 5, 126, 127, 9, 1, 247
2, 60, System_exclusive, 10, 65, 16, 66, 18, 64, 0, 127, 0, 65, 247
2, 120, Text_t, "---- \221S\221Ì\220Ý\222è --------------------------------------------------"
2, 120, System_exclusive, 7, 127, 127, 4, 1, 0, 127, 247
2, 124, Text_t, "---- Drum \222Ç\211Á --------------------------------------------------"
2, 124, System_exclusive, 10, 65, 16, 66, 18, 64, 17, 21, 0, 26, 247
2, 128, System_exclusive, 10, 65, 16, 66, 18, 64, 18, 21, 0, 25, 247
2, 132, System_exclusive, 10, 65, 16, 66, 18, 64, 19, 21, 0, 24, 247
2, 136, System_exclusive, 10, 65, 16, 66, 18, 64, 20, 21, 0, 23, 247
2, 140, System_exclusive, 10, 65, 16, 66, 18, 64, 21, 21, 0, 22, 247
2, 144, System_exclusive, 10, 65, 16, 66, 18, 64, 22, 21, 0, 21, 247
2, 148, System_exclusive, 10, 65, 16, 66, 18, 64, 23, 21, 0, 20, 247
2, 152, System_exclusive, 10, 65, 16, 66, 18, 64, 24, 21, 0, 19, 247
2, 156, System_exclusive, 10, 65, 16, 66, 18, 64, 25, 21, 0, 18, 247
2, 160, System_exclusive, 10, 65, 16, 66, 18, 64, 16, 21, 1, 26, 247
2, 164, System_exclusive, 10, 65, 16, 66, 18, 64, 26, 21, 0, 17, 247
2, 168, System_exclusive, 10, 65, 16, 66, 18, 64, 27, 21, 0, 16, 247
2, 172, System_exclusive, 10, 65, 16, 66, 18, 64, 28, 21, 0, 15, 247
2, 176, System_exclusive, 10, 65, 16, 66, 18, 64, 29, 21, 0, 14, 247
2, 180, System_exclusive, 10, 65, 16, 66, 18, 64, 30, 21, 0, 13, 247
2, 184, System_exclusive, 10, 65, 16, 66, 18, 64, 31, 21, 0, 12, 247
2, 188, Text_t, "---- CH Setup --------------------------------------------------"
2, 210, Text_t, "---- Layer --------------------------------------------------"
2, 238, Text_t, "---- End of System Setup --------------------------------------------------"
2, 240, End_track
3, 0, Start_track
3, 0, Title_t, "CH01"
3, 0, MIDI_port, 0
3, 0, Text_t, "---- System Setup --------------------------------------------------"
3, 188, Text_t, "---- CH Setup --------------------------------------------------"
3, 188, Control_c, 0, 121, 0
3, 189, Control_c, 0, 0, 0
3, 189, Control_c, 0, 32, 0
3, 189, Program_c, 0, 3
3, 192, Control_c, 0, 10, 64
3, 193, Control_c, 0, 7, 100
3, 194, Control_c, 0, 91, 0
3, 195, Control_c, 0, 11, 127
3, 196, Control_c, 0, 1, 0
3, 197, Control_c, 0, 101, 0
3, 197, Control_c, 0, 100, 1
3, 197, Control_c, 0, 6, 64
3, 197, Control_c, 0, 38, 0
3, 201, Control_c, 0, 101, 0
3, 201, Control_c, 0, 100, 2
3, 201, Control_c, 0, 6, 64
3, 204, Control_c, 0, 101, 0
3, 204, Control_c, 0, 100, 0
3, 204, Control_c, 0, 6, 12
3, 207, Pitch_bend_c, 0, 8192
3, 208, Control_c, 0, 101, 127
3, 208, Control_c, 0, 100, 127
3, 210, Text_t, "---- End of CH Setup --------------------------------------------------"
3, 1920, Note_on_c, 0, 75, 100
3, 2160, Note_off_c, 0, 75, 0
3, 2160, Note_on_c, 0, 68, 100
3, 2400, Note_off_c, 0, 68, 0
3, 2400, Note_on_c, 0, 70, 100
3, 2640, Note_off_c, 0, 70, 0
3, 2640, Note_on_c, 0, 71, 100
3, 2880, Note_off_c, 0, 71, 0
3, 2880, Note_on_c, 0, 73, 100
3, 3120, Note_off_c, 0, 73, 0
3, 3120, Note_on_c, 0, 75, 100
3, 3360, Note_off_c, 0, 75, 0
3, 3360, Note_on_c, 0, 68, 100
3, 3600, Note_off_c, 0, 68, 0
3, 3600, Note_on_c, 0, 75, 100
3, 3840, Note_off_c, 0, 75, 0
3, 3840, Note_on_c, 0, 68, 100
3, 4320, Note_off_c, 0, 68, 0
3, 4320, Note_on_c, 0, 73, 100
3, 4560, Note_off_c, 0, 73, 0
3, 4560, Note_on_c, 0, 75, 100
3, 4800, Note_off_c, 0, 75, 0
3, 4800, Note_on_c, 0, 73, 100
3, 5040, Note_off_c, 0, 73, 0
3, 5040, Note_on_c, 0, 75, 100
3, 5280, Note_off_c, 0, 75, 0
3, 5280, Note_on_c, 0, 70, 100
3, 5760, Note_off_c, 0, 70, 0
3, 5760, Note_on_c, 0, 68, 100
3, 6000, Note_off_c, 0, 68, 0
3, 6000, Note_on_c, 0, 63, 100
3, 6240, Note_off_c, 0, 63, 0
3, 6240, Note_on_c, 0, 68, 100
3, 6480, Note_off_c, 0, 68, 0
3, 6480, Note_on_c, 0, 70, 100
3, 6720, Note_off_c, 0, 70, 0
3, 6720, Note_on_c, 0, 71, 100
3, 6960, Note_off_c, 0, 71, 0
3, 6960, Note_on_c, 0, 73, 100
3, 7200, Note_off_c, 0, 73, 0
3, 7200, Note_on_c, 0, 75, 100
3, 7440, Note_off_c, 0, 75, 0
3, 7440, Note_on_c, 0, 80, 100
3, 7680, Note_off_c, 0, 80, 0
3, 7680, Note_on_c, 0, 75, 100
3, 7680, Note_on_c, 0, 68, 100
3, 8160, Note_off_c, 0, 75, 0
3, 8160, Note_off_c, 0, 68, 0
3, 8160, Note_on_c, 0, 84, 100
3, 8220, Note_off_c, 0, 84, 0
3, 8220, Note_on_c, 0, 85, 100
3, 8640, Note_off_c, 0, 85, 0
3, 8640, Note_on_c, 0, 85, 100
3, 8700, Note_off_c, 0, 85, 0
3, 8700, Note_on_c, 0, 82, 100
3, 9600, Note_off_c, 0, 82, 0
3, 9600, Note_on_c, 0, 68, 100
3, 9840, Note_off_c, 0, 68, 0
3, 9840, Note_on_c, 0, 63, 100
3, 10080, Note_off_c, 0, 63, 0
3, 10080, Note_on_c, 0, 68, 100
3, 10320, Note_off_c, 0, 68, 0
3, 10320, Note_on_c, 0, 63, 100
3, 10560, Note_off_c, 0, 63, 0
3, 10560, Note_on_c, 0, 70, 100
3, 10800, Note_off_c, 0, 70, 0
3, 10800, Note_on_c, 0, 63, 100
3, 11040, Note_off_c, 0, 63, 0
3, 11040, Note_on_c, 0, 71, 100
3, 11280, Note_off_c, 0, 71, 0
3, 11280, Note_on_c, 0, 63, 100
3, 11520, Note_off_c, 0, 63, 0
3, 11520, Note_on_c, 0, 73, 100
3, 11760, Note_off_c, 0, 73, 0
3, 11760, Note_on_c, 0, 63, 100
3, 12000, Note_off_c, 0, 63, 0
3, 12000, Note_on_c, 0, 75, 100
3, 12240, Note_off_c, 0, 75, 0
3, 12240, Note_on_c, 0, 63, 100
3, 12480, Note_off_c, 0, 63, 0
3, 12480, Note_on_c, 0, 70, 100
3, 12720, Note_off_c, 0, 70, 0
3, 12720, Note_on_c, 0, 63, 100
3, 12960, Note_off_c, 0, 63, 0
3, 12960, Note_on_c, 0, 66, 100
3, 13200, Note_off_c, 0, 66, 0
3, 13200, Note_on_c, 0, 63, 100
3, 13440, Note_off_c, 0, 63, 0
3, 13440, Note_on_c, 0, 68, 100
3, 14400, Note_off_c, 0, 68, 0
3, 14400, Note_on_c, 0, 68, 100
3, 14640, Note_off_c, 0, 68, 0
3, 14640, Note_on_c, 0, 75, 100
3, 14880, Note_off_c, 0, 75, 0
3, 14880, Note_on_c, 0, 70, 100
3, 15120, Note_off_c, 0, 70, 0
3, 15120, Note_on_c, 0, 75, 100
3, 15360, Note_off_c, 0, 75, 0
3, 15360, Note_on_c, 0, 71, 100
3, 15600, Note_off_c, 0, 71, 0
3, 15600, Note_on_c, 0, 75, 100
3, 15840, Note_off_c, 0, 75, 0
3, 15840, Note_on_c, 0, 73, 100
3, 16080, Note_off_c, 0, 73, 0
3, 16080, Note_on_c, 0, 75, 100
3, 16320, Note_off_c, 0, 75, 0
3, 16320, Note_on_c, 0, 71, 100
3, 16560, Note_off_c, 0, 71, 0
3, 16560, Note_on_c, 0, 75, 100
3, 16800, Note_off_c, 0, 75, 0
3, 16800, Note_on_c, 0, 70, 100
3, 17040, Note_off_c, 0, 70, 0
3, 17040, Note_on_c, 0, 75, 100
3, 17280, Note_off_c, 0, 75, 0
3, 17280, Note_on_c, 0, 68, 100
3, 17520, Note_off_c, 0, 68, 0
3, 17520, Note_on_c, 0, 63, 100
3, 17760, Note_off_c, 0, 63, 0
3, 17760, Note_on_c, 0, 68, 100
3, 18000, Note_off_c, 0, 68, 0
3, 18000, Note_on_c, 0, 63, 100
3, 18240, Note_off_c, 0, 63, 0
3, 18240, Note_on_c, 0, 70, 100
3, 18480, Note_off_c, 0, 70, 0
3, 18480, Note_on_c, 0, 63, 100
3, 18720, Note_off_c, 0, 63, 0
3, 18720, Note_on_c, 0, 71, 100
3, 18960, Note_off_c, 0, 71, 0
3, 18960, Note_on_c, 0, 63, 100
3, 19200, Note_off_c, 0, 63, 0
3, 19200, Note_on_c, 0, 73, 100
3, 19440, Note_off_c, 0, 73, 0
3, 19440, Note_on_c, 0, 63, 100
3, 19680, Note_off_c, 0, 63, 0
3, 19680, Note_on_c, 0, 75, 100
3, 19920, Note_off_c, 0, 75, 0
3, 19920, Note_on_c, 0, 63, 100
3, 20160, Note_off_c, 0, 63, 0
3, 20160, Note_on_c, 0, 70, 100
3, 20400, Note_off_c, 0, 70, 0
3, 20400, Note_on_c, 0, 63, 100
3, 20640, Note_off_c, 0, 63, 0
3, 20640, Note_on_c, 0, 66, 100
3, 20880, Note_off_c, 0, 66, 0
3, 20880, Note_on_c, 0, 63, 100
3, 21120, Note_off_c, 0, 63, 0
3, 21120, Note_on_c, 0, 68, 100
3, 23040, Note_off_c, 0, 68, 0
3, 23040, Note_on_c, 0, 75, 100
3, 23280, Note_off_c, 0, 75, 0
3, 23280, Note_on_c, 0, 71, 100
3, 23520, Note_off_c, 0, 71, 0
3, 23520, Note_on_c, 0, 70, 100
3, 23760, Note_off_c, 0, 70, 0
3, 23760, Note_on_c, 0, 66, 100
3, 24000, Note_off_c, 0, 66, 0
3, 24000, Note_on_c, 0, 68, 100
3, 24720, Note_off_c, 0, 68, 0
3, 24800, Note_on_c, 0, 64, 100
3, 24880, Note_off_c, 0, 64, 0
3, 24880, Note_on_c, 0, 63, 100
3, 24960, Note_off_c, 0, 63, 0
3, 24960, Note_on_c, 0, 68, 100
3, 25200, Note_off_c, 0, 68, 0
3, 25200, Note_on_c, 0, 63, 100
3, 25440, Note_off_c, 0, 63, 0
3, 25440, Note_on_c, 0, 68, 100
3, 25680, Note_off_c, 0, 68, 0
3, 25680, Note_on_c, 0, 63, 100
3, 25920, Note_off_c, 0, 63, 0
3, 25920, Note_on_c, 0, 70, 100
3, 26160, Note_off_c, 0, 70, 0
3, 26160, Note_on_c, 0, 63, 100
3, 26400, Note_off_c, 0, 63, 0
3, 26400, Note_on_c, 0, 71, 100
3, 26640, Note_off_c, 0, 71, 0
3, 26640, Note_on_c, 0, 63, 100
3, 26880, Note_off_c, 0, 63, 0
3, 26880, Note_on_c, 0, 73, 100
3, 27120, Note_off_c, 0, 73, 0
3, 27120, Note_on_c, 0, 63, 100
3, 27360, Note_off_c, 0, 63, 0
3, 27360, Note_on_c, 0, 75, 100
3, 27600, Note_off_c, 0, 75, 0
3, 27600, Note_on_c, 0, 63, 100
3, 27840, Note_off_c, 0, 63, 0
3, 27840, Note_on_c, 0, 70, 100
3, 28080, Note_off_c, 0, 70, 0
3, 28080, Note_on_c, 0, 63, 100
3, 28320, Note_off_c, 0, 63, 0
3, 28320, Note_on_c, 0, 66, 100
3, 28560, Note_off_c, 0, 66, 0
3, 28560, Note_on_c, 0, 68, 100
3, 28560, Note_on_c, 0, 63, 100
3, 29520, Note_off_c, 0, 68, 0
3, 29520, Note_off_c, 0, 63, 0
3, 29520, Note_on_c, 0, 68, 100
3, 30000, Note_off_c, 0, 68, 0
3, 30000, Note_on_c, 0, 75, 100
3, 30240, Note_off_c, 0, 75, 0
3, 30240, Note_on_c, 0, 70, 100
3, 30480, Note_off_c, 0, 70, 0
3, 30480, Note_on_c, 0, 75, 100
3, 30720, Note_off_c, 0, 75, 0
3, 30720, Note_on_c, 0, 71, 100
3, 30960, Note_off_c, 0, 71, 0
3, 30960, Note_on_c, 0, 75, 100
3, 31200, Note_off_c, 0, 75, 0
3, 31200, Note_on_c, 0, 73, 100
3, 31440, Note_off_c, 0, 73, 0
3, 31440, Note_on_c, 0, 75, 100
3, 31680, Note_off_c, 0, 75, 0
3, 31680, Note_on_c, 0, 71, 100
3, 31920, Note_off_c, 0, 71, 0
3, 31920, Note_on_c, 0, 75, 100
3, 32160, Note_off_c, 0, 75, 0
3, 32160, Note_on_c, 0, 70, 100
3, 32400, Note_off_c, 0, 70, 0
3, 32400, Note_on_c, 0, 75, 100
3, 32640, Note_off_c, 0, 75, 0
3, 32640, Note_on_c, 0, 68, 100
3, 32880, Note_off_c, 0, 68, 0
3, 32880, Note_on_c, 0, 63, 100
3, 33120, Note_off_c, 0, 63, 0
3, 33120, Note_on_c, 0, 68, 100
3, 33360, Note_off_c, 0, 68, 0
3, 33360, Note_on_c, 0, 63, 100
3, 33600, Note_off_c, 0, 63, 0
3, 33600, Note_on_c, 0, 70, 100
3, 33840, Note_off_c, 0, 70, 0
3, 33840, Note_on_c, 0, 63, 100
3, 34080, Note_off_c, 0, 63, 0
3, 34080, Note_on_c, 0, 71, 100
3, 34320, Note_off_c, 0, 71, 0
3, 34320, Note_on_c, 0, 63, 100
3, 34560, Note_off_c, 0, 63, 0
3, 34560, Note_on_c, 0, 73, 100
3, 34800, Note_off_c, 0, 73, 0
3, 34800, Note_on_c, 0, 63, 100
3, 35040, Note_off_c, 0, 63, 0
3, 35040, Note_on_c, 0, 75, 100
3, 35280, Note_off_c, 0, 75, 0
3, 35280, Note_on_c, 0, 63, 100
3, 35520, Note_off_c, 0, 63, 0
3, 35520, Note_on_c, 0, 70, 100
3, 35760, Note_off_c, 0, 70, 0
3, 35760, Note_on_c, 0, 63, 100
3, 36000, Note_off_c, 0, 63, 0
3, 36000, Note_on_c, 0, 66, 100
3, 36240, Note_off_c, 0, 66, 0
3, 36240, Note_on_c, 0, 68, 100
3, 36240, Note_on_c, 0, 63, 100
3, 38400, Note_off_c, 0, 68, 0
3, 38400, Note_off_c, 0, 63, 0
3, 38400, Note_on_c, 0, 75, 100
3, 38640, Note_off_c, 0, 75, 0
3, 38640, Note_on_c, 0, 71, 100
3, 38880, Note_off_c, 0, 71, 0
3, 38880, Note_on_c, 0, 70, 100
3, 39120, Note_off_c, 0, 70, 0
3, 39120, Note_on_c, 0, 66, 100
3, 39360, Note_off_c, 0, 66, 0
3, 39360, Note_on_c, 0, 68, 100
3, 40080, Note_off_c, 0, 68, 0
3, 40160, Note_on_c, 0, 64, 100
3, 40240, Note_off_c, 0, 64, 0
3, 40240, Note_on_c, 0, 63, 100
3, 40320, Note_off_c, 0, 63, 0
3, 86400, Note_on_c, 0, 75, 100
3, 86640, Note_off_c, 0, 75, 0
3, 86640, Note_on_c, 0, 68, 100
3, 86880, Note_off_c, 0, 68, 0
3, 86880, Note_on_c, 0, 70, 100
3, 87120, Note_off_c, 0, 70, 0
3, 87120, Note_on_c, 0, 71, 100
3, 87360, Note_off_c, 0, 71, 0
3, 87360, Note_on_c, 0, 73, 100
3, 87600, Note_off_c, 0, 73, 0
3, 87600, Note_on_c, 0, 75, 100
3, 87840, Note_off_c, 0, 75, 0
3, 87840, Note_on_c, 0, 68, 100
3, 88080, Note_off_c, 0, 68, 0
3, 88080, Note_on_c, 0, 75, 100
3, 88320, Note_off_c, 0, 75, 0
3, 88320, Note_on_c, 0, 68, 100
3, 88800, Note_off_c, 0, 68, 0
3, 88800, Note_on_c, 0, 73, 100
3, 89040, Note_off_c, 0, 73, 0
3, 89040, Note_on_c, 0, 75, 100
3, 89280, Note_off_c, 0, 75, 0
3, 89280, Note_on_c, 0, 73, 100
3, 89520, Note_off_c, 0, 73, 0
3, 89520, Note_on_c, 0, 75, 100
3, 89760, Note_off_c, 0, 75, 0
3, 89760, Note_on_c, 0, 70, 100
3, 90240, Note_off_c, 0, 70, 0
3, 90240, Note_on_c, 0, 68, 100
3, 90480, Note_off_c, 0, 68, 0
3, 90480, Note_on_c, 0, 63, 100
3, 90720, Note_off_c, 0, 63, 0
3, 90720, Note_on_c, 0, 68, 100
3, 90960, Note_off_c, 0, 68, 0
3, 90960, Note_on_c, 0, 70, 100
3, 91200, Note_off_c, 0, 70, 0
3, 91200, Note_on_c, 0, 71, 100
3, 91440, Note_off_c, 0, 71, 0
3, 91440, Note_on_c, 0, 73, 100
3, 91680, Note_off_c, 0, 73, 0
3, 91680, Note_on_c, 0, 75, 100
3, 91920, Note_off_c, 0, 75, 0
3, 91920, Note_on_c, 0, 80, 100
3, 92160, Note_off_c, 0, 80, 0
3, 92160, Note_on_c, 0, 75, 100
3, 92160, Note_on_c, 0, 68, 100
3, 92640, Note_off_c, 0, 75, 0
3, 92640, Note_off_c, 0, 68, 0
3, 92640, Note_on_c, 0, 84, 100
3, 92700, Note_off_c, 0, 84, 0
3, 92700, Note_on_c, 0, 85, 100
3, 93120, Note_off_c, 0, 85, 0
3, 93120, Note_on_c, 0, 85, 100
3, 93180, Note_off_c, 0, 85, 0
3, 93180, Note_on_c, 0, 82, 100
3, 94080, Note_off_c, 0, 82, 0
3, 94080, Note_on_c, 0, 68, 100
3, 94320, Note_off_c, 0, 68, 0
3, 94320, Note_on_c, 0, 63, 100
3, 94560, Note_off_c, 0, 63, 0
3, 94560, Note_on_c, 0, 68, 100
3, 94800, Note_off_c, 0, 68, 0
3, 94800, Note_on_c, 0, 63, 100
3, 95040, Note_off_c, 0, 63, 0
3, 95040, Note_on_c, 0, 70, 100
3, 95280, Note_off_c, 0, 70, 0
3, 95280, Note_on_c, 0, 63, 100
3, 95520, Note_off_c, 0, 63, 0
3, 95520, Note_on_c, 0, 71, 100
3, 95760, Note_off_c, 0, 71, 0
3, 95760, Note_on_c, 0, 63, 100
3, 96000, Note_off_c, 0, 63, 0
3, 96000, Note_on_c, 0, 73, 100
3, 96240, Note_off_c, 0, 73, 0
3, 96240, Note_on_c, 0, 63, 100
3, 96480, Note_off_c, 0, 63, 0
3, 96480, Note_on_c, 0, 75, 100
3, 96720, Note_off_c, 0, 75, 0
3, 96720, Note_on_c, 0, 63, 100
3, 96960, Note_off_c, 0, 63, 0
3, 96960, Note_on_c, 0, 70, 100
3, 97200, Note_off_c, 0, 70, 0
3, 97200, Note_on_c, 0, 63, 100
3, 97440, Note_off_c, 0, 63, 0
3, 97440, Note_on_c, 0, 66, 100
3, 97680, Note_off_c, 0, 66, 0
3, 97680, Note_on_c, 0, 63, 100
3, 97920, Note_off_c, 0, 63, 0
3, 97920, Note_on_c, 0, 68, 100
3, 98880, Note_off_c, 0, 68, 0
3, 98880, Note_on_c, 0, 68, 100
3, 99120, Note_off_c, 0, 68, 0
3, 99120, Note_on_c, 0, 75, 100
3, 99360, Note_off_c, 0, 75, 0
3, 99360, Note_on_c, 0, 70, 100
3, 99600, Note_off_c, 0, 70, 0
3, 99600, Note_on_c, 0, 75, 100
3, 99840, Note_off_c, 0, 75, 0
3, 99840, Note_on_c, 0, 71, 100
3, 100080, Note_off_c, 0, 71, 0
3, 100080, Note_on_c, 0, 75, 100
3, 100320, Note_off_c, 0, 75, 0
3, 100320, Note_on_c, 0, 73, 100
3, 100560, Note_off_c, 0, 73, 0
3, 100560, Note_on_c, 0, 75, 100
3, 100800, Note_off_c, 0, 75, 0
3, 100800, Note_on_c, 0, 71, 100
3, 101040, Note_off_c, 0, 71, 0
3, 101040, Note_on_c, 0, 75, 100
3, 101280, Note_off_c, 0, 75, 0
3, 101280, Note_on_c, 0, 70, 100
3, 101520, Note_off_c, 0, 70, 0
3, 101520, Note_on_c, 0, 75, 100
3, 101760, Note_off_c, 0, 75, 0
3, 101760, Note_on_c, 0, 68, 100
3, 102000, Note_off_c, 0, 68, 0
3, 102000, Note_on_c, 0, 63, 100
3, 102240, Note_off_c, 0, 63, 0
3, 102240, Note_on_c, 0, 68, 100
3, 102480, Note_off_c, 0, 68, 0
3, 102480, Note_on_c, 0, 63, 100
3, 102720, Note_off_c, 0, 63, 0
3, 102720, Note_on_c, 0, 70, 100
3, 102960, Note_off_c, 0, 70, 0
3, 102960, Note_on_c, 0, 63, 100
3, 103200, Note_off_c, 0, 63, 0
3, 103200, Note_on_c, 0, 71, 100
3, 103440, Note_off_c, 0, 71, 0
3, 103440, Note_on_c, 0, 63, 100
3, 103680, Note_off_c, 0, 63, 0
3, 103680, Note_on_c, 0, 73, 100
3, 103920, Note_off_c, 0, 73, 0
3, 103920, Note_on_c, 0, 63, 100
3, 104160, Note_off_c, 0, 63, 0
3, 104160, Note_on_c, 0, 75, 100
3, 104400, Note_off_c, 0, 75, 0
3, 104400, Note_on_c, 0, 63, 100
3, 104640, Note_off_c, 0, 63, 0
3, 104640, Note_on_c, 0, 70, 100
3, 104880, Note_off_c, 0, 70, 0
3, 104880, Note_on_c, 0, 63, 100
3, 105120, Note_off_c, 0, 63, 0
3, 105120, Note_on_c, 0, 66, 100
3, 105360, Note_off_c, 0, 66, 0
3, 105360, Note_on_c, 0, 63, 100
3, 105600, Note_off_c, 0, 63, 0
3, 105600, Note_on_c, 0, 68, 100
3, 107520, Note_off_c, 0, 68, 0
3, 107520, Note_on_c, 0, 75, 100
3, 107760, Note_off_c, 0, 75, 0
3, 107760, Note_on_c, 0, 71, 100
3, 108000, Note_off_c, 0, 71, 0
3, 108000, Note_on_c, 0, 70, 100
3, 108240, Note_off_c, 0, 70, 0
3, 108240, Note_on_c, 0, 66, 100
3, 108480, Note_off_c, 0, 66, 0
3, 108480, Note_on_c, 0, 68, 100
3, 109200, Note_off_c, 0, 68, 0
3, 109280, Note_on_c, 0, 64, 100
3, 109360, Note_off_c, 0, 64, 0
3, 109360, Note_on_c, 0, 63, 100
3, 109440, Note_off_c, 0, 63, 0
3, 186000, End_track
4, 0, Start_track
4, 0, Title_t, "CH02"
4, 0, MIDI_port, 0
4, 0, Text_t, "---- System Setup --------------------------------------------------"
4, 188, Text_t, "---- CH Setup --------------------------------------------------"
4, 188, Control_c, 1, 121, 0
4, 189, Control_c, 1, 0, 0
4, 189, Control_c, 1, 32, 0
4, 189, Program_c, 1, 33
4, 192, Control_c, 1, 10, 64
4, 193, Control_c, 1, 7, 100
4, 194, Control_c, 1, 91, 0
4, 195, Control_c, 1, 11, 127
4, 196, Control_c, 1, 1, 0
4, 197, Control_c, 1, 101, 0
4, 197, Control_c, 1, 100, 1
4, 197, Control_c, 1, 6, 64
4, 197, Control_c, 1, 38, 0
4, 201, Control_c, 1, 101, 0
4, 201, Control_c, 1, 100, 2
4, 201, Control_c, 1, 6, 64
4, 204, Control_c, 1, 101, 0
4, 204, Control_c, 1, 100, 0
4, 204, Control_c, 1, 6, 12
4, 207, Pitch_bend_c, 1, 8192
4, 208, Control_c, 1, 101, 127
4, 208, Control_c, 1, 100, 127
4, 210, Text_t, "---- End of CH Setup --------------------------------------------------"
4, 1920, Note_on_c, 1, 56, 100
4, 1920, Note_on_c, 1, 44, 100
4, 3840, Note_off_c, 1, 56, 0
4, 3840, Note_off_c, 1, 44, 0
4, 3840, Note_on_c, 1, 52, 100
4, 3840, Note_on_c, 1, 40, 100
4, 4800, Note_off_c, 1, 52, 0
4, 4800, Note_off_c, 1, 40, 0
4, 4800, Note_on_c, 1, 54, 100
4, 4800, Note_on_c, 1, 42, 100
4, 5760, Note_off_c, 1, 54, 0
4, 5760, Note_off_c, 1, 42, 0
4, 5760, Note_on_c, 1, 51, 100
4, 5760, Note_on_c, 1, 39, 100
4, 6720, Note_off_c, 1, 51, 0
4, 6720, Note_off_c, 1, 39, 0
4, 6720, Note_on_c, 1, 47, 100
4, 6720, Note_on_c, 1, 35, 100
4, 7680, Note_off_c, 1, 47, 0
4, 7680, Note_off_c, 1, 35, 0
4, 7680, Note_on_c, 1, 51, 100
4, 7680, Note_on_c, 1, 39, 100
4, 9600, Note_off_c, 1, 51, 0
4, 9600, Note_off_c, 1, 39, 0
4, 9600, Note_on_c, 1, 40, 100
4, 9840, Note_off_c, 1, 40, 0
4, 9840, Note_on_c, 1, 47, 100
4, 10080, Note_off_c, 1, 47, 0
4, 10080, Note_on_c, 1, 56, 100
4, 10080, Note_on_c, 1, 52, 100
4, 10320, Note_off_c, 1, 56, 0
4, 10320, Note_off_c, 1, 52, 0
4, 10320, Note_on_c, 1, 47, 100
4, 10560, Note_off_c, 1, 47, 0
4, 10560, Note_on_c, 1, 40, 100
4, 10800, Note_off_c, 1, 40, 0
4, 10800, Note_on_c, 1, 47, 100
4, 11040, Note_off_c, 1, 47, 0
4, 11040, Note_on_c, 1, 56, 100
4, 11040, Note_on_c, 1, 52, 100
4, 11280, Note_off_c, 1, 56, 0
4, 11280, Note_off_c, 1, 52, 0
4, 11280, Note_on_c, 1, 47, 100
4, 11520, Note_off_c, 1, 47, 0
4, 11520, Note_on_c, 1, 40, 100
4, 11760, Note_off_c, 1, 40, 0
4, 11760, Note_on_c, 1, 47, 100
4, 12000, Note_off_c, 1, 47, 0
4, 12000, Note_on_c, 1, 56, 100
4, 12000, Note_on_c, 1, 52, 100
4, 12240, Note_off_c, 1, 56, 0
4, 12240, Note_off_c, 1, 52, 0
4, 12240, Note_on_c, 1, 47, 100
4, 12480, Note_off_c, 1, 47, 0
4, 12480, Note_on_c, 1, 42, 100
4, 12720, Note_off_c, 1, 42, 0
4, 12720, Note_on_c, 1, 49, 100
4, 12960, Note_off_c, 1, 49, 0
4, 12960, Note_on_c, 1, 58, 100
4, 12960, Note_on_c, 1, 54, 100
4, 13200, Note_off_c, 1, 58, 0
4, 13200, Note_off_c, 1, 54, 0
4, 13200, Note_on_c, 1, 49, 100
4, 13440, Note_off_c, 1, 49, 0
4, 13440, Note_on_c, 1, 44, 100
4, 13680, Note_off_c, 1, 44, 0
4, 13680, Note_on_c, 1, 51, 100
4, 13920, Note_off_c, 1, 51, 0
4, 13920, Note_on_c, 1, 59, 100
4, 13920, Note_on_c, 1, 56, 100
4, 14160, Note_off_c, 1, 59, 0
4, 14160, Note_off_c, 1, 56, 0
4, 14160, Note_on_c, 1, 51, 100
4, 14400, Note_off_c, 1, 51, 0
4, 14400, Note_on_c, 1, 44, 100
4, 14640, Note_off_c, 1, 44, 0
4, 14640, Note_on_c, 1, 51, 100
4, 14880, Note_off_c, 1, 51, 0
4, 14880, Note_on_c, 1, 59, 100
4, 14880, Note_on_c, 1, 56, 100
4, 15120, Note_off_c, 1, 59, 0
4, 15120, Note_off_c, 1, 56, 0
4, 15120, Note_on_c, 1, 51, 100
4, 15360, Note_off_c, 1, 51, 0
4, 15360, Note_on_c, 1, 44, 100
4, 15600, Note_off_c, 1, 44, 0
4, 15600, Note_on_c, 1, 51, 100
4, 15840, Note_off_c, 1, 51, 0
4, 15840, Note_on_c, 1, 59, 100
4, 15840, Note_on_c, 1, 56, 100
4, 16080, Note_off_c, 1, 59, 0
4, 16080, Note_off_c, 1, 56, 0
4, 16080, Note_on_c, 1, 51, 100
4, 16320, Note_off_c, 1, 51, 0
4, 16320, Note_on_c, 1, 44, 100
4, 16560, Note_off_c, 1, 44, 0
4, 16560, Note_on_c, 1, 51, 100
4, 16800, Note_off_c, 1, 51, 0
4, 16800, Note_on_c, 1, 59, 100
4, 16800, Note_on_c, 1, 56, 100
4, 17040, Note_off_c, 1, 59, 0
4, 17040, Note_off_c, 1, 56, 0
4, 17040, Note_on_c, 1, 51, 100
4, 17280, Note_off_c, 1, 51, 0
4, 17280, Note_on_c, 1, 40, 100
4, 17520, Note_off_c, 1, 40, 0
4, 17520, Note_on_c, 1, 47, 100
4, 17760, Note_off_c, 1, 47, 0
4, 17760, Note_on_c, 1, 56, 100
4, 17760, Note_on_c, 1, 52, 100
4, 18000, Note_off_c, 1, 56, 0
4, 18000, Note_off_c, 1, 52, 0
4, 18000, Note_on_c, 1, 47, 100
4, 18240, Note_off_c, 1, 47, 0
4, 18240, Note_on_c, 1, 40, 100
4, 18480, Note_off_c, 1, 40, 0
4, 18480, Note_on_c, 1, 47, 100
4, 18720, Note_off_c, 1, 47, 0
4, 18720, Note_on_c, 1, 56, 100
4, 18720, Note_on_c, 1, 52, 100
4, 18960, Note_off_c, 1, 56, 0
4, 18960, Note_off_c, 1, 52, 0
4, 18960, Note_on_c, 1, 47, 100
4, 19200, Note_off_c, 1, 47, 0
4, 19200, Note_on_c, 1, 40, 100
4, 19440, Note_off_c, 1, 40, 0
4, 19440, Note_on_c, 1, 47, 100
4, 19680, Note_off_c, 1, 47, 0
4, 19680, Note_on_c, 1, 56, 100
4, 19680, Note_on_c, 1, 52, 100
4, 19920, Note_off_c, 1, 56, 0
4, 19920, Note_off_c, 1, 52, 0
4, 19920, Note_on_c, 1, 47, 100
4, 20160, Note_off_c, 1, 47, 0
4, 20160, Note_on_c, 1, 42, 100
4, 20400, Note_off_c, 1, 42, 0
4, 20400, Note_on_c, 1, 49, 100
4, 20640, Note_off_c, 1, 49, 0
4, 20640, Note_on_c, 1, 58, 100
4, 20640, Note_on_c, 1, 54, 100
4, 20880, Note_off_c, 1, 58, 0
4, 20880, Note_off_c, 1, 54, 0
4, 20880, Note_on_c, 1, 49, 100
4, 21120, Note_off_c, 1, 49, 0
4, 21120, Note_on_c, 1, 44, 100
4, 21360, Note_off_c, 1, 44, 0
4, 21360, Note_on_c, 1, 51, 100
4, 21600, Note_off_c, 1, 51, 0
4, 21600, Note_on_c, 1, 59, 100
4, 21600, Note_on_c, 1, 56, 100
4, 21840, Note_off_c, 1, 59, 0
4, 21840, Note_off_c, 1, 56, 0
4, 21840, Note_on_c, 1, 51, 100
4, 22080, Note_off_c, 1, 51, 0
4, 22080, Note_on_c, 1, 44, 100
4, 22320, Note_off_c, 1, 44, 0
4, 22320, Note_on_c, 1, 51, 100
4, 22560, Note_off_c, 1, 51, 0
4, 22560, Note_on_c, 1, 59, 100
4, 22560, Note_on_c, 1, 56, 100
4, 22800, Note_off_c, 1, 59, 0
4, 22800, Note_off_c, 1, 56, 0
4, 22800, Note_on_c, 1, 51, 100
4, 23040, Note_off_c, 1, 51, 0
4, 23040, Note_on_c, 1, 44, 100
4, 23280, Note_off_c, 1, 44, 0
4, 23280, Note_on_c, 1, 51, 100
4, 23520, Note_off_c, 1, 51, 0
4, 23520, Note_on_c, 1, 59, 100
4, 23520, Note_on_c, 1, 56, 100
4, 23760, Note_off_c, 1, 59, 0
4, 23760, Note_off_c, 1, 56, 0
4, 23760, Note_on_c, 1, 51, 100
4, 24000, Note_off_c, 1, 51, 0
4, 24000, Note_on_c, 1, 44, 100
4, 24240, Note_off_c, 1, 44, 0
4, 24240, Note_on_c, 1, 51, 100
4, 24480, Note_off_c, 1, 51, 0
4, 24480, Note_on_c, 1, 59, 100
4, 24480, Note_on_c, 1, 56, 100
4, 24720, Note_off_c, 1, 59, 0
4, 24720, Note_off_c, 1, 56, 0
4, 24720, Note_on_c, 1, 51, 100
4, 24960, Note_off_c, 1, 51, 0
4, 24960, Note_on_c, 1, 40, 100
4, 25200, Note_off_c, 1, 40, 0
4, 25200, Note_on_c, 1, 47, 100
4, 25440, Note_off_c, 1, 47, 0
4, 25440, Note_on_c, 1, 56, 100
4, 25440, Note_on_c, 1, 52, 100
4, 25680, Note_off_c, 1, 56, 0
4, 25680, Note_off_c, 1, 52, 0
4, 25680, Note_on_c, 1, 47, 100
4, 25920, Note_off_c, 1, 47, 0
4, 25920, Note_on_c, 1, 40, 100
4, 26160, Note_off_c, 1, 40, 0
4, 26160, Note_on_c, 1, 47, 100
4, 26400, Note_off_c, 1, 47, 0
4, 26400, Note_on_c, 1, 56, 100
4, 26400, Note_on_c, 1, 52, 100
4, 26640, Note_off_c, 1, 56, 0
4, 26640, Note_off_c, 1, 52, 0
4, 26640, Note_on_c, 1, 47, 100
4, 26880, Note_off_c, 1, 47, 0
4, 26880, Note_on_c, 1, 40, 100
4, 27120, Note_off_c, 1, 40, 0
4, 27120, Note_on_c, 1, 47, 100
4, 27360, Note_off_c, 1, 47, 0
4, 27360, Note_on_c, 1, 56, 100
4, 27360, Note_on_c, 1, 52, 100
4, 27600, Note_off_c, 1, 56, 0
4, 27600, Note_off_c, 1, 52, 0
4, 27600, Note_on_c, 1, 47, 100
4, 27840, Note_off_c, 1, 47, 0
4, 27840, Note_on_c, 1, 42, 100
4, 28080, Note_off_c, 1, 42, 0
4, 28080, Note_on_c, 1, 49, 100
4, 28320, Note_off_c, 1, 49, 0
4, 28320, Note_on_c, 1, 58, 100
4, 28320, Note_on_c, 1, 54, 100
4, 28560, Note_off_c, 1, 58, 0
4, 28560, Note_off_c, 1, 54, 0
4, 28560, Note_on_c, 1, 44, 100
4, 29040, Note_off_c, 1, 44, 0
4, 29040, Note_on_c, 1, 51, 100
4, 29280, Note_off_c, 1, 51, 0
4, 29280, Note_on_c, 1, 59, 100
4, 29280, Note_on_c, 1, 56, 100
4, 29520, Note_off_c, 1, 59, 0
4, 29520, Note_off_c, 1, 56, 0
4, 29520, Note_on_c, 1, 51, 100
4, 29760, Note_off_c, 1, 51, 0
4, 29760, Note_on_c, 1, 44, 100
4, 30000, Note_off_c, 1, 44, 0
4, 30000, Note_on_c, 1, 51, 100
4, 30240, Note_off_c, 1, 51, 0
4, 30240, Note_on_c, 1, 59, 100
4, 30240, Note_on_c, 1, 56, 100
4, 30480, Note_off_c, 1, 59, 0
4, 30480, Note_off_c, 1, 56, 0
4, 30480, Note_on_c, 1, 51, 100
4, 30720, Note_off_c, 1, 51, 0
4, 30720, Note_on_c, 1, 44, 100
4, 30960, Note_off_c, 1, 44, 0
4, 30960, Note_on_c, 1, 51, 100
4, 31200, Note_off_c, 1, 51, 0
4, 31200, Note_on_c, 1, 59, 100
4, 31200, Note_on_c, 1, 56, 100
4, 31440, Note_off_c, 1, 59, 0
4, 31440, Note_off_c, 1, 56, 0
4, 31440, Note_on_c, 1, 51, 100
4, 31680, Note_off_c, 1, 51, 0
4, 31680, Note_on_c, 1, 44, 100
4, 31920, Note_off_c, 1, 44, 0
4, 31920, Note_on_c, 1, 51, 100
4, 32160, Note_off_c, 1, 51, 0
4, 32160, Note_on_c, 1, 59, 100
4, 32160, Note_on_c, 1, 56, 100
4, 32400, Note_off_c, 1, 59, 0
4, 32400, Note_off_c, 1, 56, 0
4, 32400, Note_on_c, 1, 51, 100
4, 32640, Note_off_c, 1, 51, 0
4, 32640, Note_on_c, 1, 40, 100
4, 32880, Note_off_c, 1, 40, 0
4, 32880, Note_on_c, 1, 47, 100
4, 33120, Note_off_c, 1, 47, 0
4, 33120, Note_on_c, 1, 56, 100
4, 33120, Note_on_c, 1, 52, 100
4, 33360, Note_off_c, 1, 56, 0
4, 33360, Note_off_c, 1, 52, 0
4, 33360, Note_on_c, 1, 47, 100
4, 33600, Note_off_c, 1, 47, 0
4, 33600, Note_on_c, 1, 40, 100
4, 33840, Note_off_c, 1, 40, 0
4, 33840, Note_on_c, 1, 47, 100
4, 34080, Note_off_c, 1, 47, 0
4, 34080, Note_on_c, 1, 56, 100
4, 34080, Note_on_c, 1, 52, 100
4, 34320, Note_off_c, 1, 56, 0
4, 34320, Note_off_c, 1, 52, 0
4, 34320, Note_on_c, 1, 47, 100
4, 34560, Note_off_c, 1, 47, 0
4, 34560, Note_on_c, 1, 40, 100
4, 34800, Note_off_c, 1, 40, 0
4, 34800, Note_on_c, 1, 47, 100
4, 35040, Note_off_c, 1, 47, 0
4, 35040, Note_on_c, 1, 56, 100
4, 35040, Note_on_c, 1, 52, 100
4, 35280, Note_off_c, 1, 56, 0
4, 35280, Note_off_c, 1, 52, 0
4, 35280, Note_on_c, 1, 47, 100
4, 35520, Note_off_c, 1, 47, 0
4, 35520, Note_on_c, 1, 42, 100
4, 35760, Note_off_c, 1, 42, 0
4, 35760, Note_on_c, 1, 49, 100
4, 36000, Note_off_c, 1, 49, 0
4, 36000, Note_on_c, 1, 58, 100
4, 36000, Note_on_c, 1, 54, 100
4, 36240, Note_off_c, 1, 58, 0
4, 36240, Note_off_c, 1, 54, 0
4, 36240, Note_on_c, 1, 44, 100
4, 36720, Note_off_c, 1, 44, 0
4, 36720, Note_on_c, 1, 51, 100
4, 36960, Note_off_c, 1, 51, 0
4, 36960, Note_on_c, 1, 59, 100
4, 36960, Note_on_c, 1, 56, 100
4, 37200, Note_off_c, 1, 59, 0
4, 37200, Note_off_c, 1, 56, 0
4, 37200, Note_on_c, 1, 51, 100
4, 37440, Note_off_c, 1, 51, 0
4, 37440, Note_on_c, 1, 44, 100
4, 37680, Note_off_c, 1, 44, 0
4, 37680, Note_on_c, 1, 51, 100
4, 37920, Note_off_c, 1, 51, 0
4, 37920, Note_on_c, 1, 59, 100
4, 37920, Note_on_c, 1, 56, 100
4, 38160, Note_off_c, 1, 59, 0
4, 38160, Note_off_c, 1, 56, 0
4, 38160, Note_on_c, 1, 51, 100
4, 38400, Note_off_c, 1, 51, 0
4, 38400, Note_on_c, 1, 44, 100
4, 38640, Note_off_c, 1, 44, 0
4, 38640, Note_on_c, 1, 51, 100
4, 38880, Note_off_c, 1, 51, 0
4, 38880, Note_on_c, 1, 59, 100
4, 38880, Note_on_c, 1, 56, 100
4, 39120, Note_off_c, 1, 59, 0
4, 39120, Note_off_c, 1, 56, 0
4, 39120, Note_on_c, 1, 51, 100
4, 39360, Note_off_c, 1, 51, 0
4, 39360, Note_on_c, 1, 44, 100
4, 39600, Note_off_c, 1, 44, 0
4, 39600, Note_on_c, 1, 51, 100
4, 39840, Note_off_c, 1, 51, 0
4, 39840, Note_on_c, 1, 59, 100
4, 39840, Note_on_c, 1, 56, 100
4, 40080, Note_off_c, 1, 59, 0
4, 40080, Note_off_c, 1, 56, 0
4, 40080, Note_on_c, 1, 51, 100
4, 40320, Note_off_c, 1, 51, 0
4, 40320, Note_on_c, 1, 40, 100
4, 40560, Note_off_c, 1, 40, 0
4, 40560, Note_on_c, 1, 47, 100
4, 40800, Note_off_c, 1, 47, 0
4, 40800, Note_on_c, 1, 52, 100
4, 41280, Note_off_c, 1, 52, 0
4, 41280, Note_on_c, 1, 42, 100
4, 41520, Note_off_c, 1, 42, 0
4, 41520, Note_on_c, 1, 49, 100
4, 41760, Note_off_c, 1, 49, 0
4, 41760, Note_on_c, 1, 54, 100
4, 42240, Note_off_c, 1, 54, 0
4, 42240, Note_on_c, 1, 39, 100
4, 42480, Note_off_c, 1, 39, 0
4, 42480, Note_on_c, 1, 46, 100
4, 42720, Note_off_c, 1, 46, 0
4, 42720, Note_on_c, 1, 51, 100
4, 43200, Note_off_c, 1, 51, 0
4, 43200, Note_on_c, 1, 40, 100
4, 43440, Note_off_c, 1, 40, 0
4, 43440, Note_on_c, 1, 47, 100
4, 43680, Note_off_c, 1, 47, 0
4, 43680, Note_on_c, 1, 52, 100
4, 43920, Note_off_c, 1, 52, 0
4, 43920, Note_on_c, 1, 47, 100
4, 44160, Note_off_c, 1, 47, 0
4, 44160, Note_on_c, 1, 35, 100
4, 44400, Note_off_c, 1, 35, 0
4, 44400, Note_on_c, 1, 42, 100
4, 44640, Note_off_c, 1, 42, 0
4, 44640, Note_on_c, 1, 47, 100
4, 45120, Note_off_c, 1, 47, 0
4, 45120, Note_on_c, 1, 37, 100
4, 45360, Note_off_c, 1, 37, 0
4, 45360, Note_on_c, 1, 44, 100
4, 45600, Note_off_c, 1, 44, 0
4, 45600, Note_on_c, 1, 49, 100
4, 46080, Note_off_c, 1, 49, 0
4, 46080, Note_on_c, 1, 39, 100
4, 46320, Note_off_c, 1, 39, 0
4, 46320, Note_on_c, 1, 46, 100
4, 46560, Note_off_c, 1, 46, 0
4, 46560, Note_on_c, 1, 51, 100
4, 46800, Note_off_c, 1, 51, 0
4, 46800, Note_on_c, 1, 46, 100
4, 47040, Note_off_c, 1, 46, 0
4, 47040, Note_on_c, 1, 39, 100
4, 47280, Note_off_c, 1, 39, 0
4, 47280, Note_on_c, 1, 46, 100
4, 47520, Note_off_c, 1, 46, 0
4, 47520, Note_on_c, 1, 51, 100
4, 47520, Note_on_c, 1, 46, 100
4, 48000, Note_off_c, 1, 51, 0
4, 48000, Note_off_c, 1, 46, 0
4, 48000, Note_on_c, 1, 35, 100
4, 48240, Note_off_c, 1, 35, 0
4, 48240, Note_on_c, 1, 42, 100
4, 48480, Note_off_c, 1, 42, 0
4, 48480, Note_on_c, 1, 47, 100
4, 48720, Note_off_c, 1, 47, 0
4, 48720, Note_on_c, 1, 42, 100
4, 48960, Note_off_c, 1, 42, 0
4, 48960, Note_on_c, 1, 37, 100
4, 49200, Note_off_c, 1, 37, 0
4, 49200, Note_on_c, 1, 44, 100
4, 49440, Note_off_c, 1, 44, 0
4, 49440, Note_on_c, 1, 49, 100
4, 49680, Note_off_c, 1, 49, 0
4, 49680, Note_on_c, 1, 44, 100
4, 49920, Note_off_c, 1, 44, 0
4, 49920, Note_on_c, 1, 38, 100
4, 50160, Note_off_c, 1, 38, 0
4, 50160, Note_on_c, 1, 44, 100
4, 50400, Note_off_c, 1, 44, 0
4, 50400, Note_on_c, 1, 49, 100
4, 50640, Note_off_c, 1, 49, 0
4, 50640, Note_on_c, 1, 44, 100
4, 50880, Note_off_c, 1, 44, 0
4, 50880, Note_on_c, 1, 39, 100
4, 51120, Note_off_c, 1, 39, 0
4, 51120, Note_on_c, 1, 46, 100
4, 51360, Note_off_c, 1, 46, 0
4, 51360, Note_on_c, 1, 51, 100
4, 51600, Note_off_c, 1, 51, 0
4, 51600, Note_on_c, 1, 46, 100
4, 51840, Note_off_c, 1, 46, 0
4, 51840, Note_on_c, 1, 35, 100
4, 52080, Note_off_c, 1, 35, 0
4, 52080, Note_on_c, 1, 42, 100
4, 52320, Note_off_c, 1, 42, 0
4, 52320, Note_on_c, 1, 47, 100
4, 52560, Note_off_c, 1, 47, 0
4, 52560, Note_on_c, 1, 42, 100
4, 52800, Note_off_c, 1, 42, 0
4, 52800, Note_on_c, 1, 37, 100
4, 53040, Note_off_c, 1, 37, 0
4, 53040, Note_on_c, 1, 44, 100
4, 53280, Note_off_c, 1, 44, 0
4, 53280, Note_on_c, 1, 49, 100
4, 53520, Note_off_c, 1, 49, 0
4, 53520, Note_on_c, 1, 44, 100
4, 53760, Note_off_c, 1, 44, 0
4, 53760, Note_on_c, 1, 38, 100
4, 54000, Note_off_c, 1, 38, 0
4, 54000, Note_on_c, 1, 44, 100
4, 54240, Note_off_c, 1, 44, 0
4, 54240, Note_on_c, 1, 49, 100
4, 54480, Note_off_c, 1, 49, 0
4, 54480, Note_on_c, 1, 44, 100
4, 54720, Note_off_c, 1, 44, 0
4, 54720, Note_on_c, 1, 42, 100
4, 54960, Note_off_c, 1, 42, 0
4, 54960, Note_on_c, 1, 49, 100
4, 55200, Note_off_c, 1, 49, 0
4, 55200, Note_on_c, 1, 46, 100
4, 55440, Note_off_c, 1, 46, 0
4, 55440, Note_on_c, 1, 54, 100
4, 55680, Note_off_c, 1, 54, 0
4, 55680, Note_on_c, 1, 40, 100
4, 55920, Note_off_c, 1, 40, 0
4, 55920, Note_on_c, 1, 52, 100
4, 55920, Note_on_c, 1, 47, 100
4, 56040, Note_off_c, 1, 52, 0
4, 56040, Note_off_c, 1, 47, 0
4, 56160, Note_on_c, 1, 40, 100
4, 56400, Note_off_c, 1, 40, 0
4, 56400, Note_on_c, 1, 52, 100
4, 56400, Note_on_c, 1, 47, 100
4, 56520, Note_off_c, 1, 52, 0
4, 56520, Note_off_c, 1, 47, 0
4, 56640, Note_on_c, 1, 40, 100
4, 56880, Note_off_c, 1, 40, 0
4, 56880, Note_on_c, 1, 52, 100
4, 56880, Note_on_c, 1, 47, 100
4, 57000, Note_off_c, 1, 52, 0
4, 57000, Note_off_c, 1, 47, 0
4, 57120, Note_on_c, 1, 40, 100
4, 57360, Note_off_c, 1, 40, 0
4, 57360, Note_on_c, 1, 52, 100
4, 57360, Note_on_c, 1, 47, 100
4, 57480, Note_off_c, 1, 52, 0
4, 57480, Note_off_c, 1, 47, 0
4, 57600, Note_on_c, 1, 42, 100
4, 57840, Note_off_c, 1, 42, 0
4, 57840, Note_on_c, 1, 54, 100
4, 57840, Note_on_c, 1, 49, 100
4, 57960, Note_off_c, 1, 54, 0
4, 57960, Note_off_c, 1, 49, 0
4, 58080, Note_on_c, 1, 42, 100
4, 58320, Note_off_c, 1, 42, 0
4, 58320, Note_on_c, 1, 54, 100
4, 58320, Note_on_c, 1, 49, 100
4, 58440, Note_off_c, 1, 54, 0
4, 58440, Note_off_c, 1, 49, 0
4, 58560, Note_on_c, 1, 42, 100
4, 58800, Note_off_c, 1, 42, 0
4, 58800, Note_on_c, 1, 54, 100
4, 58800, Note_on_c, 1, 49, 100
4, 58920, Note_off_c, 1, 54, 0
4, 58920, Note_off_c, 1, 49, 0
4, 59040, Note_on_c, 1, 42, 100
4, 59280, Note_off_c, 1, 42, 0
4, 59280, Note_on_c, 1, 54, 100
4, 59280, Note_on_c, 1, 49, 100
4, 59400, Note_off_c, 1, 54, 0
4, 59400, Note_off_c, 1, 49, 0
4, 59520, Note_on_c, 1, 44, 100
4, 59760, Note_off_c, 1, 44, 0
4, 59760, Note_on_c, 1, 56, 100
4, 59760, Note_on_c, 1, 51, 100
4, 59880, Note_off_c, 1, 56, 0
4, 59880, Note_off_c, 1, 51, 0
4, 60000, Note_on_c, 1, 44, 100
4, 60240, Note_off_c, 1, 44, 0
4, 60240, Note_on_c, 1, 56, 100
4, 60240, Note_on_c, 1, 51, 100
4, 60360, Note_off_c, 1, 56, 0
4, 60360, Note_off_c, 1, 51, 0
4, 60480, Note_on_c, 1, 44, 100
4, 60720, Note_off_c, 1, 44, 0
4, 60720, Note_on_c, 1, 56, 100
4, 60720, Note_on_c, 1, 51, 100
4, 60840, Note_off_c, 1, 56, 0
4, 60840, Note_off_c, 1, 51, 0
4, 60960, Note_on_c, 1, 44, 100
4, 61200, Note_off_c, 1, 44, 0
4, 61200, Note_on_c, 1, 56, 100
4, 61200, Note_on_c, 1, 51, 100
4, 61320, Note_off_c, 1, 56, 0
4, 61320, Note_off_c, 1, 51, 0
4, 61440, Note_on_c, 1, 44, 100
4, 61680, Note_off_c, 1, 44, 0
4, 61680, Note_on_c, 1, 56, 100
4, 61680, Note_on_c, 1, 51, 100
4, 61800, Note_off_c, 1, 56, 0
4, 61800, Note_off_c, 1, 51, 0
4, 61920, Note_on_c, 1, 44, 100
4, 62160, Note_off_c, 1, 44, 0
4, 62160, Note_on_c, 1, 56, 100
4, 62160, Note_on_c, 1, 51, 100
4, 62280, Note_off_c, 1, 56, 0
4, 62280, Note_off_c, 1, 51, 0
4, 62400, Note_on_c, 1, 44, 100
4, 62640, Note_off_c, 1, 44, 0
4, 62640, Note_on_c, 1, 56, 100
4, 62640, Note_on_c, 1, 51, 100
4, 62760, Note_off_c, 1, 56, 0
4, 62760, Note_off_c, 1, 51, 0
4, 62880, Note_on_c, 1, 44, 100
4, 63120, Note_off_c, 1, 44, 0
4, 63120, Note_on_c, 1, 56, 100
4, 63120, Note_on_c, 1, 51, 100
4, 63240, Note_off_c, 1, 56, 0
4, 63240, Note_off_c, 1, 51, 0
4, 63360, Note_on_c, 1, 40, 100
4, 63600, Note_off_c, 1, 40, 0
4, 63600, Note_on_c, 1, 52, 100
4, 63600, Note_on_c, 1, 47, 100
4, 63720, Note_off_c, 1, 52, 0
4, 63720, Note_off_c, 1, 47, 0
4, 63840, Note_on_c, 1, 40, 100
4, 64080, Note_off_c, 1, 40, 0
4, 64080, Note_on_c, 1, 52, 100
4, 64080, Note_on_c, 1, 47, 100
4, 64200, Note_off_c, 1, 52, 0
4, 64200, Note_off_c, 1, 47, 0
4, 64320, Note_on_c, 1, 40, 100
4, 64560, Note_off_c, 1, 40, 0
4, 64560, Note_on_c, 1, 52, 100
4, 64560, Note_on_c, 1, 47, 100
4, 64680, Note_off_c, 1, 52, 0
4, 64680, Note_off_c, 1, 47, 0
4, 64800, Note_on_c, 1, 40, 100
4, 65040, Note_off_c, 1, 40, 0
4, 65040, Note_on_c, 1, 52, 100
4, 65040, Note_on_c, 1, 47, 100
4, 65160, Note_off_c, 1, 52, 0
4, 65160, Note_off_c, 1, 47, 0
4, 65280, Note_on_c, 1, 42, 100
4, 65520, Note_off_c, 1, 42, 0
4, 65520, Note_on_c, 1, 54, 100
4, 65520, Note_on_c, 1, 49, 100
4, 65640, Note_off_c, 1, 54, 0
4, 65640, Note_off_c, 1, 49, 0
4, 65760, Note_on_c, 1, 42, 100
4, 66000, Note_off_c, 1, 42, 0
4, 66000, Note_on_c, 1, 54, 100
4, 66000, Note_on_c, 1, 49, 100
4, 66120, Note_off_c, 1, 54, 0
4, 66120, Note_off_c, 1, 49, 0
4, 66240, Note_on_c, 1, 42, 100
4, 66480, Note_off_c, 1, 42, 0
4, 66480, Note_on_c, 1, 54, 100
4, 66480, Note_on_c, 1, 49, 100
4, 66600, Note_off_c, 1, 54, 0
4, 66600, Note_off_c, 1, 49, 0
4, 66720, Note_on_c, 1, 42, 100
4, 66960, Note_off_c, 1, 42, 0
4, 66960, Note_on_c, 1, 54, 100
4, 66960, Note_on_c, 1, 49, 100
4, 67080, Note_off_c, 1, 54, 0
4, 67080, Note_off_c, 1, 49, 0
4, 67200, Note_on_c, 1, 44, 100
4, 67440, Note_off_c, 1, 44, 0
4, 67440, Note_on_c, 1, 56, 100
4, 67440, Note_on_c, 1, 51, 100
4, 67560, Note_off_c, 1, 56, 0
4, 67560, Note_off_c, 1, 51, 0
4, 67680, Note_on_c, 1, 44, 100
4, 67920, Note_off_c, 1, 44, 0
4, 67920, Note_on_c, 1, 56, 100
4, 67920, Note_on_c, 1, 51, 100
4, 68040, Note_off_c, 1, 56, 0
4, 68040, Note_off_c, 1, 51, 0
4, 68160, Note_on_c, 1, 44, 100
4, 68400, Note_off_c, 1, 44, 0
4, 68400, Note_on_c, 1, 56, 100
4, 68400, Note_on_c, 1, 51, 100
4, 68520, Note_off_c, 1, 56, 0
4, 68520, Note_off_c, 1, 51, 0
4, 68640, Note_on_c, 1, 44, 100
4, 68880, Note_off_c, 1, 44, 0
4, 68880, Note_on_c, 1, 56, 100
4, 68880, Note_on_c, 1, 51, 100
4, 69000, Note_off_c, 1, 56, 0
4, 69000, Note_off_c, 1, 51, 0
4, 69120, Note_on_c, 1, 44, 100
4, 69360, Note_off_c, 1, 44, 0
4, 69360, Note_on_c, 1, 56, 100
4, 69360, Note_on_c, 1, 51, 100
4, 69480, Note_off_c, 1, 56, 0
4, 69480, Note_off_c, 1, 51, 0
4, 69600, Note_on_c, 1, 44, 100
4, 69840, Note_off_c, 1, 44, 0
4, 69840, Note_on_c, 1, 56, 100
4, 69840, Note_on_c, 1, 51, 100
4, 69960, Note_off_c, 1, 56, 0
4, 69960, Note_off_c, 1, 51, 0
4, 70080, Note_on_c, 1, 44, 100
4, 70320, Note_off_c, 1, 44, 0
4, 70320, Note_on_c, 1, 56, 100
4, 70320, Note_on_c, 1, 51, 100
4, 70440, Note_off_c, 1, 56, 0
4, 70440, Note_off_c, 1, 51, 0
4, 70560, Note_on_c, 1, 44, 100
4, 70800, Note_off_c, 1, 44, 0
4, 70800, Note_on_c, 1, 56, 100
4, 70800, Note_on_c, 1, 51, 100
4, 70920, Note_off_c, 1, 56, 0
4, 70920, Note_off_c, 1, 51, 0
4, 71040, Note_on_c, 1, 40, 100
4, 71280, Note_off_c, 1, 40, 0
4, 71280, Note_on_c, 1, 52, 100
4, 71280, Note_on_c, 1, 47, 100
4, 71400, Note_off_c, 1, 52, 0
4, 71400, Note_off_c, 1, 47, 0
4, 71520, Note_on_c, 1, 40, 100
4, 71760, Note_off_c, 1, 40, 0
4, 71760, Note_on_c, 1, 52, 100
4, 71760, Note_on_c, 1, 47, 100
4, 71880, Note_off_c, 1, 52, 0
4, 71880, Note_off_c, 1, 47, 0
4, 72000, Note_on_c, 1, 40, 100
4, 72240, Note_off_c, 1, 40, 0
4, 72240, Note_on_c, 1, 52, 100
4, 72240, Note_on_c, 1, 47, 100
4, 72360, Note_off_c, 1, 52, 0
4, 72360, Note_off_c, 1, 47, 0
4, 72480, Note_on_c, 1, 40, 100
4, 72720, Note_off_c, 1, 40, 0
4, 72720, Note_on_c, 1, 52, 100
4, 72720, Note_on_c, 1, 47, 100
4, 72840, Note_off_c, 1, 52, 0
4, 72840, Note_off_c, 1, 47, 0
4, 72960, Note_on_c, 1, 42, 100
4, 73200, Note_off_c, 1, 42, 0
4, 73200, Note_on_c, 1, 54, 100
4, 73200, Note_on_c, 1, 49, 100
4, 73320, Note_off_c, 1, 54, 0
4, 73320, Note_off_c, 1, 49, 0
4, 73440, Note_on_c, 1, 42, 100
4, 73680, Note_off_c, 1, 42, 0
4, 73680, Note_on_c, 1, 54, 100
4, 73680, Note_on_c, 1, 49, 100
4, 73800, Note_off_c, 1, 54, 0
4, 73800, Note_off_c, 1, 49, 0
4, 73920, Note_on_c, 1, 42, 100
4, 74160, Note_off_c, 1, 42, 0
4, 74160, Note_on_c, 1, 54, 100
4, 74160, Note_on_c, 1, 49, 100
4, 74280, Note_off_c, 1, 54, 0
4, 74280, Note_off_c, 1, 49, 0
4, 74400, Note_on_c, 1, 42, 100
4, 74640, Note_off_c, 1, 42, 0
4, 74640, Note_on_c, 1, 54, 100
4, 74640, Note_on_c, 1, 49, 100
4, 74760, Note_off_c, 1, 54, 0
4, 74760, Note_off_c, 1, 49, 0
4, 74880, Note_on_c, 1, 44, 100
4, 75120, Note_off_c, 1, 44, 0
4, 75120, Note_on_c, 1, 56, 100
4, 75120, Note_on_c, 1, 51, 100
4, 75240, Note_off_c, 1, 56, 0
4, 75240, Note_off_c, 1, 51, 0
4, 75360, Note_on_c, 1, 44, 100
4, 75600, Note_off_c, 1, 44, 0
4, 75600, Note_on_c, 1, 56, 100
4, 75600, Note_on_c, 1, 51, 100
4, 75720, Note_off_c, 1, 56, 0
4, 75720, Note_off_c, 1, 51, 0
4, 75840, Note_on_c, 1, 44, 100
4, 76080, Note_off_c, 1, 44, 0
4, 76080, Note_on_c, 1, 56, 100
4, 76080, Note_on_c, 1, 51, 100
4, 76200, Note_off_c, 1, 56, 0
4, 76200, Note_off_c, 1, 51, 0
4, 76320, Note_on_c, 1, 44, 100
4, 76560, Note_off_c, 1, 44, 0
4, 76560, Note_on_c, 1, 56, 100
4, 76560, Note_on_c, 1, 51, 100
4, 76680, Note_off_c, 1, 56, 0
4, 76680, Note_off_c, 1, 51, 0
4, 76800, Note_on_c, 1, 44, 100
4, 77040, Note_off_c, 1, 44, 0
4, 77040, Note_on_c, 1, 56, 100
4, 77040, Note_on_c, 1, 51, 100
4, 77160, Note_off_c, 1, 56, 0
4, 77160, Note_off_c, 1, 51, 0
4, 77280, Note_on_c, 1, 44, 100
4, 77520, Note_off_c, 1, 44, 0
4, 77520, Note_on_c, 1, 56, 100
4, 77520, Note_on_c, 1, 51, 100
4, 77640, Note_off_c, 1, 56, 0
4, 77640, Note_off_c, 1, 51, 0
4, 77760, Note_on_c, 1, 44, 100
4, 78000, Note_off_c, 1, 44, 0
4, 78000, Note_on_c, 1, 56, 100
4, 78000, Note_on_c, 1, 51, 100
4, 78120, Note_off_c, 1, 56, 0
4, 78120, Note_off_c, 1, 51, 0
4, 78240, Note_on_c, 1, 44, 100
4, 78480, Note_off_c, 1, 44, 0
4, 78480, Note_on_c, 1, 56, 100
4, 78480, Note_on_c, 1, 51, 100
4, 78600, Note_off_c, 1, 56, 0
4, 78600, Note_off_c, 1, 51, 0
4, 78720, Note_on_c, 1, 40, 100
4, 78960, Note_off_c, 1, 40, 0
4, 78960, Note_on_c, 1, 52, 100
4, 78960, Note_on_c, 1, 47, 100
4, 79080, Note_off_c, 1, 52, 0
4, 79080, Note_off_c, 1, 47, 0
4, 79200, Note_on_c, 1, 40, 100
4, 79440, Note_off_c, 1, 40, 0
4, 79440, Note_on_c, 1, 52, 100
4, 79440, Note_on_c, 1, 47, 100
4, 79560, Note_off_c, 1, 52, 0
4, 79560, Note_off_c, 1, 47, 0
4, 79680, Note_on_c, 1, 40, 100
4, 79920, Note_off_c, 1, 40, 0
4, 79920, Note_on_c, 1, 52, 100
4, 79920, Note_on_c, 1, 47, 100
4, 80040, Note_off_c, 1, 52, 0
4, 80040, Note_off_c, 1, 47, 0
4, 80160, Note_on_c, 1, 40, 100
4, 80400, Note_off_c, 1, 40, 0
4, 80400, Note_on_c, 1, 52, 100
4, 80400, Note_on_c, 1, 47, 100
4, 80520, Note_off_c, 1, 52, 0
4, 80520, Note_off_c, 1, 47, 0
4, 80640, Note_on_c, 1, 42, 100
4, 80880, Note_off_c, 1, 42, 0
4, 80880, Note_on_c, 1, 54, 100
4, 80880, Note_on_c, 1, 49, 100
4, 81000, Note_off_c, 1, 54, 0
4, 81000, Note_off_c, 1, 49, 0
4, 81120, Note_on_c, 1, 42, 100
4, 81360, Note_off_c, 1, 42, 0
4, 81360, Note_on_c, 1, 54, 100
4, 81360, Note_on_c, 1, 49, 100
4, 81480, Note_off_c, 1, 54, 0
4, 81480, Note_off_c, 1, 49, 0
4, 81600, Note_on_c, 1, 42, 100
4, 81840, Note_off_c, 1, 42, 0
4, 81840, Note_on_c, 1, 54, 100
4, 81840, Note_on_c, 1, 49, 100
4, 81960, Note_off_c, 1, 54, 0
4, 81960, Note_off_c, 1, 49, 0
4, 82080, Note_on_c, 1, 42, 100
4, 82320, Note_off_c, 1, 42, 0
4, 82320, Note_on_c, 1, 54, 100
4, 82320, Note_on_c, 1, 49, 100
4, 82440, Note_off_c, 1, 54, 0
4, 82440, Note_off_c, 1, 49, 0
4, 82560, Note_on_c, 1, 44, 100
4, 82800, Note_off_c, 1, 44, 0
4, 82800, Note_on_c, 1, 56, 100
4, 82800, Note_on_c, 1, 51, 100
4, 82920, Note_off_c, 1, 56, 0
4, 82920, Note_off_c, 1, 51, 0
4, 83040, Note_on_c, 1, 44, 100
4, 83280, Note_off_c, 1, 44, 0
4, 83280, Note_on_c, 1, 56, 100
4, 83280, Note_on_c, 1, 51, 100
4, 83400, Note_off_c, 1, 56, 0
4, 83400, Note_off_c, 1, 51, 0
4, 83520, Note_on_c, 1, 44, 100
4, 83760, Note_off_c, 1, 44, 0
4, 83760, Note_on_c, 1, 56, 100
4, 83760, Note_on_c, 1, 51, 100
4, 83880, Note_off_c, 1, 56, 0
4, 83880, Note_off_c, 1, 51, 0
4, 84000, Note_on_c, 1, 44, 100
4, 84240, Note_off_c, 1, 44, 0
4, 84240, Note_on_c, 1, 56, 100
4, 84240, Note_on_c, 1, 51, 100
4, 84360, Note_off_c, 1, 56, 0
4, 84360, Note_off_c, 1, 51, 0
4, 84480, Note_on_c, 1, 44, 100
4, 84720, Note_off_c, 1, 44, 0
4, 84720, Note_on_c, 1, 56, 100
4, 84720, Note_on_c, 1, 51, 100
4, 84840, Note_off_c, 1, 56, 0
4, 84840, Note_off_c, 1, 51, 0
4, 84960, Note_on_c, 1, 44, 100
4, 85200, Note_off_c, 1, 44, 0
4, 85200, Note_on_c, 1, 56, 100
4, 85200, Note_on_c, 1, 51, 100
4, 85320, Note_off_c, 1, 56, 0
4, 85320, Note_off_c, 1, 51, 0
4, 85440, Note_on_c, 1, 44, 100
4, 85680, Note_off_c, 1, 44, 0
4, 85680, Note_on_c, 1, 56, 100
4, 85680, Note_on_c, 1, 51, 100
4, 85800, Note_off_c, 1, 56, 0
4, 85800, Note_off_c, 1, 51, 0
4, 85920, Note_on_c, 1, 44, 100
4, 86160, Note_off_c, 1, 44, 0
4, 86160, Note_on_c, 1, 56, 100
4, 86160, Note_on_c, 1, 51, 100
4, 86280, Note_off_c, 1, 56, 0
4, 86280, Note_off_c, 1, 51, 0
4, 86400, Note_on_c, 1, 56, 100
4, 86400, Note_on_c, 1, 44, 100
4, 88320, Note_off_c, 1, 56, 0
4, 88320, Note_off_c, 1, 44, 0
4, 88320, Note_on_c, 1, 52, 100
4, 88320, Note_on_c, 1, 40, 100
4, 89280, Note_off_c, 1, 52, 0
4, 89280, Note_off_c, 1, 40, 0
4, 89280, Note_on_c, 1, 54, 100
4, 89280, Note_on_c, 1, 42, 100
4, 90240, Note_off_c, 1, 54, 0
4, 90240, Note_off_c, 1, 42, 0
4, 90240, Note_on_c, 1, 51, 100
4, 90240, Note_on_c, 1, 39, 100
4, 91200, Note_off_c, 1, 51, 0
4, 91200, Note_off_c, 1, 39, 0
4, 91200, Note_on_c, 1, 47, 100
4, 91200, Note_on_c, 1, 35, 100
4, 92160, Note_off_c, 1, 47, 0
4, 92160, Note_off_c, 1, 35, 0
4, 92160, Note_on_c, 1, 51, 100
4, 92160, Note_on_c, 1, 39, 100
4, 93120, Note_off_c, 1, 51, 0
4, 93120, Note_off_c, 1, 39, 0
4, 93120, Note_on_c, 1, 55, 100
4, 93120, Note_on_c, 1, 43, 100
4, 94080, Note_off_c, 1, 55, 0
4, 94080, Note_off_c, 1, 43, 0
4, 94080, Note_on_c, 1, 40, 100
4, 94320, Note_off_c, 1, 40, 0
4, 94320, Note_on_c, 1, 47, 100
4, 94560, Note_off_c, 1, 47, 0
4, 94560, Note_on_c, 1, 56, 100
4, 94560, Note_on_c, 1, 52, 100
4, 94800, Note_off_c, 1, 56, 0
4, 94800, Note_off_c, 1, 52, 0
4, 94800, Note_on_c, 1, 47, 100
4, 95040, Note_off_c, 1, 47, 0
4, 95040, Note_on_c, 1, 40, 100
4, 95280, Note_off_c, 1, 40, 0
4, 95280, Note_on_c, 1, 47, 100
4, 95520, Note_off_c, 1, 47, 0
4, 95520, Note_on_c, 1, 56, 100
4, 95520, Note_on_c, 1, 52, 100
4, 95760, Note_off_c, 1, 56, 0
4, 95760, Note_off_c, 1, 52, 0
4, 95760, Note_on_c, 1, 47, 100
4, 96000, Note_off_c, 1, 47, 0
4, 96000, Note_on_c, 1, 40, 100
4, 96240, Note_off_c, 1, 40, 0
4, 96240, Note_on_c, 1, 47, 100
4, 96480, Note_off_c, 1, 47, 0
4, 96480, Note_on_c, 1, 56, 100
4, 96480, Note_on_c, 1, 52, 100
4, 96720, Note_off_c, 1, 56, 0
4, 96720, Note_off_c, 1, 52, 0
4, 96720, Note_on_c, 1, 47, 100
4, 96960, Note_off_c, 1, 47, 0
4, 96960, Note_on_c, 1, 42, 100
4, 97200, Note_off_c, 1, 42, 0
4, 97200, Note_on_c, 1, 49, 100
4, 97440, Note_off_c, 1, 49, 0
4, 97440, Note_on_c, 1, 58, 100
4, 97440, Note_on_c, 1, 54, 100
4, 97680, Note_off_c, 1, 58, 0
4, 97680, Note_off_c, 1, 54, 0
4, 97680, Note_on_c, 1, 49, 100
4, 97920, Note_off_c, 1, 49, 0
4, 97920, Note_on_c, 1, 44, 100
4, 98160, Note_off_c, 1, 44, 0
4, 98160, Note_on_c, 1, 51, 100
4, 98400, Note_off_c, 1, 51, 0
4, 98400, Note_on_c, 1, 59, 100
4, 98400, Note_on_c, 1, 56, 100
4, 98640, Note_off_c, 1, 59, 0
4, 98640, Note_off_c, 1, 56, 0
4, 98640, Note_on_c, 1, 51, 100
4, 98880, Note_off_c, 1, 51, 0
4, 98880, Note_on_c, 1, 44, 100
4, 99120, Note_off_c, 1, 44, 0
4, 99120, Note_on_c, 1, 51, 100
4, 99360, Note_off_c, 1, 51, 0
4, 99360, Note_on_c, 1, 59, 100
4, 99360, Note_on_c, 1, 56, 100
4, 99600, Note_off_c, 1, 59, 0
4, 99600, Note_off_c, 1, 56, 0
4, 99600, Note_on_c, 1, 51, 100
4, 99840, Note_off_c, 1, 51, 0
4, 99840, Note_on_c, 1, 44, 100
4, 100080, Note_off_c, 1, 44, 0
4, 100080, Note_on_c, 1, 51, 100
4, 100320, Note_off_c, 1, 51, 0
4, 100320, Note_on_c, 1, 59, 100
4, 100320, Note_on_c, 1, 56, 100
4, 100560, Note_off_c, 1, 59, 0
4, 100560, Note_off_c, 1, 56, 0
4, 100560, Note_on_c, 1, 51, 100
4, 100800, Note_off_c, 1, 51, 0
4, 100800, Note_on_c, 1, 44, 100
4, 101040, Note_off_c, 1, 44, 0
4, 101040, Note_on_c, 1, 51, 100
4, 101280, Note_off_c, 1, 51, 0
4, 101280, Note_on_c, 1, 59, 100
4, 101280, Note_on_c, 1, 56, 100
4, 101520, Note_off_c, 1, 59, 0
4, 101520, Note_off_c, 1, 56, 0
4, 101520, Note_on_c, 1, 51, 100
4, 101760, Note_off_c, 1, 51, 0
4, 101760, Note_on_c, 1, 40, 100
4, 102000, Note_off_c, 1, 40, 0
4, 102000, Note_on_c, 1, 47, 100
4, 102240, Note_off_c, 1, 47, 0
4, 102240, Note_on_c, 1, 56, 100
4, 102240, Note_on_c, 1, 52, 100
4, 102480, Note_off_c, 1, 56, 0
4, 102480, Note_off_c, 1, 52, 0
4, 102480, Note_on_c, 1, 47, 100
4, 102720, Note_off_c, 1, 47, 0
4, 102720, Note_on_c, 1, 40, 100
4, 102960, Note_off_c, 1, 40, 0
4, 102960, Note_on_c, 1, 47, 100
4, 103200, Note_off_c, 1, 47, 0
4, 103200, Note_on_c, 1, 56, 100
4, 103200, Note_on_c, 1, 52, 100
4, 103440, Note_off_c, 1, 56, 0
4, 103440, Note_off_c, 1, 52, 0
4, 103440, Note_on_c, 1, 47, 100
4, 103680, Note_off_c, 1, 47, 0
4, 103680, Note_on_c, 1, 40, 100
4, 103920, Note_off_c, 1, 40, 0
4, 103920, Note_on_c, 1, 47, 100
4, 104160, Note_off_c, 1, 47, 0
4, 104160, Note_on_c, 1, 56, 100
4, 104160, Note_on_c, 1, 52, 100
4, 104400, Note_off_c, 1, 56, 0
4, 104400, Note_off_c, 1, 52, 0
4, 104400, Note_on_c, 1, 47, 100
4, 104640, Note_off_c, 1, 47, 0
4, 104640, Note_on_c, 1, 42, 100
4, 104880, Note_off_c, 1, 42, 0
4, 104880, Note_on_c, 1, 49, 100
4, 105120, Note_off_c, 1, 49, 0
4, 105120, Note_on_c, 1, 58, 100
4, 105120, Note_on_c, 1, 54, 100
4, 105360, Note_off_c, 1, 58, 0
4, 105360, Note_off_c, 1, 54, 0
4, 105360, Note_on_c, 1, 49, 100
4, 105600, Note_off_c, 1, 49, 0
4, 105600, Note_on_c, 1, 44, 100
4, 105840, Note_off_c, 1, 44, 0
4, 105840, Note_on_c, 1, 51, 100
4, 106080, Note_off_c, 1, 51, 0
4, 106080, Note_on_c, 1, 59, 100
4, 106080, Note_on_c, 1, 56, 100
4, 106320, Note_off_c, 1, 59, 0
4, 106320, Note_off_c, 1, 56, 0
4, 106320, Note_on_c, 1, 51, 100
4, 106560, Note_off_c, 1, 51, 0
4, 106560, Note_on_c, 1, 44, 100
4, 106800, Note_off_c, 1, 44, 0
4, 106800, Note_on_c, 1, 51, 100
4, 107040, Note_off_c, 1, 51, 0
4, 107040, Note_on_c, 1, 59, 100
4, 107040, Note_on_c, 1, 56, 100
4, 107280, Note_off_c, 1, 59, 0
4, 107280, Note_off_c, 1, 56, 0
4, 107280, Note_on_c, 1, 51, 100
4, 107520, Note_off_c, 1, 51, 0
4, 107520, Note_on_c, 1, 44, 100
4, 107760, Note_off_c, 1, 44, 0
4, 107760, Note_on_c, 1, 51, 100
4, 108000, Note_off_c, 1, 51, 0
4, 108000, Note_on_c, 1, 59, 100
4, 108000, Note_on_c, 1, 56, 100
4, 108240, Note_off_c, 1, 59, 0
4, 108240, Note_off_c, 1, 56, 0
4, 108240, Note_on_c, 1, 51, 100
4, 108480, Note_off_c, 1, 51, 0
4, 108480, Note_on_c, 1, 44, 100
4, 108720, Note_off_c, 1, 44, 0
4, 108720, Note_on_c, 1, 51, 100
4, 108960, Note_off_c, 1, 51, 0
4, 108960, Note_on_c, 1, 59, 100
4, 108960, Note_on_c, 1, 56, 100
4, 109200, Note_off_c, 1, 59, 0
4, 109200, Note_off_c, 1, 56, 0
4, 109200, Note_on_c, 1, 51, 100
4, 109440, Note_off_c, 1, 51, 0
4, 109440, Note_on_c, 1, 40, 100
4, 109680, Note_off_c, 1, 40, 0
4, 109680, Note_on_c, 1, 47, 100
4, 109920, Note_off_c, 1, 47, 0
4, 109920, Note_on_c, 1, 52, 100
4, 110400, Note_off_c, 1, 52, 0
4, 110400, Note_on_c, 1, 42, 100
4, 110640, Note_off_c, 1, 42, 0
4, 110640, Note_on_c, 1, 49, 100
4, 110880, Note_off_c, 1, 49, 0
4, 110880, Note_on_c, 1, 54, 100
4, 111360, Note_off_c, 1, 54, 0
4, 111360, Note_on_c, 1, 39, 100
4, 111600, Note_off_c, 1, 39, 0
4, 111600, Note_on_c, 1, 46, 100
4, 111840, Note_off_c, 1, 46, 0
4, 111840, Note_on_c, 1, 51, 100
4, 112320, Note_off_c, 1, 51, 0
4, 112320, Note_on_c, 1, 40, 100
4, 112560, Note_off_c, 1, 40, 0
4, 112560, Note_on_c, 1, 47, 100
4, 112800, Note_off_c, 1, 47, 0
4, 112800, Note_on_c, 1, 52, 100
4, 113040, Note_off_c, 1, 52, 0
4, 113040, Note_on_c, 1, 47, 100
4, 113280, Note_off_c, 1, 47, 0
4, 113280, Note_on_c, 1, 35, 100
4, 113520, Note_off_c, 1, 35, 0
4, 113520, Note_on_c, 1, 42, 100
4, 113760, Note_off_c, 1, 42, 0
4, 113760, Note_on_c, 1, 47, 100
4, 114240, Note_off_c, 1, 47, 0
4, 114240, Note_on_c, 1, 37, 100
4, 114480, Note_off_c, 1, 37, 0
4, 114480, Note_on_c, 1, 44, 100
4, 114720, Note_off_c, 1, 44, 0
4, 114720, Note_on_c, 1, 49, 100
4, 115200, Note_off_c, 1, 49, 0
4, 115200, Note_on_c, 1, 39, 100
4, 115440, Note_off_c, 1, 39, 0
4, 115440, Note_on_c, 1, 46, 100
4, 115680, Note_off_c, 1, 46, 0
4, 115680, Note_on_c, 1, 51, 100
4, 115920, Note_off_c, 1, 51, 0
4, 115920, Note_on_c, 1, 46, 100
4, 116160, Note_off_c, 1, 46, 0
4, 116160, Note_on_c, 1, 39, 100
4, 116400, Note_off_c, 1, 39, 0
4, 116400, Note_on_c, 1, 46, 100
4, 116640, Note_off_c, 1, 46, 0
4, 116640, Note_on_c, 1, 51, 100
4, 116640, Note_on_c, 1, 46, 100
4, 117120, Note_off_c, 1, 51, 0
4, 117120, Note_off_c, 1, 46, 0
4, 117120, Note_on_c, 1, 35, 100
4, 117360, Note_off_c, 1, 35, 0
4, 117360, Note_on_c, 1, 42, 100
4, 117600, Note_off_c, 1, 42, 0
4, 117600, Note_on_c, 1, 47, 100
4, 117840, Note_off_c, 1, 47, 0
4, 117840, Note_on_c, 1, 42, 100
4, 118080, Note_off_c, 1, 42, 0
4, 118080, Note_on_c, 1, 37, 100
4, 118320, Note_off_c, 1, 37, 0
4, 118320, Note_on_c, 1, 44, 100
4, 118560, Note_off_c, 1, 44, 0
4, 118560, Note_on_c, 1, 49, 100
4, 118800, Note_off_c, 1, 49, 0
4, 118800, Note_on_c, 1, 44, 100
4, 119040, Note_off_c, 1, 44, 0
4, 119040, Note_on_c, 1, 38, 100
4, 119280, Note_off_c, 1, 38, 0
4, 119280, Note_on_c, 1, 44, 100
4, 119520, Note_off_c, 1, 44, 0
4, 119520, Note_on_c, 1, 49, 100
4, 119760, Note_off_c, 1, 49, 0
4, 119760, Note_on_c, 1, 44, 100
4, 120000, Note_off_c, 1, 44, 0
4, 120000, Note_on_c, 1, 39, 100
4, 120240, Note_off_c, 1, 39, 0
4, 120240, Note_on_c, 1, 46, 100
4, 120480, Note_off_c, 1, 46, 0
4, 120480, Note_on_c, 1, 51, 100
4, 120720, Note_off_c, 1, 51, 0
4, 120720, Note_on_c, 1, 46, 100
4, 120960, Note_off_c, 1, 46, 0
4, 120960, Note_on_c, 1, 35, 100
4, 121200, Note_off_c, 1, 35, 0
4, 121200, Note_on_c, 1, 42, 100
4, 121440, Note_off_c, 1, 42, 0
4, 121440, Note_on_c, 1, 47, 100
4, 121680, Note_off_c, 1, 47, 0
4, 121680, Note_on_c, 1, 42, 100
4, 121920, Note_off_c, 1, 42, 0
4, 121920, Note_on_c, 1, 37, 100
4, 122160, Note_off_c, 1, 37, 0
4, 122160, Note_on_c, 1, 44, 100
4, 122400, Note_off_c, 1, 44, 0
4, 122400, Note_on_c, 1, 49, 100
4, 122640, Note_off_c, 1, 49, 0
4, 122640, Note_on_c, 1, 44, 100
4, 122880, Note_off_c, 1, 44, 0
4, 122880, Note_on_c, 1, 38, 100
4, 123120, Note_off_c, 1, 38, 0
4, 123120, Note_on_c, 1, 44, 100
4, 123360, Note_off_c, 1, 44, 0
4, 123360, Note_on_c, 1, 49, 100
4, 123600, Note_off_c, 1, 49, 0
4, 123600, Note_on_c, 1, 44, 100
4, 123840, Note_off_c, 1, 44, 0
4, 123840, Note_on_c, 1, 42, 100
4, 124080, Note_off_c, 1, 42, 0
4, 124080, Note_on_c, 1, 49, 100
4, 124320, Note_off_c, 1, 49, 0
4, 124320, Note_on_c, 1, 46, 100
4, 124560, Note_off_c, 1, 46, 0
4, 124560, Note_on_c, 1, 54, 100
4, 124800, Note_off_c, 1, 54, 0
4, 124800, Note_on_c, 1, 40, 100
4, 125040, Note_off_c, 1, 40, 0
4, 125040, Note_on_c, 1, 52, 100
4, 125040, Note_on_c, 1, 47, 100
4, 125160, Note_off_c, 1, 52, 0
4, 125160, Note_off_c, 1, 47, 0
4, 125280, Note_on_c, 1, 40, 100
4, 125520, Note_off_c, 1, 40, 0
4, 125520, Note_on_c, 1, 52, 100
4, 125520, Note_on_c, 1, 47, 100
4, 125640, Note_off_c, 1, 52, 0
4, 125640, Note_off_c, 1, 47, 0
4, 125760, Note_on_c, 1, 40, 100
4, 126000, Note_off_c, 1, 40, 0
4, 126000, Note_on_c, 1, 52, 100
4, 126000, Note_on_c, 1, 47, 100
4, 126120, Note_off_c, 1, 52, 0
4, 126120, Note_off_c, 1, 47, 0
4, 126240, Note_on_c, 1, 40, 100
4, 126480, Note_off_c, 1, 40, 0
4, 126480, Note_on_c, 1, 52, 100
4, 126480, Note_on_c, 1, 47, 100
4, 126600, Note_off_c, 1, 52, 0
4, 126600, Note_off_c, 1, 47, 0
4, 126720, Note_on_c, 1, 42, 100
4, 126960, Note_off_c, 1, 42, 0
4, 126960, Note_on_c, 1, 54, 100
4, 126960, Note_on_c, 1, 49, 100
4, 127080, Note_off_c, 1, 54, 0
4, 127080, Note_off_c, 1, 49, 0
4, 127200, Note_on_c, 1, 42, 100
4, 127440, Note_off_c, 1, 42, 0
4, 127440, Note_on_c, 1, 54, 100
4, 127440, Note_on_c, 1, 49, 100
4, 127560, Note_off_c, 1, 54, 0
4, 127560, Note_off_c, 1, 49, 0
4, 127680, Note_on_c, 1, 42, 100
4, 127920, Note_off_c, 1, 42, 0
4, 127920, Note_on_c, 1, 54, 100
4, 127920, Note_on_c, 1, 49, 100
4, 128040, Note_off_c, 1, 54, 0
4, 128040, Note_off_c, 1, 49, 0
4, 128160, Note_on_c, 1, 42, 100
4, 128400, Note_off_c, 1, 42, 0
4, 128400, Note_on_c, 1, 54, 100
4, 128400, Note_on_c, 1, 49, 100
4, 128520, Note_off_c, 1, 54, 0
4, 128520, Note_off_c, 1, 49, 0
4, 128640, Note_on_c, 1, 44, 100
4, 128880, Note_off_c, 1, 44, 0
4, 128880, Note_on_c, 1, 56, 100
4, 128880, Note_on_c, 1, 51, 100
4, 129000, Note_off_c, 1, 56, 0
4, 129000, Note_off_c, 1, 51, 0
4, 129120, Note_on_c, 1, 44, 100
4, 129360, Note_off_c, 1, 44, 0
4, 129360, Note_on_c, 1, 56, 100
4, 129360, Note_on_c, 1, 51, 100
4, 129480, Note_off_c, 1, 56, 0
4, 129480, Note_off_c, 1, 51, 0
4, 129600, Note_on_c, 1, 44, 100
4, 129840, Note_off_c, 1, 44, 0
4, 129840, Note_on_c, 1, 56, 100
4, 129840, Note_on_c, 1, 51, 100
4, 129960, Note_off_c, 1, 56, 0
4, 129960, Note_off_c, 1, 51, 0
4, 130080, Note_on_c, 1, 44, 100
4, 130320, Note_off_c, 1, 44, 0
4, 130320, Note_on_c, 1, 56, 100
4, 130320, Note_on_c, 1, 51, 100
4, 130440, Note_off_c, 1, 56, 0
4, 130440, Note_off_c, 1, 51, 0
4, 130560, Note_on_c, 1, 44, 100
4, 130800, Note_off_c, 1, 44, 0
4, 130800, Note_on_c, 1, 56, 100
4, 130800, Note_on_c, 1, 51, 100
4, 130920, Note_off_c, 1, 56, 0
4, 130920, Note_off_c, 1, 51, 0
4, 131040, Note_on_c, 1, 44, 100
4, 131280, Note_off_c, 1, 44, 0
4, 131280, Note_on_c, 1, 56, 100
4, 131280, Note_on_c, 1, 51, 100
4, 131400, Note_off_c, 1, 56, 0
4, 131400, Note_off_c, 1, 51, 0
4, 131520, Note_on_c, 1, 44, 100
4, 131760, Note_off_c, 1, 44, 0
4, 131760, Note_on_c, 1, 56, 100
4, 131760, Note_on_c, 1, 51, 100
4, 131880, Note_off_c, 1, 56, 0
4, 131880, Note_off_c, 1, 51, 0
4, 132000, Note_on_c, 1, 44, 100
4, 132240, Note_off_c, 1, 44, 0
4, 132240, Note_on_c, 1, 56, 100
4, 132240, Note_on_c, 1, 51, 100
4, 132360, Note_off_c, 1, 56, 0
4, 132360, Note_off_c, 1, 51, 0
4, 132480, Note_on_c, 1, 40, 100
4, 132720, Note_off_c, 1, 40, 0
4, 132720, Note_on_c, 1, 52, 100
4, 132720, Note_on_c, 1, 47, 100
4, 132840, Note_off_c, 1, 52, 0
4, 132840, Note_off_c, 1, 47, 0
4, 132960, Note_on_c, 1, 40, 100
4, 133200, Note_off_c, 1, 40, 0
4, 133200, Note_on_c, 1, 52, 100
4, 133200, Note_on_c, 1, 47, 100
4, 133320, Note_off_c, 1, 52, 0
4, 133320, Note_off_c, 1, 47, 0
4, 133440, Note_on_c, 1, 40, 100
4, 133680, Note_off_c, 1, 40, 0
4, 133680, Note_on_c, 1, 52, 100
4, 133680, Note_on_c, 1, 47, 100
4, 133800, Note_off_c, 1, 52, 0
4, 133800, Note_off_c, 1, 47, 0
4, 133920, Note_on_c, 1, 40, 100
4, 134160, Note_off_c, 1, 40, 0
4, 134160, Note_on_c, 1, 52, 100
4, 134160, Note_on_c, 1, 47, 100
4, 134280, Note_off_c, 1, 52, 0
4, 134280, Note_off_c, 1, 47, 0
4, 134400, Note_on_c, 1, 42, 100
4, 134640, Note_off_c, 1, 42, 0
4, 134640, Note_on_c, 1, 54, 100
4, 134640, Note_on_c, 1, 49, 100
4, 134760, Note_off_c, 1, 54, 0
4, 134760, Note_off_c, 1, 49, 0
4, 134880, Note_on_c, 1, 42, 100
4, 135120, Note_off_c, 1, 42, 0
4, 135120, Note_on_c, 1, 54, 100
4, 135120, Note_on_c, 1, 49, 100
4, 135240, Note_off_c, 1, 54, 0
4, 135240, Note_off_c, 1, 49, 0
4, 135360, Note_on_c, 1, 42, 100
4, 135600, Note_off_c, 1, 42, 0
4, 135600, Note_on_c, 1, 54, 100
4, 135600, Note_on_c, 1, 49, 100
4, 135720, Note_off_c, 1, 54, 0
4, 135720, Note_off_c, 1, 49, 0
4, 135840, Note_on_c, 1, 42, 100
4, 136080, Note_off_c, 1, 42, 0
4, 136080, Note_on_c, 1, 54, 100
4, 136080, Note_on_c, 1, 49, 100
4, 136200, Note_off_c, 1, 54, 0
4, 136200, Note_off_c, 1, 49, 0
4, 136320, Note_on_c, 1, 44, 100
4, 136560, Note_off_c, 1, 44, 0
4, 136560, Note_on_c, 1, 56, 100
4, 136560, Note_on_c, 1, 51, 100
4, 136680, Note_off_c, 1, 56, 0
4, 136680, Note_off_c, 1, 51, 0
4, 136800, Note_on_c, 1, 44, 100
4, 137040, Note_off_c, 1, 44, 0
4, 137040, Note_on_c, 1, 56, 100
4, 137040, Note_on_c, 1, 51, 100
4, 137160, Note_off_c, 1, 56, 0
4, 137160, Note_off_c, 1, 51, 0
4, 137280, Note_on_c, 1, 44, 100
4, 137520, Note_off_c, 1, 44, 0
4, 137520, Note_on_c, 1, 56, 100
4, 137520, Note_on_c, 1, 51, 100
4, 137640, Note_off_c, 1, 56, 0
4, 137640, Note_off_c, 1, 51, 0
4, 137760, Note_on_c, 1, 44, 100
4, 138000, Note_off_c, 1, 44, 0
4, 138000, Note_on_c, 1, 56, 100
4, 138000, Note_on_c, 1, 51, 100
4, 138120, Note_off_c, 1, 56, 0
4, 138120, Note_off_c, 1, 51, 0
4, 138240, Note_on_c, 1, 44, 100
4, 138480, Note_off_c, 1, 44, 0
4, 138480, Note_on_c, 1, 56, 100
4, 138480, Note_on_c, 1, 51, 100
4, 138600, Note_off_c, 1, 56, 0
4, 138600, Note_off_c, 1, 51, 0
4, 138720, Note_on_c, 1, 44, 100
4, 138960, Note_off_c, 1, 44, 0
4, 138960, Note_on_c, 1, 56, 100
4, 138960, Note_on_c, 1, 51, 100
4, 139080, Note_off_c, 1, 56, 0
4, 139080, Note_off_c, 1, 51, 0
4, 139200, Note_on_c, 1, 44, 100
4, 139440, Note_off_c, 1, 44, 0
4, 139440, Note_on_c, 1, 56, 100
4, 139440, Note_on_c, 1, 51, 100
4, 139560, Note_off_c, 1, 56, 0
4, 139560, Note_off_c, 1, 51, 0
4, 139680, Note_on_c, 1, 44, 100
4, 139920, Note_off_c, 1, 44, 0
4, 139920, Note_on_c, 1, 56, 100
4, 139920, Note_on_c, 1, 51, 100
4, 140040, Note_off_c, 1, 56, 0
4, 140040, Note_off_c, 1, 51, 0
4, 140160, Note_on_c, 1, 40, 100
4, 140400, Note_off_c, 1, 40, 0
4, 140400, Note_on_c, 1, 52, 100
4, 140400, Note_on_c, 1, 47, 100
4, 140520, Note_off_c, 1, 52, 0
4, 140520, Note_off_c, 1, 47, 0
4, 140640, Note_on_c, 1, 40, 100
4, 140880, Note_off_c, 1, 40, 0
4, 140880, Note_on_c, 1, 52, 100
4, 140880, Note_on_c, 1, 47, 100
4, 141000, Note_off_c, 1, 52, 0
4, 141000, Note_off_c, 1, 47, 0
4, 141120, Note_on_c, 1, 40, 100
4, 141360, Note_off_c, 1, 40, 0
4, 141360, Note_on_c, 1, 52, 100
4, 141360, Note_on_c, 1, 47, 100
4, 141480, Note_off_c, 1, 52, 0
4, 141480, Note_off_c, 1, 47, 0
4, 141600, Note_on_c, 1, 40, 100
4, 141840, Note_off_c, 1, 40, 0
4, 141840, Note_on_c, 1, 52, 100
4, 141840, Note_on_c, 1, 47, 100
4, 141960, Note_off_c, 1, 52, 0
4, 141960, Note_off_c, 1, 47, 0
4, 142080, Note_on_c, 1, 42, 100
4, 142320, Note_off_c, 1, 42, 0
4, 142320, Note_on_c, 1, 54, 100
4, 142320, Note_on_c, 1, 49, 100
4, 142440, Note_off_c, 1, 54, 0
4, 142440, Note_off_c, 1, 49, 0
4, 142560, Note_on_c, 1, 42, 100
4, 142800, Note_off_c, 1, 42, 0
4, 142800, Note_on_c, 1, 54, 100
4, 142800, Note_on_c, 1, 49, 100
4, 142920, Note_off_c, 1, 54, 0
4, 142920, Note_off_c, 1, 49, 0
4, 143040, Note_on_c, 1, 42, 100
4, 143280, Note_off_c, 1, 42, 0
4, 143280, Note_on_c, 1, 54, 100
4, 143280, Note_on_c, 1, 49, 100
4, 143400, Note_off_c, 1, 54, 0
4, 143400, Note_off_c, 1, 49, 0
4, 143520, Note_on_c, 1, 42, 100
4, 143760, Note_off_c, 1, 42, 0
4, 143760, Note_on_c, 1, 54, 100
4, 143760, Note_on_c, 1, 49, 100
4, 143880, Note_off_c, 1, 54, 0
4, 143880, Note_off_c, 1, 49, 0
4, 144000, Note_on_c, 1, 44, 100
4, 144240, Note_off_c, 1, 44, 0
4, 144240, Note_on_c, 1, 56, 100
4, 144240, Note_on_c, 1, 51, 100
4, 144360, Note_off_c, 1, 56, 0
4, 144360, Note_off_c, 1, 51, 0
4, 144480, Note_on_c, 1, 44, 100
4, 144720, Note_off_c, 1, 44, 0
4, 144720, Note_on_c, 1, 56, 100
4, 144720, Note_on_c, 1, 51, 100
4, 144840, Note_off_c, 1, 56, 0
4, 144840, Note_off_c, 1, 51, 0
4, 144960, Note_on_c, 1, 44, 100
4, 145200, Note_off_c, 1, 44, 0
4, 145200, Note_on_c, 1, 56, 100
4, 145200, Note_on_c, 1, 51, 100
4, 145320, Note_off_c, 1, 56, 0
4, 145320, Note_off_c, 1, 51, 0
4, 145440, Note_on_c, 1, 44, 100
4, 145680, Note_off_c, 1, 44, 0
4, 145680, Note_on_c, 1, 56, 100
4, 145680, Note_on_c, 1, 51, 100
4, 145800, Note_off_c, 1, 56, 0
4, 145800, Note_off_c, 1, 51, 0
4, 145920, Note_on_c, 1, 44, 100
4, 146160, Note_off_c, 1, 44, 0
4, 146160, Note_on_c, 1, 56, 100
4, 146160, Note_on_c, 1, 51, 100
4, 146280, Note_off_c, 1, 56, 0
4, 146280, Note_off_c, 1, 51, 0
4, 146400, Note_on_c, 1, 44, 100
4, 146640, Note_off_c, 1, 44, 0
4, 146640, Note_on_c, 1, 56, 100
4, 146640, Note_on_c, 1, 51, 100
4, 146760, Note_off_c, 1, 56, 0
4, 146760, Note_off_c, 1, 51, 0
4, 146880, Note_on_c, 1, 44, 100
4, 147120, Note_off_c, 1, 44, 0
4, 147120, Note_on_c, 1, 56, 100
4, 147120, Note_on_c, 1, 51, 100
4, 147240, Note_off_c, 1, 56, 0
4, 147240, Note_off_c, 1, 51, 0
4, 147360, Note_on_c, 1, 44, 100
4, 147600, Note_off_c, 1, 44, 0
4, 147600, Note_on_c, 1, 56, 100
4, 147600, Note_on_c, 1, 51, 100
4, 147720, Note_off_c, 1, 56, 0
4, 147720, Note_off_c, 1, 51, 0
4, 147840, Note_on_c, 1, 40, 100
4, 148080, Note_off_c, 1, 40, 0
4, 148080, Note_on_c, 1, 52, 100
4, 148080, Note_on_c, 1, 47, 100
4, 148200, Note_off_c, 1, 52, 0
4, 148200, Note_off_c, 1, 47, 0
4, 148320, Note_on_c, 1, 40, 100
4, 148560, Note_off_c, 1, 40, 0
4, 148560, Note_on_c, 1, 52, 100
4, 148560, Note_on_c, 1, 47, 100
4, 148680, Note_off_c, 1, 52, 0
4, 148680, Note_off_c, 1, 47, 0
4, 148800, Note_on_c, 1, 40, 100
4, 149040, Note_off_c, 1, 40, 0
4, 149040, Note_on_c, 1, 52, 100
4, 149040, Note_on_c, 1, 47, 100
4, 149160, Note_off_c, 1, 52, 0
4, 149160, Note_off_c, 1, 47, 0
4, 149280, Note_on_c, 1, 40, 100
4, 149520, Note_off_c, 1, 40, 0
4, 149520, Note_on_c, 1, 52, 100
4, 149520, Note_on_c, 1, 47, 100
4, 149640, Note_off_c, 1, 52, 0
4, 149640, Note_off_c, 1, 47, 0
4, 149760, Note_on_c, 1, 42, 100
4, 150000, Note_off_c, 1, 42, 0
4, 150000, Note_on_c, 1, 54, 100
4, 150000, Note_on_c, 1, 49, 100
4, 150120, Note_off_c, 1, 54, 0
4, 150120, Note_off_c, 1, 49, 0
4, 150240, Note_on_c, 1, 42, 100
4, 150480, Note_off_c, 1, 42, 0
4, 150480, Note_on_c, 1, 54, 100
4, 150480, Note_on_c, 1, 49, 100
4, 150600, Note_off_c, 1, 54, 0
4, 150600, Note_off_c, 1, 49, 0
4, 150720, Note_on_c, 1, 42, 100
4, 150960, Note_off_c, 1, 42, 0
4, 150960, Note_on_c, 1, 54, 100
4, 150960, Note_on_c, 1, 49, 100
4, 151080, Note_off_c, 1, 54, 0
4, 151080, Note_off_c, 1, 49, 0
4, 151200, Note_on_c, 1, 42, 100
4, 151440, Note_off_c, 1, 42, 0
4, 151440, Note_on_c, 1, 54, 100
4, 151440, Note_on_c, 1, 49, 100
4, 151560, Note_off_c, 1, 54, 0
4, 151560, Note_off_c, 1, 49, 0
4, 151680, Note_on_c, 1, 44, 100
4, 151920, Note_off_c, 1, 44, 0
4, 151920, Note_on_c, 1, 56, 100
4, 151920, Note_on_c, 1, 51, 100
4, 152040, Note_off_c, 1, 56, 0
4, 152040, Note_off_c, 1, 51, 0
4, 152160, Note_on_c, 1, 44, 100
4, 152400, Note_off_c, 1, 44, 0
4, 152400, Note_on_c, 1, 56, 100
4, 152400, Note_on_c, 1, 51, 100
4, 152520, Note_off_c, 1, 56, 0
4, 152520, Note_off_c, 1, 51, 0
4, 152640, Note_on_c, 1, 44, 100
4, 152880, Note_off_c, 1, 44, 0
4, 152880, Note_on_c, 1, 56, 100
4, 152880, Note_on_c, 1, 51, 100
4, 153000, Note_off_c, 1, 56, 0
4, 153000, Note_off_c, 1, 51, 0
4, 153120, Note_on_c, 1, 44, 100
4, 153360, Note_off_c, 1, 44, 0
4, 153360, Note_on_c, 1, 56, 100
4, 153360, Note_on_c, 1, 51, 100
4, 153480, Note_off_c, 1, 56, 0
4, 153480, Note_off_c, 1, 51, 0
4, 153600, Note_on_c, 1, 44, 100
4, 153840, Note_off_c, 1, 44, 0
4, 153840, Note_on_c, 1, 56, 100
4, 153840, Note_on_c, 1, 51, 100
4, 153960, Note_off_c, 1, 56, 0
4, 153960, Note_off_c, 1, 51, 0
4, 154080, Note_on_c, 1, 44, 100
4, 154320, Note_off_c, 1, 44, 0
4, 154320, Note_on_c, 1, 56, 100
4, 154320, Note_on_c, 1, 51, 100
4, 154440, Note_off_c, 1, 56, 0
4, 154440, Note_off_c, 1, 51, 0
4, 154560, Note_on_c, 1, 44, 100
4, 154800, Note_off_c, 1, 44, 0
4, 154800, Note_on_c, 1, 56, 100
4, 154800, Note_on_c, 1, 51, 100
4, 154920, Note_off_c, 1, 56, 0
4, 154920, Note_off_c, 1, 51, 0
4, 155040, Note_on_c, 1, 44, 100
4, 155280, Note_off_c, 1, 44, 0
4, 155280, Note_on_c, 1, 56, 100
4, 155280, Note_on_c, 1, 51, 100
4, 155400, Note_off_c, 1, 56, 0
4, 155400, Note_off_c, 1, 51, 0
4, 155520, Note_on_c, 1, 42, 100
4, 155760, Note_off_c, 1, 42, 0
4, 155760, Note_on_c, 1, 54, 100
4, 155760, Note_on_c, 1, 49, 100
4, 155880, Note_off_c, 1, 54, 0
4, 155880, Note_off_c, 1, 49, 0
4, 156000, Note_on_c, 1, 42, 100
4, 156240, Note_off_c, 1, 42, 0
4, 156240, Note_on_c, 1, 54, 100
4, 156240, Note_on_c, 1, 49, 100
4, 156360, Note_off_c, 1, 54, 0
4, 156360, Note_off_c, 1, 49, 0
4, 156480, Note_on_c, 1, 42, 100
4, 156720, Note_off_c, 1, 42, 0
4, 156720, Note_on_c, 1, 54, 100
4, 156720, Note_on_c, 1, 49, 100
4, 156840, Note_off_c, 1, 54, 0
4, 156840, Note_off_c, 1, 49, 0
4, 156960, Note_on_c, 1, 42, 100
4, 157200, Note_off_c, 1, 42, 0
4, 157200, Note_on_c, 1, 54, 100
4, 157200, Note_on_c, 1, 49, 100
4, 157320, Note_off_c, 1, 54, 0
4, 157320, Note_off_c, 1, 49, 0
4, 157440, Note_on_c, 1, 44, 100
4, 157680, Note_off_c, 1, 44, 0
4, 157680, Note_on_c, 1, 56, 100
4, 157680, Note_on_c, 1, 51, 100
4, 157800, Note_off_c, 1, 56, 0
4, 157800, Note_off_c, 1, 51, 0
4, 157920, Note_on_c, 1, 44, 100
4, 158160, Note_off_c, 1, 44, 0
4, 158160, Note_on_c, 1, 56, 100
4, 158160, Note_on_c, 1, 51, 100
4, 158280, Note_off_c, 1, 56, 0
4, 158280, Note_off_c, 1, 51, 0
4, 158400, Note_on_c, 1, 44, 100
4, 158640, Note_off_c, 1, 44, 0
4, 158640, Note_on_c, 1, 56, 100
4, 158640, Note_on_c, 1, 51, 100
4, 158760, Note_off_c, 1, 56, 0
4, 158760, Note_off_c, 1, 51, 0
4, 158880, Note_on_c, 1, 44, 100
4, 159120, Note_off_c, 1, 44, 0
4, 159120, Note_on_c, 1, 56, 100
4, 159120, Note_on_c, 1, 51, 100
4, 159240, Note_off_c, 1, 56, 0
4, 159240, Note_off_c, 1, 51, 0
4, 159360, Note_on_c, 1, 46, 100
4, 159600, Note_off_c, 1, 46, 0
4, 159600, Note_on_c, 1, 58, 100
4, 159600, Note_on_c, 1, 53, 100
4, 159720, Note_off_c, 1, 58, 0
4, 159720, Note_off_c, 1, 53, 0
4, 159840, Note_on_c, 1, 46, 100
4, 160080, Note_off_c, 1, 46, 0
4, 160080, Note_on_c, 1, 58, 100
4, 160080, Note_on_c, 1, 53, 100
4, 160200, Note_off_c, 1, 58, 0
4, 160200, Note_off_c, 1, 53, 0
4, 160320, Note_on_c, 1, 46, 100
4, 160560, Note_off_c, 1, 46, 0
4, 160560, Note_on_c, 1, 58, 100
4, 160560, Note_on_c, 1, 53, 100
4, 160680, Note_off_c, 1, 58, 0
4, 160680, Note_off_c, 1, 53, 0
4, 160800, Note_on_c, 1, 46, 100
4, 161040, Note_off_c, 1, 46, 0
4, 161040, Note_on_c, 1, 58, 100
4, 161040, Note_on_c, 1, 53, 100
4, 161160, Note_off_c, 1, 58, 0
4, 161160, Note_off_c, 1, 53, 0
4, 161280, Note_on_c, 1, 46, 100
4, 161520, Note_off_c, 1, 46, 0
4, 161520, Note_on_c, 1, 58, 100
4, 161520, Note_on_c, 1, 53, 100
4, 161640, Note_off_c, 1, 58, 0
4, 161640, Note_off_c, 1, 53, 0
4, 161760, Note_on_c, 1, 46, 100
4, 162000, Note_off_c, 1, 46, 0
4, 162000, Note_on_c, 1, 58, 100
4, 162000, Note_on_c, 1, 53, 100
4, 162120, Note_off_c, 1, 58, 0
4, 162120, Note_off_c, 1, 53, 0
4, 162240, Note_on_c, 1, 46, 100
4, 162480, Note_off_c, 1, 46, 0
4, 162480, Note_on_c, 1, 58, 100
4, 162480, Note_on_c, 1, 53, 100
4, 162600, Note_off_c, 1, 58, 0
4, 162600, Note_off_c, 1, 53, 0
4, 162720, Note_on_c, 1, 46, 100
4, 162960, Note_off_c, 1, 46, 0
4, 162960, Note_on_c, 1, 58, 100
4, 162960, Note_on_c, 1, 53, 100
4, 163080, Note_off_c, 1, 58, 0
4, 163080, Note_off_c, 1, 53, 0
4, 163200, Note_on_c, 1, 42, 100
4, 163440, Note_off_c, 1, 42, 0
4, 163440, Note_on_c, 1, 54, 100
4, 163440, Note_on_c, 1, 49, 100
4, 163560, Note_off_c, 1, 54, 0
4, 163560, Note_off_c, 1, 49, 0
4, 163680, Note_on_c, 1, 42, 100
4, 163920, Note_off_c, 1, 42, 0
4, 163920, Note_on_c, 1, 54, 100
4, 163920, Note_on_c, 1, 49, 100
4, 164040, Note_off_c, 1, 54, 0
4, 164040, Note_off_c, 1, 49, 0
4, 164160, Note_on_c, 1, 42, 100
4, 164400, Note_off_c, 1, 42, 0
4, 164400, Note_on_c, 1, 54, 100
4, 164400, Note_on_c, 1, 49, 100
4, 164520, Note_off_c, 1, 54, 0
4, 164520, Note_off_c, 1, 49, 0
4, 164640, Note_on_c, 1, 42, 100
4, 164880, Note_off_c, 1, 42, 0
4, 164880, Note_on_c, 1, 54, 100
4, 164880, Note_on_c, 1, 49, 100
4, 165000, Note_off_c, 1, 54, 0
4, 165000, Note_off_c, 1, 49, 0
4, 165120, Note_on_c, 1, 44, 100
4, 165360, Note_off_c, 1, 44, 0
4, 165360, Note_on_c, 1, 56, 100
4, 165360, Note_on_c, 1, 51, 100
4, 165480, Note_off_c, 1, 56, 0
4, 165480, Note_off_c, 1, 51, 0
4, 165600, Note_on_c, 1, 44, 100
4, 165840, Note_off_c, 1, 44, 0
4, 165840, Note_on_c, 1, 56, 100
4, 165840, Note_on_c, 1, 51, 100
4, 165960, Note_off_c, 1, 56, 0
4, 165960, Note_off_c, 1, 51, 0
4, 166080, Note_on_c, 1, 44, 100
4, 166320, Note_off_c, 1, 44, 0
4, 166320, Note_on_c, 1, 56, 100
4, 166320, Note_on_c, 1, 51, 100
4, 166440, Note_off_c, 1, 56, 0
4, 166440, Note_off_c, 1, 51, 0
4, 166560, Note_on_c, 1, 44, 100
4, 166800, Note_off_c, 1, 44, 0
4, 166800, Note_on_c, 1, 56, 100
4, 166800, Note_on_c, 1, 51, 100
4, 166920, Note_off_c, 1, 56, 0
4, 166920, Note_off_c, 1, 51, 0
4, 167040, Note_on_c, 1, 46, 100
4, 167280, Note_off_c, 1, 46, 0
4, 167280, Note_on_c, 1, 58, 100
4, 167280, Note_on_c, 1, 53, 100
4, 167400, Note_off_c, 1, 58, 0
4, 167400, Note_off_c, 1, 53, 0
4, 167520, Note_on_c, 1, 46, 100
4, 167760, Note_off_c, 1, 46, 0
4, 167760, Note_on_c, 1, 58, 100
4, 167760, Note_on_c, 1, 53, 100
4, 167880, Note_off_c, 1, 58, 0
4, 167880, Note_off_c, 1, 53, 0
4, 168000, Note_on_c, 1, 46, 100
4, 168240, Note_off_c, 1, 46, 0
4, 168240, Note_on_c, 1, 58, 100
4, 168240, Note_on_c, 1, 53, 100
4, 168360, Note_off_c, 1, 58, 0
4, 168360, Note_off_c, 1, 53, 0
4, 168480, Note_on_c, 1, 46, 100
4, 168720, Note_off_c, 1, 46, 0
4, 168720, Note_on_c, 1, 58, 100
4, 168720, Note_on_c, 1, 53, 100
4, 168840, Note_off_c, 1, 58, 0
4, 168840, Note_off_c, 1, 53, 0
4, 168960, Note_on_c, 1, 46, 100
4, 169200, Note_off_c, 1, 46, 0
4, 169200, Note_on_c, 1, 58, 100
4, 169200, Note_on_c, 1, 53, 100
4, 169320, Note_off_c, 1, 58, 0
4, 169320, Note_off_c, 1, 53, 0
4, 169440, Note_on_c, 1, 46, 100
4, 169680, Note_off_c, 1, 46, 0
4, 169680, Note_on_c, 1, 58, 100
4, 169680, Note_on_c, 1, 53, 100
4, 169800, Note_off_c, 1, 58, 0
4, 169800, Note_off_c, 1, 53, 0
4, 169920, Note_on_c, 1, 46, 100
4, 170160, Note_off_c, 1, 46, 0
4, 170160, Note_on_c, 1, 58, 100
4, 170160, Note_on_c, 1, 53, 100
4, 170280, Note_off_c, 1, 58, 0
4, 170280, Note_off_c, 1, 53, 0
4, 170400, Note_on_c, 1, 46, 100
4, 170640, Note_off_c, 1, 46, 0
4, 170640, Note_on_c, 1, 58, 100
4, 170640, Note_on_c, 1, 53, 100
4, 170760, Note_off_c, 1, 58, 0
4, 170760, Note_off_c, 1, 53, 0
4, 170880, Note_on_c, 1, 42, 100
4, 171120, Note_off_c, 1, 42, 0
4, 171120, Note_on_c, 1, 54, 100
4, 171120, Note_on_c, 1, 49, 100
4, 171240, Note_off_c, 1, 54, 0
4, 171240, Note_off_c, 1, 49, 0
4, 171360, Note_on_c, 1, 42, 100
4, 171600, Note_off_c, 1, 42, 0
4, 171600, Note_on_c, 1, 54, 100
4, 171600, Note_on_c, 1, 49, 100
4, 171720, Note_off_c, 1, 54, 0
4, 171720, Note_off_c, 1, 49, 0
4, 171840, Note_on_c, 1, 42, 100
4, 172080, Note_off_c, 1, 42, 0
4, 172080, Note_on_c, 1, 54, 100
4, 172080, Note_on_c, 1, 49, 100
4, 172200, Note_off_c, 1, 54, 0
4, 172200, Note_off_c, 1, 49, 0
4, 172320, Note_on_c, 1, 42, 100
4, 172560, Note_off_c, 1, 42, 0
4, 172560, Note_on_c, 1, 54, 100
4, 172560, Note_on_c, 1, 49, 100
4, 172680, Note_off_c, 1, 54, 0
4, 172680, Note_off_c, 1, 49, 0
4, 172800, Note_on_c, 1, 44, 100
4, 173040, Note_off_c, 1, 44, 0
4, 173040, Note_on_c, 1, 56, 100
4, 173040, Note_on_c, 1, 51, 100
4, 173160, Note_off_c, 1, 56, 0
4, 173160, Note_off_c, 1, 51, 0
4, 173280, Note_on_c, 1, 44, 100
4, 173520, Note_off_c, 1, 44, 0
4, 173520, Note_on_c, 1, 56, 100
4, 173520, Note_on_c, 1, 51, 100
4, 173640, Note_off_c, 1, 56, 0
4, 173640, Note_off_c, 1, 51, 0
4, 173760, Note_on_c, 1, 44, 100
4, 174000, Note_off_c, 1, 44, 0
4, 174000, Note_on_c, 1, 56, 100
4, 174000, Note_on_c, 1, 51, 100
4, 174120, Note_off_c, 1, 56, 0
4, 174120, Note_off_c, 1, 51, 0
4, 174240, Note_on_c, 1, 44, 100
4, 174480, Note_off_c, 1, 44, 0
4, 174480, Note_on_c, 1, 56, 100
4, 174480, Note_on_c, 1, 51, 100
4, 174600, Note_off_c, 1, 56, 0
4, 174600, Note_off_c, 1, 51, 0
4, 174720, Note_on_c, 1, 46, 100
4, 174960, Note_off_c, 1, 46, 0
4, 174960, Note_on_c, 1, 58, 100
4, 174960, Note_on_c, 1, 53, 100
4, 175080, Note_off_c, 1, 58, 0
4, 175080, Note_off_c, 1, 53, 0
4, 175200, Note_on_c, 1, 46, 100
4, 175440, Note_off_c, 1, 46, 0
4, 175440, Note_on_c, 1, 58, 100
4, 175440, Note_on_c, 1, 53, 100
4, 175560, Note_off_c, 1, 58, 0
4, 175560, Note_off_c, 1, 53, 0
4, 175680, Note_on_c, 1, 46, 100
4, 175920, Note_off_c, 1, 46, 0
4, 175920, Note_on_c, 1, 58, 100
4, 175920, Note_on_c, 1, 53, 100
4, 176040, Note_off_c, 1, 58, 0
4, 176040, Note_off_c, 1, 53, 0
4, 176160, Note_on_c, 1, 46, 100
4, 176400, Note_off_c, 1, 46, 0
4, 176400, Note_on_c, 1, 58, 100
4, 176400, Note_on_c, 1, 53, 100
4, 176520, Note_off_c, 1, 58, 0
4, 176520, Note_off_c, 1, 53, 0
4, 176640, Note_on_c, 1, 46, 100
4, 176880, Note_off_c, 1, 46, 0
4, 176880, Note_on_c, 1, 58, 100
4, 176880, Note_on_c, 1, 53, 100
4, 177000, Note_off_c, 1, 58, 0
4, 177000, Note_off_c, 1, 53, 0
4, 177120, Note_on_c, 1, 46, 100
4, 177360, Note_off_c, 1, 46, 0
4, 177360, Note_on_c, 1, 58, 100
4, 177360, Note_on_c, 1, 53, 100
4, 177480, Note_off_c, 1, 58, 0
4, 177480, Note_off_c, 1, 53, 0
4, 177600, Note_on_c, 1, 46, 100
4, 177840, Note_off_c, 1, 46, 0
4, 177840, Note_on_c, 1, 58, 100
4, 177840, Note_on_c, 1, 53, 100
4, 177960, Note_off_c, 1, 58, 0
4, 177960, Note_off_c, 1, 53, 0
4, 178080, Note_on_c, 1, 46, 100
4, 178320, Note_off_c, 1, 46, 0
4, 178320, Note_on_c, 1, 58, 100
4, 178320, Note_on_c, 1, 53, 100
4, 178440, Note_off_c, 1, 58, 0
4, 178440, Note_off_c, 1, 53, 0
4, 178560, Note_on_c, 1, 42, 100
4, 178800, Note_off_c, 1, 42, 0
4, 178800, Note_on_c, 1, 54, 100
4, 178800, Note_on_c, 1, 49, 100
4, 178920, Note_off_c, 1, 54, 0
4, 178920, Note_off_c, 1, 49, 0
4, 179040, Note_on_c, 1, 42, 100
4, 179280, Note_off_c, 1, 42, 0
4, 179280, Note_on_c, 1, 54, 100
4, 179280, Note_on_c, 1, 49, 100
4, 179400, Note_off_c, 1, 54, 0
4, 179400, Note_off_c, 1, 49, 0
4, 179520, Note_on_c, 1, 42, 100
4, 179760, Note_off_c, 1, 42, 0
4, 179760, Note_on_c, 1, 54, 100
4, 179760, Note_on_c, 1, 49, 100
4, 179880, Note_off_c, 1, 54, 0
4, 179880, Note_off_c, 1, 49, 0
4, 180000, Note_on_c, 1, 42, 100
4, 180240, Note_off_c, 1, 42, 0
4, 180240, Note_on_c, 1, 54, 100
4, 180240, Note_on_c, 1, 49, 100
4, 180360, Note_off_c, 1, 54, 0
4, 180360, Note_off_c, 1, 49, 0
4, 180480, Note_on_c, 1, 44, 100
4, 180720, Note_off_c, 1, 44, 0
4, 180720, Note_on_c, 1, 56, 100
4, 180720, Note_on_c, 1, 51, 100
4, 180840, Note_off_c, 1, 56, 0
4, 180840, Note_off_c, 1, 51, 0
4, 180960, Note_on_c, 1, 44, 100
4, 181200, Note_off_c, 1, 44, 0
4, 181200, Note_on_c, 1, 56, 100
4, 181200, Note_on_c, 1, 51, 100
4, 181320, Note_off_c, 1, 56, 0
4, 181320, Note_off_c, 1, 51, 0
4, 181440, Note_on_c, 1, 44, 100
4, 181680, Note_off_c, 1, 44, 0
4, 181680, Note_on_c, 1, 56, 100
4, 181680, Note_on_c, 1, 51, 100
4, 181800, Note_off_c, 1, 56, 0
4, 181800, Note_off_c, 1, 51, 0
4, 181920, Note_on_c, 1, 44, 100
4, 182160, Note_off_c, 1, 44, 0
4, 182160, Note_on_c, 1, 56, 100
4, 182160, Note_on_c, 1, 51, 100
4, 182280, Note_off_c, 1, 56, 0
4, 182280, Note_off_c, 1, 51, 0
4, 182400, Note_on_c, 1, 46, 100
4, 182640, Note_off_c, 1, 46, 0
4, 182640, Note_on_c, 1, 58, 100
4, 182640, Note_on_c, 1, 53, 100
4, 182760, Note_off_c, 1, 58, 0
4, 182760, Note_off_c, 1, 53, 0
4, 182880, Note_on_c, 1, 46, 100
4, 183120, Note_off_c, 1, 46, 0
4, 183120, Note_on_c, 1, 58, 100
4, 183120, Note_on_c, 1, 53, 100
4, 183240, Note_off_c, 1, 58, 0
4, 183240, Note_off_c, 1, 53, 0
4, 183360, Note_on_c, 1, 46, 100
4, 183600, Note_off_c, 1, 46, 0
4, 183600, Note_on_c, 1, 58, 100
4, 183600, Note_on_c, 1, 53, 100
4, 183720, Note_off_c, 1, 58, 0
4, 183720, Note_off_c, 1, 53, 0
4, 183840, Note_on_c, 1, 46, 100
4, 184080, Note_off_c, 1, 46, 0
4, 184080, Note_on_c, 1, 58, 100
4, 184080, Note_on_c, 1, 53, 100
4, 184200, Note_off_c, 1, 58, 0
4, 184200, Note_off_c, 1, 53, 0
4, 184320, Note_on_c, 1, 46, 100
4, 184560, Note_off_c, 1, 46, 0
4, 184560, Note_on_c, 1, 58, 100
4, 184560, Note_on_c, 1, 53, 100
4, 184680, Note_off_c, 1, 58, 0
4, 184680, Note_off_c, 1, 53, 0
4, 184800, Note_on_c, 1, 46, 100
4, 185040, Note_off_c, 1, 46, 0
4, 185040, Note_on_c, 1, 58, 100
4, 185040, Note_on_c, 1, 53, 100
4, 185160, Note_off_c, 1, 58, 0
4, 185160, Note_off_c, 1, 53, 0
4, 185280, Note_on_c, 1, 46, 100
4, 185520, Note_off_c, 1, 46, 0
4, 185520, Note_on_c, 1, 58, 100
4, 185520, Note_on_c, 1, 53, 100
4, 185640, Note_off_c, 1, 58, 0
4, 185640, Note_off_c, 1, 53, 0
4, 185760, Note_on_c, 1, 46, 100
4, 186000, Note_off_c, 1, 46, 0
4, 186000, Note_on_c, 1, 58, 100
4, 186000, Note_on_c, 1, 53, 100
4, 186120, Note_off_c, 1, 58, 0
4, 186120, Note_off_c, 1, 53, 0
4, 186240, Note_on_c, 1, 46, 100
4, 188160, Note_off_c, 1, 46, 0
4, 188160, End_track
5, 0, Start_track
5, 0, Title_t, "CH03"
5, 0, MIDI_port, 0
5, 0, Text_t, "---- System Setup --------------------------------------------------"
5, 188, Text_t, "---- CH Setup --------------------------------------------------"
5, 188, Control_c, 2, 121, 0
5, 189, Control_c, 2, 0, 0
5, 189, Control_c, 2, 32, 0
5, 189, Program_c, 2, 34
5, 192, Control_c, 2, 10, 64
5, 193, Control_c, 2, 7, 100
5, 194, Control_c, 2, 91, 0
5, 195, Control_c, 2, 11, 127
5, 196, Control_c, 2, 1, 0
5, 197, Control_c, 2, 101, 0
5, 197, Control_c, 2, 100, 1
5, 197, Control_c, 2, 6, 64
5, 197, Control_c, 2, 38, 0
5, 201, Control_c, 2, 101, 0
5, 201, Control_c, 2, 100, 2
5, 201, Control_c, 2, 6, 64
5, 204, Control_c, 2, 101, 0
5, 204, Control_c, 2, 100, 0
5, 204, Control_c, 2, 6, 12
5, 207, Pitch_bend_c, 2, 8192
5, 208, Control_c, 2, 101, 127
5, 208, Control_c, 2, 100, 127
5, 210, Text_t, "---- End of CH Setup --------------------------------------------------"
5, 9120, Pitch_bend_c, 2, 7424
5, 9120, Note_on_c, 2, 43, 100
5, 9130, Pitch_bend_c, 2, 7168
5, 9140, Pitch_bend_c, 2, 6400
5, 9150, Pitch_bend_c, 2, 6016
5, 9170, Pitch_bend_c, 2, 5632
5, 9190, Pitch_bend_c, 2, 4992
5, 9210, Pitch_bend_c, 2, 4480
5, 9220, Pitch_bend_c, 2, 3840
5, 9240, Pitch_bend_c, 2, 3200
5, 9250, Pitch_bend_c, 2, 2816
5, 9270, Pitch_bend_c, 2, 2432
5, 9280, Pitch_bend_c, 2, 2048
5, 9290, Pitch_bend_c, 2, 1664
5, 9310, Pitch_bend_c, 2, 1152
5, 9330, Pitch_bend_c, 2, 640
5, 9340, Pitch_bend_c, 2, 384
5, 9350, Pitch_bend_c, 2, 256
5, 9360, Pitch_bend_c, 2, 128
5, 9370, Pitch_bend_c, 2, 0
5, 9590, Pitch_bend_c, 2, 8192
5, 9600, Note_off_c, 2, 43, 0
5, 9600, Note_on_c, 2, 40, 100
5, 9840, Note_off_c, 2, 40, 0
5, 10320, Note_on_c, 2, 40, 100
5, 10560, Note_off_c, 2, 40, 0
5, 10560, Note_on_c, 2, 40, 100
5, 10800, Note_off_c, 2, 40, 0
5, 11280, Note_on_c, 2, 40, 100
5, 11520, Note_off_c, 2, 40, 0
5, 11520, Note_on_c, 2, 40, 100
5, 11760, Note_off_c, 2, 40, 0
5, 12240, Note_on_c, 2, 40, 100
5, 12480, Note_off_c, 2, 40, 0
5, 12480, Note_on_c, 2, 42, 100
5, 12720, Note_off_c, 2, 42, 0
5, 13200, Note_on_c, 2, 42, 100
5, 13440, Note_off_c, 2, 42, 0
5, 13440, Note_on_c, 2, 44, 100
5, 13680, Note_off_c, 2, 44, 0
5, 14160, Note_on_c, 2, 44, 100
5, 14400, Note_off_c, 2, 44, 0
5, 14400, Note_on_c, 2, 44, 100
5, 14640, Note_off_c, 2, 44, 0
5, 15120, Note_on_c, 2, 44, 100
5, 15360, Note_off_c, 2, 44, 0
5, 15360, Note_on_c, 2, 44, 100
5, 15600, Note_off_c, 2, 44, 0
5, 16080, Note_on_c, 2, 44, 100
5, 16320, Note_off_c, 2, 44, 0
5, 16320, Note_on_c, 2, 44, 100
5, 16560, Note_off_c, 2, 44, 0
5, 17040, Note_on_c, 2, 44, 100
5, 17280, Note_off_c, 2, 44, 0
5, 17280, Note_on_c, 2, 40, 100
5, 17520, Note_off_c, 2, 40, 0
5, 18000, Note_on_c, 2, 40, 100
5, 18240, Note_off_c, 2, 40, 0
5, 18240, Note_on_c, 2, 40, 100
5, 18480, Note_off_c, 2, 40, 0
5, 18960, Note_on_c, 2, 40, 100
5, 19200, Note_off_c, 2, 40, 0
5, 19200, Note_on_c, 2, 40, 100
5, 19440, Note_off_c, 2, 40, 0
5, 19920, Note_on_c, 2, 40, 100
5, 20160, Note_off_c, 2, 40, 0
5, 20160, Note_on_c, 2, 42, 100
5, 20400, Note_off_c, 2, 42, 0
5, 20880, Note_on_c, 2, 42, 100
5, 21120, Note_off_c, 2, 42, 0
5, 21120, Note_on_c, 2, 44, 100
5, 21360, Note_off_c, 2, 44, 0
5, 21840, Note_on_c, 2, 44, 100
5, 22080, Note_off_c, 2, 44, 0
5, 22080, Note_on_c, 2, 44, 100
5, 22320, Note_off_c, 2, 44, 0
5, 22800, Note_on_c, 2, 44, 100
5, 23040, Note_off_c, 2, 44, 0
5, 23040, Note_on_c, 2, 44, 100
5, 23280, Note_off_c, 2, 44, 0
5, 23760, Note_on_c, 2, 44, 100
5, 24000, Note_off_c, 2, 44, 0
5, 24000, Note_on_c, 2, 44, 100
5, 24240, Note_off_c, 2, 44, 0
5, 24720, Note_on_c, 2, 44, 100
5, 24960, Note_off_c, 2, 44, 0
5, 24960, Note_on_c, 2, 40, 100
5, 25200, Note_off_c, 2, 40, 0
5, 25680, Note_on_c, 2, 40, 100
5, 25920, Note_off_c, 2, 40, 0
5, 25920, Note_on_c, 2, 40, 100
5, 26160, Note_off_c, 2, 40, 0
5, 26640, Note_on_c, 2, 40, 100
5, 26880, Note_off_c, 2, 40, 0
5, 26880, Note_on_c, 2, 40, 100
5, 27120, Note_off_c, 2, 40, 0
5, 27600, Note_on_c, 2, 40, 100
5, 27840, Note_off_c, 2, 40, 0
5, 27840, Note_on_c, 2, 42, 100
5, 28080, Note_off_c, 2, 42, 0
5, 28560, Note_on_c, 2, 42, 100
5, 28800, Note_off_c, 2, 42, 0
5, 28800, Note_on_c, 2, 44, 100
5, 29040, Note_off_c, 2, 44, 0
5, 29520, Note_on_c, 2, 44, 100
5, 29760, Note_off_c, 2, 44, 0
5, 29760, Note_on_c, 2, 44, 100
5, 30000, Note_off_c, 2, 44, 0
5, 30480, Note_on_c, 2, 44, 100
5, 30720, Note_off_c, 2, 44, 0
5, 30720, Note_on_c, 2, 44, 100
5, 30960, Note_off_c, 2, 44, 0
5, 31440, Note_on_c, 2, 44, 100
5, 31680, Note_off_c, 2, 44, 0
5, 31680, Note_on_c, 2, 44, 100
5, 31920, Note_off_c, 2, 44, 0
5, 32400, Note_on_c, 2, 44, 100
5, 32640, Note_off_c, 2, 44, 0
5, 32640, Note_on_c, 2, 40, 100
5, 32880, Note_off_c, 2, 40, 0
5, 33360, Note_on_c, 2, 40, 100
5, 33600, Note_off_c, 2, 40, 0
5, 33600, Note_on_c, 2, 40, 100
5, 33840, Note_off_c, 2, 40, 0
5, 34320, Note_on_c, 2, 40, 100
5, 34560, Note_off_c, 2, 40, 0
5, 34560, Note_on_c, 2, 40, 100
5, 34800, Note_off_c, 2, 40, 0
5, 35280, Note_on_c, 2, 40, 100
5, 35520, Note_off_c, 2, 40, 0
5, 35520, Note_on_c, 2, 42, 100
5, 35760, Note_off_c, 2, 42, 0
5, 36240, Note_on_c, 2, 42, 100
5, 36480, Note_off_c, 2, 42, 0
5, 36480, Note_on_c, 2, 44, 100
5, 36720, Note_off_c, 2, 44, 0
5, 37200, Note_on_c, 2, 44, 100
5, 37440, Note_off_c, 2, 44, 0
5, 37440, Note_on_c, 2, 44, 100
5, 37680, Note_off_c, 2, 44, 0
5, 38160, Note_on_c, 2, 44, 100
5, 38400, Note_off_c, 2, 44, 0
5, 38400, Note_on_c, 2, 44, 100
5, 38640, Note_off_c, 2, 44, 0
5, 39120, Note_on_c, 2, 44, 100
5, 39360, Note_off_c, 2, 44, 0
5, 39360, Note_on_c, 2, 44, 100
5, 39600, Note_off_c, 2, 44, 0
5, 40080, Note_on_c, 2, 44, 100
5, 40320, Note_off_c, 2, 44, 0
5, 94080, Note_on_c, 2, 40, 100
5, 94320, Note_off_c, 2, 40, 0
5, 94800, Note_on_c, 2, 40, 100
5, 95040, Note_off_c, 2, 40, 0
5, 95040, Note_on_c, 2, 40, 100
5, 95280, Note_off_c, 2, 40, 0
5, 95760, Note_on_c, 2, 40, 100
5, 96000, Note_off_c, 2, 40, 0
5, 96000, Note_on_c, 2, 40, 100
5, 96240, Note_off_c, 2, 40, 0
5, 96720, Note_on_c, 2, 40, 100
5, 96960, Note_off_c, 2, 40, 0
5, 96960, Note_on_c, 2, 42, 100
5, 97200, Note_off_c, 2, 42, 0
5, 97680, Note_on_c, 2, 42, 100
5, 97920, Note_off_c, 2, 42, 0
5, 97920, Note_on_c, 2, 44, 100
5, 98160, Note_off_c, 2, 44, 0
5, 98640, Note_on_c, 2, 44, 100
5, 98880, Note_off_c, 2, 44, 0
5, 98880, Note_on_c, 2, 44, 100
5, 99120, Note_off_c, 2, 44, 0
5, 99600, Note_on_c, 2, 44, 100
5, 99840, Note_off_c, 2, 44, 0
5, 99840, Note_on_c, 2, 44, 100
5, 100080, Note_off_c, 2, 44, 0
5, 100560, Note_on_c, 2, 44, 100
5, 100800, Note_off_c, 2, 44, 0
5, 100800, Note_on_c, 2, 44, 100
5, 101040, Note_off_c, 2, 44, 0
5, 101520, Note_on_c, 2, 44, 100
5, 101760, Note_off_c, 2, 44, 0
5, 101760, Note_on_c, 2, 40, 100
5, 102000, Note_off_c, 2, 40, 0
5, 102480, Note_on_c, 2, 40, 100
5, 102720, Note_off_c, 2, 40, 0
5, 102720, Note_on_c, 2, 40, 100
5, 102960, Note_off_c, 2, 40, 0
5, 103440, Note_on_c, 2, 40, 100
5, 103680, Note_off_c, 2, 40, 0
5, 103680, Note_on_c, 2, 40, 100
5, 103920, Note_off_c, 2, 40, 0
5, 104400, Note_on_c, 2, 40, 100
5, 104640, Note_off_c, 2, 40, 0
5, 104640, Note_on_c, 2, 42, 100
5, 104880, Note_off_c, 2, 42, 0
5, 105360, Note_on_c, 2, 42, 100
5, 105600, Note_off_c, 2, 42, 0
5, 105600, Note_on_c, 2, 44, 100
5, 105840, Note_off_c, 2, 44, 0
5, 106320, Note_on_c, 2, 44, 100
5, 106560, Note_off_c, 2, 44, 0
5, 106560, Note_on_c, 2, 44, 100
5, 106800, Note_off_c, 2, 44, 0
5, 107280, Note_on_c, 2, 44, 100
5, 107520, Note_off_c, 2, 44, 0
5, 107520, Note_on_c, 2, 44, 100
5, 107760, Note_off_c, 2, 44, 0
5, 108240, Note_on_c, 2, 44, 100
5, 108480, Note_off_c, 2, 44, 0
5, 108480, Note_on_c, 2, 44, 100
5, 108720, Note_off_c, 2, 44, 0
5, 109200, Note_on_c, 2, 44, 100
5, 109440, Note_off_c, 2, 44, 0
5, 109440, End_track
6, 0, Start_track
6, 0, Title_t, "CH04"
6, 0, MIDI_port, 0
6, 0, Text_t, "---- System Setup --------------------------------------------------"
6, 188, Text_t, "---- CH Setup --------------------------------------------------"
6, 188, Control_c, 3, 121, 0
6, 189, Control_c, 3, 0, 0
6, 189, Control_c, 3, 32, 0
6, 189, Program_c, 3, 29
6, 192, Control_c, 3, 10, 64
6, 193, Control_c, 3, 7, 100
6, 194, Control_c, 3, 91, 0
6, 195, Control_c, 3, 11, 127
6, 196, Control_c, 3, 1, 0
6, 197, Control_c, 3, 101, 0
6, 197, Control_c, 3, 100, 1
6, 197, Control_c, 3, 6, 64
6, 197, Control_c, 3, 38, 0
6, 201, Control_c, 3, 101, 0
6, 201, Control_c, 3, 100, 2
6, 201, Control_c, 3, 6, 64
6, 204, Control_c, 3, 101, 0
6, 204, Control_c, 3, 100, 0
6, 204, Control_c, 3, 6, 12
6, 207, Pitch_bend_c, 3, 8192
6, 208, Control_c, 3, 101, 127
6, 208, Control_c, 3, 100, 127
6, 210, Text_t, "---- End of CH Setup --------------------------------------------------"
6, 9600, Note_on_c, 3, 56, 100
6, 9600, Note_on_c, 3, 47, 100
6, 9660, Note_off_c, 3, 56, 0
6, 9660, Note_off_c, 3, 47, 0
6, 9720, Note_on_c, 3, 56, 100
6, 9720, Note_on_c, 3, 47, 100
6, 9780, Note_off_c, 3, 56, 0
6, 9780, Note_off_c, 3, 47, 0
6, 9840, Note_on_c, 3, 56, 100
6, 9840, Note_on_c, 3, 47, 100
6, 9960, Note_off_c, 3, 56, 0
6, 9960, Note_off_c, 3, 47, 0
6, 10200, Note_on_c, 3, 56, 100
6, 10200, Note_on_c, 3, 47, 100
6, 10260, Note_off_c, 3, 56, 0
6, 10260, Note_off_c, 3, 47, 0
6, 10320, Note_on_c, 3, 56, 100
6, 10320, Note_on_c, 3, 47, 100
6, 10740, Note_off_c, 3, 56, 0
6, 10740, Note_off_c, 3, 47, 0
6, 11040, Note_on_c, 3, 56, 100
6, 11040, Note_on_c, 3, 47, 100
6, 11100, Note_off_c, 3, 56, 0
6, 11100, Note_off_c, 3, 47, 0
6, 11160, Note_on_c, 3, 56, 100
6, 11160, Note_on_c, 3, 47, 100
6, 11220, Note_off_c, 3, 56, 0
6, 11220, Note_off_c, 3, 47, 0
6, 11280, Note_on_c, 3, 63, 100
6, 11280, Note_on_c, 3, 56, 100
6, 11280, Note_on_c, 3, 47, 100
6, 11520, Note_off_c, 3, 63, 0
6, 11520, Note_off_c, 3, 56, 0
6, 11520, Note_off_c, 3, 47, 0
6, 11520, Note_on_c, 3, 56, 100
6, 11520, Note_on_c, 3, 47, 100
6, 11580, Note_off_c, 3, 56, 0
6, 11580, Note_off_c, 3, 47, 0
6, 11640, Note_on_c, 3, 56, 100
6, 11640, Note_on_c, 3, 47, 100
6, 11700, Note_off_c, 3, 56, 0
6, 11700, Note_off_c, 3, 47, 0
6, 11760, Note_on_c, 3, 56, 100
6, 11760, Note_on_c, 3, 47, 100
6, 11820, Note_off_c, 3, 56, 0
6, 11820, Note_off_c, 3, 47, 0
6, 11880, Note_on_c, 3, 56, 100
6, 11880, Note_on_c, 3, 47, 100
6, 12000, Note_off_c, 3, 56, 0
6, 12000, Note_off_c, 3, 47, 0
6, 12240, Note_on_c, 3, 56, 100
6, 12240, Note_on_c, 3, 47, 100
6, 12360, Note_off_c, 3, 56, 0
6, 12360, Note_off_c, 3, 47, 0
6, 12480, Note_on_c, 3, 63, 100
6, 12480, Note_on_c, 3, 58, 100
6, 12480, Note_on_c, 3, 49, 100
6, 12960, Note_off_c, 3, 63, 0
6, 12960, Note_off_c, 3, 58, 0
6, 12960, Note_off_c, 3, 49, 0
6, 13200, Note_on_c, 3, 58, 100
6, 13200, Note_on_c, 3, 49, 100
6, 13260, Note_off_c, 3, 58, 0
6, 13260, Note_off_c, 3, 49, 0
6, 13320, Note_on_c, 3, 58, 100
6, 13320, Note_on_c, 3, 49, 100
6, 13380, Note_off_c, 3, 58, 0
6, 13380, Note_off_c, 3, 49, 0
6, 13440, Note_on_c, 3, 59, 100
6, 13440, Note_on_c, 3, 51, 100
6, 13500, Note_off_c, 3, 59, 0
6, 13500, Note_off_c, 3, 51, 0
6, 13560, Note_on_c, 3, 59, 100
6, 13560, Note_on_c, 3, 51, 100
6, 13620, Note_off_c, 3, 59, 0
6, 13620, Note_off_c, 3, 51, 0
6, 13680, Note_on_c, 3, 59, 100
6, 13680, Note_on_c, 3, 51, 100
6, 13800, Note_off_c, 3, 59, 0
6, 13800, Note_off_c, 3, 51, 0
6, 14040, Note_on_c, 3, 59, 100
6, 14040, Note_on_c, 3, 51, 100
6, 14100, Note_off_c, 3, 59, 0
6, 14100, Note_off_c, 3, 51, 0
6, 14160, Note_on_c, 3, 59, 100
6, 14160, Note_on_c, 3, 51, 100
6, 14580, Note_off_c, 3, 59, 0
6, 14580, Note_off_c, 3, 51, 0
6, 14880, Note_on_c, 3, 59, 100
6, 14880, Note_on_c, 3, 51, 100
6, 14940, Note_off_c, 3, 59, 0
6, 14940, Note_off_c, 3, 51, 0
6, 15000, Note_on_c, 3, 59, 100
6, 15000, Note_on_c, 3, 51, 100
6, 15060, Note_off_c, 3, 59, 0
6, 15060, Note_off_c, 3, 51, 0
6, 15120, Note_on_c, 3, 63, 100
6, 15120, Note_on_c, 3, 59, 100
6, 15120, Note_on_c, 3, 51, 100
6, 15360, Note_off_c, 3, 63, 0
6, 15360, Note_off_c, 3, 59, 0
6, 15360, Note_off_c, 3, 51, 0
6, 15360, Note_on_c, 3, 59, 100
6, 15360, Note_on_c, 3, 51, 100
6, 15420, Note_off_c, 3, 59, 0
6, 15420, Note_off_c, 3, 51, 0
6, 15480, Note_on_c, 3, 59, 100
6, 15480, Note_on_c, 3, 51, 100
6, 15540, Note_off_c, 3, 59, 0
6, 15540, Note_off_c, 3, 51, 0
6, 15600, Note_on_c, 3, 59, 100
6, 15600, Note_on_c, 3, 51, 100
6, 15660, Note_off_c, 3, 59, 0
6, 15660, Note_off_c, 3, 51, 0
6, 15720, Note_on_c, 3, 59, 100
6, 15720, Note_on_c, 3, 51, 100
6, 15840, Note_off_c, 3, 59, 0
6, 15840, Note_off_c, 3, 51, 0
6, 16080, Note_on_c, 3, 59, 100
6, 16080, Note_on_c, 3, 51, 100
6, 16200, Note_off_c, 3, 59, 0
6, 16200, Note_off_c, 3, 51, 0
6, 16320, Note_on_c, 3, 63, 100
6, 16320, Note_on_c, 3, 51, 100
6, 16800, Note_off_c, 3, 63, 0
6, 16800, Note_off_c, 3, 51, 0
6, 17040, Note_on_c, 3, 59, 100
6, 17040, Note_on_c, 3, 51, 100
6, 17100, Note_off_c, 3, 59, 0
6, 17100, Note_off_c, 3, 51, 0
6, 17160, Note_on_c, 3, 59, 100
6, 17160, Note_on_c, 3, 51, 100
6, 17220, Note_off_c, 3, 59, 0
6, 17220, Note_off_c, 3, 51, 0
6, 17280, Note_on_c, 3, 56, 100
6, 17280, Note_on_c, 3, 47, 100
6, 17340, Note_off_c, 3, 56, 0
6, 17340, Note_off_c, 3, 47, 0
6, 17400, Note_on_c, 3, 56, 100
6, 17400, Note_on_c, 3, 47, 100
6, 17460, Note_off_c, 3, 56, 0
6, 17460, Note_off_c, 3, 47, 0
6, 17520, Note_on_c, 3, 56, 100
6, 17520, Note_on_c, 3, 47, 100
6, 17640, Note_off_c, 3, 56, 0
6, 17640, Note_off_c, 3, 47, 0
6, 17880, Note_on_c, 3, 56, 100
6, 17880, Note_on_c, 3, 47, 100
6, 17940, Note_off_c, 3, 56, 0
6, 17940, Note_off_c, 3, 47, 0
6, 18000, Note_on_c, 3, 56, 100
6, 18000, Note_on_c, 3, 47, 100
6, 18420, Note_off_c, 3, 56, 0
6, 18420, Note_off_c, 3, 47, 0
6, 18720, Note_on_c, 3, 56, 100
6, 18720, Note_on_c, 3, 47, 100
6, 18780, Note_off_c, 3, 56, 0
6, 18780, Note_off_c, 3, 47, 0
6, 18840, Note_on_c, 3, 56, 100
6, 18840, Note_on_c, 3, 47, 100
6, 18900, Note_off_c, 3, 56, 0
6, 18900, Note_off_c, 3, 47, 0
6, 18960, Note_on_c, 3, 63, 100
6, 18960, Note_on_c, 3, 56, 100
6, 18960, Note_on_c, 3, 47, 100
6, 19200, Note_off_c, 3, 63, 0
6, 19200, Note_off_c, 3, 56, 0
6, 19200, Note_off_c, 3, 47, 0
6, 19200, Note_on_c, 3, 56, 100
6, 19200, Note_on_c, 3, 47, 100
6, 19260, Note_off_c, 3, 56, 0
6, 19260, Note_off_c, 3, 47, 0
6, 19320, Note_on_c, 3, 56, 100
6, 19320, Note_on_c, 3, 47, 100
6, 19380, Note_off_c, 3, 56, 0
6, 19380, Note_off_c, 3, 47, 0
6, 19440, Note_on_c, 3, 56, 100
6, 19440, Note_on_c, 3, 47, 100
6, 19500, Note_off_c, 3, 56, 0
6, 19500, Note_off_c, 3, 47, 0
6, 19560, Note_on_c, 3, 56, 100
6, 19560, Note_on_c, 3, 47, 100
6, 19680, Note_off_c, 3, 56, 0
6, 19680, Note_off_c, 3, 47, 0
6, 19920, Note_on_c, 3, 56, 100
6, 19920, Note_on_c, 3, 47, 100
6, 20040, Note_off_c, 3, 56, 0
6, 20040, Note_off_c, 3, 47, 0
6, 20160, Note_on_c, 3, 63, 100
6, 20160, Note_on_c, 3, 58, 100
6, 20160, Note_on_c, 3, 49, 100
6, 20640, Note_off_c, 3, 63, 0
6, 20640, Note_off_c, 3, 58, 0
6, 20640, Note_off_c, 3, 49, 0
6, 20880, Note_on_c, 3, 58, 100
6, 20880, Note_on_c, 3, 49, 100
6, 20940, Note_off_c, 3, 58, 0
6, 20940, Note_off_c, 3, 49, 0
6, 21000, Note_on_c, 3, 58, 100
6, 21000, Note_on_c, 3, 49, 100
6, 21060, Note_off_c, 3, 58, 0
6, 21060, Note_off_c, 3, 49, 0
6, 21120, Note_on_c, 3, 59, 100
6, 21120, Note_on_c, 3, 51, 100
6, 21180, Note_off_c, 3, 59, 0
6, 21180, Note_off_c, 3, 51, 0
6, 21240, Note_on_c, 3, 59, 100
6, 21240, Note_on_c, 3, 51, 100
6, 21300, Note_off_c, 3, 59, 0
6, 21300, Note_off_c, 3, 51, 0
6, 21360, Note_on_c, 3, 59, 100
6, 21360, Note_on_c, 3, 51, 100
6, 21480, Note_off_c, 3, 59, 0
6, 21480, Note_off_c, 3, 51, 0
6, 21720, Note_on_c, 3, 59, 100
6, 21720, Note_on_c, 3, 51, 100
6, 21780, Note_off_c, 3, 59, 0
6, 21780, Note_off_c, 3, 51, 0
6, 21840, Note_on_c, 3, 59, 100
6, 21840, Note_on_c, 3, 51, 100
6, 22260, Note_off_c, 3, 59, 0
6, 22260, Note_off_c, 3, 51, 0
6, 22560, Note_on_c, 3, 59, 100
6, 22560, Note_on_c, 3, 51, 100
6, 22620, Note_off_c, 3, 59, 0
6, 22620, Note_off_c, 3, 51, 0
6, 22680, Note_on_c, 3, 59, 100
6, 22680, Note_on_c, 3, 51, 100
6, 22740, Note_off_c, 3, 59, 0
6, 22740, Note_off_c, 3, 51, 0
6, 22800, Note_on_c, 3, 63, 100
6, 22800, Note_on_c, 3, 59, 100
6, 22800, Note_on_c, 3, 51, 100
6, 23040, Note_off_c, 3, 63, 0
6, 23040, Note_off_c, 3, 59, 0
6, 23040, Note_off_c, 3, 51, 0
6, 23040, Note_on_c, 3, 59, 100
6, 23040, Note_on_c, 3, 51, 100
6, 23100, Note_off_c, 3, 59, 0
6, 23100, Note_off_c, 3, 51, 0
6, 23160, Note_on_c, 3, 59, 100
6, 23160, Note_on_c, 3, 51, 100
6, 23220, Note_off_c, 3, 59, 0
6, 23220, Note_off_c, 3, 51, 0
6, 23280, Note_on_c, 3, 59, 100
6, 23280, Note_on_c, 3, 51, 100
6, 23340, Note_off_c, 3, 59, 0
6, 23340, Note_off_c, 3, 51, 0
6, 23400, Note_on_c, 3, 59, 100
6, 23400, Note_on_c, 3, 51, 100
6, 23520, Note_off_c, 3, 59, 0
6, 23520, Note_off_c, 3, 51, 0
6, 23760, Note_on_c, 3, 59, 100
6, 23760, Note_on_c, 3, 51, 100
6, 23880, Note_off_c, 3, 59, 0
6, 23880, Note_off_c, 3, 51, 0
6, 24000, Note_on_c, 3, 59, 100
6, 24000, Note_on_c, 3, 51, 100
6, 24480, Note_off_c, 3, 59, 0
6, 24480, Note_off_c, 3, 51, 0
6, 24720, Note_on_c, 3, 59, 100
6, 24720, Note_on_c, 3, 51, 100
6, 24780, Note_off_c, 3, 59, 0
6, 24780, Note_off_c, 3, 51, 0
6, 24840, Note_on_c, 3, 59, 100
6, 24840, Note_on_c, 3, 51, 100
6, 24900, Note_off_c, 3, 59, 0
6, 24900, Note_off_c, 3, 51, 0
6, 24960, Note_on_c, 3, 56, 100
6, 24960, Note_on_c, 3, 47, 100
6, 25020, Note_off_c, 3, 56, 0
6, 25020, Note_off_c, 3, 47, 0
6, 25080, Note_on_c, 3, 56, 100
6, 25080, Note_on_c, 3, 47, 100
6, 25140, Note_off_c, 3, 56, 0
6, 25140, Note_off_c, 3, 47, 0
6, 25200, Note_on_c, 3, 56, 100
6, 25200, Note_on_c, 3, 47, 100
6, 25320, Note_off_c, 3, 56, 0
6, 25320, Note_off_c, 3, 47, 0
6, 25560, Note_on_c, 3, 56, 100
6, 25560, Note_on_c, 3, 47, 100
6, 25620, Note_off_c, 3, 56, 0
6, 25620, Note_off_c, 3, 47, 0
6, 25680, Note_on_c, 3, 56, 100
6, 25680, Note_on_c, 3, 47, 100
6, 26100, Note_off_c, 3, 56, 0
6, 26100, Note_off_c, 3, 47, 0
6, 26400, Note_on_c, 3, 56, 100
6, 26400, Note_on_c, 3, 47, 100
6, 26460, Note_off_c, 3, 56, 0
6, 26460, Note_off_c, 3, 47, 0
6, 26520, Note_on_c, 3, 56, 100
6, 26520, Note_on_c, 3, 47, 100
6, 26580, Note_off_c, 3, 56, 0
6, 26580, Note_off_c, 3, 47, 0
6, 26640, Note_on_c, 3, 63, 100
6, 26640, Note_on_c, 3, 56, 100
6, 26640, Note_on_c, 3, 47, 100
6, 26880, Note_off_c, 3, 63, 0
6, 26880, Note_off_c, 3, 56, 0
6, 26880, Note_off_c, 3, 47, 0
6, 26880, Note_on_c, 3, 56, 100
6, 26880, Note_on_c, 3, 47, 100
6, 26940, Note_off_c, 3, 56, 0
6, 26940, Note_off_c, 3, 47, 0
6, 27000, Note_on_c, 3, 56, 100
6, 27000, Note_on_c, 3, 47, 100
6, 27060, Note_off_c, 3, 56, 0
6, 27060, Note_off_c, 3, 47, 0
6, 27120, Note_on_c, 3, 56, 100
6, 27120, Note_on_c, 3, 47, 100
6, 27180, Note_off_c, 3, 56, 0
6, 27180, Note_off_c, 3, 47, 0
6, 27240, Note_on_c, 3, 56, 100
6, 27240, Note_on_c, 3, 47, 100
6, 27360, Note_off_c, 3, 56, 0
6, 27360, Note_off_c, 3, 47, 0
6, 27600, Note_on_c, 3, 56, 100
6, 27600, Note_on_c, 3, 47, 100
6, 27720, Note_off_c, 3, 56, 0
6, 27720, Note_off_c, 3, 47, 0
6, 27840, Note_on_c, 3, 63, 100
6, 27840, Note_on_c, 3, 58, 100
6, 27840, Note_on_c, 3, 49, 100
6, 28320, Note_off_c, 3, 63, 0
6, 28320, Note_off_c, 3, 58, 0
6, 28320, Note_off_c, 3, 49, 0
6, 28560, Note_on_c, 3, 58, 100
6, 28560, Note_on_c, 3, 49, 100
6, 28620, Note_off_c, 3, 58, 0
6, 28620, Note_off_c, 3, 49, 0
6, 28680, Note_on_c, 3, 58, 100
6, 28680, Note_on_c, 3, 49, 100
6, 28740, Note_off_c, 3, 58, 0
6, 28740, Note_off_c, 3, 49, 0
6, 28800, Note_on_c, 3, 59, 100
6, 28800, Note_on_c, 3, 51, 100
6, 28860, Note_off_c, 3, 59, 0
6, 28860, Note_off_c, 3, 51, 0
6, 28920, Note_on_c, 3, 59, 100
6, 28920, Note_on_c, 3, 51, 100
6, 28980, Note_off_c, 3, 59, 0
6, 28980, Note_off_c, 3, 51, 0
6, 29040, Note_on_c, 3, 59, 100
6, 29040, Note_on_c, 3, 51, 100
6, 29160, Note_off_c, 3, 59, 0
6, 29160, Note_off_c, 3, 51, 0
6, 29400, Note_on_c, 3, 59, 100
6, 29400, Note_on_c, 3, 51, 100
6, 29460, Note_off_c, 3, 59, 0
6, 29460, Note_off_c, 3, 51, 0
6, 29520, Note_on_c, 3, 59, 100
6, 29520, Note_on_c, 3, 51, 100
6, 29940, Note_off_c, 3, 59, 0
6, 29940, Note_off_c, 3, 51, 0
6, 30240, Note_on_c, 3, 59, 100
6, 30240, Note_on_c, 3, 51, 100
6, 30300, Note_off_c, 3, 59, 0
6, 30300, Note_off_c, 3, 51, 0
6, 30360, Note_on_c, 3, 59, 100
6, 30360, Note_on_c, 3, 51, 100
6, 30420, Note_off_c, 3, 59, 0
6, 30420, Note_off_c, 3, 51, 0
6, 30480, Note_on_c, 3, 63, 100
6, 30480, Note_on_c, 3, 59, 100
6, 30480, Note_on_c, 3, 51, 100
6, 30720, Note_off_c, 3, 63, 0
6, 30720, Note_off_c, 3, 59, 0
6, 30720, Note_off_c, 3, 51, 0
6, 30720, Note_on_c, 3, 59, 100
6, 30720, Note_on_c, 3, 51, 100
6, 30780, Note_off_c, 3, 59, 0
6, 30780, Note_off_c, 3, 51, 0
6, 30840, Note_on_c, 3, 59, 100
6, 30840, Note_on_c, 3, 51, 100
6, 30900, Note_off_c, 3, 59, 0
6, 30900, Note_off_c, 3, 51, 0
6, 30960, Note_on_c, 3, 59, 100
6, 30960, Note_on_c, 3, 51, 100
6, 31020, Note_off_c, 3, 59, 0
6, 31020, Note_off_c, 3, 51, 0
6, 31080, Note_on_c, 3, 59, 100
6, 31080, Note_on_c, 3, 51, 100
6, 31200, Note_off_c, 3, 59, 0
6, 31200, Note_off_c, 3, 51, 0
6, 31440, Note_on_c, 3, 59, 100
6, 31440, Note_on_c, 3, 51, 100
6, 31560, Note_off_c, 3, 59, 0
6, 31560, Note_off_c, 3, 51, 0
6, 31680, Note_on_c, 3, 59, 100
6, 31680, Note_on_c, 3, 51, 100
6, 32160, Note_off_c, 3, 59, 0
6, 32160, Note_off_c, 3, 51, 0
6, 32400, Note_on_c, 3, 59, 100
6, 32400, Note_on_c, 3, 51, 100
6, 32460, Note_off_c, 3, 59, 0
6, 32460, Note_off_c, 3, 51, 0
6, 32520, Note_on_c, 3, 59, 100
6, 32520, Note_on_c, 3, 51, 100
6, 32580, Note_off_c, 3, 59, 0
6, 32580, Note_off_c, 3, 51, 0
6, 32640, Note_on_c, 3, 56, 100
6, 32640, Note_on_c, 3, 47, 100
6, 32700, Note_off_c, 3, 56, 0
6, 32700, Note_off_c, 3, 47, 0
6, 32760, Note_on_c, 3, 56, 100
6, 32760, Note_on_c, 3, 47, 100
6, 32820, Note_off_c, 3, 56, 0
6, 32820, Note_off_c, 3, 47, 0
6, 32880, Note_on_c, 3, 56, 100
6, 32880, Note_on_c, 3, 47, 100
6, 33000, Note_off_c, 3, 56, 0
6, 33000, Note_off_c, 3, 47, 0
6, 33240, Note_on_c, 3, 56, 100
6, 33240, Note_on_c, 3, 47, 100
6, 33300, Note_off_c, 3, 56, 0
6, 33300, Note_off_c, 3, 47, 0
6, 33360, Note_on_c, 3, 56, 100
6, 33360, Note_on_c, 3, 47, 100
6, 33780, Note_off_c, 3, 56, 0
6, 33780, Note_off_c, 3, 47, 0
6, 34080, Note_on_c, 3, 56, 100
6, 34080, Note_on_c, 3, 47, 100
6, 34140, Note_off_c, 3, 56, 0
6, 34140, Note_off_c, 3, 47, 0
6, 34200, Note_on_c, 3, 56, 100
6, 34200, Note_on_c, 3, 47, 100
6, 34260, Note_off_c, 3, 56, 0
6, 34260, Note_off_c, 3, 47, 0
6, 34320, Note_on_c, 3, 63, 100
6, 34320, Note_on_c, 3, 56, 100
6, 34320, Note_on_c, 3, 47, 100
6, 34560, Note_off_c, 3, 63, 0
6, 34560, Note_off_c, 3, 56, 0
6, 34560, Note_off_c, 3, 47, 0
6, 34560, Note_on_c, 3, 56, 100
6, 34560, Note_on_c, 3, 47, 100
6, 34620, Note_off_c, 3, 56, 0
6, 34620, Note_off_c, 3, 47, 0
6, 34680, Note_on_c, 3, 56, 100
6, 34680, Note_on_c, 3, 47, 100
6, 34740, Note_off_c, 3, 56, 0
6, 34740, Note_off_c, 3, 47, 0
6, 34800, Note_on_c, 3, 56, 100
6, 34800, Note_on_c, 3, 47, 100
6, 34860, Note_off_c, 3, 56, 0
6, 34860, Note_off_c, 3, 47, 0
6, 34920, Note_on_c, 3, 56, 100
6, 34920, Note_on_c, 3, 47, 100
6, 35040, Note_off_c, 3, 56, 0
6, 35040, Note_off_c, 3, 47, 0
6, 35280, Note_on_c, 3, 56, 100
6, 35280, Note_on_c, 3, 47, 100
6, 35400, Note_off_c, 3, 56, 0
6, 35400, Note_off_c, 3, 47, 0
6, 35520, Note_on_c, 3, 63, 100
6, 35520, Note_on_c, 3, 58, 100
6, 35520, Note_on_c, 3, 49, 100
6, 36000, Note_off_c, 3, 63, 0
6, 36000, Note_off_c, 3, 58, 0
6, 36000, Note_off_c, 3, 49, 0
6, 36240, Note_on_c, 3, 58, 100
6, 36240, Note_on_c, 3, 49, 100
6, 36300, Note_off_c, 3, 58, 0
6, 36300, Note_off_c, 3, 49, 0
6, 36360, Note_on_c, 3, 58, 100
6, 36360, Note_on_c, 3, 49, 100
6, 36420, Note_off_c, 3, 58, 0
6, 36420, Note_off_c, 3, 49, 0
6, 36480, Note_on_c, 3, 59, 100
6, 36480, Note_on_c, 3, 51, 100
6, 36540, Note_off_c, 3, 59, 0
6, 36540, Note_off_c, 3, 51, 0
6, 36600, Note_on_c, 3, 59, 100
6, 36600, Note_on_c, 3, 51, 100
6, 36660, Note_off_c, 3, 59, 0
6, 36660, Note_off_c, 3, 51, 0
6, 36720, Note_on_c, 3, 59, 100
6, 36720, Note_on_c, 3, 51, 100
6, 36840, Note_off_c, 3, 59, 0
6, 36840, Note_off_c, 3, 51, 0
6, 37080, Note_on_c, 3, 59, 100
6, 37080, Note_on_c, 3, 51, 100
6, 37140, Note_off_c, 3, 59, 0
6, 37140, Note_off_c, 3, 51, 0
6, 37200, Note_on_c, 3, 59, 100
6, 37200, Note_on_c, 3, 51, 100
6, 37620, Note_off_c, 3, 59, 0
6, 37620, Note_off_c, 3, 51, 0
6, 37920, Note_on_c, 3, 59, 100
6, 37920, Note_on_c, 3, 51, 100
6, 37980, Note_off_c, 3, 59, 0
6, 37980, Note_off_c, 3, 51, 0
6, 38040, Note_on_c, 3, 59, 100
6, 38040, Note_on_c, 3, 51, 100
6, 38100, Note_off_c, 3, 59, 0
6, 38100, Note_off_c, 3, 51, 0
6, 38160, Note_on_c, 3, 63, 100
6, 38160, Note_on_c, 3, 59, 100
6, 38160, Note_on_c, 3, 51, 100
6, 38400, Note_off_c, 3, 63, 0
6, 38400, Note_off_c, 3, 59, 0
6, 38400, Note_off_c, 3, 51, 0
6, 38400, Note_on_c, 3, 59, 100
6, 38400, Note_on_c, 3, 51, 100
6, 38460, Note_off_c, 3, 59, 0
6, 38460, Note_off_c, 3, 51, 0
6, 38520, Note_on_c, 3, 59, 100
6, 38520, Note_on_c, 3, 51, 100
6, 38580, Note_off_c, 3, 59, 0
6, 38580, Note_off_c, 3, 51, 0
6, 38640, Note_on_c, 3, 59, 100
6, 38640, Note_on_c, 3, 51, 100
6, 38700, Note_off_c, 3, 59, 0
6, 38700, Note_off_c, 3, 51, 0
6, 38760, Note_on_c, 3, 59, 100
6, 38760, Note_on_c, 3, 51, 100
6, 38880, Note_off_c, 3, 59, 0
6, 38880, Note_off_c, 3, 51, 0
6, 39120, Note_on_c, 3, 59, 100
6, 39120, Note_on_c, 3, 51, 100
6, 39240, Note_off_c, 3, 59, 0
6, 39240, Note_off_c, 3, 51, 0
6, 39360, Note_on_c, 3, 71, 100
6, 39360, Note_on_c, 3, 59, 100
6, 39360, Note_on_c, 3, 51, 100
6, 39840, Note_off_c, 3, 71, 0
6, 39840, Note_off_c, 3, 59, 0
6, 39840, Note_off_c, 3, 51, 0
6, 40080, Note_on_c, 3, 59, 100
6, 40080, Note_on_c, 3, 51, 100
6, 40140, Note_off_c, 3, 59, 0
6, 40140, Note_off_c, 3, 51, 0
6, 40200, Note_on_c, 3, 59, 100
6, 40200, Note_on_c, 3, 51, 100
6, 40260, Note_off_c, 3, 59, 0
6, 40260, Note_off_c, 3, 51, 0
6, 55680, Note_on_c, 3, 64, 100
6, 55680, Note_on_c, 3, 59, 100
6, 56400, Note_off_c, 3, 64, 0
6, 56400, Note_off_c, 3, 59, 0
6, 56400, Note_on_c, 3, 59, 100
6, 56400, Note_on_c, 3, 64, 100
6, 57120, Note_off_c, 3, 59, 0
6, 57120, Note_off_c, 3, 64, 0
6, 57120, Note_on_c, 3, 59, 100
6, 57120, Note_on_c, 3, 64, 100
6, 57600, Note_off_c, 3, 59, 0
6, 57600, Note_off_c, 3, 64, 0
6, 57600, Note_on_c, 3, 66, 100
6, 57600, Note_on_c, 3, 61, 100
6, 58320, Note_off_c, 3, 66, 0
6, 58320, Note_off_c, 3, 61, 0
6, 58320, Note_on_c, 3, 66, 100
6, 58320, Note_on_c, 3, 61, 100
6, 58560, Note_off_c, 3, 66, 0
6, 58560, Note_off_c, 3, 61, 0
6, 58560, Note_on_c, 3, 56, 100
6, 58620, Note_off_c, 3, 56, 0
6, 58800, Note_on_c, 3, 56, 100
6, 58860, Note_off_c, 3, 56, 0
6, 59040, Note_on_c, 3, 66, 100
6, 59040, Note_on_c, 3, 61, 100
6, 59520, Note_off_c, 3, 66, 0
6, 59520, Note_off_c, 3, 61, 0
6, 59520, Note_on_c, 3, 68, 100
6, 59520, Note_on_c, 3, 63, 100
6, 60240, Note_off_c, 3, 68, 0
6, 60240, Note_off_c, 3, 63, 0
6, 60240, Note_on_c, 3, 68, 100
6, 60240, Note_on_c, 3, 63, 100
6, 60960, Note_off_c, 3, 68, 0
6, 60960, Note_off_c, 3, 63, 0
6, 60960, Note_on_c, 3, 68, 100
6, 60960, Note_on_c, 3, 63, 100
6, 61440, Note_off_c, 3, 68, 0
6, 61440, Note_off_c, 3, 63, 0
6, 61440, Note_on_c, 3, 68, 100
6, 61440, Note_on_c, 3, 63, 100
6, 62160, Note_off_c, 3, 68, 0
6, 62160, Note_off_c, 3, 63, 0
6, 62160, Note_on_c, 3, 68, 100
6, 62160, Note_on_c, 3, 63, 100
6, 62400, Note_off_c, 3, 68, 0
6, 62400, Note_off_c, 3, 63, 0
6, 62400, Note_on_c, 3, 68, 100
6, 62400, Note_on_c, 3, 63, 100
6, 62520, Note_off_c, 3, 68, 0
6, 62520, Note_off_c, 3, 63, 0
6, 62640, Note_on_c, 3, 56, 100
6, 62700, Note_off_c, 3, 56, 0
6, 62760, Note_on_c, 3, 56, 100
6, 62820, Note_off_c, 3, 56, 0
6, 62880, Note_on_c, 3, 66, 100
6, 62880, Note_on_c, 3, 61, 100
6, 63360, Note_off_c, 3, 66, 0
6, 63360, Note_off_c, 3, 61, 0
6, 63360, Note_on_c, 3, 64, 100
6, 63360, Note_on_c, 3, 59, 100
6, 64080, Note_off_c, 3, 64, 0
6, 64080, Note_off_c, 3, 59, 0
6, 64080, Note_on_c, 3, 59, 100
6, 64080, Note_on_c, 3, 64, 100
6, 64800, Note_off_c, 3, 59, 0
6, 64800, Note_off_c, 3, 64, 0
6, 64800, Note_on_c, 3, 59, 100
6, 64800, Note_on_c, 3, 64, 100
6, 65280, Note_off_c, 3, 59, 0
6, 65280, Note_off_c, 3, 64, 0
6, 65280, Note_on_c, 3, 66, 100
6, 65280, Note_on_c, 3, 61, 100
6, 66000, Note_off_c, 3, 66, 0
6, 66000, Note_off_c, 3, 61, 0
6, 66000, Note_on_c, 3, 66, 100
6, 66000, Note_on_c, 3, 61, 100
6, 66240, Note_off_c, 3, 66, 0
6, 66240, Note_off_c, 3, 61, 0
6, 66240, Note_on_c, 3, 56, 100
6, 66300, Note_off_c, 3, 56, 0
6, 66480, Note_on_c, 3, 56, 100
6, 66540, Note_off_c, 3, 56, 0
6, 66720, Note_on_c, 3, 66, 100
6, 66720, Note_on_c, 3, 61, 100
6, 67200, Note_off_c, 3, 66, 0
6, 67200, Note_off_c, 3, 61, 0
6, 67200, Note_on_c, 3, 68, 100
6, 67200, Note_on_c, 3, 63, 100
6, 67920, Note_off_c, 3, 68, 0
6, 67920, Note_off_c, 3, 63, 0
6, 67920, Note_on_c, 3, 68, 100
6, 67920, Note_on_c, 3, 63, 100
6, 68640, Note_off_c, 3, 68, 0
6, 68640, Note_off_c, 3, 63, 0
6, 68640, Note_on_c, 3, 68, 100
6, 68640, Note_on_c, 3, 63, 100
6, 69120, Note_off_c, 3, 68, 0
6, 69120, Note_off_c, 3, 63, 0
6, 69120, Note_on_c, 3, 68, 100
6, 69120, Note_on_c, 3, 63, 100
6, 69360, Note_off_c, 3, 68, 0
6, 69360, Note_off_c, 3, 63, 0
6, 69360, Note_on_c, 3, 56, 100
6, 69420, Note_off_c, 3, 56, 0
6, 69480, Note_on_c, 3, 56, 100
6, 69540, Note_off_c, 3, 56, 0
6, 69600, Note_on_c, 3, 68, 100
6, 69600, Note_on_c, 3, 63, 100
6, 69840, Note_off_c, 3, 68, 0
6, 69840, Note_off_c, 3, 63, 0
6, 69840, Note_on_c, 3, 56, 100
6, 69900, Note_off_c, 3, 56, 0
6, 69960, Note_on_c, 3, 56, 100
6, 70020, Note_off_c, 3, 56, 0
6, 70080, Note_on_c, 3, 68, 100
6, 70080, Note_on_c, 3, 63, 100
6, 70200, Note_off_c, 3, 68, 0
6, 70200, Note_off_c, 3, 63, 0
6, 70320, Note_on_c, 3, 56, 100
6, 70380, Note_off_c, 3, 56, 0
6, 70440, Note_on_c, 3, 56, 100
6, 70500, Note_off_c, 3, 56, 0
6, 70560, Note_on_c, 3, 63, 100
6, 70560, Note_on_c, 3, 68, 100
6, 71040, Note_off_c, 3, 63, 0
6, 71040, Note_off_c, 3, 68, 0
6, 71040, Note_on_c, 3, 64, 100
6, 71040, Note_on_c, 3, 59, 100
6, 71760, Note_off_c, 3, 64, 0
6, 71760, Note_off_c, 3, 59, 0
6, 71760, Note_on_c, 3, 59, 100
6, 71760, Note_on_c, 3, 64, 100
6, 72480, Note_off_c, 3, 59, 0
6, 72480, Note_off_c, 3, 64, 0
6, 72480, Note_on_c, 3, 59, 100
6, 72480, Note_on_c, 3, 64, 100
6, 72960, Note_off_c, 3, 59, 0
6, 72960, Note_off_c, 3, 64, 0
6, 72960, Note_on_c, 3, 66, 100
6, 72960, Note_on_c, 3, 61, 100
6, 73680, Note_off_c, 3, 66, 0
6, 73680, Note_off_c, 3, 61, 0
6, 73680, Note_on_c, 3, 66, 100
6, 73680, Note_on_c, 3, 61, 100
6, 73920, Note_off_c, 3, 66, 0
6, 73920, Note_off_c, 3, 61, 0
6, 73920, Note_on_c, 3, 56, 100
6, 73980, Note_off_c, 3, 56, 0
6, 74160, Note_on_c, 3, 56, 100
6, 74220, Note_off_c, 3, 56, 0
6, 74400, Note_on_c, 3, 66, 100
6, 74400, Note_on_c, 3, 61, 100
6, 74880, Note_off_c, 3, 66, 0
6, 74880, Note_off_c, 3, 61, 0
6, 74880, Note_on_c, 3, 68, 100
6, 74880, Note_on_c, 3, 63, 100
6, 75600, Note_off_c, 3, 68, 0
6, 75600, Note_off_c, 3, 63, 0
6, 75600, Note_on_c, 3, 68, 100
6, 75600, Note_on_c, 3, 63, 100
6, 76320, Note_off_c, 3, 68, 0
6, 76320, Note_off_c, 3, 63, 0
6, 76320, Note_on_c, 3, 68, 100
6, 76320, Note_on_c, 3, 63, 100
6, 76800, Note_off_c, 3, 68, 0
6, 76800, Note_off_c, 3, 63, 0
6, 76800, Note_on_c, 3, 68, 100
6, 76800, Note_on_c, 3, 63, 100
6, 77520, Note_off_c, 3, 68, 0
6, 77520, Note_off_c, 3, 63, 0
6, 77520, Note_on_c, 3, 68, 100
6, 77520, Note_on_c, 3, 63, 100
6, 77760, Note_off_c, 3, 68, 0
6, 77760, Note_off_c, 3, 63, 0
6, 77760, Note_on_c, 3, 68, 100
6, 77760, Note_on_c, 3, 63, 100
6, 77880, Note_off_c, 3, 68, 0
6, 77880, Note_off_c, 3, 63, 0
6, 78000, Note_on_c, 3, 56, 100
6, 78060, Note_off_c, 3, 56, 0
6, 78120, Note_on_c, 3, 56, 100
6, 78180, Note_off_c, 3, 56, 0
6, 78240, Note_on_c, 3, 66, 100
6, 78240, Note_on_c, 3, 61, 100
6, 78720, Note_off_c, 3, 66, 0
6, 78720, Note_off_c, 3, 61, 0
6, 78720, Note_on_c, 3, 64, 100
6, 78720, Note_on_c, 3, 59, 100
6, 79440, Note_off_c, 3, 64, 0
6, 79440, Note_off_c, 3, 59, 0
6, 79440, Note_on_c, 3, 59, 100
6, 79440, Note_on_c, 3, 64, 100
6, 80160, Note_off_c, 3, 59, 0
6, 80160, Note_off_c, 3, 64, 0
6, 80160, Note_on_c, 3, 59, 100
6, 80160, Note_on_c, 3, 64, 100
6, 80640, Note_off_c, 3, 59, 0
6, 80640, Note_off_c, 3, 64, 0
6, 80640, Note_on_c, 3, 66, 100
6, 80640, Note_on_c, 3, 61, 100
6, 81360, Note_off_c, 3, 66, 0
6, 81360, Note_off_c, 3, 61, 0
6, 81360, Note_on_c, 3, 66, 100
6, 81360, Note_on_c, 3, 61, 100
6, 81600, Note_off_c, 3, 66, 0
6, 81600, Note_off_c, 3, 61, 0
6, 81600, Note_on_c, 3, 56, 100
6, 81660, Note_off_c, 3, 56, 0
6, 81840, Note_on_c, 3, 56, 100
6, 81900, Note_off_c, 3, 56, 0
6, 82080, Note_on_c, 3, 66, 100
6, 82080, Note_on_c, 3, 61, 100
6, 82560, Note_off_c, 3, 66, 0
6, 82560, Note_off_c, 3, 61, 0
6, 82560, Note_on_c, 3, 68, 100
6, 82560, Note_on_c, 3, 63, 100
6, 83280, Note_off_c, 3, 68, 0
6, 83280, Note_off_c, 3, 63, 0
6, 83280, Note_on_c, 3, 68, 100
6, 83280, Note_on_c, 3, 63, 100
6, 84000, Note_off_c, 3, 68, 0
6, 84000, Note_off_c, 3, 63, 0
6, 84000, Note_on_c, 3, 68, 100
6, 84000, Note_on_c, 3, 63, 100
6, 84480, Note_off_c, 3, 68, 0
6, 84480, Note_off_c, 3, 63, 0
6, 84480, Note_on_c, 3, 68, 100
6, 84480, Note_on_c, 3, 63, 100
6, 84720, Note_off_c, 3, 68, 0
6, 84720, Note_off_c, 3, 63, 0
6, 84720, Note_on_c, 3, 56, 100
6, 84780, Note_off_c, 3, 56, 0
6, 84840, Note_on_c, 3, 56, 100
6, 84900, Note_off_c, 3, 56, 0
6, 84960, Note_on_c, 3, 68, 100
6, 84960, Note_on_c, 3, 63, 100
6, 85200, Note_off_c, 3, 68, 0
6, 85200, Note_off_c, 3, 63, 0
6, 85200, Note_on_c, 3, 56, 100
6, 85260, Note_off_c, 3, 56, 0
6, 85320, Note_on_c, 3, 56, 100
6, 85380, Note_off_c, 3, 56, 0
6, 85440, Note_on_c, 3, 68, 100
6, 85440, Note_on_c, 3, 63, 100
6, 85560, Note_off_c, 3, 68, 0
6, 85560, Note_off_c, 3, 63, 0
6, 85680, Note_on_c, 3, 56, 100
6, 85740, Note_off_c, 3, 56, 0
6, 85800, Note_on_c, 3, 56, 100
6, 85860, Note_off_c, 3, 56, 0
6, 85920, Note_on_c, 3, 63, 100
6, 85920, Note_on_c, 3, 68, 100
6, 86400, Note_off_c, 3, 63, 0
6, 86400, Note_off_c, 3, 68, 0
6, 86400, Note_on_c, 3, 56, 100
6, 86400, Note_on_c, 3, 63, 100
6, 88320, Note_off_c, 3, 56, 0
6, 88320, Note_off_c, 3, 63, 0
6, 88320, Note_on_c, 3, 64, 100
6, 88320, Note_on_c, 3, 59, 100
6, 89280, Note_off_c, 3, 64, 0
6, 89280, Note_off_c, 3, 59, 0
6, 89280, Note_on_c, 3, 61, 100
6, 89280, Note_on_c, 3, 54, 100
6, 90240, Note_off_c, 3, 61, 0
6, 90240, Note_off_c, 3, 54, 0
6, 90240, Note_on_c, 3, 63, 100
6, 90240, Note_on_c, 3, 58, 100
6, 91200, Note_off_c, 3, 63, 0
6, 91200, Note_off_c, 3, 58, 0
6, 91200, Note_on_c, 3, 59, 100
6, 91200, Note_on_c, 3, 54, 100
6, 92160, Note_off_c, 3, 59, 0
6, 92160, Note_off_c, 3, 54, 0
6, 92160, Note_on_c, 3, 56, 100
6, 92160, Note_on_c, 3, 51, 100
6, 93120, Note_off_c, 3, 56, 0
6, 93120, Note_off_c, 3, 51, 0
6, 93120, Note_on_c, 3, 55, 100
6, 93120, Note_on_c, 3, 46, 100
6, 94080, Note_off_c, 3, 55, 0
6, 94080, Note_off_c, 3, 46, 0
6, 94080, Note_on_c, 3, 56, 100
6, 94080, Note_on_c, 3, 47, 100
6, 94140, Note_off_c, 3, 56, 0
6, 94140, Note_off_c, 3, 47, 0
6, 94200, Note_on_c, 3, 56, 100
6, 94200, Note_on_c, 3, 47, 100
6, 94260, Note_off_c, 3, 56, 0
6, 94260, Note_off_c, 3, 47, 0
6, 94320, Note_on_c, 3, 56, 100
6, 94320, Note_on_c, 3, 47, 100
6, 94440, Note_off_c, 3, 56, 0
6, 94440, Note_off_c, 3, 47, 0
6, 94680, Note_on_c, 3, 56, 100
6, 94680, Note_on_c, 3, 47, 100
6, 94740, Note_off_c, 3, 56, 0
6, 94740, Note_off_c, 3, 47, 0
6, 94800, Note_on_c, 3, 56, 100
6, 94800, Note_on_c, 3, 47, 100
6, 95220, Note_off_c, 3, 56, 0
6, 95220, Note_off_c, 3, 47, 0
6, 95520, Note_on_c, 3, 56, 100
6, 95520, Note_on_c, 3, 47, 100
6, 95580, Note_off_c, 3, 56, 0
6, 95580, Note_off_c, 3, 47, 0
6, 95640, Note_on_c, 3, 56, 100
6, 95640, Note_on_c, 3, 47, 100
6, 95700, Note_off_c, 3, 56, 0
6, 95700, Note_off_c, 3, 47, 0
6, 95760, Note_on_c, 3, 63, 100
6, 95760, Note_on_c, 3, 56, 100
6, 95760, Note_on_c, 3, 47, 100
6, 96000, Note_off_c, 3, 63, 0
6, 96000, Note_off_c, 3, 56, 0
6, 96000, Note_off_c, 3, 47, 0
6, 96000, Note_on_c, 3, 56, 100
6, 96000, Note_on_c, 3, 47, 100
6, 96060, Note_off_c, 3, 56, 0
6, 96060, Note_off_c, 3, 47, 0
6, 96120, Note_on_c, 3, 56, 100
6, 96120, Note_on_c, 3, 47, 100
6, 96180, Note_off_c, 3, 56, 0
6, 96180, Note_off_c, 3, 47, 0
6, 96240, Note_on_c, 3, 56, 100
6, 96240, Note_on_c, 3, 47, 100
6, 96300, Note_off_c, 3, 56, 0
6, 96300, Note_off_c, 3, 47, 0
6, 96360, Note_on_c, 3, 56, 100
6, 96360, Note_on_c, 3, 47, 100
6, 96480, Note_off_c, 3, 56, 0
6, 96480, Note_off_c, 3, 47, 0
6, 96720, Note_on_c, 3, 56, 100
6, 96720, Note_on_c, 3, 47, 100
6, 96840, Note_off_c, 3, 56, 0
6, 96840, Note_off_c, 3, 47, 0
6, 96960, Note_on_c, 3, 63, 100
6, 96960, Note_on_c, 3, 58, 100
6, 96960, Note_on_c, 3, 49, 100
6, 97440, Note_off_c, 3, 63, 0
6, 97440, Note_off_c, 3, 58, 0
6, 97440, Note_off_c, 3, 49, 0
6, 97680, Note_on_c, 3, 58, 100
6, 97680, Note_on_c, 3, 49, 100
6, 97740, Note_off_c, 3, 58, 0
6, 97740, Note_off_c, 3, 49, 0
6, 97800, Note_on_c, 3, 58, 100
6, 97800, Note_on_c, 3, 49, 100
6, 97860, Note_off_c, 3, 58, 0
6, 97860, Note_off_c, 3, 49, 0
6, 97920, Note_on_c, 3, 59, 100
6, 97920, Note_on_c, 3, 51, 100
6, 97980, Note_off_c, 3, 59, 0
6, 97980, Note_off_c, 3, 51, 0
6, 98040, Note_on_c, 3, 59, 100
6, 98040, Note_on_c, 3, 51, 100
6, 98100, Note_off_c, 3, 59, 0
6, 98100, Note_off_c, 3, 51, 0
6, 98160, Note_on_c, 3, 59, 100
6, 98160, Note_on_c, 3, 51, 100
6, 98280, Note_off_c, 3, 59, 0
6, 98280, Note_off_c, 3, 51, 0
6, 98520, Note_on_c, 3, 59, 100
6, 98520, Note_on_c, 3, 51, 100
6, 98580, Note_off_c, 3, 59, 0
6, 98580, Note_off_c, 3, 51, 0
6, 98640, Note_on_c, 3, 59, 100
6, 98640, Note_on_c, 3, 51, 100
6, 99060, Note_off_c, 3, 59, 0
6, 99060, Note_off_c, 3, 51, 0
6, 99360, Note_on_c, 3, 59, 100
6, 99360, Note_on_c, 3, 51, 100
6, 99420, Note_off_c, 3, 59, 0
6, 99420, Note_off_c, 3, 51, 0
6, 99480, Note_on_c, 3, 59, 100
6, 99480, Note_on_c, 3, 51, 100
6, 99540, Note_off_c, 3, 59, 0
6, 99540, Note_off_c, 3, 51, 0
6, 99600, Note_on_c, 3, 63, 100
6, 99600, Note_on_c, 3, 59, 100
6, 99600, Note_on_c, 3, 51, 100
6, 99840, Note_off_c, 3, 63, 0
6, 99840, Note_off_c, 3, 59, 0
6, 99840, Note_off_c, 3, 51, 0
6, 99840, Note_on_c, 3, 59, 100
6, 99840, Note_on_c, 3, 51, 100
6, 99900, Note_off_c, 3, 59, 0
6, 99900, Note_off_c, 3, 51, 0
6, 99960, Note_on_c, 3, 59, 100
6, 99960, Note_on_c, 3, 51, 100
6, 100020, Note_off_c, 3, 59, 0
6, 100020, Note_off_c, 3, 51, 0
6, 100080, Note_on_c, 3, 59, 100
6, 100080, Note_on_c, 3, 51, 100
6, 100140, Note_off_c, 3, 59, 0
6, 100140, Note_off_c, 3, 51, 0
6, 100200, Note_on_c, 3, 59, 100
6, 100200, Note_on_c, 3, 51, 100
6, 100320, Note_off_c, 3, 59, 0
6, 100320, Note_off_c, 3, 51, 0
6, 100560, Note_on_c, 3, 59, 100
6, 100560, Note_on_c, 3, 51, 100
6, 100680, Note_off_c, 3, 59, 0
6, 100680, Note_off_c, 3, 51, 0
6, 100800, Note_on_c, 3, 63, 100
6, 100800, Note_on_c, 3, 51, 100
6, 101280, Note_off_c, 3, 63, 0
6, 101280, Note_off_c, 3, 51, 0
6, 101520, Note_on_c, 3, 59, 100
6, 101520, Note_on_c, 3, 51, 100
6, 101580, Note_off_c, 3, 59, 0
6, 101580, Note_off_c, 3, 51, 0
6, 101640, Note_on_c, 3, 59, 100
6, 101640, Note_on_c, 3, 51, 100
6, 101700, Note_off_c, 3, 59, 0
6, 101700, Note_off_c, 3, 51, 0
6, 101760, Note_on_c, 3, 56, 100
6, 101760, Note_on_c, 3, 47, 100
6, 101820, Note_off_c, 3, 56, 0
6, 101820, Note_off_c, 3, 47, 0
6, 101880, Note_on_c, 3, 56, 100
6, 101880, Note_on_c, 3, 47, 100
6, 101940, Note_off_c, 3, 56, 0
6, 101940, Note_off_c, 3, 47, 0
6, 102000, Note_on_c, 3, 56, 100
6, 102000, Note_on_c, 3, 47, 100
6, 102120, Note_off_c, 3, 56, 0
6, 102120, Note_off_c, 3, 47, 0
6, 102360, Note_on_c, 3, 56, 100
6, 102360, Note_on_c, 3, 47, 100
6, 102420, Note_off_c, 3, 56, 0
6, 102420, Note_off_c, 3, 47, 0
6, 102480, Note_on_c, 3, 56, 100
6, 102480, Note_on_c, 3, 47, 100
6, 102900, Note_off_c, 3, 56, 0
6, 102900, Note_off_c, 3, 47, 0
6, 103200, Note_on_c, 3, 56, 100
6, 103200, Note_on_c, 3, 47, 100
6, 103260, Note_off_c, 3, 56, 0
6, 103260, Note_off_c, 3, 47, 0
6, 103320, Note_on_c, 3, 56, 100
6, 103320, Note_on_c, 3, 47, 100
6, 103380, Note_off_c, 3, 56, 0
6, 103380, Note_off_c, 3, 47, 0
6, 103440, Note_on_c, 3, 63, 100
6, 103440, Note_on_c, 3, 56, 100
6, 103440, Note_on_c, 3, 47, 100
6, 103680, Note_off_c, 3, 63, 0
6, 103680, Note_off_c, 3, 56, 0
6, 103680, Note_off_c, 3, 47, 0
6, 103680, Note_on_c, 3, 56, 100
6, 103680, Note_on_c, 3, 47, 100
6, 103740, Note_off_c, 3, 56, 0
6, 103740, Note_off_c, 3, 47, 0
6, 103800, Note_on_c, 3, 56, 100
6, 103800, Note_on_c, 3, 47, 100
6, 103860, Note_off_c, 3, 56, 0
6, 103860, Note_off_c, 3, 47, 0
6, 103920, Note_on_c, 3, 56, 100
6, 103920, Note_on_c, 3, 47, 100
6, 103980, Note_off_c, 3, 56, 0
6, 103980, Note_off_c, 3, 47, 0
6, 104040, Note_on_c, 3, 56, 100
6, 104040, Note_on_c, 3, 47, 100
6, 104160, Note_off_c, 3, 56, 0
6, 104160, Note_off_c, 3, 47, 0
6, 104400, Note_on_c, 3, 56, 100
6, 104400, Note_on_c, 3, 47, 100
6, 104520, Note_off_c, 3, 56, 0
6, 104520, Note_off_c, 3, 47, 0
6, 104640, Note_on_c, 3, 63, 100
6, 104640, Note_on_c, 3, 58, 100
6, 104640, Note_on_c, 3, 49, 100
6, 105120, Note_off_c, 3, 63, 0
6, 105120, Note_off_c, 3, 58, 0
6, 105120, Note_off_c, 3, 49, 0
6, 105360, Note_on_c, 3, 58, 100
6, 105360, Note_on_c, 3, 49, 100
6, 105420, Note_off_c, 3, 58, 0
6, 105420, Note_off_c, 3, 49, 0
6, 105480, Note_on_c, 3, 58, 100
6, 105480, Note_on_c, 3, 49, 100
6, 105540, Note_off_c, 3, 58, 0
6, 105540, Note_off_c, 3, 49, 0
6, 105600, Note_on_c, 3, 59, 100
6, 105600, Note_on_c, 3, 51, 100
6, 105660, Note_off_c, 3, 59, 0
6, 105660, Note_off_c, 3, 51, 0
6, 105720, Note_on_c, 3, 59, 100
6, 105720, Note_on_c, 3, 51, 100
6, 105780, Note_off_c, 3, 59, 0
6, 105780, Note_off_c, 3, 51, 0
6, 105840, Note_on_c, 3, 59, 100
6, 105840, Note_on_c, 3, 51, 100
6, 105960, Note_off_c, 3, 59, 0
6, 105960, Note_off_c, 3, 51, 0
6, 106200, Note_on_c, 3, 59, 100
6, 106200, Note_on_c, 3, 51, 100
6, 106260, Note_off_c, 3, 59, 0
6, 106260, Note_off_c, 3, 51, 0
6, 106320, Note_on_c, 3, 59, 100
6, 106320, Note_on_c, 3, 51, 100
6, 106740, Note_off_c, 3, 59, 0
6, 106740, Note_off_c, 3, 51, 0
6, 107040, Note_on_c, 3, 59, 100
6, 107040, Note_on_c, 3, 51, 100
6, 107100, Note_off_c, 3, 59, 0
6, 107100, Note_off_c, 3, 51, 0
6, 107160, Note_on_c, 3, 59, 100
6, 107160, Note_on_c, 3, 51, 100
6, 107220, Note_off_c, 3, 59, 0
6, 107220, Note_off_c, 3, 51, 0
6, 107280, Note_on_c, 3, 63, 100
6, 107280, Note_on_c, 3, 59, 100
6, 107280, Note_on_c, 3, 51, 100
6, 107520, Note_off_c, 3, 63, 0
6, 107520, Note_off_c, 3, 59, 0
6, 107520, Note_off_c, 3, 51, 0
6, 107520, Note_on_c, 3, 59, 100
6, 107520, Note_on_c, 3, 51, 100
6, 107580, Note_off_c, 3, 59, 0
6, 107580, Note_off_c, 3, 51, 0
6, 107640, Note_on_c, 3, 59, 100
6, 107640, Note_on_c, 3, 51, 100
6, 107700, Note_off_c, 3, 59, 0
6, 107700, Note_off_c, 3, 51, 0
6, 107760, Note_on_c, 3, 59, 100
6, 107760, Note_on_c, 3, 51, 100
6, 107820, Note_off_c, 3, 59, 0
6, 107820, Note_off_c, 3, 51, 0
6, 107880, Note_on_c, 3, 59, 100
6, 107880, Note_on_c, 3, 51, 100
6, 108000, Note_off_c, 3, 59, 0
6, 108000, Note_off_c, 3, 51, 0
6, 108240, Note_on_c, 3, 59, 100
6, 108240, Note_on_c, 3, 51, 100
6, 108360, Note_off_c, 3, 59, 0
6, 108360, Note_off_c, 3, 51, 0
6, 108480, Note_on_c, 3, 59, 100
6, 108480, Note_on_c, 3, 51, 100
6, 108960, Note_off_c, 3, 59, 0
6, 108960, Note_off_c, 3, 51, 0
6, 109200, Note_on_c, 3, 59, 100
6, 109200, Note_on_c, 3, 51, 100
6, 109260, Note_off_c, 3, 59, 0
6, 109260, Note_off_c, 3, 51, 0
6, 109320, Note_on_c, 3, 59, 100
6, 109320, Note_on_c, 3, 51, 100
6, 109380, Note_off_c, 3, 59, 0
6, 109380, Note_off_c, 3, 51, 0
6, 109440, Note_on_c, 3, 47, 100
6, 109500, Note_off_c, 3, 47, 0
6, 109680, Note_on_c, 3, 59, 100
6, 109680, Note_on_c, 3, 52, 100
6, 109740, Note_off_c, 3, 59, 0
6, 109740, Note_off_c, 3, 52, 0
6, 109800, Note_on_c, 3, 59, 100
6, 109800, Note_on_c, 3, 52, 100
6, 109860, Note_off_c, 3, 59, 0
6, 109860, Note_off_c, 3, 52, 0
6, 109920, Note_on_c, 3, 59, 100
6, 109920, Note_on_c, 3, 52, 100
6, 110400, Note_off_c, 3, 59, 0
6, 110400, Note_off_c, 3, 52, 0
6, 110400, Note_on_c, 3, 49, 100
6, 110460, Note_off_c, 3, 49, 0
6, 110640, Note_on_c, 3, 61, 100
6, 110640, Note_on_c, 3, 54, 100
6, 110700, Note_off_c, 3, 61, 0
6, 110700, Note_off_c, 3, 54, 0
6, 110760, Note_on_c, 3, 61, 100
6, 110760, Note_on_c, 3, 54, 100
6, 110820, Note_off_c, 3, 61, 0
6, 110820, Note_off_c, 3, 54, 0
6, 110880, Note_on_c, 3, 61, 100
6, 110880, Note_on_c, 3, 54, 100
6, 111360, Note_off_c, 3, 61, 0
6, 111360, Note_off_c, 3, 54, 0
6, 111360, Note_on_c, 3, 51, 100
6, 111420, Note_off_c, 3, 51, 0
6, 111600, Note_on_c, 3, 63, 100
6, 111600, Note_on_c, 3, 56, 100
6, 111660, Note_off_c, 3, 63, 0
6, 111660, Note_off_c, 3, 56, 0
6, 111720, Note_on_c, 3, 63, 100
6, 111720, Note_on_c, 3, 56, 100
6, 111780, Note_off_c, 3, 63, 0
6, 111780, Note_off_c, 3, 56, 0
6, 111840, Note_on_c, 3, 63, 100
6, 111840, Note_on_c, 3, 56, 100
6, 112320, Note_off_c, 3, 63, 0
6, 112320, Note_off_c, 3, 56, 0
6, 112320, Note_on_c, 3, 47, 100
6, 112380, Note_off_c, 3, 47, 0
6, 112560, Note_on_c, 3, 59, 100
6, 112560, Note_on_c, 3, 52, 100
6, 112620, Note_off_c, 3, 59, 0
6, 112620, Note_off_c, 3, 52, 0
6, 112680, Note_on_c, 3, 59, 100
6, 112680, Note_on_c, 3, 52, 100
6, 112740, Note_off_c, 3, 59, 0
6, 112740, Note_off_c, 3, 52, 0
6, 112800, Note_on_c, 3, 59, 100
6, 112800, Note_on_c, 3, 52, 100
6, 113280, Note_off_c, 3, 59, 0
6, 113280, Note_off_c, 3, 52, 0
6, 113280, Note_on_c, 3, 47, 100
6, 113340, Note_off_c, 3, 47, 0
6, 113520, Note_on_c, 3, 59, 100
6, 113520, Note_on_c, 3, 54, 100
6, 113580, Note_off_c, 3, 59, 0
6, 113580, Note_off_c, 3, 54, 0
6, 113640, Note_on_c, 3, 59, 100
6, 113640, Note_on_c, 3, 54, 100
6, 113700, Note_off_c, 3, 59, 0
6, 113700, Note_off_c, 3, 54, 0
6, 113760, Note_on_c, 3, 59, 100
6, 113760, Note_on_c, 3, 54, 100
6, 114240, Note_off_c, 3, 59, 0
6, 114240, Note_off_c, 3, 54, 0
6, 114240, Note_on_c, 3, 49, 100
6, 114300, Note_off_c, 3, 49, 0
6, 114480, Note_on_c, 3, 61, 100
6, 114480, Note_on_c, 3, 56, 100
6, 114540, Note_off_c, 3, 61, 0
6, 114540, Note_off_c, 3, 56, 0
6, 114600, Note_on_c, 3, 61, 100
6, 114600, Note_on_c, 3, 56, 100
6, 114660, Note_off_c, 3, 61, 0
6, 114660, Note_off_c, 3, 56, 0
6, 114720, Note_on_c, 3, 61, 100
6, 114720, Note_on_c, 3, 56, 100
6, 115200, Note_off_c, 3, 61, 0
6, 115200, Note_off_c, 3, 56, 0
6, 115200, Note_on_c, 3, 63, 100
6, 115200, Note_on_c, 3, 58, 100
6, 115440, Note_off_c, 3, 63, 0
6, 115440, Note_off_c, 3, 58, 0
6, 115440, Note_on_c, 3, 58, 100
6, 115440, Note_on_c, 3, 51, 100
6, 115500, Note_off_c, 3, 58, 0
6, 115500, Note_off_c, 3, 51, 0
6, 115560, Note_on_c, 3, 63, 100
6, 115560, Note_on_c, 3, 58, 100
6, 115800, Note_off_c, 3, 63, 0
6, 115800, Note_off_c, 3, 58, 0
6, 115800, Note_on_c, 3, 58, 100
6, 115800, Note_on_c, 3, 51, 100
6, 115860, Note_off_c, 3, 58, 0
6, 115860, Note_off_c, 3, 51, 0
6, 115920, Note_on_c, 3, 63, 100
6, 115920, Note_on_c, 3, 58, 100
6, 116400, Note_off_c, 3, 63, 0
6, 116400, Note_off_c, 3, 58, 0
6, 116400, Note_on_c, 3, 51, 100
6, 116460, Note_off_c, 3, 51, 0
6, 116520, Note_on_c, 3, 51, 100
6, 116580, Note_off_c, 3, 51, 0
6, 116640, Note_on_c, 3, 63, 100
6, 116640, Note_on_c, 3, 56, 100
6, 117120, Note_off_c, 3, 63, 0
6, 117120, Note_off_c, 3, 56, 0
6, 117120, Note_on_c, 3, 47, 100
6, 117180, Note_off_c, 3, 47, 0
6, 117360, Note_on_c, 3, 59, 100
6, 117360, Note_on_c, 3, 54, 100
6, 117420, Note_off_c, 3, 59, 0
6, 117420, Note_off_c, 3, 54, 0
6, 117480, Note_on_c, 3, 59, 100
6, 117480, Note_on_c, 3, 54, 100
6, 117540, Note_off_c, 3, 59, 0
6, 117540, Note_off_c, 3, 54, 0
6, 117600, Note_on_c, 3, 59, 100
6, 117600, Note_on_c, 3, 54, 100
6, 118080, Note_off_c, 3, 59, 0
6, 118080, Note_off_c, 3, 54, 0
6, 118080, Note_on_c, 3, 49, 100
6, 118140, Note_off_c, 3, 49, 0
6, 118320, Note_on_c, 3, 61, 100
6, 118320, Note_on_c, 3, 56, 100
6, 118380, Note_off_c, 3, 61, 0
6, 118380, Note_off_c, 3, 56, 0
6, 118440, Note_on_c, 3, 61, 100
6, 118440, Note_on_c, 3, 56, 100
6, 118500, Note_off_c, 3, 61, 0
6, 118500, Note_off_c, 3, 56, 0
6, 118560, Note_on_c, 3, 61, 100
6, 118560, Note_on_c, 3, 56, 100
6, 119040, Note_off_c, 3, 61, 0
6, 119040, Note_off_c, 3, 56, 0
6, 119040, Note_on_c, 3, 50, 100
6, 119100, Note_off_c, 3, 50, 0
6, 119280, Note_on_c, 3, 61, 100
6, 119280, Note_on_c, 3, 56, 100
6, 119340, Note_off_c, 3, 61, 0
6, 119340, Note_off_c, 3, 56, 0
6, 119400, Note_on_c, 3, 61, 100
6, 119400, Note_on_c, 3, 56, 100
6, 119460, Note_off_c, 3, 61, 0
6, 119460, Note_off_c, 3, 56, 0
6, 119520, Note_on_c, 3, 61, 100
6, 119520, Note_on_c, 3, 56, 100
6, 120000, Note_off_c, 3, 61, 0
6, 120000, Note_off_c, 3, 56, 0
6, 120000, Note_on_c, 3, 47, 100
6, 120060, Note_off_c, 3, 47, 0
6, 120240, Note_on_c, 3, 63, 100
6, 120240, Note_on_c, 3, 58, 100
6, 120300, Note_off_c, 3, 63, 0
6, 120300, Note_off_c, 3, 58, 0
6, 120360, Note_on_c, 3, 63, 100
6, 120360, Note_on_c, 3, 58, 100
6, 120420, Note_off_c, 3, 63, 0
6, 120420, Note_off_c, 3, 58, 0
6, 120480, Note_on_c, 3, 63, 100
6, 120480, Note_on_c, 3, 58, 100
6, 120960, Note_off_c, 3, 63, 0
6, 120960, Note_off_c, 3, 58, 0
6, 120960, Note_on_c, 3, 47, 100
6, 121020, Note_off_c, 3, 47, 0
6, 121200, Note_on_c, 3, 59, 100
6, 121200, Note_on_c, 3, 54, 100
6, 121260, Note_off_c, 3, 59, 0
6, 121260, Note_off_c, 3, 54, 0
6, 121320, Note_on_c, 3, 59, 100
6, 121320, Note_on_c, 3, 54, 100
6, 121380, Note_off_c, 3, 59, 0
6, 121380, Note_off_c, 3, 54, 0
6, 121440, Note_on_c, 3, 59, 100
6, 121440, Note_on_c, 3, 54, 100
6, 121920, Note_off_c, 3, 59, 0
6, 121920, Note_off_c, 3, 54, 0
6, 121920, Note_on_c, 3, 49, 100
6, 121980, Note_off_c, 3, 49, 0
6, 122160, Note_on_c, 3, 61, 100
6, 122160, Note_on_c, 3, 56, 100
6, 122220, Note_off_c, 3, 61, 0
6, 122220, Note_off_c, 3, 56, 0
6, 122280, Note_on_c, 3, 61, 100
6, 122280, Note_on_c, 3, 56, 100
6, 122340, Note_off_c, 3, 61, 0
6, 122340, Note_off_c, 3, 56, 0
6, 122400, Note_on_c, 3, 61, 100
6, 122400, Note_on_c, 3, 56, 100
6, 122880, Note_off_c, 3, 61, 0
6, 122880, Note_off_c, 3, 56, 0
6, 122880, Note_on_c, 3, 62, 100
6, 122880, Note_on_c, 3, 56, 100
6, 123120, Note_off_c, 3, 62, 0
6, 123120, Note_off_c, 3, 56, 0
6, 123120, Note_on_c, 3, 56, 100
6, 123120, Note_on_c, 3, 51, 100
6, 123180, Note_off_c, 3, 56, 0
6, 123180, Note_off_c, 3, 51, 0
6, 123240, Note_on_c, 3, 62, 100
6, 123240, Note_on_c, 3, 56, 100
6, 123480, Note_off_c, 3, 62, 0
6, 123480, Note_off_c, 3, 56, 0
6, 123480, Note_on_c, 3, 56, 100
6, 123480, Note_on_c, 3, 51, 100
6, 123540, Note_off_c, 3, 56, 0
6, 123540, Note_off_c, 3, 51, 0
6, 123600, Note_on_c, 3, 62, 100
6, 123600, Note_on_c, 3, 56, 100
6, 124080, Note_off_c, 3, 62, 0
6, 124080, Note_off_c, 3, 56, 0
6, 124080, Note_on_c, 3, 49, 100
6, 124140, Note_off_c, 3, 49, 0
6, 124200, Note_on_c, 3, 49, 100
6, 124260, Note_off_c, 3, 49, 0
6, 124320, Note_on_c, 3, 66, 100
6, 124320, Note_on_c, 3, 58, 100
6, 124800, Note_off_c, 3, 66, 0
6, 124800, Note_off_c, 3, 58, 0
6, 124800, Note_on_c, 3, 64, 100
6, 124800, Note_on_c, 3, 59, 100
6, 125520, Note_off_c, 3, 64, 0
6, 125520, Note_off_c, 3, 59, 0
6, 125520, Note_on_c, 3, 59, 100
6, 125520, Note_on_c, 3, 64, 100
6, 126240, Note_off_c, 3, 59, 0
6, 126240, Note_off_c, 3, 64, 0
6, 126240, Note_on_c, 3, 59, 100
6, 126240, Note_on_c, 3, 64, 100
6, 126720, Note_off_c, 3, 59, 0
6, 126720, Note_off_c, 3, 64, 0
6, 126720, Note_on_c, 3, 66, 100
6, 126720, Note_on_c, 3, 61, 100
6, 127440, Note_off_c, 3, 66, 0
6, 127440, Note_off_c, 3, 61, 0
6, 127440, Note_on_c, 3, 66, 100
6, 127440, Note_on_c, 3, 61, 100
6, 127680, Note_off_c, 3, 66, 0
6, 127680, Note_off_c, 3, 61, 0
6, 127680, Note_on_c, 3, 56, 100
6, 127740, Note_off_c, 3, 56, 0
6, 127920, Note_on_c, 3, 56, 100
6, 127980, Note_off_c, 3, 56, 0
6, 128160, Note_on_c, 3, 66, 100
6, 128160, Note_on_c, 3, 61, 100
6, 128640, Note_off_c, 3, 66, 0
6, 128640, Note_off_c, 3, 61, 0
6, 128640, Note_on_c, 3, 68, 100
6, 128640, Note_on_c, 3, 63, 100
6, 129360, Note_off_c, 3, 68, 0
6, 129360, Note_off_c, 3, 63, 0
6, 129360, Note_on_c, 3, 68, 100
6, 129360, Note_on_c, 3, 63, 100
6, 130080, Note_off_c, 3, 68, 0
6, 130080, Note_off_c, 3, 63, 0
6, 130080, Note_on_c, 3, 68, 100
6, 130080, Note_on_c, 3, 63, 100
6, 130560, Note_off_c, 3, 68, 0
6, 130560, Note_off_c, 3, 63, 0
6, 130560, Note_on_c, 3, 68, 100
6, 130560, Note_on_c, 3, 63, 100
6, 131280, Note_off_c, 3, 68, 0
6, 131280, Note_off_c, 3, 63, 0
6, 131280, Note_on_c, 3, 68, 100
6, 131280, Note_on_c, 3, 63, 100
6, 131520, Note_off_c, 3, 68, 0
6, 131520, Note_off_c, 3, 63, 0
6, 131520, Note_on_c, 3, 68, 100
6, 131520, Note_on_c, 3, 63, 100
6, 131640, Note_off_c, 3, 68, 0
6, 131640, Note_off_c, 3, 63, 0
6, 131760, Note_on_c, 3, 56, 100
6, 131820, Note_off_c, 3, 56, 0
6, 131880, Note_on_c, 3, 56, 100
6, 131940, Note_off_c, 3, 56, 0
6, 132000, Note_on_c, 3, 66, 100
6, 132000, Note_on_c, 3, 61, 100
6, 132480, Note_off_c, 3, 66, 0
6, 132480, Note_off_c, 3, 61, 0
6, 132480, Note_on_c, 3, 64, 100
6, 132480, Note_on_c, 3, 59, 100
6, 133200, Note_off_c, 3, 64, 0
6, 133200, Note_off_c, 3, 59, 0
6, 133200, Note_on_c, 3, 59, 100
6, 133200, Note_on_c, 3, 64, 100
6, 133920, Note_off_c, 3, 59, 0
6, 133920, Note_off_c, 3, 64, 0
6, 133920, Note_on_c, 3, 59, 100
6, 133920, Note_on_c, 3, 64, 100
6, 134400, Note_off_c, 3, 59, 0
6, 134400, Note_off_c, 3, 64, 0
6, 134400, Note_on_c, 3, 66, 100
6, 134400, Note_on_c, 3, 61, 100
6, 135120, Note_off_c, 3, 66, 0
6, 135120, Note_off_c, 3, 61, 0
6, 135120, Note_on_c, 3, 66, 100
6, 135120, Note_on_c, 3, 61, 100
6, 135360, Note_off_c, 3, 66, 0
6, 135360, Note_off_c, 3, 61, 0
6, 135360, Note_on_c, 3, 56, 100
6, 135420, Note_off_c, 3, 56, 0
6, 135600, Note_on_c, 3, 56, 100
6, 135660, Note_off_c, 3, 56, 0
6, 135840, Note_on_c, 3, 66, 100
6, 135840, Note_on_c, 3, 61, 100
6, 136320, Note_off_c, 3, 66, 0
6, 136320, Note_off_c, 3, 61, 0
6, 136320, Note_on_c, 3, 68, 100
6, 136320, Note_on_c, 3, 63, 100
6, 137040, Note_off_c, 3, 68, 0
6, 137040, Note_off_c, 3, 63, 0
6, 137040, Note_on_c, 3, 68, 100
6, 137040, Note_on_c, 3, 63, 100
6, 137760, Note_off_c, 3, 68, 0
6, 137760, Note_off_c, 3, 63, 0
6, 137760, Note_on_c, 3, 68, 100
6, 137760, Note_on_c, 3, 63, 100
6, 138240, Note_off_c, 3, 68, 0
6, 138240, Note_off_c, 3, 63, 0
6, 138240, Note_on_c, 3, 68, 100
6, 138240, Note_on_c, 3, 63, 100
6, 138480, Note_off_c, 3, 68, 0
6, 138480, Note_off_c, 3, 63, 0
6, 138480, Note_on_c, 3, 56, 100
6, 138540, Note_off_c, 3, 56, 0
6, 138600, Note_on_c, 3, 56, 100
6, 138660, Note_off_c, 3, 56, 0
6, 138720, Note_on_c, 3, 68, 100
6, 138720, Note_on_c, 3, 63, 100
6, 138960, Note_off_c, 3, 68, 0
6, 138960, Note_off_c, 3, 63, 0
6, 138960, Note_on_c, 3, 56, 100
6, 139020, Note_off_c, 3, 56, 0
6, 139080, Note_on_c, 3, 56, 100
6, 139140, Note_off_c, 3, 56, 0
6, 139200, Note_on_c, 3, 68, 100
6, 139200, Note_on_c, 3, 63, 100
6, 139320, Note_off_c, 3, 68, 0
6, 139320, Note_off_c, 3, 63, 0
6, 139440, Note_on_c, 3, 56, 100
6, 139500, Note_off_c, 3, 56, 0
6, 139560, Note_on_c, 3, 56, 100
6, 139620, Note_off_c, 3, 56, 0
6, 139680, Note_on_c, 3, 63, 100
6, 139680, Note_on_c, 3, 68, 100
6, 140160, Note_off_c, 3, 63, 0
6, 140160, Note_off_c, 3, 68, 0
6, 140160, Note_on_c, 3, 64, 100
6, 140160, Note_on_c, 3, 59, 100
6, 140880, Note_off_c, 3, 64, 0
6, 140880, Note_off_c, 3, 59, 0
6, 140880, Note_on_c, 3, 59, 100
6, 140880, Note_on_c, 3, 64, 100
6, 141600, Note_off_c, 3, 59, 0
6, 141600, Note_off_c, 3, 64, 0
6, 141600, Note_on_c, 3, 59, 100
6, 141600, Note_on_c, 3, 64, 100
6, 142080, Note_off_c, 3, 59, 0
6, 142080, Note_off_c, 3, 64, 0
6, 142080, Note_on_c, 3, 66, 100
6, 142080, Note_on_c, 3, 61, 100
6, 142800, Note_off_c, 3, 66, 0
6, 142800, Note_off_c, 3, 61, 0
6, 142800, Note_on_c, 3, 66, 100
6, 142800, Note_on_c, 3, 61, 100
6, 143040, Note_off_c, 3, 66, 0
6, 143040, Note_off_c, 3, 61, 0
6, 143040, Note_on_c, 3, 56, 100
6, 143100, Note_off_c, 3, 56, 0
6, 143280, Note_on_c, 3, 56, 100
6, 143340, Note_off_c, 3, 56, 0
6, 143520, Note_on_c, 3, 66, 100
6, 143520, Note_on_c, 3, 61, 100
6, 144000, Note_off_c, 3, 66, 0
6, 144000, Note_off_c, 3, 61, 0
6, 144000, Note_on_c, 3, 68, 100
6, 144000, Note_on_c, 3, 63, 100
6, 144720, Note_off_c, 3, 68, 0
6, 144720, Note_off_c, 3, 63, 0
6, 144720, Note_on_c, 3, 68, 100
6, 144720, Note_on_c, 3, 63, 100
6, 145440, Note_off_c, 3, 68, 0
6, 145440, Note_off_c, 3, 63, 0
6, 145440, Note_on_c, 3, 68, 100
6, 145440, Note_on_c, 3, 63, 100
6, 145920, Note_off_c, 3, 68, 0
6, 145920, Note_off_c, 3, 63, 0
6, 145920, Note_on_c, 3, 68, 100
6, 145920, Note_on_c, 3, 63, 100
6, 146640, Note_off_c, 3, 68, 0
6, 146640, Note_off_c, 3, 63, 0
6, 146640, Note_on_c, 3, 68, 100
6, 146640, Note_on_c, 3, 63, 100
6, 146880, Note_off_c, 3, 68, 0
6, 146880, Note_off_c, 3, 63, 0
6, 146880, Note_on_c, 3, 68, 100
6, 146880, Note_on_c, 3, 63, 100
6, 147000, Note_off_c, 3, 68, 0
6, 147000, Note_off_c, 3, 63, 0
6, 147120, Note_on_c, 3, 56, 100
6, 147180, Note_off_c, 3, 56, 0
6, 147240, Note_on_c, 3, 56, 100
6, 147300, Note_off_c, 3, 56, 0
6, 147360, Note_on_c, 3, 66, 100
6, 147360, Note_on_c, 3, 61, 100
6, 147840, Note_off_c, 3, 66, 0
6, 147840, Note_off_c, 3, 61, 0
6, 147840, Note_on_c, 3, 64, 100
6, 147840, Note_on_c, 3, 59, 100
6, 148560, Note_off_c, 3, 64, 0
6, 148560, Note_off_c, 3, 59, 0
6, 148560, Note_on_c, 3, 59, 100
6, 148560, Note_on_c, 3, 64, 100
6, 149280, Note_off_c, 3, 59, 0
6, 149280, Note_off_c, 3, 64, 0
6, 149280, Note_on_c, 3, 59, 100
6, 149280, Note_on_c, 3, 64, 100
6, 149760, Note_off_c, 3, 59, 0
6, 149760, Note_off_c, 3, 64, 0
6, 149760, Note_on_c, 3, 66, 100
6, 149760, Note_on_c, 3, 61, 100
6, 150480, Note_off_c, 3, 66, 0
6, 150480, Note_off_c, 3, 61, 0
6, 150480, Note_on_c, 3, 66, 100
6, 150480, Note_on_c, 3, 61, 100
6, 150720, Note_off_c, 3, 66, 0
6, 150720, Note_off_c, 3, 61, 0
6, 150720, Note_on_c, 3, 56, 100
6, 150780, Note_off_c, 3, 56, 0
6, 150960, Note_on_c, 3, 56, 100
6, 151020, Note_off_c, 3, 56, 0
6, 151200, Note_on_c, 3, 66, 100
6, 151200, Note_on_c, 3, 61, 100
6, 151680, Note_off_c, 3, 66, 0
6, 151680, Note_off_c, 3, 61, 0
6, 151680, Note_on_c, 3, 68, 100
6, 151680, Note_on_c, 3, 63, 100
6, 152400, Note_off_c, 3, 68, 0
6, 152400, Note_off_c, 3, 63, 0
6, 152400, Note_on_c, 3, 68, 100
6, 152400, Note_on_c, 3, 63, 100
6, 153120, Note_off_c, 3, 68, 0
6, 153120, Note_off_c, 3, 63, 0
6, 153120, Note_on_c, 3, 68, 100
6, 153120, Note_on_c, 3, 63, 100
6, 153600, Note_off_c, 3, 68, 0
6, 153600, Note_off_c, 3, 63, 0
6, 153600, Note_on_c, 3, 68, 100
6, 153600, Note_on_c, 3, 63, 100
6, 153840, Note_off_c, 3, 68, 0
6, 153840, Note_off_c, 3, 63, 0
6, 153840, Note_on_c, 3, 56, 100
6, 153900, Note_off_c, 3, 56, 0
6, 153960, Note_on_c, 3, 56, 100
6, 154020, Note_off_c, 3, 56, 0
6, 154080, Note_on_c, 3, 68, 100
6, 154080, Note_on_c, 3, 63, 100
6, 154320, Note_off_c, 3, 68, 0
6, 154320, Note_off_c, 3, 63, 0
6, 154320, Note_on_c, 3, 56, 100
6, 154380, Note_off_c, 3, 56, 0
6, 154440, Note_on_c, 3, 56, 100
6, 154500, Note_off_c, 3, 56, 0
6, 154560, Note_on_c, 3, 68, 100
6, 154560, Note_on_c, 3, 63, 100
6, 154680, Note_off_c, 3, 68, 0
6, 154680, Note_off_c, 3, 63, 0
6, 154800, Note_on_c, 3, 56, 100
6, 154860, Note_off_c, 3, 56, 0
6, 154920, Note_on_c, 3, 56, 100
6, 154980, Note_off_c, 3, 56, 0
6, 155040, Note_on_c, 3, 65, 100
6, 155040, Note_on_c, 3, 70, 100
6, 155520, Note_off_c, 3, 65, 0
6, 155520, Note_off_c, 3, 70, 0
6, 155520, Note_on_c, 3, 66, 100
6, 155520, Note_on_c, 3, 61, 100
6, 156240, Note_off_c, 3, 66, 0
6, 156240, Note_off_c, 3, 61, 0
6, 156240, Note_on_c, 3, 61, 100
6, 156240, Note_on_c, 3, 66, 100
6, 156960, Note_off_c, 3, 61, 0
6, 156960, Note_off_c, 3, 66, 0
6, 156960, Note_on_c, 3, 61, 100
6, 156960, Note_on_c, 3, 66, 100
6, 157440, Note_off_c, 3, 61, 0
6, 157440, Note_off_c, 3, 66, 0
6, 157440, Note_on_c, 3, 68, 100
6, 157440, Note_on_c, 3, 63, 100
6, 158160, Note_off_c, 3, 68, 0
6, 158160, Note_off_c, 3, 63, 0
6, 158160, Note_on_c, 3, 68, 100
6, 158160, Note_on_c, 3, 63, 100
6, 158400, Note_off_c, 3, 68, 0
6, 158400, Note_off_c, 3, 63, 0
6, 158400, Note_on_c, 3, 58, 100
6, 158460, Note_off_c, 3, 58, 0
6, 158640, Note_on_c, 3, 58, 100
6, 158700, Note_off_c, 3, 58, 0
6, 158880, Note_on_c, 3, 68, 100
6, 158880, Note_on_c, 3, 63, 100
6, 159360, Note_off_c, 3, 68, 0
6, 159360, Note_off_c, 3, 63, 0
6, 159360, Note_on_c, 3, 70, 100
6, 159360, Note_on_c, 3, 65, 100
6, 160080, Note_off_c, 3, 70, 0
6, 160080, Note_off_c, 3, 65, 0
6, 160080, Note_on_c, 3, 70, 100
6, 160080, Note_on_c, 3, 65, 100
6, 160800, Note_off_c, 3, 70, 0
6, 160800, Note_off_c, 3, 65, 0
6, 160800, Note_on_c, 3, 70, 100
6, 160800, Note_on_c, 3, 65, 100
6, 161280, Note_off_c, 3, 70, 0
6, 161280, Note_off_c, 3, 65, 0
6, 161280, Note_on_c, 3, 70, 100
6, 161280, Note_on_c, 3, 65, 100
6, 162000, Note_off_c, 3, 70, 0
6, 162000, Note_off_c, 3, 65, 0
6, 162000, Note_on_c, 3, 70, 100
6, 162000, Note_on_c, 3, 65, 100
6, 162240, Note_off_c, 3, 70, 0
6, 162240, Note_off_c, 3, 65, 0
6, 162240, Note_on_c, 3, 70, 100
6, 162240, Note_on_c, 3, 65, 100
6, 162360, Note_off_c, 3, 70, 0
6, 162360, Note_off_c, 3, 65, 0
6, 162480, Note_on_c, 3, 58, 100
6, 162540, Note_off_c, 3, 58, 0
6, 162600, Note_on_c, 3, 58, 100
6, 162660, Note_off_c, 3, 58, 0
6, 162720, Note_on_c, 3, 68, 100
6, 162720, Note_on_c, 3, 63, 100
6, 163200, Note_off_c, 3, 68, 0
6, 163200, Note_off_c, 3, 63, 0
6, 163200, Note_on_c, 3, 66, 100
6, 163200, Note_on_c, 3, 61, 100
6, 163920, Note_off_c, 3, 66, 0
6, 163920, Note_off_c, 3, 61, 0
6, 163920, Note_on_c, 3, 61, 100
6, 163920, Note_on_c, 3, 66, 100
6, 164640, Note_off_c, 3, 61, 0
6, 164640, Note_off_c, 3, 66, 0
6, 164640, Note_on_c, 3, 61, 100
6, 164640, Note_on_c, 3, 66, 100
6, 165120, Note_off_c, 3, 61, 0
6, 165120, Note_off_c, 3, 66, 0
6, 165120, Note_on_c, 3, 68, 100
6, 165120, Note_on_c, 3, 63, 100
6, 165840, Note_off_c, 3, 68, 0
6, 165840, Note_off_c, 3, 63, 0
6, 165840, Note_on_c, 3, 68, 100
6, 165840, Note_on_c, 3, 63, 100
6, 166080, Note_off_c, 3, 68, 0
6, 166080, Note_off_c, 3, 63, 0
6, 166080, Note_on_c, 3, 58, 100
6, 166140, Note_off_c, 3, 58, 0
6, 166320, Note_on_c, 3, 58, 100
6, 166380, Note_off_c, 3, 58, 0
6, 166560, Note_on_c, 3, 68, 100
6, 166560, Note_on_c, 3, 63, 100
6, 167040, Note_off_c, 3, 68, 0
6, 167040, Note_off_c, 3, 63, 0
6, 167040, Note_on_c, 3, 70, 100
6, 167040, Note_on_c, 3, 65, 100
6, 167760, Note_off_c, 3, 70, 0
6, 167760, Note_off_c, 3, 65, 0
6, 167760, Note_on_c, 3, 70, 100
6, 167760, Note_on_c, 3, 65, 100
6, 168480, Note_off_c, 3, 70, 0
6, 168480, Note_off_c, 3, 65, 0
6, 168480, Note_on_c, 3, 70, 100
6, 168480, Note_on_c, 3, 65, 100
6, 168960, Note_off_c, 3, 70, 0
6, 168960, Note_off_c, 3, 65, 0
6, 168960, Note_on_c, 3, 70, 100
6, 168960, Note_on_c, 3, 65, 100
6, 169200, Note_off_c, 3, 70, 0
6, 169200, Note_off_c, 3, 65, 0
6, 169200, Note_on_c, 3, 58, 100
6, 169260, Note_off_c, 3, 58, 0
6, 169320, Note_on_c, 3, 58, 100
6, 169380, Note_off_c, 3, 58, 0
6, 169440, Note_on_c, 3, 70, 100
6, 169440, Note_on_c, 3, 65, 100
6, 169680, Note_off_c, 3, 70, 0
6, 169680, Note_off_c, 3, 65, 0
6, 169680, Note_on_c, 3, 58, 100
6, 169740, Note_off_c, 3, 58, 0
6, 169800, Note_on_c, 3, 58, 100
6, 169860, Note_off_c, 3, 58, 0
6, 169920, Note_on_c, 3, 70, 100
6, 169920, Note_on_c, 3, 65, 100
6, 170040, Note_off_c, 3, 70, 0
6, 170040, Note_off_c, 3, 65, 0
6, 170160, Note_on_c, 3, 58, 100
6, 170220, Note_off_c, 3, 58, 0
6, 170280, Note_on_c, 3, 58, 100
6, 170340, Note_off_c, 3, 58, 0
6, 170400, Note_on_c, 3, 65, 100
6, 170400, Note_on_c, 3, 70, 100
6, 170880, Note_off_c, 3, 65, 0
6, 170880, Note_off_c, 3, 70, 0
6, 170880, Note_on_c, 3, 66, 100
6, 170880, Note_on_c, 3, 61, 100
6, 171600, Note_off_c, 3, 66, 0
6, 171600, Note_off_c, 3, 61, 0
6, 171600, Note_on_c, 3, 61, 100
6, 171600, Note_on_c, 3, 66, 100
6, 172320, Note_off_c, 3, 61, 0
6, 172320, Note_off_c, 3, 66, 0
6, 172320, Note_on_c, 3, 61, 100
6, 172320, Note_on_c, 3, 66, 100
6, 172800, Note_off_c, 3, 61, 0
6, 172800, Note_off_c, 3, 66, 0
6, 172800, Note_on_c, 3, 68, 100
6, 172800, Note_on_c, 3, 63, 100
6, 173520, Note_off_c, 3, 68, 0
6, 173520, Note_off_c, 3, 63, 0
6, 173520, Note_on_c, 3, 68, 100
6, 173520, Note_on_c, 3, 63, 100
6, 173760, Note_off_c, 3, 68, 0
6, 173760, Note_off_c, 3, 63, 0
6, 173760, Note_on_c, 3, 58, 100
6, 173820, Note_off_c, 3, 58, 0
6, 174000, Note_on_c, 3, 58, 100
6, 174060, Note_off_c, 3, 58, 0
6, 174240, Note_on_c, 3, 68, 100
6, 174240, Note_on_c, 3, 63, 100
6, 174720, Note_off_c, 3, 68, 0
6, 174720, Note_off_c, 3, 63, 0
6, 174720, Note_on_c, 3, 70, 100
6, 174720, Note_on_c, 3, 65, 100
6, 175440, Note_off_c, 3, 70, 0
6, 175440, Note_off_c, 3, 65, 0
6, 175440, Note_on_c, 3, 70, 100
6, 175440, Note_on_c, 3, 65, 100
6, 176160, Note_off_c, 3, 70, 0
6, 176160, Note_off_c, 3, 65, 0
6, 176160, Note_on_c, 3, 70, 100
6, 176160, Note_on_c, 3, 65, 100
6, 176640, Note_off_c, 3, 70, 0
6, 176640, Note_off_c, 3, 65, 0
6, 176640, Note_on_c, 3, 70, 100
6, 176640, Note_on_c, 3, 65, 100
6, 177360, Note_off_c, 3, 70, 0
6, 177360, Note_off_c, 3, 65, 0
6, 177360, Note_on_c, 3, 70, 100
6, 177360, Note_on_c, 3, 65, 100
6, 177600, Note_off_c, 3, 70, 0
6, 177600, Note_off_c, 3, 65, 0
6, 177600, Note_on_c, 3, 70, 100
6, 177600, Note_on_c, 3, 65, 100
6, 177720, Note_off_c, 3, 70, 0
6, 177720, Note_off_c, 3, 65, 0
6, 177840, Note_on_c, 3, 58, 100
6, 177900, Note_off_c, 3, 58, 0
6, 177960, Note_on_c, 3, 58, 100
6, 178020, Note_off_c, 3, 58, 0
6, 178080, Note_on_c, 3, 68, 100
6, 178080, Note_on_c, 3, 63, 100
6, 178560, Note_off_c, 3, 68, 0
6, 178560, Note_off_c, 3, 63, 0
6, 178560, Note_on_c, 3, 66, 100
6, 178560, Note_on_c, 3, 61, 100
6, 179280, Note_off_c, 3, 66, 0
6, 179280, Note_off_c, 3, 61, 0
6, 179280, Note_on_c, 3, 61, 100
6, 179280, Note_on_c, 3, 66, 100
6, 180000, Note_off_c, 3, 61, 0
6, 180000, Note_off_c, 3, 66, 0
6, 180000, Note_on_c, 3, 61, 100
6, 180000, Note_on_c, 3, 66, 100
6, 180480, Note_off_c, 3, 61, 0
6, 180480, Note_off_c, 3, 66, 0
6, 180480, Note_on_c, 3, 68, 100
6, 180480, Note_on_c, 3, 63, 100
6, 181200, Note_off_c, 3, 68, 0
6, 181200, Note_off_c, 3, 63, 0
6, 181200, Note_on_c, 3, 68, 100
6, 181200, Note_on_c, 3, 63, 100
6, 181440, Note_off_c, 3, 68, 0
6, 181440, Note_off_c, 3, 63, 0
6, 181440, Note_on_c, 3, 58, 100
6, 181500, Note_off_c, 3, 58, 0
6, 181680, Note_on_c, 3, 58, 100
6, 181740, Note_off_c, 3, 58, 0
6, 181920, Note_on_c, 3, 68, 100
6, 181920, Note_on_c, 3, 63, 100
6, 182400, Note_off_c, 3, 68, 0
6, 182400, Note_off_c, 3, 63, 0
6, 182400, Note_on_c, 3, 70, 100
6, 182400, Note_on_c, 3, 65, 100
6, 183120, Note_off_c, 3, 70, 0
6, 183120, Note_off_c, 3, 65, 0
6, 183120, Note_on_c, 3, 70, 100
6, 183120, Note_on_c, 3, 65, 100
6, 183840, Note_off_c, 3, 70, 0
6, 183840, Note_off_c, 3, 65, 0
6, 183840, Note_on_c, 3, 70, 100
6, 183840, Note_on_c, 3, 65, 100
6, 184320, Note_off_c, 3, 70, 0
6, 184320, Note_off_c, 3, 65, 0
6, 184320, Note_on_c, 3, 70, 100
6, 184320, Note_on_c, 3, 65, 100
6, 184560, Note_off_c, 3, 70, 0
6, 184560, Note_off_c, 3, 65, 0
6, 184560, Note_on_c, 3, 58, 100
6, 184620, Note_off_c, 3, 58, 0
6, 184680, Note_on_c, 3, 58, 100
6, 184740, Note_off_c, 3, 58, 0
6, 184800, Note_on_c, 3, 70, 100
6, 184800, Note_on_c, 3, 65, 100
6, 185040, Note_off_c, 3, 70, 0
6, 185040, Note_off_c, 3, 65, 0
6, 185040, Note_on_c, 3, 58, 100
6, 185100, Note_off_c, 3, 58, 0
6, 185160, Note_on_c, 3, 58, 100
6, 185220, Note_off_c, 3, 58, 0
6, 185280, Note_on_c, 3, 70, 100
6, 185280, Note_on_c, 3, 65, 100
6, 185400, Note_off_c, 3, 70, 0
6, 185400, Note_off_c, 3, 65, 0
6, 185520, Note_on_c, 3, 58, 100
6, 185580, Note_off_c, 3, 58, 0
6, 185640, Note_on_c, 3, 58, 100
6, 185700, Note_off_c, 3, 58, 0
6, 185760, Note_on_c, 3, 65, 100
6, 185760, Note_on_c, 3, 70, 100
6, 186240, Note_off_c, 3, 65, 0
6, 186240, Note_off_c, 3, 70, 0
6, 186240, Note_on_c, 3, 70, 100
6, 186240, Note_on_c, 3, 65, 100
6, 188145, Note_on_c, 3, 57, 100
6, 188145, Note_on_c, 3, 52, 100
6, 188160, Note_off_c, 3, 70, 0
6, 188160, Note_off_c, 3, 65, 0
6, 188190, Note_on_c, 3, 56, 88
6, 188190, Note_on_c, 3, 51, 88
6, 188205, Note_off_c, 3, 57, 0
6, 188205, Note_off_c, 3, 52, 0
6, 188235, Note_on_c, 3, 55, 78
6, 188235, Note_on_c, 3, 50, 78
6, 188250, Note_off_c, 3, 56, 0
6, 188250, Note_off_c, 3, 51, 0
6, 188265, Note_on_c, 3, 54, 64
6, 188265, Note_on_c, 3, 49, 64
6, 188280, Note_off_c, 3, 55, 0
6, 188280, Note_off_c, 3, 50, 0
6, 188280, Note_on_c, 3, 53, 46
6, 188280, Note_on_c, 3, 48, 46
6, 188295, Note_off_c, 3, 54, 0
6, 188295, Note_off_c, 3, 49, 0
6, 188310, Note_off_c, 3, 53, 0
6, 188310, Note_off_c, 3, 48, 0
6, 188520, End_track
7, 0, Start_track
7, 0, Title_t, "CH05"
7, 0, MIDI_port, 0
7, 0, Text_t, "---- System Setup --------------------------------------------------"
7, 188, Text_t, "---- CH Setup --------------------------------------------------"
7, 188, Control_c, 4, 121, 0
7, 189, Control_c, 4, 0, 0
7, 189, Control_c, 4, 32, 0
7, 189, Program_c, 4, 17
7, 192, Control_c, 4, 10, 64
7, 193, Control_c, 4, 7, 100
7, 194, Control_c, 4, 91, 0
7, 195, Control_c, 4, 11, 127
7, 196, Control_c, 4, 1, 0
7, 197, Control_c, 4, 101, 0
7, 197, Control_c, 4, 100, 1
7, 197, Control_c, 4, 6, 64
7, 197, Control_c, 4, 38, 0
7, 201, Control_c, 4, 101, 0
7, 201, Control_c, 4, 100, 2
7, 201, Control_c, 4, 6, 64
7, 204, Control_c, 4, 101, 0
7, 204, Control_c, 4, 100, 0
7, 204, Control_c, 4, 6, 12
7, 207, Pitch_bend_c, 4, 8192
7, 208, Control_c, 4, 101, 127
7, 208, Control_c, 4, 100, 127
7, 210, Text_t, "---- End of CH Setup --------------------------------------------------"
7, 1920, Note_on_c, 4, 68, 100
7, 1920, Note_on_c, 4, 63, 100
7, 3840, Note_off_c, 4, 68, 0
7, 3840, Note_off_c, 4, 63, 0
7, 3840, Note_on_c, 4, 64, 100
7, 3840, Note_on_c, 4, 59, 100
7, 4800, Note_off_c, 4, 64, 0
7, 4800, Note_off_c, 4, 59, 0
7, 4800, Note_on_c, 4, 61, 100
7, 4800, Note_on_c, 4, 54, 100
7, 5760, Note_off_c, 4, 61, 0
7, 5760, Note_off_c, 4, 54, 0
7, 5760, Note_on_c, 4, 63, 100
7, 5760, Note_on_c, 4, 51, 100
7, 6720, Note_off_c, 4, 63, 0
7, 6720, Note_off_c, 4, 51, 0
7, 6720, Note_on_c, 4, 66, 100
7, 6720, Note_on_c, 4, 54, 100
7, 7680, Note_off_c, 4, 66, 0
7, 7680, Note_off_c, 4, 54, 0
7, 7680, Note_on_c, 4, 68, 100
7, 7680, Note_on_c, 4, 63, 100
7, 9600, Note_off_c, 4, 68, 0
7, 9600, Note_off_c, 4, 63, 0
7, 9600, Note_on_c, 4, 68, 100
7, 9600, Note_on_c, 4, 64, 100
7, 12480, Note_off_c, 4, 68, 0
7, 12480, Note_off_c, 4, 64, 0
7, 12480, Note_on_c, 4, 70, 100
7, 12480, Note_on_c, 4, 66, 100
7, 13440, Note_off_c, 4, 70, 0
7, 13440, Note_off_c, 4, 66, 0
7, 13440, Note_on_c, 4, 71, 100
7, 13440, Note_on_c, 4, 63, 100
7, 17280, Note_off_c, 4, 71, 0
7, 17280, Note_off_c, 4, 63, 0
7, 17280, Note_on_c, 4, 68, 100
7, 17280, Note_on_c, 4, 64, 100
7, 20160, Note_off_c, 4, 68, 0
7, 20160, Note_off_c, 4, 64, 0
7, 20160, Note_on_c, 4, 70, 100
7, 20160, Note_on_c, 4, 66, 100
7, 21120, Note_off_c, 4, 70, 0
7, 21120, Note_off_c, 4, 66, 0
7, 21120, Note_on_c, 4, 71, 100
7, 21120, Note_on_c, 4, 63, 100
7, 24960, Note_off_c, 4, 71, 0
7, 24960, Note_off_c, 4, 63, 0
7, 24960, Note_on_c, 4, 68, 100
7, 24960, Note_on_c, 4, 64, 100
7, 27840, Note_off_c, 4, 68, 0
7, 27840, Note_off_c, 4, 64, 0
7, 27840, Note_on_c, 4, 70, 100
7, 27840, Note_on_c, 4, 66, 100
7, 28800, Note_off_c, 4, 70, 0
7, 28800, Note_off_c, 4, 66, 0
7, 28800, Note_on_c, 4, 71, 100
7, 28800, Note_on_c, 4, 63, 100
7, 32640, Note_off_c, 4, 71, 0
7, 32640, Note_off_c, 4, 63, 0
7, 32640, Note_on_c, 4, 68, 100
7, 32640, Note_on_c, 4, 64, 100
7, 35520, Note_off_c, 4, 68, 0
7, 35520, Note_off_c, 4, 64, 0
7, 35520, Note_on_c, 4, 70, 100
7, 35520, Note_on_c, 4, 66, 100
7, 36480, Note_off_c, 4, 70, 0
7, 36480, Note_off_c, 4, 66, 0
7, 36480, Note_on_c, 4, 71, 100
7, 36480, Note_on_c, 4, 63, 100
7, 40080, Note_off_c, 4, 71, 0
7, 40080, Note_on_c, 4, 70, 100
7, 40140, Note_off_c, 4, 70, 0
7, 40140, Note_on_c, 4, 68, 100
7, 40200, Note_off_c, 4, 68, 0
7, 40200, Note_on_c, 4, 66, 100
7, 40260, Note_off_c, 4, 66, 0
7, 40260, Note_on_c, 4, 64, 100
7, 40320, Note_off_c, 4, 63, 0
7, 40320, Note_off_c, 4, 64, 0
7, 40320, Note_on_c, 4, 71, 100
7, 40320, Note_on_c, 4, 64, 100
7, 41280, Note_off_c, 4, 71, 0
7, 41280, Note_off_c, 4, 64, 0
7, 41280, Note_on_c, 4, 73, 100
7, 41280, Note_on_c, 4, 66, 100
7, 42240, Note_off_c, 4, 73, 0
7, 42240, Note_off_c, 4, 66, 0
7, 42240, Note_on_c, 4, 68, 100
7, 42240, Note_on_c, 4, 63, 100
7, 43200, Note_off_c, 4, 68, 0
7, 43200, Note_off_c, 4, 63, 0
7, 43200, Note_on_c, 4, 71, 100
7, 43200, Note_on_c, 4, 64, 100
7, 44160, Note_off_c, 4, 71, 0
7, 44160, Note_off_c, 4, 64, 0
7, 44160, Note_on_c, 4, 71, 100
7, 44160, Note_on_c, 4, 66, 100
7, 45120, Note_off_c, 4, 71, 0
7, 45120, Note_off_c, 4, 66, 0
7, 45120, Note_on_c, 4, 73, 100
7, 45120, Note_on_c, 4, 68, 100
7, 46080, Note_off_c, 4, 73, 0
7, 46080, Note_off_c, 4, 68, 0
7, 46080, Note_on_c, 4, 75, 100
7, 46080, Note_on_c, 4, 70, 100
7, 47520, Note_off_c, 4, 75, 0
7, 47520, Note_off_c, 4, 70, 0
7, 47520, Note_on_c, 4, 75, 100
7, 47520, Note_on_c, 4, 68, 100
7, 48000, Note_off_c, 4, 75, 0
7, 48000, Note_off_c, 4, 68, 0
7, 48000, Note_on_c, 4, 71, 100
7, 48000, Note_on_c, 4, 66, 100
7, 48960, Note_off_c, 4, 71, 0
7, 48960, Note_off_c, 4, 66, 0
7, 48960, Note_on_c, 4, 73, 100
7, 48960, Note_on_c, 4, 68, 100
7, 49920, Note_off_c, 4, 73, 0
7, 49920, Note_off_c, 4, 68, 0
7, 49920, Note_on_c, 4, 73, 100
7, 49920, Note_on_c, 4, 68, 100
7, 50880, Note_off_c, 4, 73, 0
7, 50880, Note_off_c, 4, 68, 0
7, 50880, Note_on_c, 4, 75, 100
7, 50880, Note_on_c, 4, 70, 100
7, 51840, Note_off_c, 4, 75, 0
7, 51840, Note_off_c, 4, 70, 0
7, 51840, Note_on_c, 4, 71, 100
7, 51840, Note_on_c, 4, 66, 100
7, 52800, Note_off_c, 4, 71, 0
7, 52800, Note_off_c, 4, 66, 0
7, 52800, Note_on_c, 4, 73, 100
7, 52800, Note_on_c, 4, 68, 100
7, 53760, Note_off_c, 4, 73, 0
7, 53760, Note_off_c, 4, 68, 0
7, 53760, Note_on_c, 4, 74, 100
7, 53760, Note_on_c, 4, 68, 100
7, 55200, Note_off_c, 4, 74, 0
7, 55200, Note_off_c, 4, 68, 0
7, 55200, Note_on_c, 4, 78, 100
7, 55200, Note_on_c, 4, 70, 100
7, 55680, Note_off_c, 4, 78, 0
7, 55680, Note_off_c, 4, 70, 0
7, 55680, Note_on_c, 4, 64, 100
7, 55680, Note_on_c, 4, 59, 100
7, 57120, Note_off_c, 4, 64, 0
7, 57120, Note_off_c, 4, 59, 0
7, 57120, Note_on_c, 4, 64, 100
7, 57120, Note_on_c, 4, 59, 100
7, 57600, Note_off_c, 4, 64, 0
7, 57600, Note_off_c, 4, 59, 0
7, 57600, Note_on_c, 4, 66, 100
7, 57600, Note_on_c, 4, 61, 100
7, 58320, Note_off_c, 4, 66, 0
7, 58320, Note_off_c, 4, 61, 0
7, 58320, Note_on_c, 4, 66, 100
7, 58320, Note_on_c, 4, 61, 100
7, 59040, Note_off_c, 4, 66, 0
7, 59040, Note_off_c, 4, 61, 0
7, 59040, Note_on_c, 4, 66, 100
7, 59040, Note_on_c, 4, 61, 100
7, 59520, Note_off_c, 4, 66, 0
7, 59520, Note_off_c, 4, 61, 0
7, 59520, Note_on_c, 4, 68, 100
7, 59520, Note_on_c, 4, 63, 100
7, 60240, Note_off_c, 4, 68, 0
7, 60240, Note_off_c, 4, 63, 0
7, 60240, Note_on_c, 4, 68, 100
7, 60240, Note_on_c, 4, 63, 100
7, 60960, Note_off_c, 4, 68, 0
7, 60960, Note_off_c, 4, 63, 0
7, 60960, Note_on_c, 4, 68, 100
7, 60960, Note_on_c, 4, 63, 100
7, 61440, Note_off_c, 4, 68, 0
7, 61440, Note_off_c, 4, 63, 0
7, 61440, Note_on_c, 4, 68, 100
7, 61440, Note_on_c, 4, 63, 100
7, 62160, Note_off_c, 4, 68, 0
7, 62160, Note_off_c, 4, 63, 0
7, 62160, Note_on_c, 4, 68, 100
7, 62160, Note_on_c, 4, 63, 100
7, 62880, Note_off_c, 4, 68, 0
7, 62880, Note_off_c, 4, 63, 0
7, 62880, Note_on_c, 4, 66, 100
7, 62880, Note_on_c, 4, 61, 100
7, 63360, Note_off_c, 4, 66, 0
7, 63360, Note_off_c, 4, 61, 0
7, 63360, Note_on_c, 4, 64, 100
7, 63360, Note_on_c, 4, 59, 100
7, 63600, Note_off_c, 4, 64, 0
7, 63600, Note_off_c, 4, 59, 0
7, 63840, Note_on_c, 4, 64, 100
7, 63840, Note_on_c, 4, 59, 100
7, 64560, Note_off_c, 4, 64, 0
7, 64560, Note_off_c, 4, 59, 0
7, 64560, Note_on_c, 4, 64, 100
7, 64560, Note_on_c, 4, 59, 100
7, 65040, Note_off_c, 4, 64, 0
7, 65040, Note_off_c, 4, 59, 0
7, 65040, Note_on_c, 4, 64, 100
7, 65040, Note_on_c, 4, 59, 100
7, 65280, Note_off_c, 4, 64, 0
7, 65280, Note_off_c, 4, 59, 0
7, 65280, Note_on_c, 4, 66, 100
7, 65280, Note_on_c, 4, 61, 100
7, 65520, Note_off_c, 4, 66, 0
7, 65520, Note_off_c, 4, 61, 0
7, 65760, Note_on_c, 4, 66, 100
7, 65760, Note_on_c, 4, 61, 100
7, 66000, Note_off_c, 4, 66, 0
7, 66000, Note_off_c, 4, 61, 0
7, 66000, Note_on_c, 4, 66, 100
7, 66000, Note_on_c, 4, 61, 100
7, 66720, Note_off_c, 4, 66, 0
7, 66720, Note_off_c, 4, 61, 0
7, 66720, Note_on_c, 4, 66, 100
7, 66720, Note_on_c, 4, 61, 100
7, 66960, Note_off_c, 4, 66, 0
7, 66960, Note_off_c, 4, 61, 0
7, 66960, Note_on_c, 4, 66, 100
7, 66960, Note_on_c, 4, 61, 100
7, 67200, Note_off_c, 4, 66, 0
7, 67200, Note_off_c, 4, 61, 0
7, 67200, Note_on_c, 4, 68, 100
7, 67200, Note_on_c, 4, 63, 100
7, 67920, Note_off_c, 4, 68, 0
7, 67920, Note_off_c, 4, 63, 0
7, 67920, Note_on_c, 4, 68, 100
7, 67920, Note_on_c, 4, 63, 100
7, 68640, Note_off_c, 4, 68, 0
7, 68640, Note_off_c, 4, 63, 0
7, 68640, Note_on_c, 4, 68, 100
7, 68640, Note_on_c, 4, 63, 100
7, 69120, Note_off_c, 4, 68, 0
7, 69120, Note_off_c, 4, 63, 0
7, 69120, Note_on_c, 4, 68, 100
7, 69120, Note_on_c, 4, 63, 100
7, 69600, Note_off_c, 4, 68, 0
7, 69600, Note_off_c, 4, 63, 0
7, 69600, Note_on_c, 4, 71, 100
7, 69840, Note_on_c, 4, 68, 100
7, 69840, Note_on_c, 4, 63, 100
7, 70080, Note_off_c, 4, 71, 0
7, 70080, Note_off_c, 4, 68, 0
7, 70080, Note_off_c, 4, 63, 0
7, 70080, Note_on_c, 4, 70, 100
7, 70320, Note_off_c, 4, 70, 0
7, 70320, Note_on_c, 4, 66, 100
7, 70560, Note_off_c, 4, 66, 0
7, 70560, Note_on_c, 4, 63, 100
7, 70800, Note_off_c, 4, 63, 0
7, 70800, Note_on_c, 4, 59, 100
7, 71040, Note_off_c, 4, 59, 0
7, 71040, Note_on_c, 4, 64, 100
7, 71040, Note_on_c, 4, 59, 100
7, 72480, Note_off_c, 4, 64, 0
7, 72480, Note_off_c, 4, 59, 0
7, 72480, Note_on_c, 4, 64, 100
7, 72480, Note_on_c, 4, 59, 100
7, 72960, Note_off_c, 4, 64, 0
7, 72960, Note_off_c, 4, 59, 0
7, 72960, Note_on_c, 4, 66, 100
7, 72960, Note_on_c, 4, 61, 100
7, 73680, Note_off_c, 4, 66, 0
7, 73680, Note_off_c, 4, 61, 0
7, 73680, Note_on_c, 4, 66, 100
7, 73680, Note_on_c, 4, 61, 100
7, 74400, Note_off_c, 4, 66, 0
7, 74400, Note_off_c, 4, 61, 0
7, 74400, Note_on_c, 4, 66, 100
7, 74400, Note_on_c, 4, 61, 100
7, 74880, Note_off_c, 4, 66, 0
7, 74880, Note_off_c, 4, 61, 0
7, 74880, Note_on_c, 4, 68, 100
7, 74880, Note_on_c, 4, 63, 100
7, 75600, Note_off_c, 4, 68, 0
7, 75600, Note_off_c, 4, 63, 0
7, 75600, Note_on_c, 4, 68, 100
7, 75600, Note_on_c, 4, 63, 100
7, 76320, Note_off_c, 4, 68, 0
7, 76320, Note_off_c, 4, 63, 0
7, 76320, Note_on_c, 4, 68, 100
7, 76320, Note_on_c, 4, 63, 100
7, 76800, Note_off_c, 4, 68, 0
7, 76800, Note_off_c, 4, 63, 0
7, 76800, Note_on_c, 4, 68, 100
7, 76800, Note_on_c, 4, 63, 100
7, 77520, Note_off_c, 4, 68, 0
7, 77520, Note_off_c, 4, 63, 0
7, 77520, Note_on_c, 4, 68, 100
7, 77520, Note_on_c, 4, 63, 100
7, 78240, Note_off_c, 4, 68, 0
7, 78240, Note_off_c, 4, 63, 0
7, 78240, Note_on_c, 4, 66, 100
7, 78240, Note_on_c, 4, 61, 100
7, 78720, Note_off_c, 4, 66, 0
7, 78720, Note_off_c, 4, 61, 0
7, 78720, Note_on_c, 4, 64, 100
7, 78720, Note_on_c, 4, 59, 100
7, 78960, Note_off_c, 4, 64, 0
7, 78960, Note_off_c, 4, 59, 0
7, 79200, Note_on_c, 4, 64, 100
7, 79200, Note_on_c, 4, 59, 100
7, 79920, Note_off_c, 4, 64, 0
7, 79920, Note_off_c, 4, 59, 0
7, 79920, Note_on_c, 4, 64, 100
7, 79920, Note_on_c, 4, 59, 100
7, 80400, Note_off_c, 4, 64, 0
7, 80400, Note_off_c, 4, 59, 0
7, 80400, Note_on_c, 4, 64, 100
7, 80400, Note_on_c, 4, 59, 100
7, 80640, Note_off_c, 4, 64, 0
7, 80640, Note_off_c, 4, 59, 0
7, 80640, Note_on_c, 4, 66, 100
7, 80640, Note_on_c, 4, 61, 100
7, 80880, Note_off_c, 4, 66, 0
7, 80880, Note_off_c, 4, 61, 0
7, 81120, Note_on_c, 4, 66, 100
7, 81120, Note_on_c, 4, 61, 100
7, 81360, Note_off_c, 4, 66, 0
7, 81360, Note_off_c, 4, 61, 0
7, 81360, Note_on_c, 4, 66, 100
7, 81360, Note_on_c, 4, 61, 100
7, 82080, Note_off_c, 4, 66, 0
7, 82080, Note_off_c, 4, 61, 0
7, 82080, Note_on_c, 4, 66, 100
7, 82080, Note_on_c, 4, 61, 100
7, 82320, Note_off_c, 4, 66, 0
7, 82320, Note_off_c, 4, 61, 0
7, 82320, Note_on_c, 4, 66, 100
7, 82320, Note_on_c, 4, 61, 100
7, 82560, Note_off_c, 4, 66, 0
7, 82560, Note_off_c, 4, 61, 0
7, 82560, Note_on_c, 4, 68, 100
7, 82560, Note_on_c, 4, 63, 100
7, 83280, Note_off_c, 4, 68, 0
7, 83280, Note_off_c, 4, 63, 0
7, 83280, Note_on_c, 4, 68, 100
7, 83280, Note_on_c, 4, 63, 100
7, 84000, Note_off_c, 4, 68, 0
7, 84000, Note_off_c, 4, 63, 0
7, 84000, Note_on_c, 4, 68, 100
7, 84000, Note_on_c, 4, 63, 100
7, 84480, Note_off_c, 4, 68, 0
7, 84480, Note_off_c, 4, 63, 0
7, 84480, Note_on_c, 4, 68, 100
7, 84480, Note_on_c, 4, 63, 100
7, 84960, Note_off_c, 4, 68, 0
7, 84960, Note_off_c, 4, 63, 0
7, 84960, Note_on_c, 4, 71, 100
7, 85200, Note_on_c, 4, 68, 100
7, 85200, Note_on_c, 4, 63, 100
7, 85440, Note_off_c, 4, 71, 0
7, 85440, Note_off_c, 4, 68, 0
7, 85440, Note_off_c, 4, 63, 0
7, 85440, Note_on_c, 4, 71, 100
7, 85680, Note_off_c, 4, 71, 0
7, 85680, Note_on_c, 4, 70, 100
7, 85920, Note_off_c, 4, 70, 0
7, 85920, Note_on_c, 4, 68, 100
7, 86160, Note_off_c, 4, 68, 0
7, 86160, Note_on_c, 4, 66, 100
7, 86400, Note_off_c, 4, 66, 0
7, 86400, Note_on_c, 4, 68, 100
7, 86400, Note_on_c, 4, 63, 100
7, 86400, Note_on_c, 4, 56, 100
7, 86400, Note_on_c, 4, 51, 100
7, 88320, Note_off_c, 4, 68, 0
7, 88320, Note_off_c, 4, 63, 0
7, 88320, Note_off_c, 4, 56, 0
7, 88320, Note_off_c, 4, 51, 0
7, 88320, Note_on_c, 4, 64, 100
7, 88320, Note_on_c, 4, 59, 100
7, 88320, Note_on_c, 4, 52, 100
7, 89280, Note_off_c, 4, 64, 0
7, 89280, Note_off_c, 4, 59, 0
7, 89280, Note_off_c, 4, 52, 0
7, 89280, Note_on_c, 4, 61, 100
7, 89280, Note_on_c, 4, 54, 100
7, 90240, Note_off_c, 4, 61, 0
7, 90240, Note_off_c, 4, 54, 0
7, 90240, Note_on_c, 4, 63, 100
7, 90240, Note_on_c, 4, 58, 100
7, 90240, Note_on_c, 4, 51, 100
7, 91200, Note_off_c, 4, 63, 0
7, 91200, Note_off_c, 4, 58, 0
7, 91200, Note_off_c, 4, 51, 0
7, 91200, Note_on_c, 4, 66, 100
7, 91200, Note_on_c, 4, 59, 100
7, 91200, Note_on_c, 4, 54, 100
7, 92160, Note_off_c, 4, 66, 0
7, 92160, Note_off_c, 4, 59, 0
7, 92160, Note_off_c, 4, 54, 0
7, 92160, Note_on_c, 4, 68, 100
7, 92160, Note_on_c, 4, 63, 100
7, 92160, Note_on_c, 4, 56, 100
7, 93120, Note_off_c, 4, 68, 0
7, 93120, Note_off_c, 4, 63, 0
7, 93120, Note_off_c, 4, 56, 0
7, 93120, Note_on_c, 4, 67, 100
7, 93120, Note_on_c, 4, 55, 100
7, 94080, Note_off_c, 4, 67, 0
7, 94080, Note_off_c, 4, 55, 0
7, 94080, Note_on_c, 4, 68, 100
7, 94080, Note_on_c, 4, 64, 100
7, 96960, Note_off_c, 4, 68, 0
7, 96960, Note_off_c, 4, 64, 0
7, 96960, Note_on_c, 4, 70, 100
7, 96960, Note_on_c, 4, 66, 100
7, 97920, Note_off_c, 4, 70, 0
7, 97920, Note_off_c, 4, 66, 0
7, 97920, Note_on_c, 4, 71, 100
7, 97920, Note_on_c, 4, 63, 100
7, 101760, Note_off_c, 4, 71, 0
7, 101760, Note_off_c, 4, 63, 0
7, 101760, Note_on_c, 4, 68, 100
7, 101760, Note_on_c, 4, 64, 100
7, 104640, Note_off_c, 4, 68, 0
7, 104640, Note_off_c, 4, 64, 0
7, 104640, Note_on_c, 4, 70, 100
7, 104640, Note_on_c, 4, 66, 100
7, 105600, Note_off_c, 4, 70, 0
7, 105600, Note_off_c, 4, 66, 0
7, 105600, Note_on_c, 4, 71, 100
7, 105600, Note_on_c, 4, 63, 100
7, 109200, Note_off_c, 4, 71, 0
7, 109200, Note_on_c, 4, 70, 100
7, 109260, Note_off_c, 4, 70, 0
7, 109260, Note_on_c, 4, 68, 100
7, 109320, Note_off_c, 4, 68, 0
7, 109320, Note_on_c, 4, 66, 100
7, 109380, Note_off_c, 4, 66, 0
7, 109380, Note_on_c, 4, 64, 100
7, 109440, Note_off_c, 4, 63, 0
7, 109440, Note_off_c, 4, 64, 0
7, 109440, Note_on_c, 4, 71, 100
7, 109440, Note_on_c, 4, 64, 100
7, 110400, Note_off_c, 4, 71, 0
7, 110400, Note_off_c, 4, 64, 0
7, 110400, Note_on_c, 4, 73, 100
7, 110400, Note_on_c, 4, 66, 100
7, 111360, Note_off_c, 4, 73, 0
7, 111360, Note_off_c, 4, 66, 0
7, 111360, Note_on_c, 4, 68, 100
7, 111360, Note_on_c, 4, 63, 100
7, 112320, Note_off_c, 4, 68, 0
7, 112320, Note_off_c, 4, 63, 0
7, 112320, Note_on_c, 4, 71, 100
7, 112320, Note_on_c, 4, 64, 100
7, 113280, Note_off_c, 4, 71, 0
7, 113280, Note_off_c, 4, 64, 0
7, 113280, Note_on_c, 4, 71, 100
7, 113280, Note_on_c, 4, 66, 100
7, 114240, Note_off_c, 4, 71, 0
7, 114240, Note_off_c, 4, 66, 0
7, 114240, Note_on_c, 4, 73, 100
7, 114240, Note_on_c, 4, 68, 100
7, 115200, Note_off_c, 4, 73, 0
7, 115200, Note_off_c, 4, 68, 0
7, 115200, Note_on_c, 4, 75, 100
7, 115200, Note_on_c, 4, 70, 100
7, 116640, Note_off_c, 4, 75, 0
7, 116640, Note_off_c, 4, 70, 0
7, 116640, Note_on_c, 4, 75, 100
7, 116640, Note_on_c, 4, 68, 100
7, 117120, Note_off_c, 4, 75, 0
7, 117120, Note_off_c, 4, 68, 0
7, 117120, Note_on_c, 4, 71, 100
7, 117120, Note_on_c, 4, 66, 100
7, 118080, Note_off_c, 4, 71, 0
7, 118080, Note_off_c, 4, 66, 0
7, 118080, Note_on_c, 4, 73, 100
7, 118080, Note_on_c, 4, 68, 100
7, 119040, Note_off_c, 4, 73, 0
7, 119040, Note_off_c, 4, 68, 0
7, 119040, Note_on_c, 4, 73, 100
7, 119040, Note_on_c, 4, 68, 100
7, 120000, Note_off_c, 4, 73, 0
7, 120000, Note_off_c, 4, 68, 0
7, 120000, Note_on_c, 4, 75, 100
7, 120000, Note_on_c, 4, 70, 100
7, 120960, Note_off_c, 4, 75, 0
7, 120960, Note_off_c, 4, 70, 0
7, 120960, Note_on_c, 4, 71, 100
7, 120960, Note_on_c, 4, 66, 100
7, 121920, Note_off_c, 4, 71, 0
7, 121920, Note_off_c, 4, 66, 0
7, 121920, Note_on_c, 4, 73, 100
7, 121920, Note_on_c, 4, 68, 100
7, 122880, Note_off_c, 4, 73, 0
7, 122880, Note_off_c, 4, 68, 0
7, 122880, Note_on_c, 4, 74, 100
7, 122880, Note_on_c, 4, 68, 100
7, 124320, Note_off_c, 4, 74, 0
7, 124320, Note_off_c, 4, 68, 0
7, 124320, Note_on_c, 4, 78, 100
7, 124320, Note_on_c, 4, 70, 100
7, 124800, Note_off_c, 4, 78, 0
7, 124800, Note_off_c, 4, 70, 0
7, 124800, Note_on_c, 4, 64, 100
7, 124800, Note_on_c, 4, 59, 100
7, 126240, Note_off_c, 4, 64, 0
7, 126240, Note_off_c, 4, 59, 0
7, 126240, Note_on_c, 4, 64, 100
7, 126240, Note_on_c, 4, 59, 100
7, 126720, Note_off_c, 4, 64, 0
7, 126720, Note_off_c, 4, 59, 0
7, 126720, Note_on_c, 4, 66, 100
7, 126720, Note_on_c, 4, 61, 100
7, 127440, Note_off_c, 4, 66, 0
7, 127440, Note_off_c, 4, 61, 0
7, 127440, Note_on_c, 4, 66, 100
7, 127440, Note_on_c, 4, 61, 100
7, 128160, Note_off_c, 4, 66, 0
7, 128160, Note_off_c, 4, 61, 0
7, 128160, Note_on_c, 4, 66, 100
7, 128160, Note_on_c, 4, 61, 100
7, 128640, Note_off_c, 4, 66, 0
7, 128640, Note_off_c, 4, 61, 0
7, 128640, Note_on_c, 4, 68, 100
7, 128640, Note_on_c, 4, 63, 100
7, 129360, Note_off_c, 4, 68, 0
7, 129360, Note_off_c, 4, 63, 0
7, 129360, Note_on_c, 4, 68, 100
7, 129360, Note_on_c, 4, 63, 100
7, 130080, Note_off_c, 4, 68, 0
7, 130080, Note_off_c, 4, 63, 0
7, 130080, Note_on_c, 4, 68, 100
7, 130080, Note_on_c, 4, 63, 100
7, 130560, Note_off_c, 4, 68, 0
7, 130560, Note_off_c, 4, 63, 0
7, 130560, Note_on_c, 4, 68, 100
7, 130560, Note_on_c, 4, 63, 100
7, 131280, Note_off_c, 4, 68, 0
7, 131280, Note_off_c, 4, 63, 0
7, 131280, Note_on_c, 4, 68, 100
7, 131280, Note_on_c, 4, 63, 100
7, 132000, Note_off_c, 4, 68, 0
7, 132000, Note_off_c, 4, 63, 0
7, 132000, Note_on_c, 4, 66, 100
7, 132000, Note_on_c, 4, 61, 100
7, 132480, Note_off_c, 4, 66, 0
7, 132480, Note_off_c, 4, 61, 0
7, 132480, Note_on_c, 4, 64, 100
7, 132480, Note_on_c, 4, 59, 100
7, 132720, Note_off_c, 4, 64, 0
7, 132720, Note_off_c, 4, 59, 0
7, 132960, Note_on_c, 4, 64, 100
7, 132960, Note_on_c, 4, 59, 100
7, 133680, Note_off_c, 4, 64, 0
7, 133680, Note_off_c, 4, 59, 0
7, 133680, Note_on_c, 4, 64, 100
7, 133680, Note_on_c, 4, 59, 100
7, 134160, Note_off_c, 4, 64, 0
7, 134160, Note_off_c, 4, 59, 0
7, 134160, Note_on_c, 4, 64, 100
7, 134160, Note_on_c, 4, 59, 100
7, 134400, Note_off_c, 4, 64, 0
7, 134400, Note_off_c, 4, 59, 0
7, 134400, Note_on_c, 4, 66, 100
7, 134400, Note_on_c, 4, 61, 100
7, 134640, Note_off_c, 4, 66, 0
7, 134640, Note_off_c, 4, 61, 0
7, 134880, Note_on_c, 4, 66, 100
7, 134880, Note_on_c, 4, 61, 100
7, 135120, Note_off_c, 4, 66, 0
7, 135120, Note_off_c, 4, 61, 0
7, 135120, Note_on_c, 4, 66, 100
7, 135120, Note_on_c, 4, 61, 100
7, 135840, Note_off_c, 4, 66, 0
7, 135840, Note_off_c, 4, 61, 0
7, 135840, Note_on_c, 4, 66, 100
7, 135840, Note_on_c, 4, 61, 100
7, 136080, Note_off_c, 4, 66, 0
7, 136080, Note_off_c, 4, 61, 0
7, 136080, Note_on_c, 4, 66, 100
7, 136080, Note_on_c, 4, 61, 100
7, 136320, Note_off_c, 4, 66, 0
7, 136320, Note_off_c, 4, 61, 0
7, 136320, Note_on_c, 4, 68, 100
7, 136320, Note_on_c, 4, 63, 100
7, 137040, Note_off_c, 4, 68, 0
7, 137040, Note_off_c, 4, 63, 0
7, 137040, Note_on_c, 4, 68, 100
7, 137040, Note_on_c, 4, 63, 100
7, 137760, Note_off_c, 4, 68, 0
7, 137760, Note_off_c, 4, 63, 0
7, 137760, Note_on_c, 4, 68, 100
7, 137760, Note_on_c, 4, 63, 100
7, 138240, Note_off_c, 4, 68, 0
7, 138240, Note_off_c, 4, 63, 0
7, 138240, Note_on_c, 4, 68, 100
7, 138240, Note_on_c, 4, 63, 100
7, 138720, Note_off_c, 4, 68, 0
7, 138720, Note_off_c, 4, 63, 0
7, 138720, Note_on_c, 4, 71, 100
7, 138960, Note_on_c, 4, 68, 100
7, 138960, Note_on_c, 4, 63, 100
7, 139200, Note_off_c, 4, 71, 0
7, 139200, Note_off_c, 4, 68, 0
7, 139200, Note_off_c, 4, 63, 0
7, 139200, Note_on_c, 4, 70, 100
7, 139440, Note_off_c, 4, 70, 0
7, 139440, Note_on_c, 4, 66, 100
7, 139680, Note_off_c, 4, 66, 0
7, 139680, Note_on_c, 4, 63, 100
7, 139920, Note_off_c, 4, 63, 0
7, 139920, Note_on_c, 4, 59, 100
7, 140160, Note_off_c, 4, 59, 0
7, 140160, Note_on_c, 4, 64, 100
7, 140160, Note_on_c, 4, 59, 100
7, 141600, Note_off_c, 4, 64, 0
7, 141600, Note_off_c, 4, 59, 0
7, 141600, Note_on_c, 4, 64, 100
7, 141600, Note_on_c, 4, 59, 100
7, 142080, Note_off_c, 4, 64, 0
7, 142080, Note_off_c, 4, 59, 0
7, 142080, Note_on_c, 4, 66, 100
7, 142080, Note_on_c, 4, 61, 100
7, 142800, Note_off_c, 4, 66, 0
7, 142800, Note_off_c, 4, 61, 0
7, 142800, Note_on_c, 4, 66, 100
7, 142800, Note_on_c, 4, 61, 100
7, 143520, Note_off_c, 4, 66, 0
7, 143520, Note_off_c, 4, 61, 0
7, 143520, Note_on_c, 4, 66, 100
7, 143520, Note_on_c, 4, 61, 100
7, 144000, Note_off_c, 4, 66, 0
7, 144000, Note_off_c, 4, 61, 0
7, 144000, Note_on_c, 4, 68, 100
7, 144000, Note_on_c, 4, 63, 100
7, 144720, Note_off_c, 4, 68, 0
7, 144720, Note_off_c, 4, 63, 0
7, 144720, Note_on_c, 4, 68, 100
7, 144720, Note_on_c, 4, 63, 100
7, 145440, Note_off_c, 4, 68, 0
7, 145440, Note_off_c, 4, 63, 0
7, 145440, Note_on_c, 4, 68, 100
7, 145440, Note_on_c, 4, 63, 100
7, 145920, Note_off_c, 4, 68, 0
7, 145920, Note_off_c, 4, 63, 0
7, 145920, Note_on_c, 4, 68, 100
7, 145920, Note_on_c, 4, 63, 100
7, 146640, Note_off_c, 4, 68, 0
7, 146640, Note_off_c, 4, 63, 0
7, 146640, Note_on_c, 4, 68, 100
7, 146640, Note_on_c, 4, 63, 100
7, 147360, Note_off_c, 4, 68, 0
7, 147360, Note_off_c, 4, 63, 0
7, 147360, Note_on_c, 4, 66, 100
7, 147360, Note_on_c, 4, 61, 100
7, 147840, Note_off_c, 4, 66, 0
7, 147840, Note_off_c, 4, 61, 0
7, 147840, Note_on_c, 4, 64, 100
7, 147840, Note_on_c, 4, 59, 100
7, 148080, Note_off_c, 4, 64, 0
7, 148080, Note_off_c, 4, 59, 0
7, 148320, Note_on_c, 4, 64, 100
7, 148320, Note_on_c, 4, 59, 100
7, 149040, Note_off_c, 4, 64, 0
7, 149040, Note_off_c, 4, 59, 0
7, 149040, Note_on_c, 4, 64, 100
7, 149040, Note_on_c, 4, 59, 100
7, 149520, Note_off_c, 4, 64, 0
7, 149520, Note_off_c, 4, 59, 0
7, 149520, Note_on_c, 4, 64, 100
7, 149520, Note_on_c, 4, 59, 100
7, 149760, Note_off_c, 4, 64, 0
7, 149760, Note_off_c, 4, 59, 0
7, 149760, Note_on_c, 4, 66, 100
7, 149760, Note_on_c, 4, 61, 100
7, 150000, Note_off_c, 4, 66, 0
7, 150000, Note_off_c, 4, 61, 0
7, 150240, Note_on_c, 4, 66, 100
7, 150240, Note_on_c, 4, 61, 100
7, 150480, Note_off_c, 4, 66, 0
7, 150480, Note_off_c, 4, 61, 0
7, 150480, Note_on_c, 4, 66, 100
7, 150480, Note_on_c, 4, 61, 100
7, 151200, Note_off_c, 4, 66, 0
7, 151200, Note_off_c, 4, 61, 0
7, 151200, Note_on_c, 4, 66, 100
7, 151200, Note_on_c, 4, 61, 100
7, 151440, Note_off_c, 4, 66, 0
7, 151440, Note_off_c, 4, 61, 0
7, 151440, Note_on_c, 4, 66, 100
7, 151440, Note_on_c, 4, 61, 100
7, 151680, Note_off_c, 4, 66, 0
7, 151680, Note_off_c, 4, 61, 0
7, 151680, Note_on_c, 4, 68, 100
7, 151680, Note_on_c, 4, 63, 100
7, 152400, Note_off_c, 4, 68, 0
7, 152400, Note_off_c, 4, 63, 0
7, 152400, Note_on_c, 4, 68, 100
7, 152400, Note_on_c, 4, 63, 100
7, 153120, Note_off_c, 4, 68, 0
7, 153120, Note_off_c, 4, 63, 0
7, 153120, Note_on_c, 4, 68, 100
7, 153120, Note_on_c, 4, 63, 100
7, 153600, Note_off_c, 4, 68, 0
7, 153600, Note_off_c, 4, 63, 0
7, 153600, Note_on_c, 4, 68, 100
7, 153600, Note_on_c, 4, 63, 100
7, 154080, Note_off_c, 4, 68, 0
7, 154080, Note_off_c, 4, 63, 0
7, 154080, Note_on_c, 4, 71, 100
7, 154320, Note_on_c, 4, 68, 100
7, 154320, Note_on_c, 4, 63, 100
7, 154560, Note_off_c, 4, 71, 0
7, 154560, Note_off_c, 4, 68, 0
7, 154560, Note_off_c, 4, 63, 0
7, 154560, Note_on_c, 4, 75, 100
7, 154560, Note_on_c, 4, 70, 100
7, 154800, Note_off_c, 4, 75, 0
7, 154800, Note_off_c, 4, 70, 0
7, 154800, Note_on_c, 4, 72, 100
7, 154800, Note_on_c, 4, 68, 100
7, 155040, Note_off_c, 4, 72, 0
7, 155040, Note_off_c, 4, 68, 0
7, 155040, Note_on_c, 4, 70, 100
7, 155040, Note_on_c, 4, 66, 100
7, 155280, Note_off_c, 4, 70, 0
7, 155280, Note_off_c, 4, 66, 0
7, 155280, Note_on_c, 4, 68, 100
7, 155280, Note_on_c, 4, 63, 100
7, 155520, Note_off_c, 4, 68, 0
7, 155520, Note_off_c, 4, 63, 0
7, 155520, Note_on_c, 4, 66, 100
7, 155520, Note_on_c, 4, 61, 100
7, 156960, Note_off_c, 4, 66, 0
7, 156960, Note_off_c, 4, 61, 0
7, 156960, Note_on_c, 4, 66, 100
7, 156960, Note_on_c, 4, 61, 100
7, 157440, Note_off_c, 4, 66, 0
7, 157440, Note_off_c, 4, 61, 0
7, 157440, Note_on_c, 4, 68, 100
7, 157440, Note_on_c, 4, 63, 100
7, 158160, Note_off_c, 4, 68, 0
7, 158160, Note_off_c, 4, 63, 0
7, 158160, Note_on_c, 4, 68, 100
7, 158160, Note_on_c, 4, 63, 100
7, 158880, Note_off_c, 4, 68, 0
7, 158880, Note_off_c, 4, 63, 0
7, 158880, Note_on_c, 4, 68, 100
7, 158880, Note_on_c, 4, 63, 100
7, 159360, Note_off_c, 4, 68, 0
7, 159360, Note_off_c, 4, 63, 0
7, 159360, Note_on_c, 4, 70, 100
7, 159360, Note_on_c, 4, 65, 100
7, 160080, Note_off_c, 4, 70, 0
7, 160080, Note_off_c, 4, 65, 0
7, 160080, Note_on_c, 4, 70, 100
7, 160080, Note_on_c, 4, 65, 100
7, 160800, Note_off_c, 4, 70, 0
7, 160800, Note_off_c, 4, 65, 0
7, 160800, Note_on_c, 4, 70, 100
7, 160800, Note_on_c, 4, 65, 100
7, 161280, Note_off_c, 4, 70, 0
7, 161280, Note_off_c, 4, 65, 0
7, 161280, Note_on_c, 4, 70, 100
7, 161280, Note_on_c, 4, 65, 100
7, 162000, Note_off_c, 4, 70, 0
7, 162000, Note_off_c, 4, 65, 0
7, 162000, Note_on_c, 4, 70, 100
7, 162000, Note_on_c, 4, 65, 100
7, 162720, Note_off_c, 4, 70, 0
7, 162720, Note_off_c, 4, 65, 0
7, 162720, Note_on_c, 4, 68, 100
7, 162720, Note_on_c, 4, 63, 100
7, 163200, Note_off_c, 4, 68, 0
7, 163200, Note_off_c, 4, 63, 0
7, 163200, Note_on_c, 4, 66, 100
7, 163200, Note_on_c, 4, 61, 100
7, 163440, Note_off_c, 4, 66, 0
7, 163440, Note_off_c, 4, 61, 0
7, 163680, Note_on_c, 4, 66, 100
7, 163680, Note_on_c, 4, 61, 100
7, 164400, Note_off_c, 4, 66, 0
7, 164400, Note_off_c, 4, 61, 0
7, 164400, Note_on_c, 4, 66, 100
7, 164400, Note_on_c, 4, 61, 100
7, 164880, Note_off_c, 4, 66, 0
7, 164880, Note_off_c, 4, 61, 0
7, 164880, Note_on_c, 4, 66, 100
7, 164880, Note_on_c, 4, 61, 100
7, 165120, Note_off_c, 4, 66, 0
7, 165120, Note_off_c, 4, 61, 0
7, 165120, Note_on_c, 4, 68, 100
7, 165120, Note_on_c, 4, 63, 100
7, 165360, Note_off_c, 4, 68, 0
7, 165360, Note_off_c, 4, 63, 0
7, 165600, Note_on_c, 4, 68, 100
7, 165600, Note_on_c, 4, 63, 100
7, 165840, Note_off_c, 4, 68, 0
7, 165840, Note_off_c, 4, 63, 0
7, 165840, Note_on_c, 4, 68, 100
7, 165840, Note_on_c, 4, 63, 100
7, 166560, Note_off_c, 4, 68, 0
7, 166560, Note_off_c, 4, 63, 0
7, 166560, Note_on_c, 4, 68, 100
7, 166560, Note_on_c, 4, 63, 100
7, 166800, Note_off_c, 4, 68, 0
7, 166800, Note_off_c, 4, 63, 0
7, 166800, Note_on_c, 4, 68, 100
7, 166800, Note_on_c, 4, 63, 100
7, 167040, Note_off_c, 4, 68, 0
7, 167040, Note_off_c, 4, 63, 0
7, 167040, Note_on_c, 4, 70, 100
7, 167040, Note_on_c, 4, 65, 100
7, 167760, Note_off_c, 4, 70, 0
7, 167760, Note_off_c, 4, 65, 0
7, 167760, Note_on_c, 4, 70, 100
7, 167760, Note_on_c, 4, 65, 100
7, 168480, Note_off_c, 4, 70, 0
7, 168480, Note_off_c, 4, 65, 0
7, 168480, Note_on_c, 4, 70, 100
7, 168480, Note_on_c, 4, 65, 100
7, 168960, Note_off_c, 4, 70, 0
7, 168960, Note_off_c, 4, 65, 0
7, 168960, Note_on_c, 4, 70, 100
7, 168960, Note_on_c, 4, 65, 100
7, 169440, Note_off_c, 4, 70, 0
7, 169440, Note_off_c, 4, 65, 0
7, 169440, Note_on_c, 4, 73, 100
7, 169680, Note_on_c, 4, 70, 100
7, 169680, Note_on_c, 4, 65, 100
7, 169920, Note_off_c, 4, 73, 0
7, 169920, Note_off_c, 4, 70, 0
7, 169920, Note_off_c, 4, 65, 0
7, 169920, Note_on_c, 4, 72, 100
7, 170160, Note_off_c, 4, 72, 0
7, 170160, Note_on_c, 4, 68, 100
7, 170400, Note_off_c, 4, 68, 0
7, 170400, Note_on_c, 4, 65, 100
7, 170640, Note_off_c, 4, 65, 0
7, 170640, Note_on_c, 4, 61, 100
7, 170880, Note_off_c, 4, 61, 0
7, 170880, Note_on_c, 4, 66, 100
7, 170880, Note_on_c, 4, 61, 100
7, 172320, Note_off_c, 4, 66, 0
7, 172320, Note_off_c, 4, 61, 0
7, 172320, Note_on_c, 4, 66, 100
7, 172320, Note_on_c, 4, 61, 100
7, 172800, Note_off_c, 4, 66, 0
7, 172800, Note_off_c, 4, 61, 0
7, 172800, Note_on_c, 4, 68, 100
7, 172800, Note_on_c, 4, 63, 100
7, 173520, Note_off_c, 4, 68, 0
7, 173520, Note_off_c, 4, 63, 0
7, 173520, Note_on_c, 4, 68, 100
7, 173520, Note_on_c, 4, 63, 100
7, 174240, Note_off_c, 4, 68, 0
7, 174240, Note_off_c, 4, 63, 0
7, 174240, Note_on_c, 4, 68, 100
7, 174240, Note_on_c, 4, 63, 100
7, 174720, Note_off_c, 4, 68, 0
7, 174720, Note_off_c, 4, 63, 0
7, 174720, Note_on_c, 4, 70, 100
7, 174720, Note_on_c, 4, 65, 100
7, 175440, Note_off_c, 4, 70, 0
7, 175440, Note_off_c, 4, 65, 0
7, 175440, Note_on_c, 4, 70, 100
7, 175440, Note_on_c, 4, 65, 100
7, 176160, Note_off_c, 4, 70, 0
7, 176160, Note_off_c, 4, 65, 0
7, 176160, Note_on_c, 4, 70, 100
7, 176160, Note_on_c, 4, 65, 100
7, 176640, Note_off_c, 4, 70, 0
7, 176640, Note_off_c, 4, 65, 0
7, 176640, Note_on_c, 4, 70, 100
7, 176640, Note_on_c, 4, 65, 100
7, 177360, Note_off_c, 4, 70, 0
7, 177360, Note_off_c, 4, 65, 0
7, 177360, Note_on_c, 4, 70, 100
7, 177360, Note_on_c, 4, 65, 100
7, 178080, Note_off_c, 4, 70, 0
7, 178080, Note_off_c, 4, 65, 0
7, 178080, Note_on_c, 4, 68, 100
7, 178080, Note_on_c, 4, 63, 100
7, 178560, Note_off_c, 4, 68, 0
7, 178560, Note_off_c, 4, 63, 0
7, 178560, Note_on_c, 4, 66, 100
7, 178560, Note_on_c, 4, 61, 100
7, 178800, Note_off_c, 4, 66, 0
7, 178800, Note_off_c, 4, 61, 0
7, 179040, Note_on_c, 4, 66, 100
7, 179040, Note_on_c, 4, 61, 100
7, 179760, Note_off_c, 4, 66, 0
7, 179760, Note_off_c, 4, 61, 0
7, 179760, Note_on_c, 4, 66, 100
7, 179760, Note_on_c, 4, 61, 100
7, 180240, Note_off_c, 4, 66, 0
7, 180240, Note_off_c, 4, 61, 0
7, 180240, Note_on_c, 4, 66, 100
7, 180240, Note_on_c, 4, 61, 100
7, 180480, Note_off_c, 4, 66, 0
7, 180480, Note_off_c, 4, 61, 0
7, 180480, Note_on_c, 4, 68, 100
7, 180480, Note_on_c, 4, 63, 100
7, 180720, Note_off_c, 4, 68, 0
7, 180720, Note_off_c, 4, 63, 0
7, 180960, Note_on_c, 4, 68, 100
7, 180960, Note_on_c, 4, 63, 100
7, 181200, Note_off_c, 4, 68, 0
7, 181200, Note_off_c, 4, 63, 0
7, 181200, Note_on_c, 4, 68, 100
7, 181200, Note_on_c, 4, 63, 100
7, 181920, Note_off_c, 4, 68, 0
7, 181920, Note_off_c, 4, 63, 0
7, 181920, Note_on_c, 4, 68, 100
7, 181920, Note_on_c, 4, 63, 100
7, 182160, Note_off_c, 4, 68, 0
7, 182160, Note_off_c, 4, 63, 0
7, 182160, Note_on_c, 4, 68, 100
7, 182160, Note_on_c, 4, 63, 100
7, 182400, Note_off_c, 4, 68, 0
7, 182400, Note_off_c, 4, 63, 0
7, 182400, Note_on_c, 4, 70, 100
7, 182400, Note_on_c, 4, 65, 100
7, 183120, Note_off_c, 4, 70, 0
7, 183120, Note_off_c, 4, 65, 0
7, 183120, Note_on_c, 4, 70, 100
7, 183120, Note_on_c, 4, 65, 100
7, 183840, Note_off_c, 4, 70, 0
7, 183840, Note_off_c, 4, 65, 0
7, 183840, Note_on_c, 4, 70, 100
7, 183840, Note_on_c, 4, 65, 100
7, 184320, Note_off_c, 4, 70, 0
7, 184320, Note_off_c, 4, 65, 0
7, 184320, Note_on_c, 4, 70, 100
7, 184320, Note_on_c, 4, 65, 100
7, 184800, Note_off_c, 4, 70, 0
7, 184800, Note_off_c, 4, 65, 0
7, 184800, Note_on_c, 4, 73, 100
7, 185040, Note_on_c, 4, 70, 100
7, 185040, Note_on_c, 4, 65, 100
7, 185280, Note_off_c, 4, 73, 0
7, 185280, Note_off_c, 4, 70, 0
7, 185280, Note_off_c, 4, 65, 0
7, 185280, Note_on_c, 4, 73, 100
7, 185520, Note_off_c, 4, 73, 0
7, 185520, Note_on_c, 4, 72, 100
7, 185760, Note_off_c, 4, 72, 0
7, 185760, Note_on_c, 4, 70, 100
7, 186000, Note_off_c, 4, 70, 0
7, 186000, Note_on_c, 4, 68, 100
7, 186240, Note_off_c, 4, 68, 0
7, 186240, Note_on_c, 4, 70, 100
7, 186240, Note_on_c, 4, 65, 100
7, 188160, Note_off_c, 4, 70, 0
7, 188160, Note_off_c, 4, 65, 0
7, 188160, End_track
8, 0, Start_track
8, 0, Title_t, "CH06"
8, 0, MIDI_port, 0
8, 0, Text_t, "---- System Setup --------------------------------------------------"
8, 188, Text_t, "---- CH Setup --------------------------------------------------"
8, 188, Control_c, 5, 121, 0
8, 189, Control_c, 5, 0, 0
8, 189, Control_c, 5, 32, 0
8, 189, Program_c, 5, 73
8, 192, Control_c, 5, 10, 64
8, 193, Control_c, 5, 7, 100
8, 194, Control_c, 5, 91, 0
8, 195, Control_c, 5, 11, 127
8, 196, Control_c, 5, 1, 0
8, 197, Control_c, 5, 101, 0
8, 197, Control_c, 5, 100, 1
8, 197, Control_c, 5, 6, 64
8, 197, Control_c, 5, 38, 0
8, 201, Control_c, 5, 101, 0
8, 201, Control_c, 5, 100, 2
8, 201, Control_c, 5, 6, 64
8, 204, Control_c, 5, 101, 0
8, 204, Control_c, 5, 100, 0
8, 204, Control_c, 5, 6, 12
8, 207, Pitch_bend_c, 5, 8192
8, 208, Control_c, 5, 101, 127
8, 208, Control_c, 5, 100, 127
8, 210, Text_t, "---- End of CH Setup --------------------------------------------------"
8, 61680, Note_on_c, 5, 73, 100
8, 61920, Note_off_c, 5, 73, 0
8, 61920, Note_on_c, 5, 80, 100
8, 62160, Note_off_c, 5, 80, 0
8, 62160, Note_on_c, 5, 73, 100
8, 62400, Note_off_c, 5, 73, 0
8, 62400, Note_on_c, 5, 71, 100
8, 62640, Note_off_c, 5, 71, 0
8, 62640, Note_on_c, 5, 70, 100
8, 62880, Note_off_c, 5, 70, 0
8, 62880, Note_on_c, 5, 71, 100
8, 63360, Note_off_c, 5, 71, 0
8, 77040, Note_on_c, 5, 73, 100
8, 77280, Note_off_c, 5, 73, 0
8, 77280, Note_on_c, 5, 80, 100
8, 77520, Note_off_c, 5, 80, 0
8, 77520, Note_on_c, 5, 73, 100
8, 77760, Note_off_c, 5, 73, 0
8, 77760, Note_on_c, 5, 71, 100
8, 78000, Note_off_c, 5, 71, 0
8, 78000, Note_on_c, 5, 70, 100
8, 78240, Note_off_c, 5, 70, 0
8, 78240, Note_on_c, 5, 71, 100
8, 78720, Note_off_c, 5, 71, 0
8, 78720, End_track
9, 0, Start_track
9, 0, Title_t, "CH07"
9, 0, MIDI_port, 0
9, 0, Text_t, "---- System Setup --------------------------------------------------"
9, 188, Text_t, "---- CH Setup --------------------------------------------------"
9, 188, Control_c, 6, 121, 0
9, 189, Control_c, 6, 0, 0
9, 189, Control_c, 6, 32, 0
9, 189, Program_c, 6, 2
9, 192, Control_c, 6, 10, 64
9, 193, Control_c, 6, 7, 100
9, 194, Control_c, 6, 91, 0
9, 195, Control_c, 6, 11, 127
9, 196, Control_c, 6, 1, 0
9, 197, Control_c, 6, 101, 0
9, 197, Control_c, 6, 100, 1
9, 197, Control_c, 6, 6, 64
9, 197, Control_c, 6, 38, 0
9, 201, Control_c, 6, 101, 0
9, 201, Control_c, 6, 100, 2
9, 201, Control_c, 6, 6, 64
9, 204, Control_c, 6, 101, 0
9, 204, Control_c, 6, 100, 0
9, 204, Control_c, 6, 6, 12
9, 207, Pitch_bend_c, 6, 8192
9, 208, Control_c, 6, 101, 127
9, 208, Control_c, 6, 100, 127
9, 210, Text_t, "---- End of CH Setup --------------------------------------------------"
9, 124800, Note_on_c, 6, 64, 100
9, 124800, Note_on_c, 6, 76, 100
9, 125520, Note_off_c, 6, 64, 0
9, 125520, Note_off_c, 6, 76, 0
9, 125520, Note_on_c, 6, 68, 100
9, 125520, Note_on_c, 6, 80, 100
9, 125760, Note_off_c, 6, 68, 0
9, 125760, Note_off_c, 6, 80, 0
9, 125760, Note_on_c, 6, 71, 100
9, 125760, Note_on_c, 6, 83, 100
9, 126000, Note_off_c, 6, 71, 0
9, 126000, Note_off_c, 6, 83, 0
9, 126000, Note_on_c, 6, 64, 100
9, 126000, Note_on_c, 6, 76, 100
9, 126480, Note_off_c, 6, 64, 0
9, 126480, Note_off_c, 6, 76, 0
9, 126480, Note_on_c, 6, 88, 100
9, 126480, Note_on_c, 6, 76, 100
9, 126480, Note_on_c, 6, 64, 100
9, 126720, Note_off_c, 6, 88, 0
9, 126720, Note_off_c, 6, 76, 0
9, 126720, Note_off_c, 6, 64, 0
9, 126720, Note_on_c, 6, 66, 100
9, 126720, Note_on_c, 6, 78, 100
9, 126960, Note_off_c, 6, 66, 0
9, 126960, Note_off_c, 6, 78, 0
9, 126960, Note_on_c, 6, 70, 100
9, 126960, Note_on_c, 6, 82, 100
9, 127200, Note_off_c, 6, 70, 0
9, 127200, Note_off_c, 6, 82, 0
9, 127200, Note_on_c, 6, 73, 100
9, 127200, Note_on_c, 6, 85, 100
9, 127440, Note_off_c, 6, 73, 0
9, 127440, Note_off_c, 6, 85, 0
9, 127440, Note_on_c, 6, 90, 100
9, 127440, Note_on_c, 6, 78, 100
9, 127680, Note_off_c, 6, 90, 0
9, 127680, Note_off_c, 6, 78, 0
9, 127680, Note_on_c, 6, 78, 100
9, 127680, Note_on_c, 6, 66, 100
9, 127920, Note_off_c, 6, 78, 0
9, 127920, Note_off_c, 6, 66, 0
9, 127920, Note_on_c, 6, 66, 100
9, 127920, Note_on_c, 6, 78, 100
9, 128400, Note_off_c, 6, 66, 0
9, 128400, Note_off_c, 6, 78, 0
9, 128400, Note_on_c, 6, 73, 100
9, 128400, Note_on_c, 6, 85, 100
9, 128640, Note_off_c, 6, 73, 0
9, 128640, Note_off_c, 6, 85, 0
9, 128640, Note_on_c, 6, 68, 100
9, 128640, Note_on_c, 6, 80, 100
9, 129360, Note_off_c, 6, 68, 0
9, 129360, Note_off_c, 6, 80, 0
9, 129360, Note_on_c, 6, 71, 100
9, 129360, Note_on_c, 6, 83, 100
9, 129600, Note_off_c, 6, 71, 0
9, 129600, Note_off_c, 6, 83, 0
9, 129600, Note_on_c, 6, 68, 100
9, 129600, Note_on_c, 6, 80, 100
9, 129840, Note_off_c, 6, 68, 0
9, 129840, Note_off_c, 6, 80, 0
9, 129840, Note_on_c, 6, 71, 100
9, 129840, Note_on_c, 6, 83, 100
9, 130080, Note_off_c, 6, 71, 0
9, 130080, Note_off_c, 6, 83, 0
9, 130080, Note_on_c, 6, 73, 100
9, 130080, Note_on_c, 6, 85, 100
9, 130320, Note_off_c, 6, 73, 0
9, 130320, Note_off_c, 6, 85, 0
9, 130320, Note_on_c, 6, 75, 100
9, 130320, Note_on_c, 6, 87, 100
9, 130560, Note_off_c, 6, 75, 0
9, 130560, Note_off_c, 6, 87, 0
9, 130560, Note_on_c, 6, 75, 100
9, 130560, Note_on_c, 6, 87, 100
9, 131040, Note_off_c, 6, 75, 0
9, 131040, Note_off_c, 6, 87, 0
9, 131040, Note_on_c, 6, 73, 100
9, 131040, Note_on_c, 6, 85, 100
9, 131520, Note_off_c, 6, 73, 0
9, 131520, Note_off_c, 6, 85, 0
9, 131760, Note_on_c, 6, 70, 100
9, 131760, Note_on_c, 6, 82, 100
9, 132000, Note_off_c, 6, 70, 0
9, 132000, Note_off_c, 6, 82, 0
9, 132000, Note_on_c, 6, 71, 100
9, 132000, Note_on_c, 6, 83, 100
9, 132480, Note_off_c, 6, 71, 0
9, 132480, Note_off_c, 6, 83, 0
9, 132480, Note_on_c, 6, 64, 100
9, 132480, Note_on_c, 6, 76, 100
9, 133200, Note_off_c, 6, 64, 0
9, 133200, Note_off_c, 6, 76, 0
9, 133200, Note_on_c, 6, 68, 100
9, 133200, Note_on_c, 6, 80, 100
9, 133440, Note_off_c, 6, 68, 0
9, 133440, Note_off_c, 6, 80, 0
9, 133440, Note_on_c, 6, 64, 100
9, 133440, Note_on_c, 6, 76, 100
9, 133920, Note_off_c, 6, 64, 0
9, 133920, Note_off_c, 6, 76, 0
9, 133920, Note_on_c, 6, 68, 100
9, 133920, Note_on_c, 6, 80, 100
9, 134160, Note_off_c, 6, 68, 0
9, 134160, Note_off_c, 6, 80, 0
9, 134160, Note_on_c, 6, 71, 100
9, 134160, Note_on_c, 6, 83, 100
9, 134400, Note_off_c, 6, 71, 0
9, 134400, Note_off_c, 6, 83, 0
9, 134400, Note_on_c, 6, 66, 100
9, 134400, Note_on_c, 6, 78, 100
9, 135120, Note_off_c, 6, 66, 0
9, 135120, Note_off_c, 6, 78, 0
9, 135120, Note_on_c, 6, 70, 100
9, 135120, Note_on_c, 6, 82, 100
9, 135600, Note_off_c, 6, 70, 0
9, 135600, Note_off_c, 6, 82, 0
9, 135600, Note_on_c, 6, 73, 100
9, 135600, Note_on_c, 6, 85, 100
9, 135840, Note_off_c, 6, 73, 0
9, 135840, Note_off_c, 6, 85, 0
9, 135840, Note_on_c, 6, 78, 100
9, 135840, Note_on_c, 6, 90, 100
9, 136080, Note_off_c, 6, 78, 0
9, 136080, Note_off_c, 6, 90, 0
9, 136080, Note_on_c, 6, 73, 100
9, 136080, Note_on_c, 6, 85, 100
9, 136320, Note_off_c, 6, 73, 0
9, 136320, Note_off_c, 6, 85, 0
9, 136320, Note_on_c, 6, 68, 100
9, 136320, Note_on_c, 6, 80, 100
9, 137280, Note_off_c, 6, 68, 0
9, 137280, Note_off_c, 6, 80, 0
9, 137280, Note_on_c, 6, 80, 100
9, 137280, Note_on_c, 6, 92, 100
9, 137520, Note_off_c, 6, 80, 0
9, 137520, Note_off_c, 6, 92, 0
9, 137520, Note_on_c, 6, 83, 100
9, 137520, Note_on_c, 6, 95, 100
9, 137760, Note_off_c, 6, 83, 0
9, 137760, Note_off_c, 6, 95, 0
9, 137760, Note_on_c, 6, 80, 100
9, 137760, Note_on_c, 6, 92, 100
9, 138000, Note_off_c, 6, 80, 0
9, 138000, Note_off_c, 6, 92, 0
9, 138000, Note_on_c, 6, 75, 100
9, 138000, Note_on_c, 6, 87, 100
9, 138480, Note_off_c, 6, 75, 0
9, 138480, Note_off_c, 6, 87, 0
9, 138480, Note_on_c, 6, 99, 100
9, 138480, Note_on_c, 6, 87, 100
9, 138480, Note_on_c, 6, 75, 100
9, 138720, Note_off_c, 6, 99, 0
9, 138720, Note_off_c, 6, 87, 0
9, 138720, Note_off_c, 6, 75, 0
9, 138720, Note_on_c, 6, 80, 100
9, 138720, Note_on_c, 6, 92, 100
9, 138960, Note_off_c, 6, 80, 0
9, 138960, Note_off_c, 6, 92, 0
9, 138960, Note_on_c, 6, 83, 100
9, 138960, Note_on_c, 6, 95, 100
9, 139200, Note_off_c, 6, 83, 0
9, 139200, Note_off_c, 6, 95, 0
9, 139200, Note_on_c, 6, 75, 100
9, 139200, Note_on_c, 6, 87, 100
9, 139440, Note_off_c, 6, 75, 0
9, 139440, Note_off_c, 6, 87, 0
9, 139440, Note_on_c, 6, 82, 100
9, 139440, Note_on_c, 6, 94, 100
9, 139680, Note_off_c, 6, 82, 0
9, 139680, Note_off_c, 6, 94, 0
9, 139680, Note_on_c, 6, 75, 100
9, 139680, Note_on_c, 6, 87, 100
9, 139920, Note_off_c, 6, 75, 0
9, 139920, Note_off_c, 6, 87, 0
9, 139920, Note_on_c, 6, 78, 100
9, 139920, Note_on_c, 6, 90, 100
9, 140160, Note_off_c, 6, 78, 0
9, 140160, Note_off_c, 6, 90, 0
9, 140160, Note_on_c, 6, 64, 100
9, 140160, Note_on_c, 6, 76, 100
9, 140880, Note_off_c, 6, 64, 0
9, 140880, Note_off_c, 6, 76, 0
9, 140880, Note_on_c, 6, 68, 100
9, 140880, Note_on_c, 6, 80, 100
9, 141120, Note_off_c, 6, 68, 0
9, 141120, Note_off_c, 6, 80, 0
9, 141120, Note_on_c, 6, 71, 100
9, 141120, Note_on_c, 6, 83, 100
9, 141360, Note_off_c, 6, 71, 0
9, 141360, Note_off_c, 6, 83, 0
9, 141360, Note_on_c, 6, 64, 100
9, 141360, Note_on_c, 6, 76, 100
9, 141840, Note_off_c, 6, 64, 0
9, 141840, Note_off_c, 6, 76, 0
9, 141840, Note_on_c, 6, 88, 100
9, 141840, Note_on_c, 6, 76, 100
9, 141840, Note_on_c, 6, 64, 100
9, 142080, Note_off_c, 6, 88, 0
9, 142080, Note_off_c, 6, 76, 0
9, 142080, Note_off_c, 6, 64, 0
9, 142080, Note_on_c, 6, 66, 100
9, 142080, Note_on_c, 6, 78, 100
9, 142320, Note_off_c, 6, 66, 0
9, 142320, Note_off_c, 6, 78, 0
9, 142320, Note_on_c, 6, 70, 100
9, 142320, Note_on_c, 6, 82, 100
9, 142560, Note_off_c, 6, 70, 0
9, 142560, Note_off_c, 6, 82, 0
9, 142560, Note_on_c, 6, 73, 100
9, 142560, Note_on_c, 6, 85, 100
9, 142800, Note_off_c, 6, 73, 0
9, 142800, Note_off_c, 6, 85, 0
9, 142800, Note_on_c, 6, 90, 100
9, 143040, Note_off_c, 6, 90, 0
9, 143040, Note_on_c, 6, 78, 100
9, 143040, Note_on_c, 6, 66, 100
9, 143280, Note_off_c, 6, 78, 0
9, 143280, Note_off_c, 6, 66, 0
9, 143280, Note_on_c, 6, 66, 100
9, 143280, Note_on_c, 6, 78, 100
9, 143760, Note_off_c, 6, 66, 0
9, 143760, Note_off_c, 6, 78, 0
9, 143760, Note_on_c, 6, 73, 100
9, 143760, Note_on_c, 6, 85, 100
9, 144000, Note_off_c, 6, 73, 0
9, 144000, Note_off_c, 6, 85, 0
9, 144000, Note_on_c, 6, 68, 100
9, 144000, Note_on_c, 6, 80, 100
9, 144720, Note_off_c, 6, 68, 0
9, 144720, Note_off_c, 6, 80, 0
9, 144720, Note_on_c, 6, 71, 100
9, 144720, Note_on_c, 6, 83, 100
9, 144960, Note_off_c, 6, 71, 0
9, 144960, Note_off_c, 6, 83, 0
9, 144960, Note_on_c, 6, 68, 100
9, 144960, Note_on_c, 6, 80, 100
9, 145200, Note_off_c, 6, 68, 0
9, 145200, Note_off_c, 6, 80, 0
9, 145200, Note_on_c, 6, 71, 100
9, 145200, Note_on_c, 6, 83, 100
9, 145440, Note_off_c, 6, 71, 0
9, 145440, Note_off_c, 6, 83, 0
9, 145440, Note_on_c, 6, 73, 100
9, 145440, Note_on_c, 6, 85, 100
9, 145680, Note_off_c, 6, 73, 0
9, 145680, Note_off_c, 6, 85, 0
9, 145680, Note_on_c, 6, 75, 100
9, 145680, Note_on_c, 6, 87, 100
9, 145920, Note_off_c, 6, 75, 0
9, 145920, Note_off_c, 6, 87, 0
9, 145920, Note_on_c, 6, 75, 100
9, 145920, Note_on_c, 6, 87, 100
9, 146400, Note_off_c, 6, 75, 0
9, 146400, Note_off_c, 6, 87, 0
9, 146400, Note_on_c, 6, 73, 100
9, 146400, Note_on_c, 6, 85, 100
9, 146880, Note_off_c, 6, 73, 0
9, 146880, Note_off_c, 6, 85, 0
9, 147120, Note_on_c, 6, 70, 100
9, 147120, Note_on_c, 6, 82, 100
9, 147360, Note_off_c, 6, 70, 0
9, 147360, Note_off_c, 6, 82, 0
9, 147360, Note_on_c, 6, 71, 100
9, 147360, Note_on_c, 6, 83, 100
9, 147840, Note_off_c, 6, 71, 0
9, 147840, Note_off_c, 6, 83, 0
9, 147840, Note_on_c, 6, 64, 100
9, 147840, Note_on_c, 6, 76, 100
9, 148560, Note_off_c, 6, 64, 0
9, 148560, Note_off_c, 6, 76, 0
9, 148560, Note_on_c, 6, 68, 100
9, 148560, Note_on_c, 6, 80, 100
9, 148800, Note_off_c, 6, 68, 0
9, 148800, Note_off_c, 6, 80, 0
9, 148800, Note_on_c, 6, 64, 100
9, 148800, Note_on_c, 6, 76, 100
9, 149280, Note_off_c, 6, 64, 0
9, 149280, Note_off_c, 6, 76, 0
9, 149280, Note_on_c, 6, 68, 100
9, 149280, Note_on_c, 6, 80, 100
9, 149520, Note_off_c, 6, 68, 0
9, 149520, Note_off_c, 6, 80, 0
9, 149520, Note_on_c, 6, 71, 100
9, 149520, Note_on_c, 6, 83, 100
9, 149760, Note_off_c, 6, 71, 0
9, 149760, Note_off_c, 6, 83, 0
9, 149760, Note_on_c, 6, 66, 100
9, 149760, Note_on_c, 6, 78, 100
9, 150480, Note_off_c, 6, 66, 0
9, 150480, Note_off_c, 6, 78, 0
9, 150480, Note_on_c, 6, 70, 100
9, 150480, Note_on_c, 6, 82, 100
9, 150960, Note_off_c, 6, 70, 0
9, 150960, Note_off_c, 6, 82, 0
9, 150960, Note_on_c, 6, 73, 100
9, 150960, Note_on_c, 6, 85, 100
9, 151200, Note_off_c, 6, 73, 0
9, 151200, Note_off_c, 6, 85, 0
9, 151200, Note_on_c, 6, 78, 100
9, 151200, Note_on_c, 6, 90, 100
9, 151440, Note_off_c, 6, 78, 0
9, 151440, Note_off_c, 6, 90, 0
9, 151440, Note_on_c, 6, 73, 100
9, 151440, Note_on_c, 6, 85, 100
9, 151680, Note_off_c, 6, 73, 0
9, 151680, Note_off_c, 6, 85, 0
9, 151680, Note_on_c, 6, 68, 100
9, 151680, Note_on_c, 6, 80, 100
9, 152640, Note_off_c, 6, 68, 0
9, 152640, Note_off_c, 6, 80, 0
9, 152640, Note_on_c, 6, 80, 100
9, 152640, Note_on_c, 6, 92, 100
9, 152640, Note_on_c, 6, 68, 100
9, 152880, Note_off_c, 6, 80, 0
9, 152880, Note_off_c, 6, 92, 0
9, 152880, Note_off_c, 6, 68, 0
9, 152880, Note_on_c, 6, 83, 100
9, 152880, Note_on_c, 6, 95, 100
9, 152880, Note_on_c, 6, 71, 100
9, 153120, Note_off_c, 6, 83, 0
9, 153120, Note_off_c, 6, 95, 0
9, 153120, Note_off_c, 6, 71, 0
9, 153120, Note_on_c, 6, 80, 100
9, 153120, Note_on_c, 6, 92, 100
9, 153120, Note_on_c, 6, 68, 100
9, 153360, Note_off_c, 6, 80, 0
9, 153360, Note_off_c, 6, 92, 0
9, 153360, Note_off_c, 6, 68, 0
9, 153360, Note_on_c, 6, 75, 100
9, 153360, Note_on_c, 6, 87, 100
9, 153840, Note_off_c, 6, 75, 0
9, 153840, Note_off_c, 6, 87, 0
9, 153840, Note_on_c, 6, 99, 100
9, 153840, Note_on_c, 6, 87, 100
9, 153840, Note_on_c, 6, 75, 100
9, 154080, Note_off_c, 6, 99, 0
9, 154080, Note_off_c, 6, 87, 0
9, 154080, Note_off_c, 6, 75, 0
9, 154080, Note_on_c, 6, 80, 100
9, 154080, Note_on_c, 6, 92, 100
9, 154320, Note_off_c, 6, 80, 0
9, 154320, Note_off_c, 6, 92, 0
9, 154320, Note_on_c, 6, 83, 100
9, 154320, Note_on_c, 6, 95, 100
9, 154560, Note_off_c, 6, 83, 0
9, 154560, Note_off_c, 6, 95, 0
9, 154560, Note_on_c, 6, 77, 100
9, 154560, Note_on_c, 6, 89, 100
9, 154800, Note_off_c, 6, 77, 0
9, 154800, Note_off_c, 6, 89, 0
9, 154800, Note_on_c, 6, 84, 100
9, 154800, Note_on_c, 6, 96, 100
9, 155040, Note_off_c, 6, 84, 0
9, 155040, Note_off_c, 6, 96, 0
9, 155040, Note_on_c, 6, 75, 100
9, 155040, Note_on_c, 6, 87, 100
9, 155280, Note_off_c, 6, 75, 0
9, 155280, Note_off_c, 6, 87, 0
9, 155280, Note_on_c, 6, 80, 100
9, 155280, Note_on_c, 6, 92, 100
9, 155520, Note_off_c, 6, 80, 0
9, 155520, Note_off_c, 6, 92, 0
9, 155520, Note_on_c, 6, 78, 100
9, 155520, Note_on_c, 6, 66, 100
9, 156240, Note_off_c, 6, 78, 0
9, 156240, Note_off_c, 6, 66, 0
9, 156240, Note_on_c, 6, 82, 100
9, 156360, Note_off_c, 6, 82, 0
9, 156360, Note_on_c, 6, 70, 100
9, 156480, Note_off_c, 6, 70, 0
9, 156480, Note_on_c, 6, 85, 100
9, 156600, Note_off_c, 6, 85, 0
9, 156600, Note_on_c, 6, 73, 100
9, 156720, Note_off_c, 6, 73, 0
9, 156720, Note_on_c, 6, 78, 100
9, 156720, Note_on_c, 6, 66, 100
9, 157200, Note_off_c, 6, 78, 0
9, 157200, Note_off_c, 6, 66, 0
9, 157200, Note_on_c, 6, 90, 100
9, 157200, Note_on_c, 6, 78, 100
9, 157320, Note_off_c, 6, 90, 0
9, 157320, Note_off_c, 6, 78, 0
9, 157320, Note_on_c, 6, 66, 100
9, 157440, Note_off_c, 6, 66, 0
9, 157440, Note_on_c, 6, 80, 100
9, 157560, Note_off_c, 6, 80, 0
9, 157560, Note_on_c, 6, 68, 100
9, 157680, Note_off_c, 6, 68, 0
9, 157680, Note_on_c, 6, 84, 100
9, 157800, Note_off_c, 6, 84, 0
9, 157800, Note_on_c, 6, 72, 100
9, 157920, Note_off_c, 6, 72, 0
9, 157920, Note_on_c, 6, 87, 100
9, 158040, Note_off_c, 6, 87, 0
9, 158040, Note_on_c, 6, 75, 100
9, 158160, Note_off_c, 6, 75, 0
9, 158160, Note_on_c, 6, 92, 100
9, 158280, Note_off_c, 6, 92, 0
9, 158280, Note_on_c, 6, 80, 100
9, 158400, Note_off_c, 6, 80, 0
9, 158400, Note_on_c, 6, 80, 100
9, 158520, Note_off_c, 6, 80, 0
9, 158520, Note_on_c, 6, 68, 100
9, 158640, Note_off_c, 6, 68, 0
9, 158640, Note_on_c, 6, 80, 100
9, 158640, Note_on_c, 6, 68, 100
9, 159120, Note_off_c, 6, 80, 0
9, 159120, Note_off_c, 6, 68, 0
9, 159120, Note_on_c, 6, 87, 100
9, 159240, Note_off_c, 6, 87, 0
9, 159240, Note_on_c, 6, 75, 100
9, 159360, Note_off_c, 6, 75, 0
9, 159360, Note_on_c, 6, 82, 100
9, 159360, Note_on_c, 6, 70, 100
9, 160080, Note_off_c, 6, 82, 0
9, 160080, Note_off_c, 6, 70, 0
9, 160080, Note_on_c, 6, 85, 100
9, 160200, Note_off_c, 6, 85, 0
9, 160200, Note_on_c, 6, 73, 100
9, 160320, Note_off_c, 6, 73, 0
9, 160320, Note_on_c, 6, 82, 100
9, 160440, Note_off_c, 6, 82, 0
9, 160440, Note_on_c, 6, 70, 100
9, 160560, Note_off_c, 6, 70, 0
9, 160560, Note_on_c, 6, 85, 100
9, 160680, Note_off_c, 6, 85, 0
9, 160680, Note_on_c, 6, 73, 100
9, 160800, Note_off_c, 6, 73, 0
9, 160800, Note_on_c, 6, 87, 100
9, 160920, Note_off_c, 6, 87, 0
9, 160920, Note_on_c, 6, 75, 100
9, 161040, Note_off_c, 6, 75, 0
9, 161040, Note_on_c, 6, 89, 100
9, 161160, Note_off_c, 6, 89, 0
9, 161160, Note_on_c, 6, 77, 100
9, 161280, Note_off_c, 6, 77, 0
9, 161280, Note_on_c, 6, 89, 100
9, 161400, Note_off_c, 6, 89, 0
9, 161400, Note_on_c, 6, 77, 100
9, 161520, Note_off_c, 6, 77, 0
9, 161520, Note_on_c, 6, 87, 100
9, 161640, Note_off_c, 6, 87, 0
9, 161640, Note_on_c, 6, 77, 100
9, 161760, Note_off_c, 6, 77, 0
9, 161760, Note_on_c, 6, 87, 100
9, 161880, Note_off_c, 6, 87, 0
9, 161880, Note_on_c, 6, 75, 100
9, 162000, Note_off_c, 6, 75, 0
9, 162000, Note_on_c, 6, 87, 100
9, 162120, Note_off_c, 6, 87, 0
9, 162120, Note_on_c, 6, 75, 100
9, 162240, Note_off_c, 6, 75, 0
9, 162240, Note_on_c, 6, 84, 100
9, 162240, Note_on_c, 6, 72, 100
9, 162360, Note_off_c, 6, 84, 0
9, 162360, Note_off_c, 6, 72, 0
9, 162600, Note_on_c, 6, 72, 100
9, 162600, Note_on_c, 6, 84, 100
9, 162720, Note_off_c, 6, 72, 0
9, 162720, Note_off_c, 6, 84, 0
9, 162720, Note_on_c, 6, 85, 100
9, 162720, Note_on_c, 6, 73, 100
9, 163200, Note_off_c, 6, 85, 0
9, 163200, Note_off_c, 6, 73, 0
9, 163200, Note_on_c, 6, 78, 100
9, 163200, Note_on_c, 6, 66, 100
9, 163920, Note_off_c, 6, 78, 0
9, 163920, Note_off_c, 6, 66, 0
9, 163920, Note_on_c, 6, 82, 100
9, 164040, Note_off_c, 6, 82, 0
9, 164040, Note_on_c, 6, 70, 100
9, 164160, Note_off_c, 6, 70, 0
9, 164160, Note_on_c, 6, 78, 100
9, 164160, Note_on_c, 6, 66, 100
9, 164640, Note_off_c, 6, 78, 0
9, 164640, Note_off_c, 6, 66, 0
9, 164640, Note_on_c, 6, 82, 100
9, 164760, Note_off_c, 6, 82, 0
9, 164760, Note_on_c, 6, 70, 100
9, 164880, Note_off_c, 6, 70, 0
9, 164880, Note_on_c, 6, 85, 100
9, 165000, Note_off_c, 6, 85, 0
9, 165000, Note_on_c, 6, 73, 100
9, 165120, Note_off_c, 6, 73, 0
9, 165120, Note_on_c, 6, 80, 100
9, 165120, Note_on_c, 6, 68, 100
9, 165840, Note_off_c, 6, 80, 0
9, 165840, Note_off_c, 6, 68, 0
9, 165840, Note_on_c, 6, 84, 100
9, 165840, Note_on_c, 6, 72, 100
9, 166320, Note_off_c, 6, 84, 0
9, 166320, Note_off_c, 6, 72, 0
9, 166320, Note_on_c, 6, 87, 100
9, 166440, Note_off_c, 6, 87, 0
9, 166440, Note_on_c, 6, 75, 100
9, 166560, Note_off_c, 6, 75, 0
9, 166560, Note_on_c, 6, 92, 100
9, 166680, Note_off_c, 6, 92, 0
9, 166680, Note_on_c, 6, 80, 100
9, 166800, Note_off_c, 6, 80, 0
9, 166800, Note_on_c, 6, 87, 100
9, 166920, Note_off_c, 6, 87, 0
9, 166920, Note_on_c, 6, 75, 100
9, 167040, Note_off_c, 6, 75, 0
9, 167040, Note_on_c, 6, 82, 100
9, 167040, Note_on_c, 6, 70, 100
9, 168000, Note_off_c, 6, 82, 0
9, 168000, Note_off_c, 6, 70, 0
9, 168000, Note_on_c, 6, 94, 100
9, 168120, Note_off_c, 6, 94, 0
9, 168120, Note_on_c, 6, 82, 100
9, 168240, Note_off_c, 6, 82, 0
9, 168240, Note_on_c, 6, 97, 100
9, 168360, Note_off_c, 6, 97, 0
9, 168360, Note_on_c, 6, 85, 100
9, 168480, Note_off_c, 6, 85, 0
9, 168480, Note_on_c, 6, 94, 100
9, 168600, Note_off_c, 6, 94, 0
9, 168600, Note_on_c, 6, 82, 100
9, 168720, Note_off_c, 6, 82, 0
9, 168720, Note_on_c, 6, 89, 100
9, 168720, Note_on_c, 6, 77, 100
9, 169200, Note_off_c, 6, 89, 0
9, 169200, Note_off_c, 6, 77, 0
9, 169200, Note_on_c, 6, 89, 100
9, 169200, Note_on_c, 6, 77, 100
9, 169320, Note_off_c, 6, 89, 0
9, 169320, Note_off_c, 6, 77, 0
9, 169320, Note_on_c, 6, 101, 100
9, 169440, Note_off_c, 6, 101, 0
9, 169440, Note_on_c, 6, 94, 100
9, 169560, Note_off_c, 6, 94, 0
9, 169560, Note_on_c, 6, 82, 100
9, 169680, Note_off_c, 6, 82, 0
9, 169680, Note_on_c, 6, 97, 100
9, 169800, Note_off_c, 6, 97, 0
9, 169800, Note_on_c, 6, 85, 100
9, 169920, Note_off_c, 6, 85, 0
9, 169920, Note_on_c, 6, 89, 100
9, 170040, Note_off_c, 6, 89, 0
9, 170040, Note_on_c, 6, 77, 100
9, 170160, Note_off_c, 6, 77, 0
9, 170160, Note_on_c, 6, 96, 100
9, 170280, Note_off_c, 6, 96, 0
9, 170280, Note_on_c, 6, 84, 100
9, 170400, Note_off_c, 6, 84, 0
9, 170400, Note_on_c, 6, 89, 100
9, 170520, Note_off_c, 6, 89, 0
9, 170520, Note_on_c, 6, 77, 100
9, 170640, Note_off_c, 6, 77, 0
9, 170640, Note_on_c, 6, 92, 100
9, 170760, Note_off_c, 6, 92, 0
9, 170760, Note_on_c, 6, 80, 100
9, 170880, Note_off_c, 6, 80, 0
9, 170880, Note_on_c, 6, 78, 100
9, 170880, Note_on_c, 6, 66, 100
9, 171600, Note_off_c, 6, 78, 0
9, 171600, Note_off_c, 6, 66, 0
9, 171600, Note_on_c, 6, 82, 100
9, 171720, Note_off_c, 6, 82, 0
9, 171720, Note_on_c, 6, 70, 100
9, 171840, Note_off_c, 6, 70, 0
9, 171840, Note_on_c, 6, 85, 100
9, 171960, Note_off_c, 6, 85, 0
9, 171960, Note_on_c, 6, 73, 100
9, 172080, Note_off_c, 6, 73, 0
9, 172080, Note_on_c, 6, 78, 100
9, 172080, Note_on_c, 6, 66, 100
9, 172560, Note_off_c, 6, 78, 0
9, 172560, Note_off_c, 6, 66, 0
9, 172560, Note_on_c, 6, 90, 100
9, 172560, Note_on_c, 6, 78, 100
9, 172680, Note_off_c, 6, 90, 0
9, 172680, Note_off_c, 6, 78, 0
9, 172680, Note_on_c, 6, 66, 100
9, 172800, Note_off_c, 6, 66, 0
9, 172800, Note_on_c, 6, 80, 100
9, 172920, Note_off_c, 6, 80, 0
9, 172920, Note_on_c, 6, 68, 100
9, 173040, Note_off_c, 6, 68, 0
9, 173040, Note_on_c, 6, 84, 100
9, 173160, Note_off_c, 6, 84, 0
9, 173160, Note_on_c, 6, 72, 100
9, 173280, Note_off_c, 6, 72, 0
9, 173280, Note_on_c, 6, 87, 100
9, 173400, Note_off_c, 6, 87, 0
9, 173400, Note_on_c, 6, 75, 100
9, 173520, Note_off_c, 6, 75, 0
9, 173520, Note_on_c, 6, 92, 100
9, 173640, Note_off_c, 6, 92, 0
9, 173640, Note_on_c, 6, 80, 100
9, 173760, Note_off_c, 6, 80, 0
9, 173760, Note_on_c, 6, 80, 100
9, 173880, Note_off_c, 6, 80, 0
9, 173880, Note_on_c, 6, 68, 100
9, 174000, Note_off_c, 6, 68, 0
9, 174000, Note_on_c, 6, 80, 100
9, 174000, Note_on_c, 6, 68, 100
9, 174480, Note_off_c, 6, 80, 0
9, 174480, Note_off_c, 6, 68, 0
9, 174480, Note_on_c, 6, 87, 100
9, 174600, Note_off_c, 6, 87, 0
9, 174600, Note_on_c, 6, 75, 100
9, 174720, Note_off_c, 6, 75, 0
9, 174720, Note_on_c, 6, 82, 100
9, 174720, Note_on_c, 6, 70, 100
9, 175440, Note_off_c, 6, 82, 0
9, 175440, Note_off_c, 6, 70, 0
9, 175440, Note_on_c, 6, 85, 100
9, 175560, Note_off_c, 6, 85, 0
9, 175560, Note_on_c, 6, 73, 100
9, 175680, Note_off_c, 6, 73, 0
9, 175680, Note_on_c, 6, 82, 100
9, 175800, Note_off_c, 6, 82, 0
9, 175800, Note_on_c, 6, 70, 100
9, 175920, Note_off_c, 6, 70, 0
9, 175920, Note_on_c, 6, 85, 100
9, 176040, Note_off_c, 6, 85, 0
9, 176040, Note_on_c, 6, 73, 100
9, 176160, Note_off_c, 6, 73, 0
9, 176160, Note_on_c, 6, 87, 100
9, 176280, Note_off_c, 6, 87, 0
9, 176280, Note_on_c, 6, 75, 100
9, 176400, Note_off_c, 6, 75, 0
9, 176400, Note_on_c, 6, 89, 100
9, 176520, Note_off_c, 6, 89, 0
9, 176520, Note_on_c, 6, 77, 100
9, 176640, Note_off_c, 6, 77, 0
9, 176640, Note_on_c, 6, 89, 100
9, 176760, Note_off_c, 6, 89, 0
9, 176760, Note_on_c, 6, 77, 100
9, 176880, Note_off_c, 6, 77, 0
9, 176880, Note_on_c, 6, 87, 100
9, 177000, Note_off_c, 6, 87, 0
9, 177000, Note_on_c, 6, 77, 100
9, 177120, Note_off_c, 6, 77, 0
9, 177120, Note_on_c, 6, 87, 100
9, 177240, Note_off_c, 6, 87, 0
9, 177240, Note_on_c, 6, 75, 100
9, 177360, Note_off_c, 6, 75, 0
9, 177360, Note_on_c, 6, 87, 100
9, 177480, Note_off_c, 6, 87, 0
9, 177480, Note_on_c, 6, 75, 100
9, 177600, Note_off_c, 6, 75, 0
9, 177600, Note_on_c, 6, 84, 100
9, 177600, Note_on_c, 6, 72, 100
9, 177720, Note_off_c, 6, 84, 0
9, 177720, Note_off_c, 6, 72, 0
9, 177960, Note_on_c, 6, 72, 100
9, 177960, Note_on_c, 6, 84, 100
9, 178080, Note_off_c, 6, 72, 0
9, 178080, Note_off_c, 6, 84, 0
9, 178080, Note_on_c, 6, 85, 100
9, 178080, Note_on_c, 6, 73, 100
9, 178560, Note_off_c, 6, 85, 0
9, 178560, Note_off_c, 6, 73, 0
9, 178560, Note_on_c, 6, 78, 100
9, 178560, Note_on_c, 6, 66, 100
9, 179280, Note_off_c, 6, 78, 0
9, 179280, Note_off_c, 6, 66, 0
9, 179280, Note_on_c, 6, 82, 100
9, 179400, Note_off_c, 6, 82, 0
9, 179400, Note_on_c, 6, 70, 100
9, 179520, Note_off_c, 6, 70, 0
9, 179520, Note_on_c, 6, 78, 100
9, 179520, Note_on_c, 6, 66, 100
9, 180000, Note_off_c, 6, 78, 0
9, 180000, Note_off_c, 6, 66, 0
9, 180000, Note_on_c, 6, 82, 100
9, 180120, Note_off_c, 6, 82, 0
9, 180120, Note_on_c, 6, 70, 100
9, 180240, Note_off_c, 6, 70, 0
9, 180240, Note_on_c, 6, 85, 100
9, 180360, Note_off_c, 6, 85, 0
9, 180360, Note_on_c, 6, 73, 100
9, 180480, Note_off_c, 6, 73, 0
9, 180480, Note_on_c, 6, 80, 100
9, 180480, Note_on_c, 6, 68, 100
9, 181200, Note_off_c, 6, 80, 0
9, 181200, Note_off_c, 6, 68, 0
9, 181200, Note_on_c, 6, 84, 100
9, 181200, Note_on_c, 6, 72, 100
9, 181680, Note_off_c, 6, 84, 0
9, 181680, Note_off_c, 6, 72, 0
9, 181680, Note_on_c, 6, 87, 100
9, 181800, Note_off_c, 6, 87, 0
9, 181800, Note_on_c, 6, 75, 100
9, 181920, Note_off_c, 6, 75, 0
9, 181920, Note_on_c, 6, 92, 100
9, 182040, Note_off_c, 6, 92, 0
9, 182040, Note_on_c, 6, 80, 100
9, 182160, Note_off_c, 6, 80, 0
9, 182160, Note_on_c, 6, 87, 100
9, 182280, Note_off_c, 6, 87, 0
9, 182280, Note_on_c, 6, 75, 100
9, 182400, Note_off_c, 6, 75, 0
9, 182400, Note_on_c, 6, 82, 100
9, 182400, Note_on_c, 6, 70, 100
9, 183360, Note_off_c, 6, 82, 0
9, 183360, Note_off_c, 6, 70, 0
9, 183360, Note_on_c, 6, 94, 100
9, 183480, Note_off_c, 6, 94, 0
9, 183480, Note_on_c, 6, 82, 100
9, 183600, Note_off_c, 6, 82, 0
9, 183600, Note_on_c, 6, 97, 100
9, 183720, Note_off_c, 6, 97, 0
9, 183720, Note_on_c, 6, 85, 100
9, 183840, Note_off_c, 6, 85, 0
9, 183840, Note_on_c, 6, 94, 100
9, 183960, Note_off_c, 6, 94, 0
9, 183960, Note_on_c, 6, 82, 100
9, 184080, Note_off_c, 6, 82, 0
9, 184080, Note_on_c, 6, 89, 100
9, 184080, Note_on_c, 6, 77, 100
9, 184560, Note_off_c, 6, 89, 0
9, 184560, Note_off_c, 6, 77, 0
9, 184560, Note_on_c, 6, 89, 100
9, 184560, Note_on_c, 6, 77, 100
9, 184680, Note_off_c, 6, 89, 0
9, 184680, Note_off_c, 6, 77, 0
9, 184680, Note_on_c, 6, 101, 100
9, 184800, Note_off_c, 6, 101, 0
9, 184800, Note_on_c, 6, 94, 100
9, 184920, Note_off_c, 6, 94, 0
9, 184920, Note_on_c, 6, 82, 100
9, 185040, Note_off_c, 6, 82, 0
9, 185040, Note_on_c, 6, 97, 100
9, 185160, Note_off_c, 6, 97, 0
9, 185160, Note_on_c, 6, 85, 100
9, 185280, Note_off_c, 6, 85, 0
9, 185280, Note_on_c, 6, 89, 100
9, 185400, Note_off_c, 6, 89, 0
9, 185400, Note_on_c, 6, 77, 100
9, 185520, Note_off_c, 6, 77, 0
9, 185520, Note_on_c, 6, 96, 100
9, 185640, Note_off_c, 6, 96, 0
9, 185640, Note_on_c, 6, 84, 100
9, 185760, Note_off_c, 6, 84, 0
9, 185760, Note_on_c, 6, 89, 100
9, 185880, Note_off_c, 6, 89, 0
9, 185880, Note_on_c, 6, 77, 100
9, 186000, Note_off_c, 6, 77, 0
9, 186000, Note_on_c, 6, 92, 100
9, 186120, Note_off_c, 6, 92, 0
9, 186120, Note_on_c, 6, 80, 100
9, 186240, Note_off_c, 6, 80, 0
9, 186240, Note_on_c, 6, 82, 100
9, 186240, Note_on_c, 6, 94, 100
9, 186240, Note_on_c, 6, 89, 100
9, 188160, Note_off_c, 6, 82, 0
9, 188160, Note_off_c, 6, 94, 0
9, 188160, Note_off_c, 6, 89, 0
9, 188160, End_track
10, 0, Start_track
10, 0, Title_t, "CH08"
10, 0, MIDI_port, 0
10, 0, Text_t, "---- System Setup --------------------------------------------------"
10, 188, Text_t, "---- CH Setup --------------------------------------------------"
10, 188, Control_c, 7, 121, 0
10, 189, Control_c, 7, 0, 0
10, 189, Control_c, 7, 32, 0
10, 189, Program_c, 7, 65
10, 192, Control_c, 7, 10, 64
10, 193, Control_c, 7, 7, 100
10, 194, Control_c, 7, 91, 0
10, 195, Control_c, 7, 11, 127
10, 196, Control_c, 7, 1, 0
10, 197, Control_c, 7, 101, 0
10, 197, Control_c, 7, 100, 1
10, 197, Control_c, 7, 6, 64
10, 197, Control_c, 7, 38, 0
10, 201, Control_c, 7, 101, 0
10, 201, Control_c, 7, 100, 2
10, 201, Control_c, 7, 6, 64
10, 204, Control_c, 7, 101, 0
10, 204, Control_c, 7, 100, 0
10, 204, Control_c, 7, 6, 12
10, 207, Pitch_bend_c, 7, 8192
10, 208, Control_c, 7, 101, 127
10, 208, Control_c, 7, 100, 127
10, 210, Text_t, "---- End of CH Setup --------------------------------------------------"
10, 40320, Note_on_c, 7, 68, 100
10, 41040, Note_off_c, 7, 68, 0
10, 41040, Note_on_c, 7, 68, 100
10, 41280, Note_off_c, 7, 68, 0
10, 41280, Note_on_c, 7, 70, 100
10, 42000, Note_off_c, 7, 70, 0
10, 42000, Note_on_c, 7, 70, 100
10, 42240, Note_off_c, 7, 70, 0
10, 42240, Note_on_c, 7, 61, 100
10, 42480, Note_off_c, 7, 61, 0
10, 42480, Note_on_c, 7, 67, 100
10, 42720, Note_off_c, 7, 67, 0
10, 42720, Note_on_c, 7, 70, 100
10, 42960, Note_off_c, 7, 70, 0
10, 42960, Note_on_c, 7, 73, 100
10, 43200, Note_off_c, 7, 73, 0
10, 43200, Note_on_c, 7, 71, 100
10, 43560, Note_off_c, 7, 71, 0
10, 43560, Note_on_c, 7, 70, 100
10, 43920, Note_off_c, 7, 70, 0
10, 43920, Note_on_c, 7, 66, 100
10, 44160, Note_off_c, 7, 66, 0
10, 44160, Note_on_c, 7, 68, 100
10, 44400, Note_off_c, 7, 68, 0
10, 44400, Note_on_c, 7, 66, 100
10, 44640, Note_off_c, 7, 66, 0
10, 44640, Note_on_c, 7, 63, 100
10, 45120, Note_off_c, 7, 63, 0
10, 45120, Note_on_c, 7, 65, 100
10, 45480, Note_off_c, 7, 65, 0
10, 45480, Note_on_c, 7, 61, 100
10, 45840, Note_off_c, 7, 61, 0
10, 45840, Note_on_c, 7, 65, 100
10, 46080, Note_off_c, 7, 65, 0
10, 46080, Note_on_c, 7, 66, 100
10, 47520, Note_off_c, 7, 66, 0
10, 47520, Note_on_c, 7, 63, 100
10, 47760, Note_off_c, 7, 63, 0
10, 47760, Note_on_c, 7, 65, 100
10, 48000, Note_off_c, 7, 65, 0
10, 48000, Note_on_c, 7, 66, 100
10, 48720, Note_off_c, 7, 66, 0
10, 48720, Note_on_c, 7, 66, 100
10, 48960, Note_off_c, 7, 66, 0
10, 48960, Note_on_c, 7, 68, 100
10, 49680, Note_off_c, 7, 68, 0
10, 49680, Note_on_c, 7, 68, 100
10, 49920, Note_off_c, 7, 68, 0
10, 49920, Note_on_c, 7, 62, 100
10, 50160, Note_off_c, 7, 62, 0
10, 50160, Note_on_c, 7, 65, 100
10, 50400, Note_off_c, 7, 65, 0
10, 50400, Note_on_c, 7, 66, 100
10, 50640, Note_off_c, 7, 66, 0
10, 50640, Note_on_c, 7, 68, 100
10, 50880, Note_off_c, 7, 68, 0
10, 50880, Note_on_c, 7, 70, 100
10, 51600, Note_off_c, 7, 70, 0
10, 51600, Note_on_c, 7, 65, 100
10, 51840, Note_off_c, 7, 65, 0
10, 51840, Note_on_c, 7, 66, 100
10, 52080, Note_off_c, 7, 66, 0
10, 52080, Note_on_c, 7, 65, 100
10, 52320, Note_off_c, 7, 65, 0
10, 52320, Note_on_c, 7, 63, 100
10, 52560, Note_off_c, 7, 63, 0
10, 52560, Note_on_c, 7, 68, 100
10, 52800, Note_off_c, 7, 68, 0
10, 52800, Note_on_c, 7, 66, 100
10, 53160, Note_off_c, 7, 66, 0
10, 53280, Note_on_c, 7, 66, 100
10, 53400, Note_off_c, 7, 66, 0
10, 53400, Note_on_c, 7, 65, 100
10, 53520, Note_off_c, 7, 65, 0
10, 53520, Note_on_c, 7, 66, 100
10, 53640, Note_off_c, 7, 66, 0
10, 53640, Note_on_c, 7, 68, 100
10, 53760, Note_off_c, 7, 68, 0
10, 53760, Note_on_c, 7, 70, 100
10, 54720, Note_off_c, 7, 70, 0
10, 109440, Note_on_c, 7, 68, 100
10, 110160, Note_off_c, 7, 68, 0
10, 110160, Note_on_c, 7, 68, 100
10, 110400, Note_off_c, 7, 68, 0
10, 110400, Note_on_c, 7, 70, 100
10, 111120, Note_off_c, 7, 70, 0
10, 111120, Note_on_c, 7, 70, 100
10, 111360, Note_off_c, 7, 70, 0
10, 111360, Note_on_c, 7, 61, 100
10, 111600, Note_off_c, 7, 61, 0
10, 111600, Note_on_c, 7, 67, 100
10, 111840, Note_off_c, 7, 67, 0
10, 111840, Note_on_c, 7, 70, 100
10, 112080, Note_off_c, 7, 70, 0
10, 112080, Note_on_c, 7, 73, 100
10, 112320, Note_off_c, 7, 73, 0
10, 112320, Note_on_c, 7, 71, 100
10, 112680, Note_off_c, 7, 71, 0
10, 112680, Note_on_c, 7, 70, 100
10, 113040, Note_off_c, 7, 70, 0
10, 113040, Note_on_c, 7, 66, 100
10, 113280, Note_off_c, 7, 66, 0
10, 113280, Note_on_c, 7, 68, 100
10, 113520, Note_off_c, 7, 68, 0
10, 113520, Note_on_c, 7, 66, 100
10, 113760, Note_off_c, 7, 66, 0
10, 113760, Note_on_c, 7, 63, 100
10, 114240, Note_off_c, 7, 63, 0
10, 114240, Note_on_c, 7, 65, 100
10, 114600, Note_off_c, 7, 65, 0
10, 114600, Note_on_c, 7, 61, 100
10, 114960, Note_off_c, 7, 61, 0
10, 114960, Note_on_c, 7, 65, 100
10, 115200, Note_off_c, 7, 65, 0
10, 115200, Note_on_c, 7, 66, 100
10, 116640, Note_off_c, 7, 66, 0
10, 116640, Note_on_c, 7, 63, 100
10, 116880, Note_off_c, 7, 63, 0
10, 116880, Note_on_c, 7, 65, 100
10, 117120, Note_off_c, 7, 65, 0
10, 117120, Note_on_c, 7, 66, 100
10, 117840, Note_off_c, 7, 66, 0
10, 117840, Note_on_c, 7, 66, 100
10, 118080, Note_off_c, 7, 66, 0
10, 118080, Note_on_c, 7, 68, 100
10, 118800, Note_off_c, 7, 68, 0
10, 118800, Note_on_c, 7, 68, 100
10, 119040, Note_off_c, 7, 68, 0
10, 119040, Note_on_c, 7, 62, 100
10, 119280, Note_off_c, 7, 62, 0
10, 119280, Note_on_c, 7, 65, 100
10, 119520, Note_off_c, 7, 65, 0
10, 119520, Note_on_c, 7, 66, 100
10, 119760, Note_off_c, 7, 66, 0
10, 119760, Note_on_c, 7, 68, 100
10, 120000, Note_off_c, 7, 68, 0
10, 120000, Note_on_c, 7, 70, 100
10, 120720, Note_off_c, 7, 70, 0
10, 120720, Note_on_c, 7, 65, 100
10, 120960, Note_off_c, 7, 65, 0
10, 120960, Note_on_c, 7, 66, 100
10, 121200, Note_off_c, 7, 66, 0
10, 121200, Note_on_c, 7, 65, 100
10, 121440, Note_off_c, 7, 65, 0
10, 121440, Note_on_c, 7, 63, 100
10, 121680, Note_off_c, 7, 63, 0
10, 121680, Note_on_c, 7, 68, 100
10, 121920, Note_off_c, 7, 68, 0
10, 121920, Note_on_c, 7, 66, 100
10, 122280, Note_off_c, 7, 66, 0
10, 122400, Note_on_c, 7, 66, 100
10, 122520, Note_off_c, 7, 66, 0
10, 122520, Note_on_c, 7, 65, 100
10, 122640, Note_off_c, 7, 65, 0
10, 122640, Note_on_c, 7, 66, 100
10, 122760, Note_off_c, 7, 66, 0
10, 122760, Note_on_c, 7, 68, 100
10, 122880, Note_off_c, 7, 68, 0
10, 122880, Note_on_c, 7, 70, 100
10, 123840, Note_off_c, 7, 70, 0
10, 123840, End_track
11, 0, Start_track
11, 0, Title_t, "CH09"
11, 0, MIDI_port, 0
11, 0, Text_t, "---- System Setup --------------------------------------------------"
11, 188, Text_t, "---- CH Setup --------------------------------------------------"
11, 188, Control_c, 8, 121, 0
11, 189, Control_c, 8, 0, 0
11, 189, Control_c, 8, 32, 0
11, 189, Program_c, 8, 15
11, 192, Control_c, 8, 10, 64
11, 193, Control_c, 8, 7, 100
11, 194, Control_c, 8, 91, 0
11, 195, Control_c, 8, 11, 127
11, 196, Control_c, 8, 1, 0
11, 197, Control_c, 8, 101, 0
11, 197, Control_c, 8, 100, 1
11, 197, Control_c, 8, 6, 64
11, 197, Control_c, 8, 38, 0
11, 201, Control_c, 8, 101, 0
11, 201, Control_c, 8, 100, 2
11, 201, Control_c, 8, 6, 64
11, 204, Control_c, 8, 101, 0
11, 204, Control_c, 8, 100, 0
11, 204, Control_c, 8, 6, 12
11, 207, Pitch_bend_c, 8, 8192
11, 208, Control_c, 8, 101, 127
11, 208, Control_c, 8, 100, 127
11, 210, Text_t, "---- End of CH Setup --------------------------------------------------"
11, 1920, Note_on_c, 8, 87, 100
11, 2160, Note_off_c, 8, 87, 0
11, 2160, Note_on_c, 8, 80, 100
11, 2400, Note_off_c, 8, 80, 0
11, 2400, Note_on_c, 8, 82, 100
11, 2640, Note_off_c, 8, 82, 0
11, 2640, Note_on_c, 8, 83, 100
11, 2880, Note_off_c, 8, 83, 0
11, 2880, Note_on_c, 8, 85, 100
11, 3120, Note_off_c, 8, 85, 0
11, 3120, Note_on_c, 8, 87, 100
11, 3360, Note_off_c, 8, 87, 0
11, 3360, Note_on_c, 8, 80, 100
11, 3600, Note_off_c, 8, 80, 0
11, 3600, Note_on_c, 8, 87, 100
11, 3840, Note_off_c, 8, 87, 0
11, 3840, Note_on_c, 8, 80, 100
11, 4320, Note_off_c, 8, 80, 0
11, 4320, Note_on_c, 8, 85, 100
11, 4560, Note_off_c, 8, 85, 0
11, 4560, Note_on_c, 8, 87, 100
11, 4800, Note_off_c, 8, 87, 0
11, 4800, Note_on_c, 8, 85, 100
11, 5040, Note_off_c, 8, 85, 0
11, 5040, Note_on_c, 8, 87, 100
11, 5280, Note_off_c, 8, 87, 0
11, 5280, Note_on_c, 8, 82, 100
11, 5760, Note_off_c, 8, 82, 0
11, 5760, Note_on_c, 8, 80, 100
11, 6000, Note_off_c, 8, 80, 0
11, 6000, Note_on_c, 8, 75, 100
11, 6240, Note_off_c, 8, 75, 0
11, 6240, Note_on_c, 8, 80, 100
11, 6480, Note_off_c, 8, 80, 0
11, 6480, Note_on_c, 8, 82, 100
11, 6720, Note_off_c, 8, 82, 0
11, 6720, Note_on_c, 8, 83, 100
11, 6960, Note_off_c, 8, 83, 0
11, 6960, Note_on_c, 8, 85, 100
11, 7200, Note_off_c, 8, 85, 0
11, 7200, Note_on_c, 8, 87, 100
11, 7440, Note_off_c, 8, 87, 0
11, 7440, Note_on_c, 8, 92, 100
11, 7680, Note_off_c, 8, 92, 0
11, 7680, Note_on_c, 8, 87, 100
11, 7680, Note_on_c, 8, 80, 100
11, 8160, Note_off_c, 8, 87, 0
11, 8160, Note_off_c, 8, 80, 0
11, 8160, Note_on_c, 8, 96, 100
11, 8220, Note_off_c, 8, 96, 0
11, 8220, Note_on_c, 8, 97, 100
11, 8640, Note_off_c, 8, 97, 0
11, 8640, Note_on_c, 8, 97, 100
11, 8700, Note_off_c, 8, 97, 0
11, 8700, Note_on_c, 8, 94, 100
11, 9600, Note_off_c, 8, 94, 0
11, 9600, Note_on_c, 8, 80, 100
11, 9840, Note_off_c, 8, 80, 0
11, 9840, Note_on_c, 8, 75, 100
11, 10080, Note_off_c, 8, 75, 0
11, 10080, Note_on_c, 8, 80, 100
11, 10320, Note_off_c, 8, 80, 0
11, 10320, Note_on_c, 8, 75, 100
11, 10560, Note_off_c, 8, 75, 0
11, 10560, Note_on_c, 8, 82, 100
11, 10800, Note_off_c, 8, 82, 0
11, 10800, Note_on_c, 8, 75, 100
11, 11040, Note_off_c, 8, 75, 0
11, 11040, Note_on_c, 8, 83, 100
11, 11280, Note_off_c, 8, 83, 0
11, 11280, Note_on_c, 8, 75, 100
11, 11520, Note_off_c, 8, 75, 0
11, 11520, Note_on_c, 8, 85, 100
11, 11760, Note_off_c, 8, 85, 0
11, 11760, Note_on_c, 8, 75, 100
11, 12000, Note_off_c, 8, 75, 0
11, 12000, Note_on_c, 8, 87, 100
11, 12240, Note_off_c, 8, 87, 0
11, 12240, Note_on_c, 8, 75, 100
11, 12480, Note_off_c, 8, 75, 0
11, 12480, Note_on_c, 8, 82, 100
11, 12720, Note_off_c, 8, 82, 0
11, 12720, Note_on_c, 8, 75, 100
11, 12960, Note_off_c, 8, 75, 0
11, 12960, Note_on_c, 8, 78, 100
11, 13200, Note_off_c, 8, 78, 0
11, 13200, Note_on_c, 8, 75, 100
11, 13440, Note_off_c, 8, 75, 0
11, 13440, Note_on_c, 8, 80, 100
11, 14400, Note_off_c, 8, 80, 0
11, 14400, Note_on_c, 8, 80, 100
11, 14640, Note_off_c, 8, 80, 0
11, 14640, Note_on_c, 8, 87, 100
11, 14880, Note_off_c, 8, 87, 0
11, 14880, Note_on_c, 8, 82, 100
11, 15120, Note_off_c, 8, 82, 0
11, 15120, Note_on_c, 8, 87, 100
11, 15360, Note_off_c, 8, 87, 0
11, 15360, Note_on_c, 8, 83, 100
11, 15600, Note_off_c, 8, 83, 0
11, 15600, Note_on_c, 8, 87, 100
11, 15840, Note_off_c, 8, 87, 0
11, 15840, Note_on_c, 8, 85, 100
11, 16080, Note_off_c, 8, 85, 0
11, 16080, Note_on_c, 8, 87, 100
11, 16320, Note_off_c, 8, 87, 0
11, 16320, Note_on_c, 8, 83, 100
11, 16560, Note_off_c, 8, 83, 0
11, 16560, Note_on_c, 8, 87, 100
11, 16800, Note_off_c, 8, 87, 0
11, 16800, Note_on_c, 8, 82, 100
11, 17040, Note_off_c, 8, 82, 0
11, 17040, Note_on_c, 8, 87, 100
11, 17280, Note_off_c, 8, 87, 0
11, 17280, Note_on_c, 8, 80, 100
11, 17520, Note_off_c, 8, 80, 0
11, 17520, Note_on_c, 8, 75, 100
11, 17760, Note_off_c, 8, 75, 0
11, 17760, Note_on_c, 8, 80, 100
11, 18000, Note_off_c, 8, 80, 0
11, 18000, Note_on_c, 8, 75, 100
11, 18240, Note_off_c, 8, 75, 0
11, 18240, Note_on_c, 8, 82, 100
11, 18480, Note_off_c, 8, 82, 0
11, 18480, Note_on_c, 8, 75, 100
11, 18720, Note_off_c, 8, 75, 0
11, 18720, Note_on_c, 8, 83, 100
11, 18960, Note_off_c, 8, 83, 0
11, 18960, Note_on_c, 8, 75, 100
11, 19200, Note_off_c, 8, 75, 0
11, 19200, Note_on_c, 8, 85, 100
11, 19440, Note_off_c, 8, 85, 0
11, 19440, Note_on_c, 8, 75, 100
11, 19680, Note_off_c, 8, 75, 0
11, 19680, Note_on_c, 8, 87, 100
11, 19920, Note_off_c, 8, 87, 0
11, 19920, Note_on_c, 8, 75, 100
11, 20160, Note_off_c, 8, 75, 0
11, 20160, Note_on_c, 8, 82, 100
11, 20400, Note_off_c, 8, 82, 0
11, 20400, Note_on_c, 8, 75, 100
11, 20640, Note_off_c, 8, 75, 0
11, 20640, Note_on_c, 8, 78, 100
11, 20880, Note_off_c, 8, 78, 0
11, 20880, Note_on_c, 8, 75, 100
11, 21120, Note_off_c, 8, 75, 0
11, 21120, Note_on_c, 8, 80, 100
11, 23040, Note_off_c, 8, 80, 0
11, 23040, Note_on_c, 8, 87, 100
11, 23280, Note_off_c, 8, 87, 0
11, 23280, Note_on_c, 8, 83, 100
11, 23520, Note_off_c, 8, 83, 0
11, 23520, Note_on_c, 8, 82, 100
11, 23760, Note_off_c, 8, 82, 0
11, 23760, Note_on_c, 8, 78, 100
11, 24000, Note_off_c, 8, 78, 0
11, 24000, Note_on_c, 8, 80, 100
11, 24720, Note_off_c, 8, 80, 0
11, 24800, Note_on_c, 8, 76, 100
11, 24880, Note_off_c, 8, 76, 0
11, 24880, Note_on_c, 8, 75, 100
11, 24960, Note_off_c, 8, 75, 0
11, 24960, Note_on_c, 8, 80, 100
11, 25200, Note_off_c, 8, 80, 0
11, 25200, Note_on_c, 8, 75, 100
11, 25440, Note_off_c, 8, 75, 0
11, 25440, Note_on_c, 8, 80, 100
11, 25680, Note_off_c, 8, 80, 0
11, 25680, Note_on_c, 8, 75, 100
11, 25920, Note_off_c, 8, 75, 0
11, 25920, Note_on_c, 8, 82, 100
11, 26160, Note_off_c, 8, 82, 0
11, 26160, Note_on_c, 8, 75, 100
11, 26400, Note_off_c, 8, 75, 0
11, 26400, Note_on_c, 8, 83, 100
11, 26640, Note_off_c, 8, 83, 0
11, 26640, Note_on_c, 8, 75, 100
11, 26880, Note_off_c, 8, 75, 0
11, 26880, Note_on_c, 8, 85, 100
11, 27120, Note_off_c, 8, 85, 0
11, 27120, Note_on_c, 8, 75, 100
11, 27360, Note_off_c, 8, 75, 0
11, 27360, Note_on_c, 8, 87, 100
11, 27600, Note_off_c, 8, 87, 0
11, 27600, Note_on_c, 8, 75, 100
11, 27840, Note_off_c, 8, 75, 0
11, 27840, Note_on_c, 8, 82, 100
11, 28080, Note_off_c, 8, 82, 0
11, 28080, Note_on_c, 8, 75, 100
11, 28320, Note_off_c, 8, 75, 0
11, 28320, Note_on_c, 8, 78, 100
11, 28560, Note_off_c, 8, 78, 0
11, 28560, Note_on_c, 8, 80, 100
11, 28560, Note_on_c, 8, 75, 100
11, 29520, Note_off_c, 8, 80, 0
11, 29520, Note_off_c, 8, 75, 0
11, 29520, Note_on_c, 8, 80, 100
11, 30000, Note_off_c, 8, 80, 0
11, 30000, Note_on_c, 8, 87, 100
11, 30240, Note_off_c, 8, 87, 0
11, 30240, Note_on_c, 8, 82, 100
11, 30480, Note_off_c, 8, 82, 0
11, 30480, Note_on_c, 8, 87, 100
11, 30720, Note_off_c, 8, 87, 0
11, 30720, Note_on_c, 8, 83, 100
11, 30960, Note_off_c, 8, 83, 0
11, 30960, Note_on_c, 8, 87, 100
11, 31200, Note_off_c, 8, 87, 0
11, 31200, Note_on_c, 8, 85, 100
11, 31440, Note_off_c, 8, 85, 0
11, 31440, Note_on_c, 8, 87, 100
11, 31680, Note_off_c, 8, 87, 0
11, 31680, Note_on_c, 8, 83, 100
11, 31920, Note_off_c, 8, 83, 0
11, 31920, Note_on_c, 8, 87, 100
11, 32160, Note_off_c, 8, 87, 0
11, 32160, Note_on_c, 8, 82, 100
11, 32400, Note_off_c, 8, 82, 0
11, 32400, Note_on_c, 8, 87, 100
11, 32640, Note_off_c, 8, 87, 0
11, 32640, Note_on_c, 8, 80, 100
11, 32880, Note_off_c, 8, 80, 0
11, 32880, Note_on_c, 8, 75, 100
11, 33120, Note_off_c, 8, 75, 0
11, 33120, Note_on_c, 8, 80, 100
11, 33360, Note_off_c, 8, 80, 0
11, 33360, Note_on_c, 8, 75, 100
11, 33600, Note_off_c, 8, 75, 0
11, 33600, Note_on_c, 8, 82, 100
11, 33840, Note_off_c, 8, 82, 0
11, 33840, Note_on_c, 8, 75, 100
11, 34080, Note_off_c, 8, 75, 0
11, 34080, Note_on_c, 8, 83, 100
11, 34320, Note_off_c, 8, 83, 0
11, 34320, Note_on_c, 8, 75, 100
11, 34560, Note_off_c, 8, 75, 0
11, 34560, Note_on_c, 8, 85, 100
11, 34800, Note_off_c, 8, 85, 0
11, 34800, Note_on_c, 8, 75, 100
11, 35040, Note_off_c, 8, 75, 0
11, 35040, Note_on_c, 8, 87, 100
11, 35280, Note_off_c, 8, 87, 0
11, 35280, Note_on_c, 8, 75, 100
11, 35520, Note_off_c, 8, 75, 0
11, 35520, Note_on_c, 8, 82, 100
11, 35760, Note_off_c, 8, 82, 0
11, 35760, Note_on_c, 8, 75, 100
11, 36000, Note_off_c, 8, 75, 0
11, 36000, Note_on_c, 8, 78, 100
11, 36240, Note_off_c, 8, 78, 0
11, 36240, Note_on_c, 8, 80, 100
11, 36240, Note_on_c, 8, 75, 100
11, 38400, Note_off_c, 8, 80, 0
11, 38400, Note_off_c, 8, 75, 0
11, 38400, Note_on_c, 8, 87, 100
11, 38640, Note_off_c, 8, 87, 0
11, 38640, Note_on_c, 8, 83, 100
11, 38880, Note_off_c, 8, 83, 0
11, 38880, Note_on_c, 8, 82, 100
11, 39120, Note_off_c, 8, 82, 0
11, 39120, Note_on_c, 8, 78, 100
11, 39360, Note_off_c, 8, 78, 0
11, 39360, Note_on_c, 8, 80, 100
11, 40080, Note_off_c, 8, 80, 0
11, 40160, Note_on_c, 8, 76, 100
11, 40240, Note_off_c, 8, 76, 0
11, 40240, Note_on_c, 8, 75, 100
11, 40320, Note_off_c, 8, 75, 0
11, 54720, Note_on_c, 8, 85, 100
11, 54960, Note_off_c, 8, 85, 0
11, 54960, Note_on_c, 8, 83, 100
11, 55200, Note_off_c, 8, 83, 0
11, 55200, Note_on_c, 8, 85, 100
11, 55440, Note_off_c, 8, 85, 0
11, 55440, Note_on_c, 8, 92, 100
11, 55440, Note_on_c, 8, 87, 100
11, 57120, Note_off_c, 8, 92, 0
11, 57120, Note_off_c, 8, 87, 0
11, 57120, Note_on_c, 8, 94, 100
11, 57120, Note_on_c, 8, 90, 100
11, 57600, Note_off_c, 8, 94, 0
11, 57600, Note_off_c, 8, 90, 0
11, 57600, Note_on_c, 8, 95, 100
11, 57600, Note_on_c, 8, 92, 100
11, 58080, Note_off_c, 8, 95, 0
11, 58080, Note_off_c, 8, 92, 0
11, 58080, Note_on_c, 8, 94, 100
11, 58080, Note_on_c, 8, 90, 100
11, 58560, Note_off_c, 8, 94, 0
11, 58560, Note_off_c, 8, 90, 0
11, 58560, Note_on_c, 8, 90, 100
11, 58560, Note_on_c, 8, 85, 100
11, 59040, Note_off_c, 8, 90, 0
11, 59040, Note_off_c, 8, 85, 0
11, 59040, Note_on_c, 8, 85, 100
11, 59040, Note_on_c, 8, 82, 100
11, 59520, Note_off_c, 8, 85, 0
11, 59520, Note_off_c, 8, 82, 0
11, 59520, Note_on_c, 8, 85, 100
11, 59520, Note_on_c, 8, 82, 100
11, 59760, Note_off_c, 8, 85, 0
11, 59760, Note_off_c, 8, 82, 0
11, 59760, Note_on_c, 8, 83, 100
11, 59760, Note_on_c, 8, 80, 100
11, 60000, Note_off_c, 8, 83, 0
11, 60000, Note_off_c, 8, 80, 0
11, 60000, Note_on_c, 8, 85, 100
11, 60000, Note_on_c, 8, 82, 100
11, 60240, Note_off_c, 8, 85, 0
11, 60240, Note_off_c, 8, 82, 0
11, 60240, Note_on_c, 8, 92, 100
11, 60240, Note_on_c, 8, 87, 100
11, 63360, Note_off_c, 8, 92, 0
11, 63360, Note_off_c, 8, 87, 0
11, 63360, Note_on_c, 8, 85, 100
11, 63360, Note_on_c, 8, 82, 100
11, 63600, Note_off_c, 8, 85, 0
11, 63600, Note_off_c, 8, 82, 0
11, 63600, Note_on_c, 8, 83, 100
11, 63600, Note_on_c, 8, 80, 100
11, 63840, Note_off_c, 8, 83, 0
11, 63840, Note_off_c, 8, 80, 0
11, 63840, Note_on_c, 8, 85, 100
11, 63840, Note_on_c, 8, 82, 100
11, 64080, Note_off_c, 8, 85, 0
11, 64080, Note_off_c, 8, 82, 0
11, 64080, Note_on_c, 8, 92, 100
11, 64080, Note_on_c, 8, 87, 100
11, 64320, Note_off_c, 8, 92, 0
11, 64320, Note_off_c, 8, 87, 0
11, 64320, Note_on_c, 8, 85, 100
11, 64320, Note_on_c, 8, 82, 100
11, 65280, Note_off_c, 8, 85, 0
11, 65280, Note_off_c, 8, 82, 0
11, 65280, Note_on_c, 8, 85, 100
11, 65280, Note_on_c, 8, 82, 100
11, 65520, Note_off_c, 8, 85, 0
11, 65520, Note_off_c, 8, 82, 0
11, 65520, Note_on_c, 8, 83, 100
11, 65520, Note_on_c, 8, 80, 100
11, 65760, Note_off_c, 8, 83, 0
11, 65760, Note_off_c, 8, 80, 0
11, 65760, Note_on_c, 8, 85, 100
11, 65760, Note_on_c, 8, 82, 100
11, 66000, Note_off_c, 8, 85, 0
11, 66000, Note_off_c, 8, 82, 0
11, 66000, Note_on_c, 8, 92, 100
11, 66000, Note_on_c, 8, 87, 100
11, 66240, Note_off_c, 8, 92, 0
11, 66240, Note_off_c, 8, 87, 0
11, 66240, Note_on_c, 8, 85, 100
11, 66240, Note_on_c, 8, 82, 100
11, 67200, Note_off_c, 8, 85, 0
11, 67200, Note_off_c, 8, 82, 0
11, 67200, Note_on_c, 8, 83, 100
11, 67200, Note_on_c, 8, 80, 100
11, 67440, Note_off_c, 8, 83, 0
11, 67440, Note_off_c, 8, 80, 0
11, 67440, Note_on_c, 8, 82, 100
11, 67440, Note_on_c, 8, 78, 100
11, 67680, Note_off_c, 8, 82, 0
11, 67680, Note_off_c, 8, 78, 0
11, 67680, Note_on_c, 8, 83, 100
11, 67680, Note_on_c, 8, 80, 100
11, 67920, Note_off_c, 8, 83, 0
11, 67920, Note_off_c, 8, 80, 0
11, 67920, Note_on_c, 8, 92, 100
11, 67920, Note_on_c, 8, 87, 100
11, 68160, Note_off_c, 8, 92, 0
11, 68160, Note_off_c, 8, 87, 0
11, 68160, Note_on_c, 8, 83, 100
11, 68160, Note_on_c, 8, 80, 100
11, 70080, Note_off_c, 8, 83, 0
11, 70080, Note_off_c, 8, 80, 0
11, 70080, Note_on_c, 8, 83, 100
11, 70080, Note_on_c, 8, 80, 100
11, 70320, Note_off_c, 8, 83, 0
11, 70320, Note_off_c, 8, 80, 0
11, 70320, Note_on_c, 8, 82, 100
11, 70320, Note_on_c, 8, 78, 100
11, 70560, Note_off_c, 8, 82, 0
11, 70560, Note_off_c, 8, 78, 0
11, 70560, Note_on_c, 8, 83, 100
11, 70560, Note_on_c, 8, 80, 100
11, 70800, Note_off_c, 8, 83, 0
11, 70800, Note_off_c, 8, 80, 0
11, 70800, Note_on_c, 8, 90, 100
11, 70800, Note_on_c, 8, 85, 100
11, 71040, Note_off_c, 8, 90, 0
11, 71040, Note_off_c, 8, 85, 0
11, 71040, Note_on_c, 8, 92, 100
11, 71040, Note_on_c, 8, 87, 100
11, 72480, Note_off_c, 8, 92, 0
11, 72480, Note_off_c, 8, 87, 0
11, 72480, Note_on_c, 8, 94, 100
11, 72480, Note_on_c, 8, 90, 100
11, 72960, Note_off_c, 8, 94, 0
11, 72960, Note_off_c, 8, 90, 0
11, 72960, Note_on_c, 8, 95, 100
11, 72960, Note_on_c, 8, 92, 100
11, 73440, Note_off_c, 8, 95, 0
11, 73440, Note_off_c, 8, 92, 0
11, 73440, Note_on_c, 8, 94, 100
11, 73440, Note_on_c, 8, 90, 100
11, 73920, Note_off_c, 8, 94, 0
11, 73920, Note_off_c, 8, 90, 0
11, 73920, Note_on_c, 8, 90, 100
11, 73920, Note_on_c, 8, 85, 100
11, 74400, Note_off_c, 8, 90, 0
11, 74400, Note_off_c, 8, 85, 0
11, 74400, Note_on_c, 8, 85, 100
11, 74400, Note_on_c, 8, 82, 100
11, 74880, Note_off_c, 8, 85, 0
11, 74880, Note_off_c, 8, 82, 0
11, 74880, Note_on_c, 8, 85, 100
11, 74880, Note_on_c, 8, 82, 100
11, 75120, Note_off_c, 8, 85, 0
11, 75120, Note_off_c, 8, 82, 0
11, 75120, Note_on_c, 8, 83, 100
11, 75120, Note_on_c, 8, 80, 100
11, 75360, Note_off_c, 8, 83, 0
11, 75360, Note_off_c, 8, 80, 0
11, 75360, Note_on_c, 8, 85, 100
11, 75360, Note_on_c, 8, 82, 100
11, 75600, Note_off_c, 8, 85, 0
11, 75600, Note_off_c, 8, 82, 0
11, 75600, Note_on_c, 8, 92, 100
11, 75600, Note_on_c, 8, 87, 100
11, 78720, Note_off_c, 8, 92, 0
11, 78720, Note_off_c, 8, 87, 0
11, 78720, Note_on_c, 8, 85, 100
11, 78720, Note_on_c, 8, 82, 100
11, 78960, Note_off_c, 8, 85, 0
11, 78960, Note_off_c, 8, 82, 0
11, 78960, Note_on_c, 8, 83, 100
11, 78960, Note_on_c, 8, 80, 100
11, 79200, Note_off_c, 8, 83, 0
11, 79200, Note_off_c, 8, 80, 0
11, 79200, Note_on_c, 8, 85, 100
11, 79200, Note_on_c, 8, 82, 100
11, 79440, Note_off_c, 8, 85, 0
11, 79440, Note_off_c, 8, 82, 0
11, 79440, Note_on_c, 8, 92, 100
11, 79440, Note_on_c, 8, 87, 100
11, 79680, Note_off_c, 8, 92, 0
11, 79680, Note_off_c, 8, 87, 0
11, 79680, Note_on_c, 8, 85, 100
11, 79680, Note_on_c, 8, 82, 100
11, 80640, Note_off_c, 8, 85, 0
11, 80640, Note_off_c, 8, 82, 0
11, 80640, Note_on_c, 8, 85, 100
11, 80640, Note_on_c, 8, 82, 100
11, 80880, Note_off_c, 8, 85, 0
11, 80880, Note_off_c, 8, 82, 0
11, 80880, Note_on_c, 8, 83, 100
11, 80880, Note_on_c, 8, 80, 100
11, 81120, Note_off_c, 8, 83, 0
11, 81120, Note_off_c, 8, 80, 0
11, 81120, Note_on_c, 8, 85, 100
11, 81120, Note_on_c, 8, 82, 100
11, 81360, Note_off_c, 8, 85, 0
11, 81360, Note_off_c, 8, 82, 0
11, 81360, Note_on_c, 8, 92, 100
11, 81360, Note_on_c, 8, 87, 100
11, 81600, Note_off_c, 8, 92, 0
11, 81600, Note_off_c, 8, 87, 0
11, 81600, Note_on_c, 8, 85, 100
11, 81600, Note_on_c, 8, 82, 100
11, 82560, Note_off_c, 8, 85, 0
11, 82560, Note_off_c, 8, 82, 0
11, 82560, Note_on_c, 8, 83, 100
11, 82560, Note_on_c, 8, 80, 100
11, 82800, Note_off_c, 8, 83, 0
11, 82800, Note_off_c, 8, 80, 0
11, 82800, Note_on_c, 8, 82, 100
11, 82800, Note_on_c, 8, 78, 100
11, 83040, Note_off_c, 8, 82, 0
11, 83040, Note_off_c, 8, 78, 0
11, 83040, Note_on_c, 8, 83, 100
11, 83040, Note_on_c, 8, 80, 100
11, 83280, Note_off_c, 8, 83, 0
11, 83280, Note_off_c, 8, 80, 0
11, 83280, Note_on_c, 8, 92, 100
11, 83280, Note_on_c, 8, 87, 100
11, 84720, Note_off_c, 8, 92, 0
11, 84720, Note_off_c, 8, 87, 0
11, 84720, Note_on_c, 8, 85, 100
11, 84960, Note_off_c, 8, 85, 0
11, 84960, Note_on_c, 8, 92, 100
11, 85200, Note_off_c, 8, 92, 0
11, 85200, Note_on_c, 8, 85, 100
11, 85440, Note_off_c, 8, 85, 0
11, 85440, Note_on_c, 8, 83, 100
11, 85680, Note_off_c, 8, 83, 0
11, 85680, Note_on_c, 8, 82, 100
11, 85920, Note_off_c, 8, 82, 0
11, 85920, Note_on_c, 8, 80, 100
11, 86160, Note_off_c, 8, 80, 0
11, 86160, Note_on_c, 8, 78, 100
11, 86400, Note_off_c, 8, 78, 0
11, 86400, Note_on_c, 8, 87, 100
11, 86640, Note_off_c, 8, 87, 0
11, 86640, Note_on_c, 8, 80, 100
11, 86880, Note_off_c, 8, 80, 0
11, 86880, Note_on_c, 8, 82, 100
11, 87120, Note_off_c, 8, 82, 0
11, 87120, Note_on_c, 8, 83, 100
11, 87360, Note_off_c, 8, 83, 0
11, 87360, Note_on_c, 8, 85, 100
11, 87600, Note_off_c, 8, 85, 0
11, 87600, Note_on_c, 8, 87, 100
11, 87840, Note_off_c, 8, 87, 0
11, 87840, Note_on_c, 8, 80, 100
11, 88080, Note_off_c, 8, 80, 0
11, 88080, Note_on_c, 8, 87, 100
11, 88320, Note_off_c, 8, 87, 0
11, 88320, Note_on_c, 8, 80, 100
11, 88800, Note_off_c, 8, 80, 0
11, 88800, Note_on_c, 8, 85, 100
11, 89040, Note_off_c, 8, 85, 0
11, 89040, Note_on_c, 8, 87, 100
11, 89280, Note_off_c, 8, 87, 0
11, 89280, Note_on_c, 8, 85, 100
11, 89520, Note_off_c, 8, 85, 0
11, 89520, Note_on_c, 8, 87, 100
11, 89760, Note_off_c, 8, 87, 0
11, 89760, Note_on_c, 8, 82, 100
11, 90240, Note_off_c, 8, 82, 0
11, 90240, Note_on_c, 8, 80, 100
11, 90480, Note_off_c, 8, 80, 0
11, 90480, Note_on_c, 8, 75, 100
11, 90720, Note_off_c, 8, 75, 0
11, 90720, Note_on_c, 8, 80, 100
11, 90960, Note_off_c, 8, 80, 0
11, 90960, Note_on_c, 8, 82, 100
11, 91200, Note_off_c, 8, 82, 0
11, 91200, Note_on_c, 8, 83, 100
11, 91440, Note_off_c, 8, 83, 0
11, 91440, Note_on_c, 8, 85, 100
11, 91680, Note_off_c, 8, 85, 0
11, 91680, Note_on_c, 8, 87, 100
11, 91920, Note_off_c, 8, 87, 0
11, 91920, Note_on_c, 8, 92, 100
11, 92160, Note_off_c, 8, 92, 0
11, 92160, Note_on_c, 8, 87, 100
11, 92160, Note_on_c, 8, 80, 100
11, 92640, Note_off_c, 8, 87, 0
11, 92640, Note_off_c, 8, 80, 0
11, 92640, Note_on_c, 8, 96, 100
11, 92700, Note_off_c, 8, 96, 0
11, 92700, Note_on_c, 8, 97, 100
11, 93120, Note_off_c, 8, 97, 0
11, 93120, Note_on_c, 8, 97, 100
11, 93180, Note_off_c, 8, 97, 0
11, 93180, Note_on_c, 8, 94, 100
11, 94080, Note_off_c, 8, 94, 0
11, 94080, Note_on_c, 8, 80, 100
11, 94320, Note_off_c, 8, 80, 0
11, 94320, Note_on_c, 8, 75, 100
11, 94560, Note_off_c, 8, 75, 0
11, 94560, Note_on_c, 8, 80, 100
11, 94800, Note_off_c, 8, 80, 0
11, 94800, Note_on_c, 8, 75, 100
11, 95040, Note_off_c, 8, 75, 0
11, 95040, Note_on_c, 8, 82, 100
11, 95280, Note_off_c, 8, 82, 0
11, 95280, Note_on_c, 8, 75, 100
11, 95520, Note_off_c, 8, 75, 0
11, 95520, Note_on_c, 8, 83, 100
11, 95760, Note_off_c, 8, 83, 0
11, 95760, Note_on_c, 8, 75, 100
11, 96000, Note_off_c, 8, 75, 0
11, 96000, Note_on_c, 8, 85, 100
11, 96240, Note_off_c, 8, 85, 0
11, 96240, Note_on_c, 8, 75, 100
11, 96480, Note_off_c, 8, 75, 0
11, 96480, Note_on_c, 8, 87, 100
11, 96720, Note_off_c, 8, 87, 0
11, 96720, Note_on_c, 8, 75, 100
11, 96960, Note_off_c, 8, 75, 0
11, 96960, Note_on_c, 8, 82, 100
11, 97200, Note_off_c, 8, 82, 0
11, 97200, Note_on_c, 8, 75, 100
11, 97440, Note_off_c, 8, 75, 0
11, 97440, Note_on_c, 8, 78, 100
11, 97680, Note_off_c, 8, 78, 0
11, 97680, Note_on_c, 8, 75, 100
11, 97920, Note_off_c, 8, 75, 0
11, 97920, Note_on_c, 8, 80, 100
11, 98880, Note_off_c, 8, 80, 0
11, 98880, Note_on_c, 8, 80, 100
11, 99120, Note_off_c, 8, 80, 0
11, 99120, Note_on_c, 8, 87, 100
11, 99360, Note_off_c, 8, 87, 0
11, 99360, Note_on_c, 8, 82, 100
11, 99600, Note_off_c, 8, 82, 0
11, 99600, Note_on_c, 8, 87, 100
11, 99840, Note_off_c, 8, 87, 0
11, 99840, Note_on_c, 8, 83, 100
11, 100080, Note_off_c, 8, 83, 0
11, 100080, Note_on_c, 8, 87, 100
11, 100320, Note_off_c, 8, 87, 0
11, 100320, Note_on_c, 8, 85, 100
11, 100560, Note_off_c, 8, 85, 0
11, 100560, Note_on_c, 8, 87, 100
11, 100800, Note_off_c, 8, 87, 0
11, 100800, Note_on_c, 8, 83, 100
11, 101040, Note_off_c, 8, 83, 0
11, 101040, Note_on_c, 8, 87, 100
11, 101280, Note_off_c, 8, 87, 0
11, 101280, Note_on_c, 8, 82, 100
11, 101520, Note_off_c, 8, 82, 0
11, 101520, Note_on_c, 8, 87, 100
11, 101760, Note_off_c, 8, 87, 0
11, 101760, Note_on_c, 8, 80, 100
11, 102000, Note_off_c, 8, 80, 0
11, 102000, Note_on_c, 8, 75, 100
11, 102240, Note_off_c, 8, 75, 0
11, 102240, Note_on_c, 8, 80, 100
11, 102480, Note_off_c, 8, 80, 0
11, 102480, Note_on_c, 8, 75, 100
11, 102720, Note_off_c, 8, 75, 0
11, 102720, Note_on_c, 8, 82, 100
11, 102960, Note_off_c, 8, 82, 0
11, 102960, Note_on_c, 8, 75, 100
11, 103200, Note_off_c, 8, 75, 0
11, 103200, Note_on_c, 8, 83, 100
11, 103440, Note_off_c, 8, 83, 0
11, 103440, Note_on_c, 8, 75, 100
11, 103680, Note_off_c, 8, 75, 0
11, 103680, Note_on_c, 8, 85, 100
11, 103920, Note_off_c, 8, 85, 0
11, 103920, Note_on_c, 8, 75, 100
11, 104160, Note_off_c, 8, 75, 0
11, 104160, Note_on_c, 8, 87, 100
11, 104400, Note_off_c, 8, 87, 0
11, 104400, Note_on_c, 8, 75, 100
11, 104640, Note_off_c, 8, 75, 0
11, 104640, Note_on_c, 8, 82, 100
11, 104880, Note_off_c, 8, 82, 0
11, 104880, Note_on_c, 8, 75, 100
11, 105120, Note_off_c, 8, 75, 0
11, 105120, Note_on_c, 8, 78, 100
11, 105360, Note_off_c, 8, 78, 0
11, 105360, Note_on_c, 8, 75, 100
11, 105600, Note_off_c, 8, 75, 0
11, 105600, Note_on_c, 8, 80, 100
11, 107520, Note_off_c, 8, 80, 0
11, 107520, Note_on_c, 8, 87, 100
11, 107760, Note_off_c, 8, 87, 0
11, 107760, Note_on_c, 8, 83, 100
11, 108000, Note_off_c, 8, 83, 0
11, 108000, Note_on_c, 8, 82, 100
11, 108240, Note_off_c, 8, 82, 0
11, 108240, Note_on_c, 8, 78, 100
11, 108480, Note_off_c, 8, 78, 0
11, 108480, Note_on_c, 8, 80, 100
11, 109200, Note_off_c, 8, 80, 0
11, 109280, Note_on_c, 8, 76, 100
11, 109360, Note_off_c, 8, 76, 0
11, 109360, Note_on_c, 8, 75, 100
11, 109440, Note_off_c, 8, 75, 0
11, 123840, Note_on_c, 8, 85, 100
11, 124080, Note_off_c, 8, 85, 0
11, 124080, Note_on_c, 8, 83, 100
11, 124320, Note_off_c, 8, 83, 0
11, 124320, Note_on_c, 8, 85, 100
11, 124560, Note_off_c, 8, 85, 0
11, 124560, Note_on_c, 8, 92, 100
11, 124560, Note_on_c, 8, 87, 100
11, 126240, Note_off_c, 8, 92, 0
11, 126240, Note_off_c, 8, 87, 0
11, 126240, Note_on_c, 8, 94, 100
11, 126240, Note_on_c, 8, 90, 100
11, 126720, Note_off_c, 8, 94, 0
11, 126720, Note_off_c, 8, 90, 0
11, 126720, Note_on_c, 8, 95, 100
11, 126720, Note_on_c, 8, 92, 100
11, 127200, Note_off_c, 8, 95, 0
11, 127200, Note_off_c, 8, 92, 0
11, 127200, Note_on_c, 8, 94, 100
11, 127200, Note_on_c, 8, 90, 100
11, 127680, Note_off_c, 8, 94, 0
11, 127680, Note_off_c, 8, 90, 0
11, 127680, Note_on_c, 8, 90, 100
11, 127680, Note_on_c, 8, 85, 100
11, 128160, Note_off_c, 8, 90, 0
11, 128160, Note_off_c, 8, 85, 0
11, 128160, Note_on_c, 8, 85, 100
11, 128160, Note_on_c, 8, 82, 100
11, 128640, Note_off_c, 8, 85, 0
11, 128640, Note_off_c, 8, 82, 0
11, 128640, Note_on_c, 8, 85, 100
11, 128640, Note_on_c, 8, 82, 100
11, 128880, Note_off_c, 8, 85, 0
11, 128880, Note_off_c, 8, 82, 0
11, 128880, Note_on_c, 8, 83, 100
11, 128880, Note_on_c, 8, 80, 100
11, 129120, Note_off_c, 8, 83, 0
11, 129120, Note_off_c, 8, 80, 0
11, 129120, Note_on_c, 8, 85, 100
11, 129120, Note_on_c, 8, 82, 100
11, 129360, Note_off_c, 8, 85, 0
11, 129360, Note_off_c, 8, 82, 0
11, 129360, Note_on_c, 8, 92, 100
11, 129360, Note_on_c, 8, 87, 100
11, 132480, Note_off_c, 8, 92, 0
11, 132480, Note_off_c, 8, 87, 0
11, 132480, Note_on_c, 8, 85, 100
11, 132480, Note_on_c, 8, 82, 100
11, 132720, Note_off_c, 8, 85, 0
11, 132720, Note_off_c, 8, 82, 0
11, 132720, Note_on_c, 8, 83, 100
11, 132720, Note_on_c, 8, 80, 100
11, 132960, Note_off_c, 8, 83, 0
11, 132960, Note_off_c, 8, 80, 0
11, 132960, Note_on_c, 8, 85, 100
11, 132960, Note_on_c, 8, 82, 100
11, 133200, Note_off_c, 8, 85, 0
11, 133200, Note_off_c, 8, 82, 0
11, 133200, Note_on_c, 8, 92, 100
11, 133200, Note_on_c, 8, 87, 100
11, 133440, Note_off_c, 8, 92, 0
11, 133440, Note_off_c, 8, 87, 0
11, 133440, Note_on_c, 8, 85, 100
11, 133440, Note_on_c, 8, 82, 100
11, 134400, Note_off_c, 8, 85, 0
11, 134400, Note_off_c, 8, 82, 0
11, 134400, Note_on_c, 8, 85, 100
11, 134400, Note_on_c, 8, 82, 100
11, 134640, Note_off_c, 8, 85, 0
11, 134640, Note_off_c, 8, 82, 0
11, 134640, Note_on_c, 8, 83, 100
11, 134640, Note_on_c, 8, 80, 100
11, 134880, Note_off_c, 8, 83, 0
11, 134880, Note_off_c, 8, 80, 0
11, 134880, Note_on_c, 8, 85, 100
11, 134880, Note_on_c, 8, 82, 100
11, 135120, Note_off_c, 8, 85, 0
11, 135120, Note_off_c, 8, 82, 0
11, 135120, Note_on_c, 8, 92, 100
11, 135120, Note_on_c, 8, 87, 100
11, 135360, Note_off_c, 8, 92, 0
11, 135360, Note_off_c, 8, 87, 0
11, 135360, Note_on_c, 8, 85, 100
11, 135360, Note_on_c, 8, 82, 100
11, 136320, Note_off_c, 8, 85, 0
11, 136320, Note_off_c, 8, 82, 0
11, 136320, Note_on_c, 8, 83, 100
11, 136320, Note_on_c, 8, 80, 100
11, 136560, Note_off_c, 8, 83, 0
11, 136560, Note_off_c, 8, 80, 0
11, 136560, Note_on_c, 8, 82, 100
11, 136560, Note_on_c, 8, 78, 100
11, 136800, Note_off_c, 8, 82, 0
11, 136800, Note_off_c, 8, 78, 0
11, 136800, Note_on_c, 8, 83, 100
11, 136800, Note_on_c, 8, 80, 100
11, 137040, Note_off_c, 8, 83, 0
11, 137040, Note_off_c, 8, 80, 0
11, 137040, Note_on_c, 8, 92, 100
11, 137040, Note_on_c, 8, 87, 100
11, 137280, Note_off_c, 8, 92, 0
11, 137280, Note_off_c, 8, 87, 0
11, 137280, Note_on_c, 8, 83, 100
11, 137280, Note_on_c, 8, 80, 100
11, 139200, Note_off_c, 8, 83, 0
11, 139200, Note_off_c, 8, 80, 0
11, 139200, Note_on_c, 8, 83, 100
11, 139200, Note_on_c, 8, 80, 100
11, 139440, Note_off_c, 8, 83, 0
11, 139440, Note_off_c, 8, 80, 0
11, 139440, Note_on_c, 8, 82, 100
11, 139440, Note_on_c, 8, 78, 100
11, 139680, Note_off_c, 8, 82, 0
11, 139680, Note_off_c, 8, 78, 0
11, 139680, Note_on_c, 8, 83, 100
11, 139680, Note_on_c, 8, 80, 100
11, 139920, Note_off_c, 8, 83, 0
11, 139920, Note_off_c, 8, 80, 0
11, 139920, Note_on_c, 8, 90, 100
11, 139920, Note_on_c, 8, 85, 100
11, 140160, Note_off_c, 8, 90, 0
11, 140160, Note_off_c, 8, 85, 0
11, 140160, Note_on_c, 8, 92, 100
11, 140160, Note_on_c, 8, 87, 100
11, 141600, Note_off_c, 8, 92, 0
11, 141600, Note_off_c, 8, 87, 0
11, 141600, Note_on_c, 8, 94, 100
11, 141600, Note_on_c, 8, 90, 100
11, 142080, Note_off_c, 8, 94, 0
11, 142080, Note_off_c, 8, 90, 0
11, 142080, Note_on_c, 8, 95, 100
11, 142080, Note_on_c, 8, 92, 100
11, 142560, Note_off_c, 8, 95, 0
11, 142560, Note_off_c, 8, 92, 0
11, 142560, Note_on_c, 8, 94, 100
11, 142560, Note_on_c, 8, 90, 100
11, 143040, Note_off_c, 8, 94, 0
11, 143040, Note_off_c, 8, 90, 0
11, 143040, Note_on_c, 8, 90, 100
11, 143040, Note_on_c, 8, 85, 100
11, 143520, Note_off_c, 8, 90, 0
11, 143520, Note_off_c, 8, 85, 0
11, 143520, Note_on_c, 8, 85, 100
11, 143520, Note_on_c, 8, 82, 100
11, 144000, Note_off_c, 8, 85, 0
11, 144000, Note_off_c, 8, 82, 0
11, 144000, Note_on_c, 8, 85, 100
11, 144000, Note_on_c, 8, 82, 100
11, 144240, Note_off_c, 8, 85, 0
11, 144240, Note_off_c, 8, 82, 0
11, 144240, Note_on_c, 8, 83, 100
11, 144240, Note_on_c, 8, 80, 100
11, 144480, Note_off_c, 8, 83, 0
11, 144480, Note_off_c, 8, 80, 0
11, 144480, Note_on_c, 8, 85, 100
11, 144480, Note_on_c, 8, 82, 100
11, 144720, Note_off_c, 8, 85, 0
11, 144720, Note_off_c, 8, 82, 0
11, 144720, Note_on_c, 8, 92, 100
11, 144720, Note_on_c, 8, 87, 100
11, 147840, Note_off_c, 8, 92, 0
11, 147840, Note_off_c, 8, 87, 0
11, 147840, Note_on_c, 8, 85, 100
11, 147840, Note_on_c, 8, 82, 100
11, 148080, Note_off_c, 8, 85, 0
11, 148080, Note_off_c, 8, 82, 0
11, 148080, Note_on_c, 8, 83, 100
11, 148080, Note_on_c, 8, 80, 100
11, 148320, Note_off_c, 8, 83, 0
11, 148320, Note_off_c, 8, 80, 0
11, 148320, Note_on_c, 8, 85, 100
11, 148320, Note_on_c, 8, 82, 100
11, 148560, Note_off_c, 8, 85, 0
11, 148560, Note_off_c, 8, 82, 0
11, 148560, Note_on_c, 8, 92, 100
11, 148560, Note_on_c, 8, 87, 100
11, 148800, Note_off_c, 8, 92, 0
11, 148800, Note_off_c, 8, 87, 0
11, 148800, Note_on_c, 8, 85, 100
11, 148800, Note_on_c, 8, 82, 100
11, 149760, Note_off_c, 8, 85, 0
11, 149760, Note_off_c, 8, 82, 0
11, 149760, Note_on_c, 8, 85, 100
11, 149760, Note_on_c, 8, 82, 100
11, 150000, Note_off_c, 8, 85, 0
11, 150000, Note_off_c, 8, 82, 0
11, 150000, Note_on_c, 8, 83, 100
11, 150000, Note_on_c, 8, 80, 100
11, 150240, Note_off_c, 8, 83, 0
11, 150240, Note_off_c, 8, 80, 0
11, 150240, Note_on_c, 8, 85, 100
11, 150240, Note_on_c, 8, 82, 100
11, 150480, Note_off_c, 8, 85, 0
11, 150480, Note_off_c, 8, 82, 0
11, 150480, Note_on_c, 8, 92, 100
11, 150480, Note_on_c, 8, 87, 100
11, 150720, Note_off_c, 8, 92, 0
11, 150720, Note_off_c, 8, 87, 0
11, 150720, Note_on_c, 8, 85, 100
11, 150720, Note_on_c, 8, 82, 100
11, 151680, Note_off_c, 8, 85, 0
11, 151680, Note_off_c, 8, 82, 0
11, 151680, Note_on_c, 8, 83, 100
11, 151680, Note_on_c, 8, 80, 100
11, 151920, Note_off_c, 8, 83, 0
11, 151920, Note_off_c, 8, 80, 0
11, 151920, Note_on_c, 8, 82, 100
11, 151920, Note_on_c, 8, 78, 100
11, 152160, Note_off_c, 8, 82, 0
11, 152160, Note_off_c, 8, 78, 0
11, 152160, Note_on_c, 8, 83, 100
11, 152160, Note_on_c, 8, 80, 100
11, 152400, Note_off_c, 8, 83, 0
11, 152400, Note_off_c, 8, 80, 0
11, 152400, Note_on_c, 8, 92, 100
11, 152400, Note_on_c, 8, 87, 100
11, 153840, Note_off_c, 8, 92, 0
11, 153840, Note_off_c, 8, 87, 0
11, 153840, Note_on_c, 8, 85, 100
11, 154080, Note_off_c, 8, 85, 0
11, 154080, Note_on_c, 8, 92, 100
11, 154320, Note_off_c, 8, 92, 0
11, 154320, Note_on_c, 8, 85, 100
11, 154560, Note_off_c, 8, 85, 0
11, 154560, Note_on_c, 8, 87, 100
11, 154800, Note_off_c, 8, 87, 0
11, 154800, Note_on_c, 8, 85, 100
11, 155040, Note_off_c, 8, 85, 0
11, 155040, Note_on_c, 8, 87, 100
11, 155280, Note_off_c, 8, 87, 0
11, 155280, Note_on_c, 8, 94, 100
11, 155280, Note_on_c, 8, 89, 100
11, 156960, Note_off_c, 8, 94, 0
11, 156960, Note_off_c, 8, 89, 0
11, 156960, Note_on_c, 8, 96, 100
11, 156960, Note_on_c, 8, 92, 100
11, 157440, Note_off_c, 8, 96, 0
11, 157440, Note_off_c, 8, 92, 0
11, 157440, Note_on_c, 8, 97, 100
11, 157440, Note_on_c, 8, 94, 100
11, 157920, Note_off_c, 8, 97, 0
11, 157920, Note_off_c, 8, 94, 0
11, 157920, Note_on_c, 8, 96, 100
11, 157920, Note_on_c, 8, 92, 100
11, 158400, Note_off_c, 8, 96, 0
11, 158400, Note_off_c, 8, 92, 0
11, 158400, Note_on_c, 8, 92, 100
11, 158400, Note_on_c, 8, 87, 100
11, 158880, Note_off_c, 8, 92, 0
11, 158880, Note_off_c, 8, 87, 0
11, 158880, Note_on_c, 8, 87, 100
11, 158880, Note_on_c, 8, 84, 100
11, 159360, Note_off_c, 8, 87, 0
11, 159360, Note_off_c, 8, 84, 0
11, 159360, Note_on_c, 8, 87, 100
11, 159360, Note_on_c, 8, 84, 100
11, 159600, Note_off_c, 8, 87, 0
11, 159600, Note_off_c, 8, 84, 0
11, 159600, Note_on_c, 8, 85, 100
11, 159600, Note_on_c, 8, 82, 100
11, 159840, Note_off_c, 8, 85, 0
11, 159840, Note_off_c, 8, 82, 0
11, 159840, Note_on_c, 8, 87, 100
11, 159840, Note_on_c, 8, 84, 100
11, 160080, Note_off_c, 8, 87, 0
11, 160080, Note_off_c, 8, 84, 0
11, 160080, Note_on_c, 8, 94, 100
11, 160080, Note_on_c, 8, 89, 100
11, 163200, Note_off_c, 8, 94, 0
11, 163200, Note_off_c, 8, 89, 0
11, 163200, Note_on_c, 8, 87, 100
11, 163200, Note_on_c, 8, 84, 100
11, 163440, Note_off_c, 8, 87, 0
11, 163440, Note_off_c, 8, 84, 0
11, 163440, Note_on_c, 8, 85, 100
11, 163440, Note_on_c, 8, 82, 100
11, 163680, Note_off_c, 8, 85, 0
11, 163680, Note_off_c, 8, 82, 0
11, 163680, Note_on_c, 8, 87, 100
11, 163680, Note_on_c, 8, 84, 100
11, 163920, Note_off_c, 8, 87, 0
11, 163920, Note_off_c, 8, 84, 0
11, 163920, Note_on_c, 8, 94, 100
11, 163920, Note_on_c, 8, 89, 100
11, 164160, Note_off_c, 8, 94, 0
11, 164160, Note_off_c, 8, 89, 0
11, 164160, Note_on_c, 8, 87, 100
11, 164160, Note_on_c, 8, 84, 100
11, 165120, Note_off_c, 8, 87, 0
11, 165120, Note_off_c, 8, 84, 0
11, 165120, Note_on_c, 8, 87, 100
11, 165120, Note_on_c, 8, 84, 100
11, 165360, Note_off_c, 8, 87, 0
11, 165360, Note_off_c, 8, 84, 0
11, 165360, Note_on_c, 8, 85, 100
11, 165360, Note_on_c, 8, 82, 100
11, 165600, Note_off_c, 8, 85, 0
11, 165600, Note_off_c, 8, 82, 0
11, 165600, Note_on_c, 8, 87, 100
11, 165600, Note_on_c, 8, 84, 100
11, 165840, Note_off_c, 8, 87, 0
11, 165840, Note_off_c, 8, 84, 0
11, 165840, Note_on_c, 8, 94, 100
11, 165840, Note_on_c, 8, 89, 100
11, 166080, Note_off_c, 8, 94, 0
11, 166080, Note_off_c, 8, 89, 0
11, 166080, Note_on_c, 8, 87, 100
11, 166080, Note_on_c, 8, 84, 100
11, 167040, Note_off_c, 8, 87, 0
11, 167040, Note_off_c, 8, 84, 0
11, 167040, Note_on_c, 8, 85, 100
11, 167040, Note_on_c, 8, 82, 100
11, 167280, Note_off_c, 8, 85, 0
11, 167280, Note_off_c, 8, 82, 0
11, 167280, Note_on_c, 8, 84, 100
11, 167280, Note_on_c, 8, 80, 100
11, 167520, Note_off_c, 8, 84, 0
11, 167520, Note_off_c, 8, 80, 0
11, 167520, Note_on_c, 8, 85, 100
11, 167520, Note_on_c, 8, 82, 100
11, 167760, Note_off_c, 8, 85, 0
11, 167760, Note_off_c, 8, 82, 0
11, 167760, Note_on_c, 8, 94, 100
11, 167760, Note_on_c, 8, 89, 100
11, 168000, Note_off_c, 8, 94, 0
11, 168000, Note_off_c, 8, 89, 0
11, 168000, Note_on_c, 8, 85, 100
11, 168000, Note_on_c, 8, 82, 100
11, 169920, Note_off_c, 8, 85, 0
11, 169920, Note_off_c, 8, 82, 0
11, 169920, Note_on_c, 8, 85, 100
11, 169920, Note_on_c, 8, 82, 100
11, 170160, Note_off_c, 8, 85, 0
11, 170160, Note_off_c, 8, 82, 0
11, 170160, Note_on_c, 8, 84, 100
11, 170160, Note_on_c, 8, 80, 100
11, 170400, Note_off_c, 8, 84, 0
11, 170400, Note_off_c, 8, 80, 0
11, 170400, Note_on_c, 8, 85, 100
11, 170400, Note_on_c, 8, 82, 100
11, 170640, Note_off_c, 8, 85, 0
11, 170640, Note_off_c, 8, 82, 0
11, 170640, Note_on_c, 8, 92, 100
11, 170640, Note_on_c, 8, 87, 100
11, 170880, Note_off_c, 8, 92, 0
11, 170880, Note_off_c, 8, 87, 0
11, 170880, Note_on_c, 8, 94, 100
11, 170880, Note_on_c, 8, 89, 100
11, 172320, Note_off_c, 8, 94, 0
11, 172320, Note_off_c, 8, 89, 0
11, 172320, Note_on_c, 8, 96, 100
11, 172320, Note_on_c, 8, 92, 100
11, 172800, Note_off_c, 8, 96, 0
11, 172800, Note_off_c, 8, 92, 0
11, 172800, Note_on_c, 8, 97, 100
11, 172800, Note_on_c, 8, 94, 100
11, 173280, Note_off_c, 8, 97, 0
11, 173280, Note_off_c, 8, 94, 0
11, 173280, Note_on_c, 8, 96, 100
11, 173280, Note_on_c, 8, 92, 100
11, 173760, Note_off_c, 8, 96, 0
11, 173760, Note_off_c, 8, 92, 0
11, 173760, Note_on_c, 8, 92, 100
11, 173760, Note_on_c, 8, 87, 100
11, 174240, Note_off_c, 8, 92, 0
11, 174240, Note_off_c, 8, 87, 0
11, 174240, Note_on_c, 8, 87, 100
11, 174240, Note_on_c, 8, 84, 100
11, 174720, Note_off_c, 8, 87, 0
11, 174720, Note_off_c, 8, 84, 0
11, 174720, Note_on_c, 8, 87, 100
11, 174720, Note_on_c, 8, 84, 100
11, 174960, Note_off_c, 8, 87, 0
11, 174960, Note_off_c, 8, 84, 0
11, 174960, Note_on_c, 8, 85, 100
11, 174960, Note_on_c, 8, 82, 100
11, 175200, Note_off_c, 8, 85, 0
11, 175200, Note_off_c, 8, 82, 0
11, 175200, Note_on_c, 8, 87, 100
11, 175200, Note_on_c, 8, 84, 100
11, 175440, Note_off_c, 8, 87, 0
11, 175440, Note_off_c, 8, 84, 0
11, 175440, Note_on_c, 8, 94, 100
11, 175440, Note_on_c, 8, 89, 100
11, 178560, Note_off_c, 8, 94, 0
11, 178560, Note_off_c, 8, 89, 0
11, 178560, Note_on_c, 8, 87, 100
11, 178560, Note_on_c, 8, 84, 100
11, 178800, Note_off_c, 8, 87, 0
11, 178800, Note_off_c, 8, 84, 0
11, 178800, Note_on_c, 8, 85, 100
11, 178800, Note_on_c, 8, 82, 100
11, 179040, Note_off_c, 8, 85, 0
11, 179040, Note_off_c, 8, 82, 0
11, 179040, Note_on_c, 8, 87, 100
11, 179040, Note_on_c, 8, 84, 100
11, 179280, Note_off_c, 8, 87, 0
11, 179280, Note_off_c, 8, 84, 0
11, 179280, Note_on_c, 8, 94, 100
11, 179280, Note_on_c, 8, 89, 100
11, 179520, Note_off_c, 8, 94, 0
11, 179520, Note_off_c, 8, 89, 0
11, 179520, Note_on_c, 8, 87, 100
11, 179520, Note_on_c, 8, 84, 100
11, 180480, Note_off_c, 8, 87, 0
11, 180480, Note_off_c, 8, 84, 0
11, 180480, Note_on_c, 8, 87, 100
11, 180480, Note_on_c, 8, 84, 100
11, 180720, Note_off_c, 8, 87, 0
11, 180720, Note_off_c, 8, 84, 0
11, 180720, Note_on_c, 8, 85, 100
11, 180720, Note_on_c, 8, 82, 100
11, 180960, Note_off_c, 8, 85, 0
11, 180960, Note_off_c, 8, 82, 0
11, 180960, Note_on_c, 8, 87, 100
11, 180960, Note_on_c, 8, 84, 100
11, 181200, Note_off_c, 8, 87, 0
11, 181200, Note_off_c, 8, 84, 0
11, 181200, Note_on_c, 8, 94, 100
11, 181200, Note_on_c, 8, 89, 100
11, 181440, Note_off_c, 8, 94, 0
11, 181440, Note_off_c, 8, 89, 0
11, 181440, Note_on_c, 8, 87, 100
11, 181440, Note_on_c, 8, 84, 100
11, 182400, Note_off_c, 8, 87, 0
11, 182400, Note_off_c, 8, 84, 0
11, 182400, Note_on_c, 8, 85, 100
11, 182400, Note_on_c, 8, 82, 100
11, 182640, Note_off_c, 8, 85, 0
11, 182640, Note_off_c, 8, 82, 0
11, 182640, Note_on_c, 8, 84, 100
11, 182640, Note_on_c, 8, 80, 100
11, 182880, Note_off_c, 8, 84, 0
11, 182880, Note_off_c, 8, 80, 0
11, 182880, Note_on_c, 8, 85, 100
11, 182880, Note_on_c, 8, 82, 100
11, 183120, Note_off_c, 8, 85, 0
11, 183120, Note_off_c, 8, 82, 0
11, 183120, Note_on_c, 8, 94, 100
11, 183120, Note_on_c, 8, 89, 100
11, 184560, Note_off_c, 8, 94, 0
11, 184560, Note_off_c, 8, 89, 0
11, 184560, Note_on_c, 8, 87, 100
11, 184800, Note_off_c, 8, 87, 0
11, 184800, Note_on_c, 8, 94, 100
11, 185040, Note_off_c, 8, 94, 0
11, 185040, Note_on_c, 8, 87, 100
11, 185280, Note_off_c, 8, 87, 0
11, 185280, Note_on_c, 8, 85, 100
11, 185520, Note_off_c, 8, 85, 0
11, 185520, Note_on_c, 8, 84, 100
11, 185760, Note_off_c, 8, 84, 0
11, 185760, Note_on_c, 8, 82, 100
11, 186000, Note_off_c, 8, 82, 0
11, 186000, Note_on_c, 8, 80, 100
11, 186240, Note_off_c, 8, 80, 0
11, 186240, Note_on_c, 8, 82, 100
11, 188160, Note_off_c, 8, 82, 0
11, 188160, End_track
12, 0, Start_track
12, 0, Title_t, "CH10"
12, 0, MIDI_port, 0
12, 0, Text_t, "---- System Setup --------------------------------------------------"
12, 188, Text_t, "---- CH Setup --------------------------------------------------"
12, 188, Control_c, 9, 121, 0
12, 189, Control_c, 9, 32, 0
12, 189, Program_c, 9, 0
12, 192, Control_c, 9, 10, 64
12, 193, Control_c, 9, 7, 100
12, 194, Control_c, 9, 91, 0
12, 195, Control_c, 9, 11, 127
12, 196, Control_c, 9, 1, 0
12, 197, Control_c, 9, 101, 0
12, 197, Control_c, 9, 100, 1
12, 197, Control_c, 9, 6, 64
12, 197, Control_c, 9, 38, 0
12, 201, Control_c, 9, 101, 0
12, 201, Control_c, 9, 100, 2
12, 201, Control_c, 9, 6, 64
12, 204, Control_c, 9, 101, 0
12, 204, Control_c, 9, 100, 0
12, 204, Control_c, 9, 6, 12
12, 207, Pitch_bend_c, 9, 8192
12, 208, Control_c, 9, 101, 127
12, 208, Control_c, 9, 100, 127
12, 210, Text_t, "---- End of CH Setup --------------------------------------------------"
12, 1920, Note_on_c, 9, 49, 100
12, 1920, Note_on_c, 9, 36, 100
12, 1930, Note_off_c, 9, 49, 0
12, 1930, Note_off_c, 9, 36, 0
12, 3360, Note_on_c, 9, 36, 100
12, 3370, Note_off_c, 9, 36, 0
12, 3480, Note_on_c, 9, 36, 100
12, 3490, Note_off_c, 9, 36, 0
12, 3600, Note_on_c, 9, 36, 100
12, 3610, Note_off_c, 9, 36, 0
12, 3840, Note_on_c, 9, 38, 100
12, 3850, Note_off_c, 9, 38, 0
12, 4080, Note_on_c, 9, 36, 100
12, 4090, Note_off_c, 9, 36, 0
12, 4320, Note_on_c, 9, 36, 100
12, 4330, Note_off_c, 9, 36, 0
12, 4440, Note_on_c, 9, 36, 100
12, 4450, Note_off_c, 9, 36, 0
12, 4680, Note_on_c, 9, 36, 100
12, 4690, Note_off_c, 9, 36, 0
12, 4800, Note_on_c, 9, 38, 100
12, 4810, Note_off_c, 9, 38, 0
12, 5040, Note_on_c, 9, 36, 100
12, 5050, Note_off_c, 9, 36, 0
12, 5280, Note_on_c, 9, 36, 100
12, 5290, Note_off_c, 9, 36, 0
12, 5400, Note_on_c, 9, 36, 100
12, 5410, Note_off_c, 9, 36, 0
12, 5520, Note_on_c, 9, 36, 100
12, 5530, Note_off_c, 9, 36, 0
12, 5640, Note_on_c, 9, 36, 100
12, 5650, Note_off_c, 9, 36, 0
12, 5760, Note_on_c, 9, 49, 100
12, 5760, Note_on_c, 9, 36, 100
12, 5770, Note_off_c, 9, 49, 0
12, 5770, Note_off_c, 9, 36, 0
12, 6240, Note_on_c, 9, 46, 100
12, 6250, Note_off_c, 9, 46, 0
12, 6720, Note_on_c, 9, 57, 100
12, 6720, Note_on_c, 9, 36, 100
12, 6730, Note_off_c, 9, 57, 0
12, 6730, Note_off_c, 9, 36, 0
12, 7200, Note_on_c, 9, 46, 100
12, 7210, Note_off_c, 9, 46, 0
12, 7680, Note_on_c, 9, 52, 100
12, 7690, Note_off_c, 9, 52, 0
12, 9600, Note_on_c, 9, 49, 100
12, 9600, Note_on_c, 9, 36, 100
12, 9610, Note_off_c, 9, 49, 0
12, 9610, Note_off_c, 9, 36, 0
12, 9840, Note_on_c, 9, 44, 100
12, 9850, Note_off_c, 9, 44, 0
12, 10080, Note_on_c, 9, 40, 100
12, 10090, Note_off_c, 9, 40, 0
12, 10320, Note_on_c, 9, 44, 100
12, 10330, Note_off_c, 9, 44, 0
12, 10560, Note_on_c, 9, 36, 100
12, 10570, Note_off_c, 9, 36, 0
12, 10800, Note_on_c, 9, 44, 100
12, 10810, Note_off_c, 9, 44, 0
12, 11040, Note_on_c, 9, 40, 100
12, 11050, Note_off_c, 9, 40, 0
12, 11280, Note_on_c, 9, 44, 100
12, 11280, Note_on_c, 9, 36, 100
12, 11290, Note_off_c, 9, 44, 0
12, 11290, Note_off_c, 9, 36, 0
12, 11760, Note_on_c, 9, 44, 100
12, 11760, Note_on_c, 9, 36, 100
12, 11770, Note_off_c, 9, 44, 0
12, 11770, Note_off_c, 9, 36, 0
12, 12000, Note_on_c, 9, 40, 100
12, 12010, Note_off_c, 9, 40, 0
12, 12240, Note_on_c, 9, 44, 100
12, 12250, Note_off_c, 9, 44, 0
12, 12720, Note_on_c, 9, 44, 100
12, 12730, Note_off_c, 9, 44, 0
12, 12960, Note_on_c, 9, 40, 100
12, 12970, Note_off_c, 9, 40, 0
12, 13080, Note_on_c, 9, 36, 100
12, 13090, Note_off_c, 9, 36, 0
12, 13200, Note_on_c, 9, 44, 100
12, 13210, Note_off_c, 9, 44, 0
12, 13320, Note_on_c, 9, 36, 100
12, 13330, Note_off_c, 9, 36, 0
12, 13440, Note_on_c, 9, 36, 100
12, 13450, Note_off_c, 9, 36, 0
12, 13680, Note_on_c, 9, 44, 100
12, 13690, Note_off_c, 9, 44, 0
12, 13920, Note_on_c, 9, 40, 100
12, 13930, Note_off_c, 9, 40, 0
12, 14160, Note_on_c, 9, 44, 100
12, 14170, Note_off_c, 9, 44, 0
12, 14400, Note_on_c, 9, 36, 100
12, 14410, Note_off_c, 9, 36, 0
12, 14640, Note_on_c, 9, 44, 100
12, 14650, Note_off_c, 9, 44, 0
12, 14880, Note_on_c, 9, 40, 100
12, 14890, Note_off_c, 9, 40, 0
12, 15120, Note_on_c, 9, 44, 100
12, 15120, Note_on_c, 9, 36, 100
12, 15130, Note_off_c, 9, 44, 0
12, 15130, Note_off_c, 9, 36, 0
12, 15600, Note_on_c, 9, 44, 100
12, 15600, Note_on_c, 9, 36, 100
12, 15610, Note_off_c, 9, 44, 0
12, 15610, Note_off_c, 9, 36, 0
12, 15840, Note_on_c, 9, 40, 100
12, 15850, Note_off_c, 9, 40, 0
12, 16080, Note_on_c, 9, 44, 100
12, 16090, Note_off_c, 9, 44, 0
12, 16560, Note_on_c, 9, 44, 100
12, 16560, Note_on_c, 9, 38, 100
12, 16570, Note_off_c, 9, 44, 0
12, 16570, Note_off_c, 9, 38, 0
12, 16800, Note_on_c, 9, 40, 100
12, 16810, Note_off_c, 9, 40, 0
12, 16920, Note_on_c, 9, 36, 100
12, 16930, Note_off_c, 9, 36, 0
12, 17040, Note_on_c, 9, 44, 100
12, 17050, Note_off_c, 9, 44, 0
12, 17160, Note_on_c, 9, 36, 100
12, 17170, Note_off_c, 9, 36, 0
12, 17280, Note_on_c, 9, 49, 100
12, 17280, Note_on_c, 9, 36, 100
12, 17290, Note_off_c, 9, 49, 0
12, 17290, Note_off_c, 9, 36, 0
12, 17520, Note_on_c, 9, 44, 100
12, 17530, Note_off_c, 9, 44, 0
12, 17760, Note_on_c, 9, 40, 100
12, 17770, Note_off_c, 9, 40, 0
12, 18000, Note_on_c, 9, 44, 100
12, 18010, Note_off_c, 9, 44, 0
12, 18240, Note_on_c, 9, 36, 100
12, 18250, Note_off_c, 9, 36, 0
12, 18480, Note_on_c, 9, 44, 100
12, 18490, Note_off_c, 9, 44, 0
12, 18720, Note_on_c, 9, 40, 100
12, 18730, Note_off_c, 9, 40, 0
12, 18960, Note_on_c, 9, 44, 100
12, 18960, Note_on_c, 9, 36, 100
12, 18970, Note_off_c, 9, 44, 0
12, 18970, Note_off_c, 9, 36, 0
12, 19440, Note_on_c, 9, 44, 100
12, 19440, Note_on_c, 9, 36, 100
12, 19450, Note_off_c, 9, 44, 0
12, 19450, Note_off_c, 9, 36, 0
12, 19680, Note_on_c, 9, 40, 100
12, 19690, Note_off_c, 9, 40, 0
12, 19920, Note_on_c, 9, 44, 100
12, 19930, Note_off_c, 9, 44, 0
12, 20400, Note_on_c, 9, 44, 100
12, 20410, Note_off_c, 9, 44, 0
12, 20640, Note_on_c, 9, 40, 100
12, 20650, Note_off_c, 9, 40, 0
12, 20760, Note_on_c, 9, 36, 100
12, 20770, Note_off_c, 9, 36, 0
12, 20880, Note_on_c, 9, 44, 100
12, 20890, Note_off_c, 9, 44, 0
12, 21000, Note_on_c, 9, 36, 100
12, 21010, Note_off_c, 9, 36, 0
12, 21120, Note_on_c, 9, 36, 100
12, 21130, Note_off_c, 9, 36, 0
12, 21360, Note_on_c, 9, 44, 100
12, 21370, Note_off_c, 9, 44, 0
12, 21600, Note_on_c, 9, 40, 100
12, 21610, Note_off_c, 9, 40, 0
12, 21840, Note_on_c, 9, 44, 100
12, 21850, Note_off_c, 9, 44, 0
12, 22080, Note_on_c, 9, 36, 100
12, 22090, Note_off_c, 9, 36, 0
12, 22320, Note_on_c, 9, 44, 100
12, 22330, Note_off_c, 9, 44, 0
12, 22560, Note_on_c, 9, 40, 100
12, 22570, Note_off_c, 9, 40, 0
12, 22800, Note_on_c, 9, 44, 100
12, 22800, Note_on_c, 9, 36, 100
12, 22810, Note_off_c, 9, 44, 0
12, 22810, Note_off_c, 9, 36, 0
12, 23280, Note_on_c, 9, 44, 100
12, 23280, Note_on_c, 9, 36, 100
12, 23290, Note_off_c, 9, 44, 0
12, 23290, Note_off_c, 9, 36, 0
12, 23520, Note_on_c, 9, 40, 100
12, 23530, Note_off_c, 9, 40, 0
12, 23760, Note_on_c, 9, 44, 100
12, 23770, Note_off_c, 9, 44, 0
12, 24000, Note_on_c, 9, 38, 100
12, 24010, Note_off_c, 9, 38, 0
12, 24240, Note_on_c, 9, 44, 100
12, 24250, Note_off_c, 9, 44, 0
12, 24360, Note_on_c, 9, 38, 100
12, 24370, Note_off_c, 9, 38, 0
12, 24480, Note_on_c, 9, 40, 100
12, 24490, Note_off_c, 9, 40, 0
12, 24600, Note_on_c, 9, 36, 100
12, 24610, Note_off_c, 9, 36, 0
12, 24720, Note_on_c, 9, 44, 100
12, 24730, Note_off_c, 9, 44, 0
12, 24840, Note_on_c, 9, 36, 100
12, 24850, Note_off_c, 9, 36, 0
12, 24960, Note_on_c, 9, 49, 100
12, 24960, Note_on_c, 9, 36, 100
12, 24970, Note_off_c, 9, 49, 0
12, 24970, Note_off_c, 9, 36, 0
12, 25200, Note_on_c, 9, 44, 100
12, 25210, Note_off_c, 9, 44, 0
12, 25440, Note_on_c, 9, 40, 100
12, 25450, Note_off_c, 9, 40, 0
12, 25680, Note_on_c, 9, 44, 100
12, 25690, Note_off_c, 9, 44, 0
12, 25920, Note_on_c, 9, 36, 100
12, 25930, Note_off_c, 9, 36, 0
12, 26160, Note_on_c, 9, 44, 100
12, 26170, Note_off_c, 9, 44, 0
12, 26400, Note_on_c, 9, 40, 100
12, 26410, Note_off_c, 9, 40, 0
12, 26640, Note_on_c, 9, 44, 100
12, 26640, Note_on_c, 9, 36, 100
12, 26650, Note_off_c, 9, 44, 0
12, 26650, Note_off_c, 9, 36, 0
12, 27120, Note_on_c, 9, 44, 100
12, 27120, Note_on_c, 9, 36, 100
12, 27130, Note_off_c, 9, 44, 0
12, 27130, Note_off_c, 9, 36, 0
12, 27360, Note_on_c, 9, 40, 100
12, 27370, Note_off_c, 9, 40, 0
12, 27600, Note_on_c, 9, 44, 100
12, 27610, Note_off_c, 9, 44, 0
12, 28080, Note_on_c, 9, 44, 100
12, 28090, Note_off_c, 9, 44, 0
12, 28320, Note_on_c, 9, 40, 100
12, 28330, Note_off_c, 9, 40, 0
12, 28440, Note_on_c, 9, 36, 100
12, 28450, Note_off_c, 9, 36, 0
12, 28560, Note_on_c, 9, 44, 100
12, 28570, Note_off_c, 9, 44, 0
12, 28680, Note_on_c, 9, 36, 100
12, 28690, Note_off_c, 9, 36, 0
12, 28800, Note_on_c, 9, 36, 100
12, 28810, Note_off_c, 9, 36, 0
12, 29040, Note_on_c, 9, 44, 100
12, 29050, Note_off_c, 9, 44, 0
12, 29280, Note_on_c, 9, 40, 100
12, 29290, Note_off_c, 9, 40, 0
12, 29520, Note_on_c, 9, 44, 100
12, 29530, Note_off_c, 9, 44, 0
12, 29760, Note_on_c, 9, 36, 100
12, 29770, Note_off_c, 9, 36, 0
12, 30000, Note_on_c, 9, 44, 100
12, 30010, Note_off_c, 9, 44, 0
12, 30240, Note_on_c, 9, 40, 100
12, 30250, Note_off_c, 9, 40, 0
12, 30480, Note_on_c, 9, 44, 100
12, 30480, Note_on_c, 9, 36, 100
12, 30490, Note_off_c, 9, 44, 0
12, 30490, Note_off_c, 9, 36, 0
12, 30960, Note_on_c, 9, 44, 100
12, 30960, Note_on_c, 9, 36, 100
12, 30970, Note_off_c, 9, 44, 0
12, 30970, Note_off_c, 9, 36, 0
12, 31200, Note_on_c, 9, 40, 100
12, 31210, Note_off_c, 9, 40, 0
12, 31440, Note_on_c, 9, 44, 100
12, 31450, Note_off_c, 9, 44, 0
12, 31920, Note_on_c, 9, 44, 100
12, 31920, Note_on_c, 9, 38, 100
12, 31930, Note_off_c, 9, 44, 0
12, 31930, Note_off_c, 9, 38, 0
12, 32160, Note_on_c, 9, 40, 100
12, 32170, Note_off_c, 9, 40, 0
12, 32280, Note_on_c, 9, 36, 100
12, 32290, Note_off_c, 9, 36, 0
12, 32400, Note_on_c, 9, 44, 100
12, 32410, Note_off_c, 9, 44, 0
12, 32520, Note_on_c, 9, 36, 100
12, 32530, Note_off_c, 9, 36, 0
12, 32640, Note_on_c, 9, 49, 100
12, 32640, Note_on_c, 9, 36, 100
12, 32650, Note_off_c, 9, 49, 0
12, 32650, Note_off_c, 9, 36, 0
12, 32880, Note_on_c, 9, 44, 100
12, 32890, Note_off_c, 9, 44, 0
12, 33120, Note_on_c, 9, 40, 100
12, 33130, Note_off_c, 9, 40, 0
12, 33360, Note_on_c, 9, 44, 100
12, 33370, Note_off_c, 9, 44, 0
12, 33600, Note_on_c, 9, 36, 100
12, 33610, Note_off_c, 9, 36, 0
12, 33840, Note_on_c, 9, 44, 100
12, 33850, Note_off_c, 9, 44, 0
12, 34080, Note_on_c, 9, 40, 100
12, 34090, Note_off_c, 9, 40, 0
12, 34320, Note_on_c, 9, 44, 100
12, 34320, Note_on_c, 9, 36, 100
12, 34330, Note_off_c, 9, 44, 0
12, 34330, Note_off_c, 9, 36, 0
12, 34800, Note_on_c, 9, 44, 100
12, 34800, Note_on_c, 9, 36, 100
12, 34810, Note_off_c, 9, 44, 0
12, 34810, Note_off_c, 9, 36, 0
12, 35040, Note_on_c, 9, 40, 100
12, 35050, Note_off_c, 9, 40, 0
12, 35280, Note_on_c, 9, 44, 100
12, 35290, Note_off_c, 9, 44, 0
12, 35760, Note_on_c, 9, 44, 100
12, 35770, Note_off_c, 9, 44, 0
12, 36000, Note_on_c, 9, 40, 100
12, 36010, Note_off_c, 9, 40, 0
12, 36120, Note_on_c, 9, 36, 100
12, 36130, Note_off_c, 9, 36, 0
12, 36240, Note_on_c, 9, 44, 100
12, 36250, Note_off_c, 9, 44, 0
12, 36360, Note_on_c, 9, 36, 100
12, 36370, Note_off_c, 9, 36, 0
12, 36480, Note_on_c, 9, 36, 100
12, 36490, Note_off_c, 9, 36, 0
12, 36720, Note_on_c, 9, 44, 100
12, 36730, Note_off_c, 9, 44, 0
12, 36960, Note_on_c, 9, 40, 100
12, 36970, Note_off_c, 9, 40, 0
12, 37200, Note_on_c, 9, 44, 100
12, 37210, Note_off_c, 9, 44, 0
12, 37440, Note_on_c, 9, 36, 100
12, 37450, Note_off_c, 9, 36, 0
12, 37680, Note_on_c, 9, 44, 100
12, 37690, Note_off_c, 9, 44, 0
12, 37920, Note_on_c, 9, 40, 100
12, 37930, Note_off_c, 9, 40, 0
12, 38160, Note_on_c, 9, 44, 100
12, 38160, Note_on_c, 9, 36, 100
12, 38170, Note_off_c, 9, 44, 0
12, 38170, Note_off_c, 9, 36, 0
12, 38640, Note_on_c, 9, 44, 100
12, 38640, Note_on_c, 9, 36, 100
12, 38650, Note_off_c, 9, 44, 0
12, 38650, Note_off_c, 9, 36, 0
12, 38880, Note_on_c, 9, 40, 100
12, 38890, Note_off_c, 9, 40, 0
12, 39120, Note_on_c, 9, 44, 100
12, 39130, Note_off_c, 9, 44, 0
12, 39600, Note_on_c, 9, 44, 100
12, 39600, Note_on_c, 9, 38, 100
12, 39610, Note_off_c, 9, 44, 0
12, 39610, Note_off_c, 9, 38, 0
12, 39840, Note_on_c, 9, 40, 100
12, 39850, Note_off_c, 9, 40, 0
12, 39960, Note_on_c, 9, 36, 100
12, 39970, Note_off_c, 9, 36, 0
12, 40080, Note_on_c, 9, 44, 100
12, 40090, Note_off_c, 9, 44, 0
12, 40200, Note_on_c, 9, 36, 100
12, 40210, Note_off_c, 9, 36, 0
12, 40320, Note_on_c, 9, 49, 100
12, 40320, Note_on_c, 9, 46, 100
12, 40320, Note_on_c, 9, 36, 114
12, 40330, Note_off_c, 9, 49, 0
12, 40330, Note_off_c, 9, 46, 0
12, 40330, Note_off_c, 9, 36, 0
12, 40560, Note_on_c, 9, 42, 100
12, 40570, Note_off_c, 9, 42, 0
12, 40680, Note_on_c, 9, 42, 100
12, 40690, Note_off_c, 9, 42, 0
12, 40800, Note_on_c, 9, 42, 100
12, 40810, Note_off_c, 9, 42, 0
12, 41040, Note_on_c, 9, 42, 100
12, 41050, Note_off_c, 9, 42, 0
12, 41160, Note_on_c, 9, 42, 100
12, 41170, Note_off_c, 9, 42, 0
12, 41280, Note_on_c, 9, 46, 100
12, 41290, Note_off_c, 9, 46, 0
12, 41520, Note_on_c, 9, 42, 100
12, 41530, Note_off_c, 9, 42, 0
12, 41760, Note_on_c, 9, 42, 100
12, 41770, Note_off_c, 9, 42, 0
12, 42000, Note_on_c, 9, 42, 100
12, 42010, Note_off_c, 9, 42, 0
12, 42120, Note_on_c, 9, 42, 100
12, 42130, Note_off_c, 9, 42, 0
12, 42240, Note_on_c, 9, 46, 100
12, 42240, Note_on_c, 9, 36, 111
12, 42250, Note_off_c, 9, 46, 0
12, 42250, Note_off_c, 9, 36, 0
12, 42480, Note_on_c, 9, 42, 100
12, 42490, Note_off_c, 9, 42, 0
12, 42720, Note_on_c, 9, 42, 100
12, 42730, Note_off_c, 9, 42, 0
12, 42840, Note_on_c, 9, 42, 100
12, 42850, Note_off_c, 9, 42, 0
12, 42960, Note_on_c, 9, 42, 100
12, 42970, Note_off_c, 9, 42, 0
12, 43200, Note_on_c, 9, 46, 100
12, 43210, Note_off_c, 9, 46, 0
12, 43440, Note_on_c, 9, 42, 100
12, 43450, Note_off_c, 9, 42, 0
12, 43680, Note_on_c, 9, 42, 100
12, 43690, Note_off_c, 9, 42, 0
12, 43920, Note_on_c, 9, 42, 100
12, 43930, Note_off_c, 9, 42, 0
12, 44040, Note_on_c, 9, 42, 100
12, 44050, Note_off_c, 9, 42, 0
12, 44160, Note_on_c, 9, 46, 100
12, 44160, Note_on_c, 9, 36, 111
12, 44170, Note_off_c, 9, 46, 0
12, 44170, Note_off_c, 9, 36, 0
12, 44400, Note_on_c, 9, 42, 100
12, 44410, Note_off_c, 9, 42, 0
12, 44520, Note_on_c, 9, 42, 100
12, 44530, Note_off_c, 9, 42, 0
12, 44640, Note_on_c, 9, 46, 100
12, 44650, Note_off_c, 9, 46, 0
12, 44880, Note_on_c, 9, 42, 100
12, 44890, Note_off_c, 9, 42, 0
12, 45000, Note_on_c, 9, 42, 100
12, 45010, Note_off_c, 9, 42, 0
12, 45120, Note_on_c, 9, 46, 100
12, 45130, Note_off_c, 9, 46, 0
12, 45360, Note_on_c, 9, 42, 100
12, 45370, Note_off_c, 9, 42, 0
12, 45600, Note_on_c, 9, 46, 100
12, 45600, Note_on_c, 9, 36, 111
12, 45610, Note_off_c, 9, 46, 0
12, 45610, Note_off_c, 9, 36, 0
12, 45840, Note_on_c, 9, 42, 100
12, 45850, Note_off_c, 9, 42, 0
12, 45960, Note_on_c, 9, 42, 100
12, 45970, Note_off_c, 9, 42, 0
12, 46080, Note_on_c, 9, 46, 100
12, 46080, Note_on_c, 9, 36, 111
12, 46090, Note_off_c, 9, 46, 0
12, 46090, Note_off_c, 9, 36, 0
12, 46320, Note_on_c, 9, 42, 100
12, 46330, Note_off_c, 9, 42, 0
12, 46560, Note_on_c, 9, 42, 100
12, 46570, Note_off_c, 9, 42, 0
12, 46680, Note_on_c, 9, 42, 100
12, 46690, Note_off_c, 9, 42, 0
12, 46800, Note_on_c, 9, 42, 100
12, 46810, Note_off_c, 9, 42, 0
12, 47040, Note_on_c, 9, 46, 100
12, 47050, Note_off_c, 9, 46, 0
12, 47280, Note_on_c, 9, 42, 100
12, 47290, Note_off_c, 9, 42, 0
12, 47520, Note_on_c, 9, 42, 100
12, 47530, Note_off_c, 9, 42, 0
12, 47760, Note_on_c, 9, 42, 100
12, 47760, Note_on_c, 9, 36, 111
12, 47770, Note_off_c, 9, 42, 0
12, 47770, Note_off_c, 9, 36, 0
12, 47880, Note_on_c, 9, 42, 100
12, 47880, Note_on_c, 9, 36, 111
12, 47890, Note_off_c, 9, 42, 0
12, 47890, Note_off_c, 9, 36, 0
12, 48000, Note_on_c, 9, 49, 100
12, 48000, Note_on_c, 9, 46, 100
12, 48000, Note_on_c, 9, 36, 111
12, 48010, Note_off_c, 9, 49, 0
12, 48010, Note_off_c, 9, 46, 0
12, 48010, Note_off_c, 9, 36, 0
12, 48240, Note_on_c, 9, 42, 100
12, 48250, Note_off_c, 9, 42, 0
12, 48360, Note_on_c, 9, 42, 100
12, 48370, Note_off_c, 9, 42, 0
12, 48480, Note_on_c, 9, 42, 100
12, 48480, Note_on_c, 9, 36, 111
12, 48490, Note_off_c, 9, 42, 0
12, 48490, Note_off_c, 9, 36, 0
12, 48720, Note_on_c, 9, 42, 100
12, 48730, Note_off_c, 9, 42, 0
12, 48840, Note_on_c, 9, 42, 100
12, 48850, Note_off_c, 9, 42, 0
12, 48960, Note_on_c, 9, 46, 100
12, 48960, Note_on_c, 9, 36, 111
12, 48970, Note_off_c, 9, 46, 0
12, 48970, Note_off_c, 9, 36, 0
12, 49200, Note_on_c, 9, 42, 100
12, 49210, Note_off_c, 9, 42, 0
12, 49440, Note_on_c, 9, 42, 100
12, 49440, Note_on_c, 9, 36, 111
12, 49450, Note_off_c, 9, 42, 0
12, 49450, Note_off_c, 9, 36, 0
12, 49680, Note_on_c, 9, 42, 100
12, 49690, Note_off_c, 9, 42, 0
12, 49800, Note_on_c, 9, 42, 100
12, 49810, Note_off_c, 9, 42, 0
12, 49920, Note_on_c, 9, 46, 100
12, 49920, Note_on_c, 9, 36, 111
12, 49930, Note_off_c, 9, 46, 0
12, 49930, Note_off_c, 9, 36, 0
12, 50160, Note_on_c, 9, 42, 100
12, 50170, Note_off_c, 9, 42, 0
12, 50400, Note_on_c, 9, 42, 100
12, 50400, Note_on_c, 9, 36, 111
12, 50410, Note_off_c, 9, 42, 0
12, 50410, Note_off_c, 9, 36, 0
12, 50520, Note_on_c, 9, 42, 100
12, 50530, Note_off_c, 9, 42, 0
12, 50640, Note_on_c, 9, 42, 100
12, 50650, Note_off_c, 9, 42, 0
12, 50880, Note_on_c, 9, 46, 100
12, 50880, Note_on_c, 9, 36, 110
12, 50890, Note_off_c, 9, 46, 0
12, 50890, Note_off_c, 9, 36, 0
12, 51120, Note_on_c, 9, 42, 100
12, 51130, Note_off_c, 9, 42, 0
12, 51360, Note_on_c, 9, 42, 100
12, 51360, Note_on_c, 9, 36, 110
12, 51370, Note_off_c, 9, 42, 0
12, 51370, Note_off_c, 9, 36, 0
12, 51600, Note_on_c, 9, 42, 100
12, 51610, Note_off_c, 9, 42, 0
12, 51720, Note_on_c, 9, 42, 100
12, 51720, Note_on_c, 9, 36, 110
12, 51730, Note_off_c, 9, 42, 0
12, 51730, Note_off_c, 9, 36, 0
12, 51840, Note_on_c, 9, 46, 100
12, 51840, Note_on_c, 9, 36, 110
12, 51850, Note_off_c, 9, 46, 0
12, 51850, Note_off_c, 9, 36, 0
12, 52080, Note_on_c, 9, 42, 100
12, 52090, Note_off_c, 9, 42, 0
12, 52200, Note_on_c, 9, 42, 100
12, 52210, Note_off_c, 9, 42, 0
12, 52320, Note_on_c, 9, 46, 100
12, 52320, Note_on_c, 9, 38, 100
12, 52320, Note_on_c, 9, 36, 110
12, 52330, Note_off_c, 9, 46, 0
12, 52330, Note_off_c, 9, 38, 0
12, 52330, Note_off_c, 9, 36, 0
12, 52560, Note_on_c, 9, 42, 100
12, 52570, Note_off_c, 9, 42, 0
12, 52680, Note_on_c, 9, 42, 100
12, 52690, Note_off_c, 9, 42, 0
12, 52800, Note_on_c, 9, 46, 100
12, 52800, Note_on_c, 9, 36, 110
12, 52810, Note_off_c, 9, 46, 0
12, 52810, Note_off_c, 9, 36, 0
12, 53040, Note_on_c, 9, 42, 100
12, 53050, Note_off_c, 9, 42, 0
12, 53280, Note_on_c, 9, 46, 100
12, 53280, Note_on_c, 9, 38, 100
12, 53280, Note_on_c, 9, 36, 110
12, 53290, Note_off_c, 9, 46, 0
12, 53290, Note_off_c, 9, 38, 0
12, 53290, Note_off_c, 9, 36, 0
12, 53520, Note_on_c, 9, 42, 100
12, 53530, Note_off_c, 9, 42, 0
12, 53640, Note_on_c, 9, 42, 100
12, 53650, Note_off_c, 9, 42, 0
12, 53760, Note_on_c, 9, 46, 100
12, 53760, Note_on_c, 9, 36, 110
12, 53770, Note_off_c, 9, 46, 0
12, 53770, Note_off_c, 9, 36, 0
12, 54000, Note_on_c, 9, 42, 100
12, 54010, Note_off_c, 9, 42, 0
12, 54240, Note_on_c, 9, 42, 100
12, 54240, Note_on_c, 9, 36, 110
12, 54250, Note_off_c, 9, 42, 0
12, 54250, Note_off_c, 9, 36, 0
12, 54360, Note_on_c, 9, 42, 100
12, 54370, Note_off_c, 9, 42, 0
12, 54480, Note_on_c, 9, 42, 100
12, 54490, Note_off_c, 9, 42, 0
12, 54720, Note_on_c, 9, 46, 100
12, 54720, Note_on_c, 9, 40, 100
12, 54720, Note_on_c, 9, 36, 110
12, 54730, Note_off_c, 9, 46, 0
12, 54730, Note_off_c, 9, 40, 0
12, 54730, Note_off_c, 9, 36, 0
12, 54960, Note_on_c, 9, 42, 100
12, 54960, Note_on_c, 9, 40, 100
12, 54970, Note_off_c, 9, 42, 0
12, 54970, Note_off_c, 9, 40, 0
12, 55200, Note_on_c, 9, 42, 100
12, 55200, Note_on_c, 9, 40, 100
12, 55200, Note_on_c, 9, 36, 110
12, 55210, Note_off_c, 9, 42, 0
12, 55210, Note_off_c, 9, 40, 0
12, 55210, Note_off_c, 9, 36, 0
12, 55440, Note_on_c, 9, 42, 100
12, 55440, Note_on_c, 9, 40, 100
12, 55450, Note_off_c, 9, 42, 0
12, 55450, Note_off_c, 9, 40, 0
12, 55560, Note_on_c, 9, 42, 100
12, 55570, Note_off_c, 9, 42, 0
12, 55680, Note_on_c, 9, 49, 100
12, 55680, Note_on_c, 9, 36, 110
12, 55690, Note_off_c, 9, 49, 0
12, 55690, Note_off_c, 9, 36, 0
12, 55920, Note_on_c, 9, 53, 100
12, 55930, Note_off_c, 9, 53, 0
12, 56160, Note_on_c, 9, 40, 100
12, 56170, Note_off_c, 9, 40, 0
12, 56400, Note_on_c, 9, 53, 100
12, 56410, Note_off_c, 9, 53, 0
12, 56640, Note_on_c, 9, 36, 100
12, 56650, Note_off_c, 9, 36, 0
12, 56880, Note_on_c, 9, 53, 100
12, 56890, Note_off_c, 9, 53, 0
12, 57120, Note_on_c, 9, 40, 100
12, 57130, Note_off_c, 9, 40, 0
12, 57360, Note_on_c, 9, 53, 100
12, 57370, Note_off_c, 9, 53, 0
12, 57600, Note_on_c, 9, 36, 100
12, 57610, Note_off_c, 9, 36, 0
12, 57840, Note_on_c, 9, 53, 100
12, 57850, Note_off_c, 9, 53, 0
12, 58080, Note_on_c, 9, 40, 100
12, 58090, Note_off_c, 9, 40, 0
12, 58320, Note_on_c, 9, 53, 100
12, 58330, Note_off_c, 9, 53, 0
12, 58560, Note_on_c, 9, 36, 100
12, 58570, Note_off_c, 9, 36, 0
12, 58800, Note_on_c, 9, 53, 100
12, 58810, Note_off_c, 9, 53, 0
12, 59040, Note_on_c, 9, 40, 100
12, 59050, Note_off_c, 9, 40, 0
12, 59280, Note_on_c, 9, 53, 100
12, 59290, Note_off_c, 9, 53, 0
12, 59520, Note_on_c, 9, 36, 107
12, 59530, Note_off_c, 9, 36, 0
12, 59760, Note_on_c, 9, 53, 100
12, 59770, Note_off_c, 9, 53, 0
12, 60000, Note_on_c, 9, 40, 100
12, 60010, Note_off_c, 9, 40, 0
12, 60240, Note_on_c, 9, 53, 100
12, 60250, Note_off_c, 9, 53, 0
12, 60480, Note_on_c, 9, 36, 100
12, 60490, Note_off_c, 9, 36, 0
12, 60720, Note_on_c, 9, 53, 100
12, 60730, Note_off_c, 9, 53, 0
12, 60960, Note_on_c, 9, 40, 100
12, 60970, Note_off_c, 9, 40, 0
12, 61200, Note_on_c, 9, 53, 100
12, 61210, Note_off_c, 9, 53, 0
12, 61440, Note_on_c, 9, 36, 100
12, 61450, Note_off_c, 9, 36, 0
12, 61680, Note_on_c, 9, 53, 100
12, 61690, Note_off_c, 9, 53, 0
12, 61920, Note_on_c, 9, 40, 100
12, 61930, Note_off_c, 9, 40, 0
12, 62160, Note_on_c, 9, 53, 100
12, 62170, Note_off_c, 9, 53, 0
12, 62400, Note_on_c, 9, 36, 100
12, 62410, Note_off_c, 9, 36, 0
12, 62640, Note_on_c, 9, 53, 100
12, 62650, Note_off_c, 9, 53, 0
12, 62880, Note_on_c, 9, 40, 100
12, 62890, Note_off_c, 9, 40, 0
12, 63120, Note_on_c, 9, 53, 100
12, 63130, Note_off_c, 9, 53, 0
12, 63360, Note_on_c, 9, 49, 100
12, 63360, Note_on_c, 9, 36, 107
12, 63370, Note_off_c, 9, 49, 0
12, 63370, Note_off_c, 9, 36, 0
12, 63600, Note_on_c, 9, 53, 100
12, 63600, Note_on_c, 9, 38, 100
12, 63610, Note_off_c, 9, 53, 0
12, 63610, Note_off_c, 9, 38, 0
12, 63840, Note_on_c, 9, 40, 100
12, 63850, Note_off_c, 9, 40, 0
12, 64080, Note_on_c, 9, 53, 100
12, 64090, Note_off_c, 9, 53, 0
12, 64320, Note_on_c, 9, 36, 100
12, 64330, Note_off_c, 9, 36, 0
12, 64560, Note_on_c, 9, 53, 100
12, 64570, Note_off_c, 9, 53, 0
12, 64800, Note_on_c, 9, 40, 100
12, 64810, Note_off_c, 9, 40, 0
12, 65040, Note_on_c, 9, 53, 100
12, 65050, Note_off_c, 9, 53, 0
12, 65280, Note_on_c, 9, 36, 100
12, 65290, Note_off_c, 9, 36, 0
12, 65520, Note_on_c, 9, 53, 100
12, 65520, Note_on_c, 9, 38, 100
12, 65530, Note_off_c, 9, 53, 0
12, 65530, Note_off_c, 9, 38, 0
12, 65760, Note_on_c, 9, 40, 100
12, 65770, Note_off_c, 9, 40, 0
12, 66000, Note_on_c, 9, 53, 100
12, 66010, Note_off_c, 9, 53, 0
12, 66240, Note_on_c, 9, 36, 100
12, 66250, Note_off_c, 9, 36, 0
12, 66480, Note_on_c, 9, 53, 100
12, 66490, Note_off_c, 9, 53, 0
12, 66720, Note_on_c, 9, 40, 100
12, 66730, Note_off_c, 9, 40, 0
12, 66960, Note_on_c, 9, 53, 100
12, 66970, Note_off_c, 9, 53, 0
12, 67200, Note_on_c, 9, 36, 106
12, 67210, Note_off_c, 9, 36, 0
12, 67440, Note_on_c, 9, 53, 100
12, 67440, Note_on_c, 9, 38, 100
12, 67450, Note_off_c, 9, 53, 0
12, 67450, Note_off_c, 9, 38, 0
12, 67680, Note_on_c, 9, 40, 100
12, 67690, Note_off_c, 9, 40, 0
12, 67920, Note_on_c, 9, 53, 100
12, 67930, Note_off_c, 9, 53, 0
12, 68160, Note_on_c, 9, 36, 100
12, 68170, Note_off_c, 9, 36, 0
12, 68400, Note_on_c, 9, 53, 100
12, 68410, Note_off_c, 9, 53, 0
12, 68640, Note_on_c, 9, 40, 100
12, 68650, Note_off_c, 9, 40, 0
12, 68880, Note_on_c, 9, 53, 100
12, 68890, Note_off_c, 9, 53, 0
12, 69120, Note_on_c, 9, 36, 111
12, 69130, Note_off_c, 9, 36, 0
12, 69360, Note_on_c, 9, 53, 100
12, 69370, Note_off_c, 9, 53, 0
12, 69600, Note_on_c, 9, 40, 100
12, 69610, Note_off_c, 9, 40, 0
12, 69840, Note_on_c, 9, 53, 100
12, 69850, Note_off_c, 9, 53, 0
12, 70080, Note_on_c, 9, 36, 100
12, 70090, Note_off_c, 9, 36, 0
12, 70320, Note_on_c, 9, 53, 100
12, 70320, Note_on_c, 9, 40, 100
12, 70330, Note_off_c, 9, 53, 0
12, 70330, Note_off_c, 9, 40, 0
12, 70800, Note_on_c, 9, 53, 100
12, 70800, Note_on_c, 9, 40, 100
12, 70810, Note_off_c, 9, 53, 0
12, 70810, Note_off_c, 9, 40, 0
12, 70920, Note_on_c, 9, 38, 100
12, 70930, Note_off_c, 9, 38, 0
12, 71040, Note_on_c, 9, 49, 100
12, 71040, Note_on_c, 9, 36, 114
12, 71050, Note_off_c, 9, 49, 0
12, 71050, Note_off_c, 9, 36, 0
12, 71280, Note_on_c, 9, 53, 100
12, 71290, Note_off_c, 9, 53, 0
12, 71520, Note_on_c, 9, 40, 100
12, 71530, Note_off_c, 9, 40, 0
12, 71760, Note_on_c, 9, 53, 100
12, 71770, Note_off_c, 9, 53, 0
12, 72000, Note_on_c, 9, 36, 100
12, 72010, Note_off_c, 9, 36, 0
12, 72240, Note_on_c, 9, 53, 100
12, 72250, Note_off_c, 9, 53, 0
12, 72480, Note_on_c, 9, 40, 100
12, 72490, Note_off_c, 9, 40, 0
12, 72720, Note_on_c, 9, 53, 100
12, 72730, Note_off_c, 9, 53, 0
12, 72960, Note_on_c, 9, 36, 100
12, 72970, Note_off_c, 9, 36, 0
12, 73200, Note_on_c, 9, 53, 100
12, 73210, Note_off_c, 9, 53, 0
12, 73440, Note_on_c, 9, 40, 100
12, 73450, Note_off_c, 9, 40, 0
12, 73680, Note_on_c, 9, 53, 100
12, 73690, Note_off_c, 9, 53, 0
12, 73920, Note_on_c, 9, 36, 100
12, 73930, Note_off_c, 9, 36, 0
12, 74160, Note_on_c, 9, 53, 100
12, 74170, Note_off_c, 9, 53, 0
12, 74400, Note_on_c, 9, 40, 100
12, 74410, Note_off_c, 9, 40, 0
12, 74640, Note_on_c, 9, 53, 100
12, 74650, Note_off_c, 9, 53, 0
12, 74880, Note_on_c, 9, 36, 109
12, 74890, Note_off_c, 9, 36, 0
12, 75120, Note_on_c, 9, 53, 100
12, 75130, Note_off_c, 9, 53, 0
12, 75360, Note_on_c, 9, 40, 100
12, 75370, Note_off_c, 9, 40, 0
12, 75600, Note_on_c, 9, 53, 100
12, 75610, Note_off_c, 9, 53, 0
12, 75840, Note_on_c, 9, 36, 100
12, 75850, Note_off_c, 9, 36, 0
12, 76080, Note_on_c, 9, 53, 100
12, 76090, Note_off_c, 9, 53, 0
12, 76320, Note_on_c, 9, 40, 100
12, 76330, Note_off_c, 9, 40, 0
12, 76560, Note_on_c, 9, 53, 100
12, 76570, Note_off_c, 9, 53, 0
12, 76800, Note_on_c, 9, 36, 100
12, 76810, Note_off_c, 9, 36, 0
12, 77040, Note_on_c, 9, 53, 100
12, 77050, Note_off_c, 9, 53, 0
12, 77280, Note_on_c, 9, 40, 100
12, 77290, Note_off_c, 9, 40, 0
12, 77520, Note_on_c, 9, 53, 100
12, 77530, Note_off_c, 9, 53, 0
12, 77760, Note_on_c, 9, 36, 100
12, 77770, Note_off_c, 9, 36, 0
12, 78000, Note_on_c, 9, 53, 100
12, 78010, Note_off_c, 9, 53, 0
12, 78240, Note_on_c, 9, 40, 100
12, 78250, Note_off_c, 9, 40, 0
12, 78480, Note_on_c, 9, 53, 100
12, 78490, Note_off_c, 9, 53, 0
12, 78720, Note_on_c, 9, 49, 100
12, 78720, Note_on_c, 9, 36, 111
12, 78730, Note_off_c, 9, 49, 0
12, 78730, Note_off_c, 9, 36, 0
12, 78960, Note_on_c, 9, 53, 100
12, 78960, Note_on_c, 9, 38, 100
12, 78970, Note_off_c, 9, 53, 0
12, 78970, Note_off_c, 9, 38, 0
12, 79200, Note_on_c, 9, 40, 100
12, 79210, Note_off_c, 9, 40, 0
12, 79440, Note_on_c, 9, 53, 100
12, 79450, Note_off_c, 9, 53, 0
12, 79680, Note_on_c, 9, 36, 100
12, 79690, Note_off_c, 9, 36, 0
12, 79920, Note_on_c, 9, 53, 100
12, 79930, Note_off_c, 9, 53, 0
12, 80160, Note_on_c, 9, 40, 100
12, 80170, Note_off_c, 9, 40, 0
12, 80400, Note_on_c, 9, 53, 100
12, 80410, Note_off_c, 9, 53, 0
12, 80640, Note_on_c, 9, 36, 117
12, 80650, Note_off_c, 9, 36, 0
12, 80880, Note_on_c, 9, 53, 100
12, 80880, Note_on_c, 9, 38, 100
12, 80890, Note_off_c, 9, 53, 0
12, 80890, Note_off_c, 9, 38, 0
12, 81120, Note_on_c, 9, 40, 100
12, 81130, Note_off_c, 9, 40, 0
12, 81360, Note_on_c, 9, 53, 100
12, 81370, Note_off_c, 9, 53, 0
12, 81600, Note_on_c, 9, 36, 100
12, 81610, Note_off_c, 9, 36, 0
12, 81840, Note_on_c, 9, 53, 100
12, 81850, Note_off_c, 9, 53, 0
12, 82080, Note_on_c, 9, 40, 100
12, 82090, Note_off_c, 9, 40, 0
12, 82320, Note_on_c, 9, 53, 100
12, 82330, Note_off_c, 9, 53, 0
12, 82560, Note_on_c, 9, 36, 113
12, 82570, Note_off_c, 9, 36, 0
12, 82800, Note_on_c, 9, 53, 100
12, 82800, Note_on_c, 9, 38, 100
12, 82810, Note_off_c, 9, 53, 0
12, 82810, Note_off_c, 9, 38, 0
12, 83040, Note_on_c, 9, 40, 100
12, 83050, Note_off_c, 9, 40, 0
12, 83280, Note_on_c, 9, 53, 100
12, 83290, Note_off_c, 9, 53, 0
12, 83520, Note_on_c, 9, 36, 100
12, 83530, Note_off_c, 9, 36, 0
12, 83760, Note_on_c, 9, 53, 100
12, 83770, Note_off_c, 9, 53, 0
12, 84000, Note_on_c, 9, 40, 100
12, 84010, Note_off_c, 9, 40, 0
12, 84240, Note_on_c, 9, 53, 100
12, 84250, Note_off_c, 9, 53, 0
12, 84480, Note_on_c, 9, 36, 113
12, 84490, Note_off_c, 9, 36, 0
12, 84720, Note_on_c, 9, 53, 100
12, 84730, Note_off_c, 9, 53, 0
12, 84960, Note_on_c, 9, 40, 100
12, 84970, Note_off_c, 9, 40, 0
12, 85200, Note_on_c, 9, 53, 100
12, 85210, Note_off_c, 9, 53, 0
12, 85440, Note_on_c, 9, 36, 100
12, 85450, Note_off_c, 9, 36, 0
12, 85680, Note_on_c, 9, 53, 100
12, 85690, Note_off_c, 9, 53, 0
12, 85920, Note_on_c, 9, 40, 100
12, 85930, Note_off_c, 9, 40, 0
12, 86160, Note_on_c, 9, 53, 100
12, 86160, Note_on_c, 9, 36, 100
12, 86170, Note_off_c, 9, 53, 0
12, 86170, Note_off_c, 9, 36, 0
12, 86280, Note_on_c, 9, 36, 100
12, 86290, Note_off_c, 9, 36, 0
12, 86400, Note_on_c, 9, 49, 100
12, 86400, Note_on_c, 9, 36, 111
12, 86410, Note_off_c, 9, 49, 0
12, 86410, Note_off_c, 9, 36, 0
12, 86880, Note_on_c, 9, 44, 100
12, 86880, Note_on_c, 9, 36, 100
12, 86890, Note_off_c, 9, 44, 0
12, 86890, Note_off_c, 9, 36, 0
12, 87360, Note_on_c, 9, 44, 100
12, 87360, Note_on_c, 9, 36, 100
12, 87370, Note_off_c, 9, 44, 0
12, 87370, Note_off_c, 9, 36, 0
12, 87840, Note_on_c, 9, 44, 100
12, 87840, Note_on_c, 9, 36, 100
12, 87850, Note_off_c, 9, 44, 0
12, 87850, Note_off_c, 9, 36, 0
12, 88080, Note_on_c, 9, 44, 100
12, 88080, Note_on_c, 9, 36, 100
12, 88090, Note_off_c, 9, 44, 0
12, 88090, Note_off_c, 9, 36, 0
12, 88320, Note_on_c, 9, 44, 100
12, 88320, Note_on_c, 9, 38, 100
12, 88320, Note_on_c, 9, 36, 100
12, 88330, Note_off_c, 9, 44, 0
12, 88330, Note_off_c, 9, 38, 0
12, 88330, Note_off_c, 9, 36, 0
12, 88800, Note_on_c, 9, 44, 100
12, 88800, Note_on_c, 9, 36, 100
12, 88810, Note_off_c, 9, 44, 0
12, 88810, Note_off_c, 9, 36, 0
12, 89280, Note_on_c, 9, 44, 100
12, 89280, Note_on_c, 9, 38, 100
12, 89290, Note_off_c, 9, 44, 0
12, 89290, Note_off_c, 9, 38, 0
12, 89520, Note_on_c, 9, 36, 100
12, 89530, Note_off_c, 9, 36, 0
12, 89760, Note_on_c, 9, 44, 100
12, 89760, Note_on_c, 9, 36, 100
12, 89770, Note_off_c, 9, 44, 0
12, 89770, Note_off_c, 9, 36, 0
12, 90000, Note_on_c, 9, 44, 100
12, 90010, Note_off_c, 9, 44, 0
12, 90120, Note_on_c, 9, 44, 100
12, 90120, Note_on_c, 9, 36, 100
12, 90130, Note_off_c, 9, 44, 0
12, 90130, Note_off_c, 9, 36, 0
12, 90240, Note_on_c, 9, 44, 100
12, 90240, Note_on_c, 9, 36, 118
12, 90250, Note_off_c, 9, 44, 0
12, 90250, Note_off_c, 9, 36, 0
12, 90720, Note_on_c, 9, 44, 100
12, 90720, Note_on_c, 9, 36, 100
12, 90730, Note_off_c, 9, 44, 0
12, 90730, Note_off_c, 9, 36, 0
12, 90840, Note_on_c, 9, 44, 100
12, 90850, Note_off_c, 9, 44, 0
12, 91200, Note_on_c, 9, 44, 100
12, 91200, Note_on_c, 9, 36, 116
12, 91210, Note_off_c, 9, 44, 0
12, 91210, Note_off_c, 9, 36, 0
12, 91680, Note_on_c, 9, 44, 100
12, 91680, Note_on_c, 9, 36, 100
12, 91690, Note_off_c, 9, 44, 0
12, 91690, Note_off_c, 9, 36, 0
12, 91800, Note_on_c, 9, 44, 100
12, 91810, Note_off_c, 9, 44, 0
12, 91920, Note_on_c, 9, 36, 100
12, 91930, Note_off_c, 9, 36, 0
12, 92160, Note_on_c, 9, 44, 100
12, 92160, Note_on_c, 9, 38, 100
12, 92160, Note_on_c, 9, 36, 115
12, 92170, Note_off_c, 9, 44, 0
12, 92170, Note_off_c, 9, 38, 0
12, 92170, Note_off_c, 9, 36, 0
12, 92640, Note_on_c, 9, 44, 100
12, 92640, Note_on_c, 9, 36, 100
12, 92650, Note_off_c, 9, 44, 0
12, 92650, Note_off_c, 9, 36, 0
12, 93120, Note_on_c, 9, 44, 100
12, 93120, Note_on_c, 9, 38, 100
12, 93130, Note_off_c, 9, 44, 0
12, 93130, Note_off_c, 9, 38, 0
12, 93240, Note_on_c, 9, 36, 118
12, 93250, Note_off_c, 9, 36, 0
12, 93360, Note_on_c, 9, 36, 100
12, 93370, Note_off_c, 9, 36, 0
12, 93600, Note_on_c, 9, 44, 100
12, 93600, Note_on_c, 9, 36, 100
12, 93610, Note_off_c, 9, 44, 0
12, 93610, Note_off_c, 9, 36, 0
12, 93840, Note_on_c, 9, 38, 100
12, 93850, Note_off_c, 9, 38, 0
12, 93960, Note_on_c, 9, 38, 100
12, 93960, Note_on_c, 9, 36, 100
12, 93970, Note_off_c, 9, 38, 0
12, 93970, Note_off_c, 9, 36, 0
12, 94080, Note_on_c, 9, 49, 100
12, 94080, Note_on_c, 9, 36, 116
12, 94090, Note_off_c, 9, 49, 0
12, 94090, Note_off_c, 9, 36, 0
12, 94320, Note_on_c, 9, 44, 100
12, 94330, Note_off_c, 9, 44, 0
12, 94560, Note_on_c, 9, 40, 100
12, 94570, Note_off_c, 9, 40, 0
12, 94800, Note_on_c, 9, 44, 100
12, 94810, Note_off_c, 9, 44, 0
12, 95040, Note_on_c, 9, 36, 100
12, 95050, Note_off_c, 9, 36, 0
12, 95280, Note_on_c, 9, 44, 100
12, 95290, Note_off_c, 9, 44, 0
12, 95520, Note_on_c, 9, 40, 100
12, 95530, Note_off_c, 9, 40, 0
12, 95760, Note_on_c, 9, 44, 100
12, 95760, Note_on_c, 9, 36, 100
12, 95770, Note_off_c, 9, 44, 0
12, 95770, Note_off_c, 9, 36, 0
12, 96240, Note_on_c, 9, 44, 100
12, 96240, Note_on_c, 9, 36, 100
12, 96250, Note_off_c, 9, 44, 0
12, 96250, Note_off_c, 9, 36, 0
12, 96480, Note_on_c, 9, 40, 100
12, 96490, Note_off_c, 9, 40, 0
12, 96720, Note_on_c, 9, 44, 100
12, 96730, Note_off_c, 9, 44, 0
12, 97200, Note_on_c, 9, 44, 100
12, 97210, Note_off_c, 9, 44, 0
12, 97440, Note_on_c, 9, 40, 100
12, 97450, Note_off_c, 9, 40, 0
12, 97560, Note_on_c, 9, 36, 100
12, 97570, Note_off_c, 9, 36, 0
12, 97680, Note_on_c, 9, 44, 100
12, 97690, Note_off_c, 9, 44, 0
12, 97800, Note_on_c, 9, 36, 100
12, 97810, Note_off_c, 9, 36, 0
12, 97920, Note_on_c, 9, 36, 100
12, 97930, Note_off_c, 9, 36, 0
12, 98160, Note_on_c, 9, 44, 100
12, 98170, Note_off_c, 9, 44, 0
12, 98400, Note_on_c, 9, 40, 100
12, 98410, Note_off_c, 9, 40, 0
12, 98640, Note_on_c, 9, 44, 100
12, 98650, Note_off_c, 9, 44, 0
12, 98880, Note_on_c, 9, 36, 100
12, 98890, Note_off_c, 9, 36, 0
12, 99120, Note_on_c, 9, 44, 100
12, 99130, Note_off_c, 9, 44, 0
12, 99360, Note_on_c, 9, 40, 100
12, 99370, Note_off_c, 9, 40, 0
12, 99600, Note_on_c, 9, 44, 100
12, 99600, Note_on_c, 9, 36, 100
12, 99610, Note_off_c, 9, 44, 0
12, 99610, Note_off_c, 9, 36, 0
12, 100080, Note_on_c, 9, 44, 100
12, 100080, Note_on_c, 9, 36, 100
12, 100090, Note_off_c, 9, 44, 0
12, 100090, Note_off_c, 9, 36, 0
12, 100320, Note_on_c, 9, 40, 100
12, 100330, Note_off_c, 9, 40, 0
12, 100560, Note_on_c, 9, 44, 100
12, 100570, Note_off_c, 9, 44, 0
12, 101040, Note_on_c, 9, 44, 100
12, 101040, Note_on_c, 9, 38, 100
12, 101050, Note_off_c, 9, 44, 0
12, 101050, Note_off_c, 9, 38, 0
12, 101280, Note_on_c, 9, 40, 100
12, 101290, Note_off_c, 9, 40, 0
12, 101400, Note_on_c, 9, 36, 100
12, 101410, Note_off_c, 9, 36, 0
12, 101520, Note_on_c, 9, 44, 100
12, 101530, Note_off_c, 9, 44, 0
12, 101640, Note_on_c, 9, 36, 100
12, 101650, Note_off_c, 9, 36, 0
12, 101760, Note_on_c, 9, 49, 100
12, 101760, Note_on_c, 9, 36, 100
12, 101770, Note_off_c, 9, 49, 0
12, 101770, Note_off_c, 9, 36, 0
12, 102000, Note_on_c, 9, 44, 100
12, 102010, Note_off_c, 9, 44, 0
12, 102240, Note_on_c, 9, 40, 100
12, 102250, Note_off_c, 9, 40, 0
12, 102480, Note_on_c, 9, 44, 100
12, 102490, Note_off_c, 9, 44, 0
12, 102720, Note_on_c, 9, 36, 100
12, 102730, Note_off_c, 9, 36, 0
12, 102960, Note_on_c, 9, 44, 100
12, 102970, Note_off_c, 9, 44, 0
12, 103200, Note_on_c, 9, 40, 100
12, 103210, Note_off_c, 9, 40, 0
12, 103440, Note_on_c, 9, 44, 100
12, 103440, Note_on_c, 9, 36, 100
12, 103450, Note_off_c, 9, 44, 0
12, 103450, Note_off_c, 9, 36, 0
12, 103920, Note_on_c, 9, 44, 100
12, 103920, Note_on_c, 9, 36, 100
12, 103930, Note_off_c, 9, 44, 0
12, 103930, Note_off_c, 9, 36, 0
12, 104160, Note_on_c, 9, 40, 100
12, 104170, Note_off_c, 9, 40, 0
12, 104400, Note_on_c, 9, 44, 100
12, 104410, Note_off_c, 9, 44, 0
12, 104880, Note_on_c, 9, 44, 100
12, 104890, Note_off_c, 9, 44, 0
12, 105120, Note_on_c, 9, 40, 100
12, 105130, Note_off_c, 9, 40, 0
12, 105240, Note_on_c, 9, 36, 100
12, 105250, Note_off_c, 9, 36, 0
12, 105360, Note_on_c, 9, 44, 100
12, 105370, Note_off_c, 9, 44, 0
12, 105480, Note_on_c, 9, 36, 100
12, 105490, Note_off_c, 9, 36, 0
12, 105600, Note_on_c, 9, 36, 100
12, 105610, Note_off_c, 9, 36, 0
12, 105840, Note_on_c, 9, 44, 100
12, 105850, Note_off_c, 9, 44, 0
12, 106080, Note_on_c, 9, 40, 100
12, 106090, Note_off_c, 9, 40, 0
12, 106320, Note_on_c, 9, 44, 100
12, 106330, Note_off_c, 9, 44, 0
12, 106560, Note_on_c, 9, 36, 100
12, 106570, Note_off_c, 9, 36, 0
12, 106800, Note_on_c, 9, 44, 100
12, 106810, Note_off_c, 9, 44, 0
12, 107040, Note_on_c, 9, 40, 100
12, 107050, Note_off_c, 9, 40, 0
12, 107280, Note_on_c, 9, 44, 100
12, 107280, Note_on_c, 9, 36, 100
12, 107290, Note_off_c, 9, 44, 0
12, 107290, Note_off_c, 9, 36, 0
12, 107760, Note_on_c, 9, 44, 100
12, 107760, Note_on_c, 9, 36, 100
12, 107770, Note_off_c, 9, 44, 0
12, 107770, Note_off_c, 9, 36, 0
12, 108000, Note_on_c, 9, 40, 100
12, 108010, Note_off_c, 9, 40, 0
12, 108240, Note_on_c, 9, 44, 100
12, 108250, Note_off_c, 9, 44, 0
12, 108480, Note_on_c, 9, 38, 100
12, 108490, Note_off_c, 9, 38, 0
12, 108720, Note_on_c, 9, 44, 100
12, 108730, Note_off_c, 9, 44, 0
12, 108840, Note_on_c, 9, 38, 100
12, 108850, Note_off_c, 9, 38, 0
12, 108960, Note_on_c, 9, 40, 100
12, 108970, Note_off_c, 9, 40, 0
12, 109080, Note_on_c, 9, 36, 100
12, 109090, Note_off_c, 9, 36, 0
12, 109200, Note_on_c, 9, 44, 100
12, 109210, Note_off_c, 9, 44, 0
12, 109320, Note_on_c, 9, 36, 100
12, 109330, Note_off_c, 9, 36, 0
12, 109440, Note_on_c, 9, 49, 100
12, 109440, Note_on_c, 9, 36, 100
12, 109450, Note_off_c, 9, 49, 0
12, 109450, Note_off_c, 9, 36, 0
12, 109560, Note_on_c, 9, 42, 100
12, 109570, Note_off_c, 9, 42, 0
12, 109800, Note_on_c, 9, 42, 100
12, 109810, Note_off_c, 9, 42, 0
12, 109920, Note_on_c, 9, 46, 100
12, 109920, Note_on_c, 9, 39, 100
12, 109920, Note_on_c, 9, 36, 100
12, 109930, Note_off_c, 9, 46, 0
12, 109930, Note_off_c, 9, 39, 0
12, 109930, Note_off_c, 9, 36, 0
12, 110400, Note_on_c, 9, 42, 100
12, 110400, Note_on_c, 9, 36, 100
12, 110410, Note_off_c, 9, 42, 0
12, 110410, Note_off_c, 9, 36, 0
12, 110760, Note_on_c, 9, 42, 100
12, 110770, Note_off_c, 9, 42, 0
12, 110880, Note_on_c, 9, 46, 100
12, 110880, Note_on_c, 9, 39, 100
12, 110880, Note_on_c, 9, 36, 100
12, 110890, Note_off_c, 9, 46, 0
12, 110890, Note_off_c, 9, 39, 0
12, 110890, Note_off_c, 9, 36, 0
12, 111360, Note_on_c, 9, 36, 100
12, 111370, Note_off_c, 9, 36, 0
12, 111480, Note_on_c, 9, 42, 100
12, 111490, Note_off_c, 9, 42, 0
12, 111720, Note_on_c, 9, 42, 100
12, 111730, Note_off_c, 9, 42, 0
12, 111840, Note_on_c, 9, 46, 100
12, 111840, Note_on_c, 9, 39, 100
12, 111840, Note_on_c, 9, 36, 100
12, 111850, Note_off_c, 9, 46, 0
12, 111850, Note_off_c, 9, 39, 0
12, 111850, Note_off_c, 9, 36, 0
12, 112320, Note_on_c, 9, 46, 100
12, 112320, Note_on_c, 9, 36, 100
12, 112330, Note_off_c, 9, 46, 0
12, 112330, Note_off_c, 9, 36, 0
12, 112560, Note_on_c, 9, 44, 100
12, 112570, Note_off_c, 9, 44, 0
12, 112680, Note_on_c, 9, 46, 100
12, 112690, Note_off_c, 9, 46, 0
12, 112800, Note_on_c, 9, 39, 100
12, 112800, Note_on_c, 9, 36, 100
12, 112810, Note_off_c, 9, 39, 0
12, 112810, Note_off_c, 9, 36, 0
12, 112920, Note_on_c, 9, 44, 100
12, 112930, Note_off_c, 9, 44, 0
12, 113040, Note_on_c, 9, 46, 100
12, 113050, Note_off_c, 9, 46, 0
12, 113280, Note_on_c, 9, 36, 100
12, 113290, Note_off_c, 9, 36, 0
12, 113400, Note_on_c, 9, 42, 100
12, 113410, Note_off_c, 9, 42, 0
12, 113640, Note_on_c, 9, 42, 100
12, 113650, Note_off_c, 9, 42, 0
12, 113760, Note_on_c, 9, 46, 100
12, 113760, Note_on_c, 9, 39, 100
12, 113760, Note_on_c, 9, 36, 100
12, 113770, Note_off_c, 9, 46, 0
12, 113770, Note_off_c, 9, 39, 0
12, 113770, Note_off_c, 9, 36, 0
12, 114240, Note_on_c, 9, 42, 100
12, 114240, Note_on_c, 9, 36, 100
12, 114250, Note_off_c, 9, 42, 0
12, 114250, Note_off_c, 9, 36, 0
12, 114600, Note_on_c, 9, 42, 100
12, 114610, Note_off_c, 9, 42, 0
12, 114720, Note_on_c, 9, 46, 100
12, 114720, Note_on_c, 9, 39, 100
12, 114720, Note_on_c, 9, 36, 100
12, 114730, Note_off_c, 9, 46, 0
12, 114730, Note_off_c, 9, 39, 0
12, 114730, Note_off_c, 9, 36, 0
12, 115200, Note_on_c, 9, 36, 100
12, 115210, Note_off_c, 9, 36, 0
12, 115320, Note_on_c, 9, 42, 100
12, 115330, Note_off_c, 9, 42, 0
12, 115560, Note_on_c, 9, 42, 100
12, 115570, Note_off_c, 9, 42, 0
12, 115680, Note_on_c, 9, 46, 100
12, 115680, Note_on_c, 9, 39, 100
12, 115680, Note_on_c, 9, 36, 100
12, 115690, Note_off_c, 9, 46, 0
12, 115690, Note_off_c, 9, 39, 0
12, 115690, Note_off_c, 9, 36, 0
12, 116160, Note_on_c, 9, 42, 100
12, 116160, Note_on_c, 9, 36, 100
12, 116170, Note_off_c, 9, 42, 0
12, 116170, Note_off_c, 9, 36, 0
12, 116400, Note_on_c, 9, 38, 100
12, 116410, Note_off_c, 9, 38, 0
12, 116520, Note_on_c, 9, 42, 100
12, 116520, Note_on_c, 9, 38, 100
12, 116530, Note_off_c, 9, 42, 0
12, 116530, Note_off_c, 9, 38, 0
12, 116640, Note_on_c, 9, 51, 100
12, 116640, Note_on_c, 9, 39, 100
12, 116640, Note_on_c, 9, 38, 100
12, 116640, Note_on_c, 9, 36, 100
12, 116650, Note_off_c, 9, 51, 0
12, 116650, Note_off_c, 9, 39, 0
12, 116650, Note_off_c, 9, 38, 0
12, 116650, Note_off_c, 9, 36, 0
12, 117120, Note_on_c, 9, 49, 100
12, 117120, Note_on_c, 9, 36, 100
12, 117130, Note_off_c, 9, 49, 0
12, 117130, Note_off_c, 9, 36, 0
12, 117240, Note_on_c, 9, 42, 100
12, 117250, Note_off_c, 9, 42, 0
12, 117360, Note_on_c, 9, 35, 100
12, 117370, Note_off_c, 9, 35, 0
12, 117480, Note_on_c, 9, 42, 100
12, 117490, Note_off_c, 9, 42, 0
12, 117600, Note_on_c, 9, 46, 100
12, 117600, Note_on_c, 9, 39, 100
12, 117600, Note_on_c, 9, 36, 100
12, 117610, Note_off_c, 9, 46, 0
12, 117610, Note_off_c, 9, 39, 0
12, 117610, Note_off_c, 9, 36, 0
12, 118080, Note_on_c, 9, 42, 100
12, 118080, Note_on_c, 9, 36, 100
12, 118090, Note_off_c, 9, 42, 0
12, 118090, Note_off_c, 9, 36, 0
12, 118320, Note_on_c, 9, 35, 100
12, 118330, Note_off_c, 9, 35, 0
12, 118440, Note_on_c, 9, 42, 100
12, 118450, Note_off_c, 9, 42, 0
12, 118560, Note_on_c, 9, 46, 100
12, 118560, Note_on_c, 9, 39, 100
12, 118560, Note_on_c, 9, 36, 100
12, 118570, Note_off_c, 9, 46, 0
12, 118570, Note_off_c, 9, 39, 0
12, 118570, Note_off_c, 9, 36, 0
12, 119040, Note_on_c, 9, 36, 100
12, 119050, Note_off_c, 9, 36, 0
12, 119160, Note_on_c, 9, 42, 100
12, 119170, Note_off_c, 9, 42, 0
12, 119280, Note_on_c, 9, 35, 100
12, 119290, Note_off_c, 9, 35, 0
12, 119400, Note_on_c, 9, 42, 100
12, 119410, Note_off_c, 9, 42, 0
12, 119520, Note_on_c, 9, 46, 100
12, 119520, Note_on_c, 9, 39, 100
12, 119520, Note_on_c, 9, 36, 100
12, 119530, Note_off_c, 9, 46, 0
12, 119530, Note_off_c, 9, 39, 0
12, 119530, Note_off_c, 9, 36, 0
12, 120000, Note_on_c, 9, 46, 100
12, 120000, Note_on_c, 9, 36, 100
12, 120010, Note_off_c, 9, 46, 0
12, 120010, Note_off_c, 9, 36, 0
12, 120240, Note_on_c, 9, 44, 100
12, 120240, Note_on_c, 9, 35, 100
12, 120250, Note_off_c, 9, 44, 0
12, 120250, Note_off_c, 9, 35, 0
12, 120360, Note_on_c, 9, 46, 100
12, 120370, Note_off_c, 9, 46, 0
12, 120480, Note_on_c, 9, 39, 100
12, 120480, Note_on_c, 9, 36, 100
12, 120490, Note_off_c, 9, 39, 0
12, 120490, Note_off_c, 9, 36, 0
12, 120600, Note_on_c, 9, 44, 100
12, 120610, Note_off_c, 9, 44, 0
12, 120720, Note_on_c, 9, 46, 100
12, 120730, Note_off_c, 9, 46, 0
12, 120840, Note_on_c, 9, 35, 100
12, 120850, Note_off_c, 9, 35, 0
12, 120960, Note_on_c, 9, 36, 100
12, 120970, Note_off_c, 9, 36, 0
12, 121080, Note_on_c, 9, 42, 100
12, 121090, Note_off_c, 9, 42, 0
12, 121200, Note_on_c, 9, 35, 100
12, 121210, Note_off_c, 9, 35, 0
12, 121320, Note_on_c, 9, 42, 100
12, 121330, Note_off_c, 9, 42, 0
12, 121440, Note_on_c, 9, 46, 100
12, 121440, Note_on_c, 9, 39, 100
12, 121440, Note_on_c, 9, 36, 100
12, 121450, Note_off_c, 9, 46, 0
12, 121450, Note_off_c, 9, 39, 0
12, 121450, Note_off_c, 9, 36, 0
12, 121920, Note_on_c, 9, 42, 100
12, 121920, Note_on_c, 9, 36, 100
12, 121930, Note_off_c, 9, 42, 0
12, 121930, Note_off_c, 9, 36, 0
12, 122160, Note_on_c, 9, 35, 100
12, 122170, Note_off_c, 9, 35, 0
12, 122280, Note_on_c, 9, 42, 100
12, 122290, Note_off_c, 9, 42, 0
12, 122400, Note_on_c, 9, 46, 100
12, 122400, Note_on_c, 9, 39, 100
12, 122400, Note_on_c, 9, 36, 100
12, 122410, Note_off_c, 9, 46, 0
12, 122410, Note_off_c, 9, 39, 0
12, 122410, Note_off_c, 9, 36, 0
12, 122880, Note_on_c, 9, 36, 100
12, 122890, Note_off_c, 9, 36, 0
12, 123000, Note_on_c, 9, 42, 100
12, 123010, Note_off_c, 9, 42, 0
12, 123120, Note_on_c, 9, 35, 100
12, 123130, Note_off_c, 9, 35, 0
12, 123240, Note_on_c, 9, 42, 100
12, 123250, Note_off_c, 9, 42, 0
12, 123360, Note_on_c, 9, 46, 100
12, 123360, Note_on_c, 9, 36, 100
12, 123370, Note_off_c, 9, 46, 0
12, 123370, Note_off_c, 9, 36, 0
12, 123840, Note_on_c, 9, 42, 100
12, 123840, Note_on_c, 9, 38, 100
12, 123840, Note_on_c, 9, 36, 100
12, 123850, Note_off_c, 9, 42, 0
12, 123850, Note_off_c, 9, 38, 0
12, 123850, Note_off_c, 9, 36, 0
12, 124080, Note_on_c, 9, 35, 100
12, 124090, Note_off_c, 9, 35, 0
12, 124200, Note_on_c, 9, 42, 100
12, 124200, Note_on_c, 9, 38, 100
12, 124210, Note_off_c, 9, 42, 0
12, 124210, Note_off_c, 9, 38, 0
12, 124320, Note_on_c, 9, 46, 100
12, 124320, Note_on_c, 9, 40, 100
12, 124320, Note_on_c, 9, 36, 100
12, 124330, Note_off_c, 9, 46, 0
12, 124330, Note_off_c, 9, 40, 0
12, 124330, Note_off_c, 9, 36, 0
12, 124440, Note_on_c, 9, 36, 100
12, 124450, Note_off_c, 9, 36, 0
12, 124560, Note_on_c, 9, 36, 100
12, 124570, Note_off_c, 9, 36, 0
12, 124680, Note_on_c, 9, 36, 100
12, 124690, Note_off_c, 9, 36, 0
12, 124800, Note_on_c, 9, 49, 100
12, 124800, Note_on_c, 9, 36, 100
12, 124810, Note_off_c, 9, 49, 0
12, 124810, Note_off_c, 9, 36, 0
12, 125040, Note_on_c, 9, 53, 100
12, 125050, Note_off_c, 9, 53, 0
12, 125280, Note_on_c, 9, 40, 100
12, 125290, Note_off_c, 9, 40, 0
12, 125520, Note_on_c, 9, 53, 100
12, 125530, Note_off_c, 9, 53, 0
12, 125760, Note_on_c, 9, 36, 100
12, 125770, Note_off_c, 9, 36, 0
12, 126000, Note_on_c, 9, 53, 100
12, 126010, Note_off_c, 9, 53, 0
12, 126240, Note_on_c, 9, 40, 100
12, 126250, Note_off_c, 9, 40, 0
12, 126480, Note_on_c, 9, 53, 100
12, 126490, Note_off_c, 9, 53, 0
12, 126720, Note_on_c, 9, 36, 100
12, 126730, Note_off_c, 9, 36, 0
12, 126960, Note_on_c, 9, 53, 100
12, 126970, Note_off_c, 9, 53, 0
12, 127200, Note_on_c, 9, 40, 100
12, 127210, Note_off_c, 9, 40, 0
12, 127440, Note_on_c, 9, 53, 100
12, 127450, Note_off_c, 9, 53, 0
12, 127680, Note_on_c, 9, 36, 100
12, 127690, Note_off_c, 9, 36, 0
12, 127920, Note_on_c, 9, 53, 100
12, 127930, Note_off_c, 9, 53, 0
12, 128160, Note_on_c, 9, 40, 100
12, 128170, Note_off_c, 9, 40, 0
12, 128400, Note_on_c, 9, 53, 100
12, 128410, Note_off_c, 9, 53, 0
12, 128640, Note_on_c, 9, 36, 100
12, 128650, Note_off_c, 9, 36, 0
12, 128880, Note_on_c, 9, 53, 100
12, 128890, Note_off_c, 9, 53, 0
12, 129120, Note_on_c, 9, 40, 100
12, 129130, Note_off_c, 9, 40, 0
12, 129360, Note_on_c, 9, 53, 100
12, 129370, Note_off_c, 9, 53, 0
12, 129600, Note_on_c, 9, 36, 100
12, 129610, Note_off_c, 9, 36, 0
12, 129840, Note_on_c, 9, 53, 100
12, 129850, Note_off_c, 9, 53, 0
12, 130080, Note_on_c, 9, 40, 100
12, 130090, Note_off_c, 9, 40, 0
12, 130320, Note_on_c, 9, 53, 100
12, 130330, Note_off_c, 9, 53, 0
12, 130560, Note_on_c, 9, 36, 100
12, 130570, Note_off_c, 9, 36, 0
12, 130800, Note_on_c, 9, 53, 100
12, 130810, Note_off_c, 9, 53, 0
12, 131040, Note_on_c, 9, 40, 100
12, 131050, Note_off_c, 9, 40, 0
12, 131280, Note_on_c, 9, 53, 100
12, 131290, Note_off_c, 9, 53, 0
12, 131520, Note_on_c, 9, 36, 100
12, 131530, Note_off_c, 9, 36, 0
12, 131760, Note_on_c, 9, 53, 100
12, 131770, Note_off_c, 9, 53, 0
12, 132000, Note_on_c, 9, 40, 100
12, 132010, Note_off_c, 9, 40, 0
12, 132240, Note_on_c, 9, 53, 100
12, 132250, Note_off_c, 9, 53, 0
12, 132480, Note_on_c, 9, 49, 100
12, 132480, Note_on_c, 9, 36, 100
12, 132490, Note_off_c, 9, 49, 0
12, 132490, Note_off_c, 9, 36, 0
12, 132720, Note_on_c, 9, 53, 100
12, 132720, Note_on_c, 9, 38, 100
12, 132730, Note_off_c, 9, 53, 0
12, 132730, Note_off_c, 9, 38, 0
12, 132960, Note_on_c, 9, 40, 100
12, 132970, Note_off_c, 9, 40, 0
12, 133200, Note_on_c, 9, 53, 100
12, 133210, Note_off_c, 9, 53, 0
12, 133440, Note_on_c, 9, 36, 100
12, 133450, Note_off_c, 9, 36, 0
12, 133680, Note_on_c, 9, 53, 100
12, 133690, Note_off_c, 9, 53, 0
12, 133920, Note_on_c, 9, 40, 100
12, 133930, Note_off_c, 9, 40, 0
12, 134160, Note_on_c, 9, 53, 100
12, 134170, Note_off_c, 9, 53, 0
12, 134400, Note_on_c, 9, 36, 100
12, 134410, Note_off_c, 9, 36, 0
12, 134640, Note_on_c, 9, 53, 100
12, 134640, Note_on_c, 9, 38, 100
12, 134650, Note_off_c, 9, 53, 0
12, 134650, Note_off_c, 9, 38, 0
12, 134880, Note_on_c, 9, 40, 100
12, 134890, Note_off_c, 9, 40, 0
12, 135120, Note_on_c, 9, 53, 100
12, 135130, Note_off_c, 9, 53, 0
12, 135360, Note_on_c, 9, 36, 100
12, 135370, Note_off_c, 9, 36, 0
12, 135600, Note_on_c, 9, 53, 100
12, 135610, Note_off_c, 9, 53, 0
12, 135840, Note_on_c, 9, 40, 100
12, 135850, Note_off_c, 9, 40, 0
12, 136080, Note_on_c, 9, 53, 100
12, 136090, Note_off_c, 9, 53, 0
12, 136320, Note_on_c, 9, 36, 100
12, 136330, Note_off_c, 9, 36, 0
12, 136560, Note_on_c, 9, 53, 100
12, 136560, Note_on_c, 9, 38, 100
12, 136570, Note_off_c, 9, 53, 0
12, 136570, Note_off_c, 9, 38, 0
12, 136800, Note_on_c, 9, 40, 100
12, 136810, Note_off_c, 9, 40, 0
12, 137040, Note_on_c, 9, 53, 100
12, 137050, Note_off_c, 9, 53, 0
12, 137280, Note_on_c, 9, 36, 100
12, 137290, Note_off_c, 9, 36, 0
12, 137520, Note_on_c, 9, 53, 100
12, 137530, Note_off_c, 9, 53, 0
12, 137760, Note_on_c, 9, 40, 100
12, 137770, Note_off_c, 9, 40, 0
12, 138000, Note_on_c, 9, 53, 100
12, 138010, Note_off_c, 9, 53, 0
12, 138240, Note_on_c, 9, 36, 100
12, 138250, Note_off_c, 9, 36, 0
12, 138480, Note_on_c, 9, 53, 100
12, 138490, Note_off_c, 9, 53, 0
12, 138720, Note_on_c, 9, 40, 100
12, 138730, Note_off_c, 9, 40, 0
12, 138960, Note_on_c, 9, 53, 100
12, 138970, Note_off_c, 9, 53, 0
12, 139200, Note_on_c, 9, 36, 100
12, 139210, Note_off_c, 9, 36, 0
12, 139440, Note_on_c, 9, 53, 100
12, 139440, Note_on_c, 9, 40, 100
12, 139450, Note_off_c, 9, 53, 0
12, 139450, Note_off_c, 9, 40, 0
12, 139920, Note_on_c, 9, 53, 100
12, 139920, Note_on_c, 9, 40, 100
12, 139930, Note_off_c, 9, 53, 0
12, 139930, Note_off_c, 9, 40, 0
12, 140040, Note_on_c, 9, 38, 100
12, 140050, Note_off_c, 9, 38, 0
12, 140160, Note_on_c, 9, 49, 100
12, 140160, Note_on_c, 9, 36, 100
12, 140170, Note_off_c, 9, 49, 0
12, 140170, Note_off_c, 9, 36, 0
12, 140400, Note_on_c, 9, 53, 100
12, 140410, Note_off_c, 9, 53, 0
12, 140640, Note_on_c, 9, 40, 100
12, 140650, Note_off_c, 9, 40, 0
12, 140880, Note_on_c, 9, 53, 100
12, 140890, Note_off_c, 9, 53, 0
12, 141120, Note_on_c, 9, 36, 100
12, 141130, Note_off_c, 9, 36, 0
12, 141360, Note_on_c, 9, 53, 100
12, 141370, Note_off_c, 9, 53, 0
12, 141600, Note_on_c, 9, 40, 100
12, 141610, Note_off_c, 9, 40, 0
12, 141840, Note_on_c, 9, 53, 100
12, 141850, Note_off_c, 9, 53, 0
12, 142080, Note_on_c, 9, 36, 100
12, 142090, Note_off_c, 9, 36, 0
12, 142320, Note_on_c, 9, 53, 100
12, 142330, Note_off_c, 9, 53, 0
12, 142560, Note_on_c, 9, 40, 100
12, 142570, Note_off_c, 9, 40, 0
12, 142800, Note_on_c, 9, 53, 100
12, 142810, Note_off_c, 9, 53, 0
12, 143040, Note_on_c, 9, 36, 100
12, 143050, Note_off_c, 9, 36, 0
12, 143280, Note_on_c, 9, 53, 100
12, 143290, Note_off_c, 9, 53, 0
12, 143520, Note_on_c, 9, 40, 100
12, 143530, Note_off_c, 9, 40, 0
12, 143760, Note_on_c, 9, 53, 100
12, 143770, Note_off_c, 9, 53, 0
12, 144000, Note_on_c, 9, 36, 100
12, 144010, Note_off_c, 9, 36, 0
12, 144240, Note_on_c, 9, 53, 100
12, 144250, Note_off_c, 9, 53, 0
12, 144480, Note_on_c, 9, 40, 100
12, 144490, Note_off_c, 9, 40, 0
12, 144720, Note_on_c, 9, 53, 100
12, 144730, Note_off_c, 9, 53, 0
12, 144960, Note_on_c, 9, 36, 100
12, 144970, Note_off_c, 9, 36, 0
12, 145200, Note_on_c, 9, 53, 100
12, 145210, Note_off_c, 9, 53, 0
12, 145440, Note_on_c, 9, 40, 100
12, 145450, Note_off_c, 9, 40, 0
12, 145680, Note_on_c, 9, 53, 100
12, 145690, Note_off_c, 9, 53, 0
12, 145920, Note_on_c, 9, 36, 100
12, 145930, Note_off_c, 9, 36, 0
12, 146160, Note_on_c, 9, 53, 100
12, 146170, Note_off_c, 9, 53, 0
12, 146400, Note_on_c, 9, 40, 100
12, 146410, Note_off_c, 9, 40, 0
12, 146640, Note_on_c, 9, 53, 100
12, 146650, Note_off_c, 9, 53, 0
12, 146880, Note_on_c, 9, 36, 100
12, 146890, Note_off_c, 9, 36, 0
12, 147120, Note_on_c, 9, 53, 100
12, 147130, Note_off_c, 9, 53, 0
12, 147360, Note_on_c, 9, 40, 100
12, 147370, Note_off_c, 9, 40, 0
12, 147600, Note_on_c, 9, 53, 100
12, 147610, Note_off_c, 9, 53, 0
12, 147840, Note_on_c, 9, 49, 100
12, 147840, Note_on_c, 9, 36, 100
12, 147850, Note_off_c, 9, 49, 0
12, 147850, Note_off_c, 9, 36, 0
12, 148080, Note_on_c, 9, 53, 100
12, 148080, Note_on_c, 9, 38, 100
12, 148090, Note_off_c, 9, 53, 0
12, 148090, Note_off_c, 9, 38, 0
12, 148320, Note_on_c, 9, 40, 100
12, 148330, Note_off_c, 9, 40, 0
12, 148560, Note_on_c, 9, 53, 100
12, 148570, Note_off_c, 9, 53, 0
12, 148800, Note_on_c, 9, 36, 100
12, 148810, Note_off_c, 9, 36, 0
12, 149040, Note_on_c, 9, 53, 100
12, 149050, Note_off_c, 9, 53, 0
12, 149280, Note_on_c, 9, 40, 100
12, 149290, Note_off_c, 9, 40, 0
12, 149520, Note_on_c, 9, 53, 100
12, 149530, Note_off_c, 9, 53, 0
12, 149760, Note_on_c, 9, 36, 100
12, 149770, Note_off_c, 9, 36, 0
12, 150000, Note_on_c, 9, 53, 100
12, 150000, Note_on_c, 9, 38, 100
12, 150010, Note_off_c, 9, 53, 0
12, 150010, Note_off_c, 9, 38, 0
12, 150240, Note_on_c, 9, 40, 100
12, 150250, Note_off_c, 9, 40, 0
12, 150480, Note_on_c, 9, 53, 100
12, 150490, Note_off_c, 9, 53, 0
12, 150720, Note_on_c, 9, 36, 100
12, 150730, Note_off_c, 9, 36, 0
12, 150960, Note_on_c, 9, 53, 100
12, 150970, Note_off_c, 9, 53, 0
12, 151200, Note_on_c, 9, 40, 100
12, 151210, Note_off_c, 9, 40, 0
12, 151440, Note_on_c, 9, 53, 100
12, 151450, Note_off_c, 9, 53, 0
12, 151680, Note_on_c, 9, 36, 100
12, 151690, Note_off_c, 9, 36, 0
12, 151920, Note_on_c, 9, 53, 100
12, 151920, Note_on_c, 9, 38, 100
12, 151930, Note_off_c, 9, 53, 0
12, 151930, Note_off_c, 9, 38, 0
12, 152160, Note_on_c, 9, 40, 100
12, 152170, Note_off_c, 9, 40, 0
12, 152400, Note_on_c, 9, 53, 100
12, 152410, Note_off_c, 9, 53, 0
12, 152640, Note_on_c, 9, 36, 100
12, 152650, Note_off_c, 9, 36, 0
12, 152880, Note_on_c, 9, 53, 100
12, 152890, Note_off_c, 9, 53, 0
12, 153120, Note_on_c, 9, 40, 100
12, 153130, Note_off_c, 9, 40, 0
12, 153360, Note_on_c, 9, 53, 100
12, 153370, Note_off_c, 9, 53, 0
12, 153600, Note_on_c, 9, 36, 100
12, 153610, Note_off_c, 9, 36, 0
12, 153840, Note_on_c, 9, 53, 100
12, 153850, Note_off_c, 9, 53, 0
12, 154080, Note_on_c, 9, 40, 100
12, 154090, Note_off_c, 9, 40, 0
12, 154320, Note_on_c, 9, 53, 100
12, 154330, Note_off_c, 9, 53, 0
12, 154560, Note_on_c, 9, 36, 100
12, 154570, Note_off_c, 9, 36, 0
12, 154800, Note_on_c, 9, 53, 100
12, 154800, Note_on_c, 9, 40, 100
12, 154810, Note_off_c, 9, 53, 0
12, 154810, Note_off_c, 9, 40, 0
12, 154920, Note_on_c, 9, 40, 100
12, 154930, Note_off_c, 9, 40, 0
12, 155040, Note_on_c, 9, 40, 100
12, 155050, Note_off_c, 9, 40, 0
12, 155280, Note_on_c, 9, 53, 100
12, 155280, Note_on_c, 9, 40, 100
12, 155290, Note_off_c, 9, 53, 0
12, 155290, Note_off_c, 9, 40, 0
12, 155400, Note_on_c, 9, 38, 100
12, 155410, Note_off_c, 9, 38, 0
12, 155520, Note_on_c, 9, 49, 100
12, 155520, Note_on_c, 9, 36, 100
12, 155530, Note_off_c, 9, 49, 0
12, 155530, Note_off_c, 9, 36, 0
12, 155760, Note_on_c, 9, 53, 100
12, 155770, Note_off_c, 9, 53, 0
12, 156000, Note_on_c, 9, 40, 100
12, 156010, Note_off_c, 9, 40, 0
12, 156240, Note_on_c, 9, 53, 100
12, 156250, Note_off_c, 9, 53, 0
12, 156480, Note_on_c, 9, 36, 100
12, 156490, Note_off_c, 9, 36, 0
12, 156720, Note_on_c, 9, 53, 100
12, 156730, Note_off_c, 9, 53, 0
12, 156960, Note_on_c, 9, 40, 100
12, 156970, Note_off_c, 9, 40, 0
12, 157200, Note_on_c, 9, 53, 100
12, 157210, Note_off_c, 9, 53, 0
12, 157440, Note_on_c, 9, 36, 100
12, 157450, Note_off_c, 9, 36, 0
12, 157680, Note_on_c, 9, 53, 100
12, 157690, Note_off_c, 9, 53, 0
12, 157920, Note_on_c, 9, 40, 100
12, 157930, Note_off_c, 9, 40, 0
12, 158160, Note_on_c, 9, 53, 100
12, 158170, Note_off_c, 9, 53, 0
12, 158400, Note_on_c, 9, 36, 100
12, 158410, Note_off_c, 9, 36, 0
12, 158640, Note_on_c, 9, 53, 100
12, 158650, Note_off_c, 9, 53, 0
12, 158880, Note_on_c, 9, 40, 100
12, 158890, Note_off_c, 9, 40, 0
12, 159120, Note_on_c, 9, 53, 100
12, 159130, Note_off_c, 9, 53, 0
12, 159360, Note_on_c, 9, 36, 100
12, 159370, Note_off_c, 9, 36, 0
12, 159600, Note_on_c, 9, 53, 100
12, 159610, Note_off_c, 9, 53, 0
12, 159840, Note_on_c, 9, 40, 100
12, 159850, Note_off_c, 9, 40, 0
12, 160080, Note_on_c, 9, 53, 100
12, 160090, Note_off_c, 9, 53, 0
12, 160320, Note_on_c, 9, 36, 100
12, 160330, Note_off_c, 9, 36, 0
12, 160560, Note_on_c, 9, 53, 100
12, 160570, Note_off_c, 9, 53, 0
12, 160800, Note_on_c, 9, 40, 100
12, 160810, Note_off_c, 9, 40, 0
12, 161040, Note_on_c, 9, 53, 100
12, 161050, Note_off_c, 9, 53, 0
12, 161280, Note_on_c, 9, 36, 100
12, 161290, Note_off_c, 9, 36, 0
12, 161520, Note_on_c, 9, 53, 100
12, 161530, Note_off_c, 9, 53, 0
12, 161760, Note_on_c, 9, 40, 100
12, 161770, Note_off_c, 9, 40, 0
12, 162000, Note_on_c, 9, 53, 100
12, 162010, Note_off_c, 9, 53, 0
12, 162240, Note_on_c, 9, 36, 100
12, 162250, Note_off_c, 9, 36, 0
12, 162480, Note_on_c, 9, 53, 100
12, 162490, Note_off_c, 9, 53, 0
12, 162720, Note_on_c, 9, 40, 100
12, 162730, Note_off_c, 9, 40, 0
12, 162960, Note_on_c, 9, 53, 100
12, 162970, Note_off_c, 9, 53, 0
12, 163200, Note_on_c, 9, 49, 100
12, 163200, Note_on_c, 9, 36, 100
12, 163210, Note_off_c, 9, 49, 0
12, 163210, Note_off_c, 9, 36, 0
12, 163440, Note_on_c, 9, 53, 100
12, 163440, Note_on_c, 9, 38, 100
12, 163450, Note_off_c, 9, 53, 0
12, 163450, Note_off_c, 9, 38, 0
12, 163680, Note_on_c, 9, 40, 100
12, 163690, Note_off_c, 9, 40, 0
12, 163920, Note_on_c, 9, 53, 100
12, 163930, Note_off_c, 9, 53, 0
12, 164160, Note_on_c, 9, 36, 100
12, 164170, Note_off_c, 9, 36, 0
12, 164400, Note_on_c, 9, 53, 100
12, 164410, Note_off_c, 9, 53, 0
12, 164640, Note_on_c, 9, 40, 100
12, 164650, Note_off_c, 9, 40, 0
12, 164880, Note_on_c, 9, 53, 100
12, 164890, Note_off_c, 9, 53, 0
12, 165120, Note_on_c, 9, 36, 100
12, 165130, Note_off_c, 9, 36, 0
12, 165360, Note_on_c, 9, 53, 100
12, 165360, Note_on_c, 9, 38, 100
12, 165370, Note_off_c, 9, 53, 0
12, 165370, Note_off_c, 9, 38, 0
12, 165600, Note_on_c, 9, 40, 100
12, 165610, Note_off_c, 9, 40, 0
12, 165840, Note_on_c, 9, 53, 100
12, 165850, Note_off_c, 9, 53, 0
12, 166080, Note_on_c, 9, 36, 100
12, 166090, Note_off_c, 9, 36, 0
12, 166320, Note_on_c, 9, 53, 100
12, 166330, Note_off_c, 9, 53, 0
12, 166560, Note_on_c, 9, 40, 100
12, 166570, Note_off_c, 9, 40, 0
12, 166800, Note_on_c, 9, 53, 100
12, 166810, Note_off_c, 9, 53, 0
12, 167040, Note_on_c, 9, 36, 100
12, 167050, Note_off_c, 9, 36, 0
12, 167280, Note_on_c, 9, 53, 100
12, 167280, Note_on_c, 9, 38, 100
12, 167290, Note_off_c, 9, 53, 0
12, 167290, Note_off_c, 9, 38, 0
12, 167520, Note_on_c, 9, 40, 100
12, 167530, Note_off_c, 9, 40, 0
12, 167760, Note_on_c, 9, 53, 100
12, 167770, Note_off_c, 9, 53, 0
12, 168000, Note_on_c, 9, 36, 100
12, 168010, Note_off_c, 9, 36, 0
12, 168240, Note_on_c, 9, 53, 100
12, 168250, Note_off_c, 9, 53, 0
12, 168480, Note_on_c, 9, 40, 100
12, 168490, Note_off_c, 9, 40, 0
12, 168720, Note_on_c, 9, 53, 100
12, 168730, Note_off_c, 9, 53, 0
12, 168960, Note_on_c, 9, 36, 100
12, 168970, Note_off_c, 9, 36, 0
12, 169200, Note_on_c, 9, 53, 100
12, 169210, Note_off_c, 9, 53, 0
12, 169440, Note_on_c, 9, 40, 100
12, 169450, Note_off_c, 9, 40, 0
12, 169680, Note_on_c, 9, 53, 100
12, 169690, Note_off_c, 9, 53, 0
12, 169920, Note_on_c, 9, 36, 100
12, 169930, Note_off_c, 9, 36, 0
12, 170160, Note_on_c, 9, 53, 100
12, 170160, Note_on_c, 9, 40, 100
12, 170170, Note_off_c, 9, 53, 0
12, 170170, Note_off_c, 9, 40, 0
12, 170640, Note_on_c, 9, 53, 100
12, 170640, Note_on_c, 9, 40, 100
12, 170650, Note_off_c, 9, 53, 0
12, 170650, Note_off_c, 9, 40, 0
12, 170760, Note_on_c, 9, 38, 100
12, 170770, Note_off_c, 9, 38, 0
12, 170880, Note_on_c, 9, 49, 100
12, 170880, Note_on_c, 9, 36, 100
12, 170890, Note_off_c, 9, 49, 0
12, 170890, Note_off_c, 9, 36, 0
12, 171120, Note_on_c, 9, 53, 100
12, 171130, Note_off_c, 9, 53, 0
12, 171360, Note_on_c, 9, 40, 100
12, 171370, Note_off_c, 9, 40, 0
12, 171600, Note_on_c, 9, 53, 100
12, 171610, Note_off_c, 9, 53, 0
12, 171840, Note_on_c, 9, 36, 100
12, 171850, Note_off_c, 9, 36, 0
12, 172080, Note_on_c, 9, 53, 100
12, 172090, Note_off_c, 9, 53, 0
12, 172320, Note_on_c, 9, 40, 100
12, 172330, Note_off_c, 9, 40, 0
12, 172560, Note_on_c, 9, 53, 100
12, 172570, Note_off_c, 9, 53, 0
12, 172800, Note_on_c, 9, 36, 100
12, 172810, Note_off_c, 9, 36, 0
12, 173040, Note_on_c, 9, 53, 100
12, 173050, Note_off_c, 9, 53, 0
12, 173280, Note_on_c, 9, 40, 100
12, 173290, Note_off_c, 9, 40, 0
12, 173520, Note_on_c, 9, 53, 100
12, 173530, Note_off_c, 9, 53, 0
12, 173760, Note_on_c, 9, 36, 100
12, 173770, Note_off_c, 9, 36, 0
12, 174000, Note_on_c, 9, 53, 100
12, 174010, Note_off_c, 9, 53, 0
12, 174240, Note_on_c, 9, 40, 100
12, 174250, Note_off_c, 9, 40, 0
12, 174480, Note_on_c, 9, 53, 100
12, 174490, Note_off_c, 9, 53, 0
12, 174720, Note_on_c, 9, 36, 100
12, 174730, Note_off_c, 9, 36, 0
12, 174960, Note_on_c, 9, 53, 100
12, 174970, Note_off_c, 9, 53, 0
12, 175200, Note_on_c, 9, 40, 100
12, 175210, Note_off_c, 9, 40, 0
12, 175440, Note_on_c, 9, 53, 100
12, 175450, Note_off_c, 9, 53, 0
12, 175680, Note_on_c, 9, 36, 100
12, 175690, Note_off_c, 9, 36, 0
12, 175920, Note_on_c, 9, 53, 100
12, 175930, Note_off_c, 9, 53, 0
12, 176160, Note_on_c, 9, 40, 100
12, 176170, Note_off_c, 9, 40, 0
12, 176400, Note_on_c, 9, 53, 100
12, 176410, Note_off_c, 9, 53, 0
12, 176640, Note_on_c, 9, 36, 100
12, 176650, Note_off_c, 9, 36, 0
12, 176880, Note_on_c, 9, 53, 100
12, 176890, Note_off_c, 9, 53, 0
12, 177120, Note_on_c, 9, 40, 100
12, 177130, Note_off_c, 9, 40, 0
12, 177360, Note_on_c, 9, 53, 100
12, 177370, Note_off_c, 9, 53, 0
12, 177600, Note_on_c, 9, 36, 100
12, 177610, Note_off_c, 9, 36, 0
12, 177840, Note_on_c, 9, 53, 100
12, 177850, Note_off_c, 9, 53, 0
12, 178080, Note_on_c, 9, 40, 100
12, 178090, Note_off_c, 9, 40, 0
12, 178320, Note_on_c, 9, 53, 100
12, 178330, Note_off_c, 9, 53, 0
12, 178560, Note_on_c, 9, 49, 100
12, 178560, Note_on_c, 9, 36, 100
12, 178570, Note_off_c, 9, 49, 0
12, 178570, Note_off_c, 9, 36, 0
12, 178800, Note_on_c, 9, 53, 100
12, 178800, Note_on_c, 9, 38, 100
12, 178810, Note_off_c, 9, 53, 0
12, 178810, Note_off_c, 9, 38, 0
12, 179040, Note_on_c, 9, 40, 100
12, 179050, Note_off_c, 9, 40, 0
12, 179280, Note_on_c, 9, 53, 100
12, 179290, Note_off_c, 9, 53, 0
12, 179520, Note_on_c, 9, 36, 100
12, 179530, Note_off_c, 9, 36, 0
12, 179760, Note_on_c, 9, 53, 100
12, 179770, Note_off_c, 9, 53, 0
12, 180000, Note_on_c, 9, 40, 100
12, 180010, Note_off_c, 9, 40, 0
12, 180240, Note_on_c, 9, 53, 100
12, 180250, Note_off_c, 9, 53, 0
12, 180480, Note_on_c, 9, 36, 100
12, 180490, Note_off_c, 9, 36, 0
12, 180720, Note_on_c, 9, 53, 100
12, 180720, Note_on_c, 9, 38, 100
12, 180730, Note_off_c, 9, 53, 0
12, 180730, Note_off_c, 9, 38, 0
12, 180960, Note_on_c, 9, 40, 100
12, 180970, Note_off_c, 9, 40, 0
12, 181200, Note_on_c, 9, 53, 100
12, 181210, Note_off_c, 9, 53, 0
12, 181440, Note_on_c, 9, 36, 100
12, 181450, Note_off_c, 9, 36, 0
12, 181680, Note_on_c, 9, 53, 100
12, 181690, Note_off_c, 9, 53, 0
12, 181920, Note_on_c, 9, 40, 100
12, 181930, Note_off_c, 9, 40, 0
12, 182160, Note_on_c, 9, 53, 100
12, 182170, Note_off_c, 9, 53, 0
12, 182400, Note_on_c, 9, 36, 100
12, 182410, Note_off_c, 9, 36, 0
12, 182640, Note_on_c, 9, 53, 100
12, 182640, Note_on_c, 9, 38, 100
12, 182650, Note_off_c, 9, 53, 0
12, 182650, Note_off_c, 9, 38, 0
12, 182880, Note_on_c, 9, 40, 100
12, 182890, Note_off_c, 9, 40, 0
12, 183120, Note_on_c, 9, 53, 100
12, 183130, Note_off_c, 9, 53, 0
12, 183360, Note_on_c, 9, 36, 100
12, 183370, Note_off_c, 9, 36, 0
12, 183600, Note_on_c, 9, 53, 100
12, 183610, Note_off_c, 9, 53, 0
12, 183840, Note_on_c, 9, 40, 100
12, 183850, Note_off_c, 9, 40, 0
12, 184080, Note_on_c, 9, 53, 100
12, 184090, Note_off_c, 9, 53, 0
12, 184320, Note_on_c, 9, 36, 100
12, 184330, Note_off_c, 9, 36, 0
12, 184560, Note_on_c, 9, 53, 100
12, 184570, Note_off_c, 9, 53, 0
12, 184800, Note_on_c, 9, 40, 100
12, 184810, Note_off_c, 9, 40, 0
12, 185040, Note_on_c, 9, 53, 100
12, 185050, Note_off_c, 9, 53, 0
12, 185280, Note_on_c, 9, 36, 100
12, 185290, Note_off_c, 9, 36, 0
12, 185520, Note_on_c, 9, 53, 100
12, 185530, Note_off_c, 9, 53, 0
12, 185760, Note_on_c, 9, 40, 100
12, 185770, Note_off_c, 9, 40, 0
12, 186000, Note_on_c, 9, 53, 100
12, 186000, Note_on_c, 9, 36, 100
12, 186010, Note_off_c, 9, 53, 0
12, 186010, Note_off_c, 9, 36, 0
12, 186120, Note_on_c, 9, 36, 100
12, 186130, Note_off_c, 9, 36, 0
12, 186240, Note_on_c, 9, 36, 100
12, 186240, Note_on_c, 9, 49, 100
12, 186250, Note_off_c, 9, 36, 0
12, 186250, Note_off_c, 9, 49, 0
12, 186250, End_track
13, 0, Start_track
13, 0, Title_t, "CH11"
13, 0, MIDI_port, 0
13, 0, Text_t, "---- System Setup --------------------------------------------------"
13, 188, Text_t, "---- CH Setup --------------------------------------------------"
13, 188, Control_c, 10, 121, 0
13, 189, Control_c, 10, 0, 0
13, 189, Control_c, 10, 32, 0
13, 189, Program_c, 10, 56
13, 192, Control_c, 10, 10, 64
13, 193, Control_c, 10, 7, 100
13, 194, Control_c, 10, 91, 0
13, 195, Control_c, 10, 11, 127
13, 196, Control_c, 10, 1, 0
13, 197, Control_c, 10, 101, 0
13, 197, Control_c, 10, 100, 1
13, 197, Control_c, 10, 6, 64
13, 197, Control_c, 10, 38, 0
13, 201, Control_c, 10, 101, 0
13, 201, Control_c, 10, 100, 2
13, 201, Control_c, 10, 6, 64
13, 204, Control_c, 10, 101, 0
13, 204, Control_c, 10, 100, 0
13, 204, Control_c, 10, 6, 12
13, 207, Pitch_bend_c, 10, 8192
13, 208, Control_c, 10, 101, 127
13, 208, Control_c, 10, 100, 127
13, 210, Text_t, "---- End of CH Setup --------------------------------------------------"
13, 54720, Note_on_c, 10, 73, 100
13, 54960, Note_off_c, 10, 73, 0
13, 54960, Note_on_c, 10, 71, 100
13, 55200, Note_off_c, 10, 71, 0
13, 55200, Note_on_c, 10, 73, 100
13, 55440, Note_off_c, 10, 73, 0
13, 55440, Note_on_c, 10, 80, 100
13, 55440, Note_on_c, 10, 75, 100
13, 57120, Note_off_c, 10, 80, 0
13, 57120, Note_off_c, 10, 75, 0
13, 57120, Note_on_c, 10, 82, 100
13, 57120, Note_on_c, 10, 78, 100
13, 57600, Note_off_c, 10, 82, 0
13, 57600, Note_off_c, 10, 78, 0
13, 57600, Note_on_c, 10, 83, 100
13, 57600, Note_on_c, 10, 80, 100
13, 58080, Note_off_c, 10, 83, 0
13, 58080, Note_off_c, 10, 80, 0
13, 58080, Note_on_c, 10, 82, 100
13, 58080, Note_on_c, 10, 78, 100
13, 58560, Note_off_c, 10, 82, 0
13, 58560, Note_off_c, 10, 78, 0
13, 58560, Note_on_c, 10, 78, 100
13, 58560, Note_on_c, 10, 73, 100
13, 59040, Note_off_c, 10, 78, 0
13, 59040, Note_off_c, 10, 73, 0
13, 59040, Note_on_c, 10, 73, 100
13, 59040, Note_on_c, 10, 70, 100
13, 59520, Note_off_c, 10, 73, 0
13, 59520, Note_off_c, 10, 70, 0
13, 59520, Note_on_c, 10, 73, 100
13, 59520, Note_on_c, 10, 70, 100
13, 59760, Note_off_c, 10, 73, 0
13, 59760, Note_off_c, 10, 70, 0
13, 59760, Note_on_c, 10, 71, 100
13, 59760, Note_on_c, 10, 68, 100
13, 60000, Note_off_c, 10, 71, 0
13, 60000, Note_off_c, 10, 68, 0
13, 60000, Note_on_c, 10, 73, 100
13, 60000, Note_on_c, 10, 70, 100
13, 60240, Note_off_c, 10, 73, 0
13, 60240, Note_off_c, 10, 70, 0
13, 60240, Note_on_c, 10, 80, 100
13, 60240, Note_on_c, 10, 75, 100
13, 63360, Note_off_c, 10, 80, 0
13, 63360, Note_off_c, 10, 75, 0
13, 63360, Note_on_c, 10, 73, 100
13, 63360, Note_on_c, 10, 70, 100
13, 63600, Note_off_c, 10, 73, 0
13, 63600, Note_off_c, 10, 70, 0
13, 63600, Note_on_c, 10, 71, 100
13, 63600, Note_on_c, 10, 68, 100
13, 63840, Note_off_c, 10, 71, 0
13, 63840, Note_off_c, 10, 68, 0
13, 63840, Note_on_c, 10, 73, 100
13, 63840, Note_on_c, 10, 70, 100
13, 64080, Note_off_c, 10, 73, 0
13, 64080, Note_off_c, 10, 70, 0
13, 64080, Note_on_c, 10, 80, 100
13, 64080, Note_on_c, 10, 75, 100
13, 64320, Note_off_c, 10, 80, 0
13, 64320, Note_off_c, 10, 75, 0
13, 64320, Note_on_c, 10, 73, 100
13, 64320, Note_on_c, 10, 70, 100
13, 65280, Note_off_c, 10, 73, 0
13, 65280, Note_off_c, 10, 70, 0
13, 65280, Note_on_c, 10, 73, 100
13, 65280, Note_on_c, 10, 70, 100
13, 65520, Note_off_c, 10, 73, 0
13, 65520, Note_off_c, 10, 70, 0
13, 65520, Note_on_c, 10, 71, 100
13, 65520, Note_on_c, 10, 68, 100
13, 65760, Note_off_c, 10, 71, 0
13, 65760, Note_off_c, 10, 68, 0
13, 65760, Note_on_c, 10, 73, 100
13, 65760, Note_on_c, 10, 70, 100
13, 66000, Note_off_c, 10, 73, 0
13, 66000, Note_off_c, 10, 70, 0
13, 66000, Note_on_c, 10, 80, 100
13, 66000, Note_on_c, 10, 75, 100
13, 66240, Note_off_c, 10, 80, 0
13, 66240, Note_off_c, 10, 75, 0
13, 66240, Note_on_c, 10, 73, 100
13, 66240, Note_on_c, 10, 70, 100
13, 67200, Note_off_c, 10, 73, 0
13, 67200, Note_off_c, 10, 70, 0
13, 67200, Note_on_c, 10, 71, 100
13, 67200, Note_on_c, 10, 68, 100
13, 67440, Note_off_c, 10, 71, 0
13, 67440, Note_off_c, 10, 68, 0
13, 67440, Note_on_c, 10, 70, 100
13, 67440, Note_on_c, 10, 66, 100
13, 67680, Note_off_c, 10, 70, 0
13, 67680, Note_off_c, 10, 66, 0
13, 67680, Note_on_c, 10, 71, 100
13, 67680, Note_on_c, 10, 68, 100
13, 67920, Note_off_c, 10, 71, 0
13, 67920, Note_off_c, 10, 68, 0
13, 67920, Note_on_c, 10, 80, 100
13, 67920, Note_on_c, 10, 75, 100
13, 68160, Note_off_c, 10, 80, 0
13, 68160, Note_off_c, 10, 75, 0
13, 68160, Note_on_c, 10, 71, 100
13, 68160, Note_on_c, 10, 68, 100
13, 70080, Note_off_c, 10, 71, 0
13, 70080, Note_off_c, 10, 68, 0
13, 70080, Note_on_c, 10, 71, 100
13, 70080, Note_on_c, 10, 68, 100
13, 70320, Note_off_c, 10, 71, 0
13, 70320, Note_off_c, 10, 68, 0
13, 70320, Note_on_c, 10, 70, 100
13, 70320, Note_on_c, 10, 66, 100
13, 70560, Note_off_c, 10, 70, 0
13, 70560, Note_off_c, 10, 66, 0
13, 70560, Note_on_c, 10, 71, 100
13, 70560, Note_on_c, 10, 68, 100
13, 70800, Note_off_c, 10, 71, 0
13, 70800, Note_off_c, 10, 68, 0
13, 70800, Note_on_c, 10, 78, 100
13, 70800, Note_on_c, 10, 73, 100
13, 71040, Note_off_c, 10, 78, 0
13, 71040, Note_off_c, 10, 73, 0
13, 71040, Note_on_c, 10, 80, 100
13, 71040, Note_on_c, 10, 75, 100
13, 72480, Note_off_c, 10, 80, 0
13, 72480, Note_off_c, 10, 75, 0
13, 72480, Note_on_c, 10, 82, 100
13, 72480, Note_on_c, 10, 78, 100
13, 72960, Note_off_c, 10, 82, 0
13, 72960, Note_off_c, 10, 78, 0
13, 72960, Note_on_c, 10, 83, 100
13, 72960, Note_on_c, 10, 80, 100
13, 73440, Note_off_c, 10, 83, 0
13, 73440, Note_off_c, 10, 80, 0
13, 73440, Note_on_c, 10, 82, 100
13, 73440, Note_on_c, 10, 78, 100
13, 73920, Note_off_c, 10, 82, 0
13, 73920, Note_off_c, 10, 78, 0
13, 73920, Note_on_c, 10, 78, 100
13, 73920, Note_on_c, 10, 73, 100
13, 74400, Note_off_c, 10, 78, 0
13, 74400, Note_off_c, 10, 73, 0
13, 74400, Note_on_c, 10, 73, 100
13, 74400, Note_on_c, 10, 70, 100
13, 74880, Note_off_c, 10, 73, 0
13, 74880, Note_off_c, 10, 70, 0
13, 74880, Note_on_c, 10, 73, 100
13, 74880, Note_on_c, 10, 70, 100
13, 75120, Note_off_c, 10, 73, 0
13, 75120, Note_off_c, 10, 70, 0
13, 75120, Note_on_c, 10, 71, 100
13, 75120, Note_on_c, 10, 68, 100
13, 75360, Note_off_c, 10, 71, 0
13, 75360, Note_off_c, 10, 68, 0
13, 75360, Note_on_c, 10, 73, 100
13, 75360, Note_on_c, 10, 70, 100
13, 75600, Note_off_c, 10, 73, 0
13, 75600, Note_off_c, 10, 70, 0
13, 75600, Note_on_c, 10, 80, 100
13, 75600, Note_on_c, 10, 75, 100
13, 78720, Note_off_c, 10, 80, 0
13, 78720, Note_off_c, 10, 75, 0
13, 78720, Note_on_c, 10, 73, 100
13, 78720, Note_on_c, 10, 70, 100
13, 78960, Note_off_c, 10, 73, 0
13, 78960, Note_off_c, 10, 70, 0
13, 78960, Note_on_c, 10, 71, 100
13, 78960, Note_on_c, 10, 68, 100
13, 79200, Note_off_c, 10, 71, 0
13, 79200, Note_off_c, 10, 68, 0
13, 79200, Note_on_c, 10, 73, 100
13, 79200, Note_on_c, 10, 70, 100
13, 79440, Note_off_c, 10, 73, 0
13, 79440, Note_off_c, 10, 70, 0
13, 79440, Note_on_c, 10, 80, 100
13, 79440, Note_on_c, 10, 75, 100
13, 79680, Note_off_c, 10, 80, 0
13, 79680, Note_off_c, 10, 75, 0
13, 79680, Note_on_c, 10, 73, 100
13, 79680, Note_on_c, 10, 70, 100
13, 80640, Note_off_c, 10, 73, 0
13, 80640, Note_off_c, 10, 70, 0
13, 80640, Note_on_c, 10, 73, 100
13, 80640, Note_on_c, 10, 70, 100
13, 80880, Note_off_c, 10, 73, 0
13, 80880, Note_off_c, 10, 70, 0
13, 80880, Note_on_c, 10, 71, 100
13, 80880, Note_on_c, 10, 68, 100
13, 81120, Note_off_c, 10, 71, 0
13, 81120, Note_off_c, 10, 68, 0
13, 81120, Note_on_c, 10, 73, 100
13, 81120, Note_on_c, 10, 70, 100
13, 81360, Note_off_c, 10, 73, 0
13, 81360, Note_off_c, 10, 70, 0
13, 81360, Note_on_c, 10, 80, 100
13, 81360, Note_on_c, 10, 75, 100
13, 81600, Note_off_c, 10, 80, 0
13, 81600, Note_off_c, 10, 75, 0
13, 81600, Note_on_c, 10, 73, 100
13, 81600, Note_on_c, 10, 70, 100
13, 82560, Note_off_c, 10, 73, 0
13, 82560, Note_off_c, 10, 70, 0
13, 82560, Note_on_c, 10, 71, 100
13, 82560, Note_on_c, 10, 68, 100
13, 82800, Note_off_c, 10, 71, 0
13, 82800, Note_off_c, 10, 68, 0
13, 82800, Note_on_c, 10, 70, 100
13, 82800, Note_on_c, 10, 66, 100
13, 83040, Note_off_c, 10, 70, 0
13, 83040, Note_off_c, 10, 66, 0
13, 83040, Note_on_c, 10, 71, 100
13, 83040, Note_on_c, 10, 68, 100
13, 83280, Note_off_c, 10, 71, 0
13, 83280, Note_off_c, 10, 68, 0
13, 83280, Note_on_c, 10, 80, 100
13, 83280, Note_on_c, 10, 75, 100
13, 84720, Note_off_c, 10, 80, 0
13, 84720, Note_off_c, 10, 75, 0
13, 84720, Note_on_c, 10, 73, 100
13, 84960, Note_off_c, 10, 73, 0
13, 84960, Note_on_c, 10, 80, 100
13, 85200, Note_off_c, 10, 80, 0
13, 85200, Note_on_c, 10, 73, 100
13, 85440, Note_off_c, 10, 73, 0
13, 85440, Note_on_c, 10, 71, 100
13, 85680, Note_off_c, 10, 71, 0
13, 85680, Note_on_c, 10, 70, 100
13, 85920, Note_off_c, 10, 70, 0
13, 85920, Note_on_c, 10, 68, 100
13, 86160, Note_off_c, 10, 68, 0
13, 86160, Note_on_c, 10, 66, 100
13, 86400, Note_off_c, 10, 66, 0
13, 123840, Note_on_c, 10, 73, 100
13, 124080, Note_off_c, 10, 73, 0
13, 124080, Note_on_c, 10, 71, 100
13, 124320, Note_off_c, 10, 71, 0
13, 124320, Note_on_c, 10, 73, 100
13, 124560, Note_off_c, 10, 73, 0
13, 124560, Note_on_c, 10, 80, 100
13, 124560, Note_on_c, 10, 75, 100
13, 126240, Note_off_c, 10, 80, 0
13, 126240, Note_off_c, 10, 75, 0
13, 126240, Note_on_c, 10, 82, 100
13, 126240, Note_on_c, 10, 78, 100
13, 126720, Note_off_c, 10, 82, 0
13, 126720, Note_off_c, 10, 78, 0
13, 126720, Note_on_c, 10, 83, 100
13, 126720, Note_on_c, 10, 80, 100
13, 127200, Note_off_c, 10, 83, 0
13, 127200, Note_off_c, 10, 80, 0
13, 127200, Note_on_c, 10, 82, 100
13, 127200, Note_on_c, 10, 78, 100
13, 127680, Note_off_c, 10, 82, 0
13, 127680, Note_off_c, 10, 78, 0
13, 127680, Note_on_c, 10, 78, 100
13, 127680, Note_on_c, 10, 73, 100
13, 128160, Note_off_c, 10, 78, 0
13, 128160, Note_off_c, 10, 73, 0
13, 128160, Note_on_c, 10, 73, 100
13, 128160, Note_on_c, 10, 70, 100
13, 128640, Note_off_c, 10, 73, 0
13, 128640, Note_off_c, 10, 70, 0
13, 128640, Note_on_c, 10, 73, 100
13, 128640, Note_on_c, 10, 70, 100
13, 128880, Note_off_c, 10, 73, 0
13, 128880, Note_off_c, 10, 70, 0
13, 128880, Note_on_c, 10, 71, 100
13, 128880, Note_on_c, 10, 68, 100
13, 129120, Note_off_c, 10, 71, 0
13, 129120, Note_off_c, 10, 68, 0
13, 129120, Note_on_c, 10, 73, 100
13, 129120, Note_on_c, 10, 70, 100
13, 129360, Note_off_c, 10, 73, 0
13, 129360, Note_off_c, 10, 70, 0
13, 129360, Note_on_c, 10, 80, 100
13, 129360, Note_on_c, 10, 75, 100
13, 132480, Note_off_c, 10, 80, 0
13, 132480, Note_off_c, 10, 75, 0
13, 132480, Note_on_c, 10, 73, 100
13, 132480, Note_on_c, 10, 70, 100
13, 132720, Note_off_c, 10, 73, 0
13, 132720, Note_off_c, 10, 70, 0
13, 132720, Note_on_c, 10, 71, 100
13, 132720, Note_on_c, 10, 68, 100
13, 132960, Note_off_c, 10, 71, 0
13, 132960, Note_off_c, 10, 68, 0
13, 132960, Note_on_c, 10, 73, 100
13, 132960, Note_on_c, 10, 70, 100
13, 133200, Note_off_c, 10, 73, 0
13, 133200, Note_off_c, 10, 70, 0
13, 133200, Note_on_c, 10, 80, 100
13, 133200, Note_on_c, 10, 75, 100
13, 133440, Note_off_c, 10, 80, 0
13, 133440, Note_off_c, 10, 75, 0
13, 133440, Note_on_c, 10, 73, 100
13, 133440, Note_on_c, 10, 70, 100
13, 134400, Note_off_c, 10, 73, 0
13, 134400, Note_off_c, 10, 70, 0
13, 134400, Note_on_c, 10, 73, 100
13, 134400, Note_on_c, 10, 70, 100
13, 134640, Note_off_c, 10, 73, 0
13, 134640, Note_off_c, 10, 70, 0
13, 134640, Note_on_c, 10, 71, 100
13, 134640, Note_on_c, 10, 68, 100
13, 134880, Note_off_c, 10, 71, 0
13, 134880, Note_off_c, 10, 68, 0
13, 134880, Note_on_c, 10, 73, 100
13, 134880, Note_on_c, 10, 70, 100
13, 135120, Note_off_c, 10, 73, 0
13, 135120, Note_off_c, 10, 70, 0
13, 135120, Note_on_c, 10, 80, 100
13, 135120, Note_on_c, 10, 75, 100
13, 135360, Note_off_c, 10, 80, 0
13, 135360, Note_off_c, 10, 75, 0
13, 135360, Note_on_c, 10, 73, 100
13, 135360, Note_on_c, 10, 70, 100
13, 136320, Note_off_c, 10, 73, 0
13, 136320, Note_off_c, 10, 70, 0
13, 136320, Note_on_c, 10, 71, 100
13, 136320, Note_on_c, 10, 68, 100
13, 136560, Note_off_c, 10, 71, 0
13, 136560, Note_off_c, 10, 68, 0
13, 136560, Note_on_c, 10, 70, 100
13, 136560, Note_on_c, 10, 66, 100
13, 136800, Note_off_c, 10, 70, 0
13, 136800, Note_off_c, 10, 66, 0
13, 136800, Note_on_c, 10, 71, 100
13, 136800, Note_on_c, 10, 68, 100
13, 137040, Note_off_c, 10, 71, 0
13, 137040, Note_off_c, 10, 68, 0
13, 137040, Note_on_c, 10, 80, 100
13, 137040, Note_on_c, 10, 75, 100
13, 137280, Note_off_c, 10, 80, 0
13, 137280, Note_off_c, 10, 75, 0
13, 137280, Note_on_c, 10, 71, 100
13, 137280, Note_on_c, 10, 68, 100
13, 139200, Note_off_c, 10, 71, 0
13, 139200, Note_off_c, 10, 68, 0
13, 139200, Note_on_c, 10, 71, 100
13, 139200, Note_on_c, 10, 68, 100
13, 139440, Note_off_c, 10, 71, 0
13, 139440, Note_off_c, 10, 68, 0
13, 139440, Note_on_c, 10, 70, 100
13, 139440, Note_on_c, 10, 66, 100
13, 139680, Note_off_c, 10, 70, 0
13, 139680, Note_off_c, 10, 66, 0
13, 139680, Note_on_c, 10, 71, 100
13, 139680, Note_on_c, 10, 68, 100
13, 139920, Note_off_c, 10, 71, 0
13, 139920, Note_off_c, 10, 68, 0
13, 139920, Note_on_c, 10, 78, 100
13, 139920, Note_on_c, 10, 73, 100
13, 140160, Note_off_c, 10, 78, 0
13, 140160, Note_off_c, 10, 73, 0
13, 140160, Note_on_c, 10, 80, 100
13, 140160, Note_on_c, 10, 75, 100
13, 141600, Note_off_c, 10, 80, 0
13, 141600, Note_off_c, 10, 75, 0
13, 141600, Note_on_c, 10, 82, 100
13, 141600, Note_on_c, 10, 78, 100
13, 142080, Note_off_c, 10, 82, 0
13, 142080, Note_off_c, 10, 78, 0
13, 142080, Note_on_c, 10, 83, 100
13, 142080, Note_on_c, 10, 80, 100
13, 142560, Note_off_c, 10, 83, 0
13, 142560, Note_off_c, 10, 80, 0
13, 142560, Note_on_c, 10, 82, 100
13, 142560, Note_on_c, 10, 78, 100
13, 143040, Note_off_c, 10, 82, 0
13, 143040, Note_off_c, 10, 78, 0
13, 143040, Note_on_c, 10, 78, 100
13, 143040, Note_on_c, 10, 73, 100
13, 143520, Note_off_c, 10, 78, 0
13, 143520, Note_off_c, 10, 73, 0
13, 143520, Note_on_c, 10, 73, 100
13, 143520, Note_on_c, 10, 70, 100
13, 144000, Note_off_c, 10, 73, 0
13, 144000, Note_off_c, 10, 70, 0
13, 144000, Note_on_c, 10, 73, 100
13, 144000, Note_on_c, 10, 70, 100
13, 144240, Note_off_c, 10, 73, 0
13, 144240, Note_off_c, 10, 70, 0
13, 144240, Note_on_c, 10, 71, 100
13, 144240, Note_on_c, 10, 68, 100
13, 144480, Note_off_c, 10, 71, 0
13, 144480, Note_off_c, 10, 68, 0
13, 144480, Note_on_c, 10, 73, 100
13, 144480, Note_on_c, 10, 70, 100
13, 144720, Note_off_c, 10, 73, 0
13, 144720, Note_off_c, 10, 70, 0
13, 144720, Note_on_c, 10, 80, 100
13, 144720, Note_on_c, 10, 75, 100
13, 147840, Note_off_c, 10, 80, 0
13, 147840, Note_off_c, 10, 75, 0
13, 147840, Note_on_c, 10, 73, 100
13, 147840, Note_on_c, 10, 70, 100
13, 148080, Note_off_c, 10, 73, 0
13, 148080, Note_off_c, 10, 70, 0
13, 148080, Note_on_c, 10, 71, 100
13, 148080, Note_on_c, 10, 68, 100
13, 148320, Note_off_c, 10, 71, 0
13, 148320, Note_off_c, 10, 68, 0
13, 148320, Note_on_c, 10, 73, 100
13, 148320, Note_on_c, 10, 70, 100
13, 148560, Note_off_c, 10, 73, 0
13, 148560, Note_off_c, 10, 70, 0
13, 148560, Note_on_c, 10, 80, 100
13, 148560, Note_on_c, 10, 75, 100
13, 148800, Note_off_c, 10, 80, 0
13, 148800, Note_off_c, 10, 75, 0
13, 148800, Note_on_c, 10, 73, 100
13, 148800, Note_on_c, 10, 70, 100
13, 149760, Note_off_c, 10, 73, 0
13, 149760, Note_off_c, 10, 70, 0
13, 149760, Note_on_c, 10, 73, 100
13, 149760, Note_on_c, 10, 70, 100
13, 150000, Note_off_c, 10, 73, 0
13, 150000, Note_off_c, 10, 70, 0
13, 150000, Note_on_c, 10, 71, 100
13, 150000, Note_on_c, 10, 68, 100
13, 150240, Note_off_c, 10, 71, 0
13, 150240, Note_off_c, 10, 68, 0
13, 150240, Note_on_c, 10, 73, 100
13, 150240, Note_on_c, 10, 70, 100
13, 150480, Note_off_c, 10, 73, 0
13, 150480, Note_off_c, 10, 70, 0
13, 150480, Note_on_c, 10, 80, 100
13, 150480, Note_on_c, 10, 75, 100
13, 150720, Note_off_c, 10, 80, 0
13, 150720, Note_off_c, 10, 75, 0
13, 150720, Note_on_c, 10, 73, 100
13, 150720, Note_on_c, 10, 70, 100
13, 151680, Note_off_c, 10, 73, 0
13, 151680, Note_off_c, 10, 70, 0
13, 151680, Note_on_c, 10, 71, 100
13, 151680, Note_on_c, 10, 68, 100
13, 151920, Note_off_c, 10, 71, 0
13, 151920, Note_off_c, 10, 68, 0
13, 151920, Note_on_c, 10, 70, 100
13, 151920, Note_on_c, 10, 66, 100
13, 152160, Note_off_c, 10, 70, 0
13, 152160, Note_off_c, 10, 66, 0
13, 152160, Note_on_c, 10, 71, 100
13, 152160, Note_on_c, 10, 68, 100
13, 152400, Note_off_c, 10, 71, 0
13, 152400, Note_off_c, 10, 68, 0
13, 152400, Note_on_c, 10, 80, 100
13, 152400, Note_on_c, 10, 75, 100
13, 153840, Note_off_c, 10, 80, 0
13, 153840, Note_off_c, 10, 75, 0
13, 153840, Note_on_c, 10, 73, 100
13, 154080, Note_off_c, 10, 73, 0
13, 154080, Note_on_c, 10, 80, 100
13, 154320, Note_off_c, 10, 80, 0
13, 154320, Note_on_c, 10, 73, 100
13, 154560, Note_off_c, 10, 73, 0
13, 154560, Note_on_c, 10, 75, 100
13, 154800, Note_off_c, 10, 75, 0
13, 154800, Note_on_c, 10, 73, 100
13, 155040, Note_off_c, 10, 73, 0
13, 155040, Note_on_c, 10, 75, 100
13, 155280, Note_off_c, 10, 75, 0
13, 155280, Note_on_c, 10, 82, 100
13, 155280, Note_on_c, 10, 77, 100
13, 156960, Note_off_c, 10, 82, 0
13, 156960, Note_off_c, 10, 77, 0
13, 156960, Note_on_c, 10, 84, 100
13, 156960, Note_on_c, 10, 80, 100
13, 157440, Note_off_c, 10, 84, 0
13, 157440, Note_off_c, 10, 80, 0
13, 157440, Note_on_c, 10, 85, 100
13, 157440, Note_on_c, 10, 82, 100
13, 157920, Note_off_c, 10, 85, 0
13, 157920, Note_off_c, 10, 82, 0
13, 157920, Note_on_c, 10, 84, 100
13, 157920, Note_on_c, 10, 80, 100
13, 158400, Note_off_c, 10, 84, 0
13, 158400, Note_off_c, 10, 80, 0
13, 158400, Note_on_c, 10, 80, 100
13, 158400, Note_on_c, 10, 75, 100
13, 158880, Note_off_c, 10, 80, 0
13, 158880, Note_off_c, 10, 75, 0
13, 158880, Note_on_c, 10, 75, 100
13, 158880, Note_on_c, 10, 72, 100
13, 159360, Note_off_c, 10, 75, 0
13, 159360, Note_off_c, 10, 72, 0
13, 159360, Note_on_c, 10, 75, 100
13, 159360, Note_on_c, 10, 72, 100
13, 159600, Note_off_c, 10, 75, 0
13, 159600, Note_off_c, 10, 72, 0
13, 159600, Note_on_c, 10, 73, 100
13, 159600, Note_on_c, 10, 70, 100
13, 159840, Note_off_c, 10, 73, 0
13, 159840, Note_off_c, 10, 70, 0
13, 159840, Note_on_c, 10, 75, 100
13, 159840, Note_on_c, 10, 72, 100
13, 160080, Note_off_c, 10, 75, 0
13, 160080, Note_off_c, 10, 72, 0
13, 160080, Note_on_c, 10, 82, 100
13, 160080, Note_on_c, 10, 77, 100
13, 163200, Note_off_c, 10, 82, 0
13, 163200, Note_off_c, 10, 77, 0
13, 163200, Note_on_c, 10, 75, 100
13, 163200, Note_on_c, 10, 72, 100
13, 163440, Note_off_c, 10, 75, 0
13, 163440, Note_off_c, 10, 72, 0
13, 163440, Note_on_c, 10, 73, 100
13, 163440, Note_on_c, 10, 70, 100
13, 163680, Note_off_c, 10, 73, 0
13, 163680, Note_off_c, 10, 70, 0
13, 163680, Note_on_c, 10, 75, 100
13, 163680, Note_on_c, 10, 72, 100
13, 163920, Note_off_c, 10, 75, 0
13, 163920, Note_off_c, 10, 72, 0
13, 163920, Note_on_c, 10, 82, 100
13, 163920, Note_on_c, 10, 77, 100
13, 164160, Note_off_c, 10, 82, 0
13, 164160, Note_off_c, 10, 77, 0
13, 164160, Note_on_c, 10, 75, 100
13, 164160, Note_on_c, 10, 72, 100
13, 165120, Note_off_c, 10, 75, 0
13, 165120, Note_off_c, 10, 72, 0
13, 165120, Note_on_c, 10, 75, 100
13, 165120, Note_on_c, 10, 72, 100
13, 165360, Note_off_c, 10, 75, 0
13, 165360, Note_off_c, 10, 72, 0
13, 165360, Note_on_c, 10, 73, 100
13, 165360, Note_on_c, 10, 70, 100
13, 165600, Note_off_c, 10, 73, 0
13, 165600, Note_off_c, 10, 70, 0
13, 165600, Note_on_c, 10, 75, 100
13, 165600, Note_on_c, 10, 72, 100
13, 165840, Note_off_c, 10, 75, 0
13, 165840, Note_off_c, 10, 72, 0
13, 165840, Note_on_c, 10, 82, 100
13, 165840, Note_on_c, 10, 77, 100
13, 166080, Note_off_c, 10, 82, 0
13, 166080, Note_off_c, 10, 77, 0
13, 166080, Note_on_c, 10, 75, 100
13, 166080, Note_on_c, 10, 72, 100
13, 167040, Note_off_c, 10, 75, 0
13, 167040, Note_off_c, 10, 72, 0
13, 167040, Note_on_c, 10, 73, 100
13, 167040, Note_on_c, 10, 70, 100
13, 167280, Note_off_c, 10, 73, 0
13, 167280, Note_off_c, 10, 70, 0
13, 167280, Note_on_c, 10, 72, 100
13, 167280, Note_on_c, 10, 68, 100
13, 167520, Note_off_c, 10, 72, 0
13, 167520, Note_off_c, 10, 68, 0
13, 167520, Note_on_c, 10, 73, 100
13, 167520, Note_on_c, 10, 70, 100
13, 167760, Note_off_c, 10, 73, 0
13, 167760, Note_off_c, 10, 70, 0
13, 167760, Note_on_c, 10, 82, 100
13, 167760, Note_on_c, 10, 77, 100
13, 168000, Note_off_c, 10, 82, 0
13, 168000, Note_off_c, 10, 77, 0
13, 168000, Note_on_c, 10, 73, 100
13, 168000, Note_on_c, 10, 70, 100
13, 169920, Note_off_c, 10, 73, 0
13, 169920, Note_off_c, 10, 70, 0
13, 169920, Note_on_c, 10, 73, 100
13, 169920, Note_on_c, 10, 70, 100
13, 170160, Note_off_c, 10, 73, 0
13, 170160, Note_off_c, 10, 70, 0
13, 170160, Note_on_c, 10, 72, 100
13, 170160, Note_on_c, 10, 68, 100
13, 170400, Note_off_c, 10, 72, 0
13, 170400, Note_off_c, 10, 68, 0
13, 170400, Note_on_c, 10, 73, 100
13, 170400, Note_on_c, 10, 70, 100
13, 170640, Note_off_c, 10, 73, 0
13, 170640, Note_off_c, 10, 70, 0
13, 170640, Note_on_c, 10, 80, 100
13, 170640, Note_on_c, 10, 75, 100
13, 170880, Note_off_c, 10, 80, 0
13, 170880, Note_off_c, 10, 75, 0
13, 170880, Note_on_c, 10, 82, 100
13, 170880, Note_on_c, 10, 77, 100
13, 172320, Note_off_c, 10, 82, 0
13, 172320, Note_off_c, 10, 77, 0
13, 172320, Note_on_c, 10, 84, 100
13, 172320, Note_on_c, 10, 80, 100
13, 172800, Note_off_c, 10, 84, 0
13, 172800, Note_off_c, 10, 80, 0
13, 172800, Note_on_c, 10, 85, 100
13, 172800, Note_on_c, 10, 82, 100
13, 173280, Note_off_c, 10, 85, 0
13, 173280, Note_off_c, 10, 82, 0
13, 173280, Note_on_c, 10, 84, 100
13, 173280, Note_on_c, 10, 80, 100
13, 173760, Note_off_c, 10, 84, 0
13, 173760, Note_off_c, 10, 80, 0
13, 173760, Note_on_c, 10, 80, 100
13, 173760, Note_on_c, 10, 75, 100
13, 174240, Note_off_c, 10, 80, 0
13, 174240, Note_off_c, 10, 75, 0
13, 174240, Note_on_c, 10, 75, 100
13, 174240, Note_on_c, 10, 72, 100
13, 174720, Note_off_c, 10, 75, 0
13, 174720, Note_off_c, 10, 72, 0
13, 174720, Note_on_c, 10, 75, 100
13, 174720, Note_on_c, 10, 72, 100
13, 174960, Note_off_c, 10, 75, 0
13, 174960, Note_off_c, 10, 72, 0
13, 174960, Note_on_c, 10, 73, 100
13, 174960, Note_on_c, 10, 70, 100
13, 175200, Note_off_c, 10, 73, 0
13, 175200, Note_off_c, 10, 70, 0
13, 175200, Note_on_c, 10, 75, 100
13, 175200, Note_on_c, 10, 72, 100
13, 175440, Note_off_c, 10, 75, 0
13, 175440, Note_off_c, 10, 72, 0
13, 175440, Note_on_c, 10, 82, 100
13, 175440, Note_on_c, 10, 77, 100
13, 178560, Note_off_c, 10, 82, 0
13, 178560, Note_off_c, 10, 77, 0
13, 178560, Note_on_c, 10, 75, 100
13, 178560, Note_on_c, 10, 72, 100
13, 178800, Note_off_c, 10, 75, 0
13, 178800, Note_off_c, 10, 72, 0
13, 178800, Note_on_c, 10, 73, 100
13, 178800, Note_on_c, 10, 70, 100
13, 179040, Note_off_c, 10, 73, 0
13, 179040, Note_off_c, 10, 70, 0
13, 179040, Note_on_c, 10, 75, 100
13, 179040, Note_on_c, 10, 72, 100
13, 179280, Note_off_c, 10, 75, 0
13, 179280, Note_off_c, 10, 72, 0
13, 179280, Note_on_c, 10, 82, 100
13, 179280, Note_on_c, 10, 77, 100
13, 179520, Note_off_c, 10, 82, 0
13, 179520, Note_off_c, 10, 77, 0
13, 179520, Note_on_c, 10, 75, 100
13, 179520, Note_on_c, 10, 72, 100
13, 180480, Note_off_c, 10, 75, 0
13, 180480, Note_off_c, 10, 72, 0
13, 180480, Note_on_c, 10, 75, 100
13, 180480, Note_on_c, 10, 72, 100
13, 180720, Note_off_c, 10, 75, 0
13, 180720, Note_off_c, 10, 72, 0
13, 180720, Note_on_c, 10, 73, 100
13, 180720, Note_on_c, 10, 70, 100
13, 180960, Note_off_c, 10, 73, 0
13, 180960, Note_off_c, 10, 70, 0
13, 180960, Note_on_c, 10, 75, 100
13, 180960, Note_on_c, 10, 72, 100
13, 181200, Note_off_c, 10, 75, 0
13, 181200, Note_off_c, 10, 72, 0
13, 181200, Note_on_c, 10, 82, 100
13, 181200, Note_on_c, 10, 77, 100
13, 181440, Note_off_c, 10, 82, 0
13, 181440, Note_off_c, 10, 77, 0
13, 181440, Note_on_c, 10, 75, 100
13, 181440, Note_on_c, 10, 72, 100
13, 182400, Note_off_c, 10, 75, 0
13, 182400, Note_off_c, 10, 72, 0
13, 182400, Note_on_c, 10, 73, 100
13, 182400, Note_on_c, 10, 70, 100
13, 182640, Note_off_c, 10, 73, 0
13, 182640, Note_off_c, 10, 70, 0
13, 182640, Note_on_c, 10, 72, 100
13, 182640, Note_on_c, 10, 68, 100
13, 182880, Note_off_c, 10, 72, 0
13, 182880, Note_off_c, 10, 68, 0
13, 182880, Note_on_c, 10, 73, 100
13, 182880, Note_on_c, 10, 70, 100
13, 183120, Note_off_c, 10, 73, 0
13, 183120, Note_off_c, 10, 70, 0
13, 183120, Note_on_c, 10, 82, 100
13, 183120, Note_on_c, 10, 77, 100
13, 184560, Note_off_c, 10, 82, 0
13, 184560, Note_off_c, 10, 77, 0
13, 184560, Note_on_c, 10, 75, 100
13, 184800, Note_off_c, 10, 75, 0
13, 184800, Note_on_c, 10, 82, 100
13, 185040, Note_off_c, 10, 82, 0
13, 185040, Note_on_c, 10, 75, 100
13, 185280, Note_off_c, 10, 75, 0
13, 185280, Note_on_c, 10, 73, 100
13, 185520, Note_off_c, 10, 73, 0
13, 185520, Note_on_c, 10, 72, 100
13, 185760, Note_off_c, 10, 72, 0
13, 185760, Note_on_c, 10, 70, 100
13, 186000, Note_off_c, 10, 70, 0
13, 186000, Note_on_c, 10, 68, 100
13, 186240, Note_off_c, 10, 68, 0
13, 186240, Note_on_c, 10, 70, 100
13, 188160, Note_off_c, 10, 70, 0
13, 188160, End_track
14, 0, Start_track
14, 0, Title_t, "CH12"
14, 0, MIDI_port, 0
14, 0, Text_t, "---- System Setup --------------------------------------------------"
14, 188, Text_t, "---- CH Setup --------------------------------------------------"
14, 188, Control_c, 11, 121, 0
14, 189, Control_c, 11, 0, 0
14, 189, Control_c, 11, 32, 0
14, 189, Program_c, 11, 48
14, 192, Control_c, 11, 10, 64
14, 193, Control_c, 11, 7, 100
14, 194, Control_c, 11, 91, 0
14, 195, Control_c, 11, 11, 127
14, 196, Control_c, 11, 1, 0
14, 197, Control_c, 11, 101, 0
14, 197, Control_c, 11, 100, 1
14, 197, Control_c, 11, 6, 64
14, 197, Control_c, 11, 38, 0
14, 201, Control_c, 11, 101, 0
14, 201, Control_c, 11, 100, 2
14, 201, Control_c, 11, 6, 64
14, 204, Control_c, 11, 101, 0
14, 204, Control_c, 11, 100, 0
14, 204, Control_c, 11, 6, 12
14, 207, Pitch_bend_c, 11, 8192
14, 208, Control_c, 11, 101, 127
14, 208, Control_c, 11, 100, 127
14, 210, Text_t, "---- End of CH Setup --------------------------------------------------"
14, 24960, Note_on_c, 11, 68, 64
14, 24960, Note_on_c, 11, 64, 64
14, 24960, Note_on_c, 11, 80, 64
14, 24960, Note_on_c, 11, 76, 64
14, 27840, Note_off_c, 11, 68, 0
14, 27840, Note_off_c, 11, 64, 0
14, 27840, Note_off_c, 11, 80, 0
14, 27840, Note_off_c, 11, 76, 0
14, 27840, Note_on_c, 11, 66, 64
14, 27840, Note_on_c, 11, 70, 64
14, 27840, Note_on_c, 11, 78, 64
14, 27840, Note_on_c, 11, 82, 64
14, 28800, Note_off_c, 11, 66, 0
14, 28800, Note_off_c, 11, 70, 0
14, 28800, Note_off_c, 11, 78, 0
14, 28800, Note_off_c, 11, 82, 0
14, 28800, Note_on_c, 11, 71, 64
14, 28800, Note_on_c, 11, 63, 64
14, 28800, Note_on_c, 11, 83, 64
14, 28800, Note_on_c, 11, 75, 64
14, 32640, Note_off_c, 11, 71, 0
14, 32640, Note_off_c, 11, 63, 0
14, 32640, Note_off_c, 11, 83, 0
14, 32640, Note_off_c, 11, 75, 0
14, 32640, Note_on_c, 11, 68, 64
14, 32640, Note_on_c, 11, 64, 64
14, 32640, Note_on_c, 11, 80, 64
14, 32640, Note_on_c, 11, 76, 64
14, 35520, Note_off_c, 11, 68, 0
14, 35520, Note_off_c, 11, 64, 0
14, 35520, Note_off_c, 11, 80, 0
14, 35520, Note_off_c, 11, 76, 0
14, 35520, Note_on_c, 11, 66, 64
14, 35520, Note_on_c, 11, 70, 64
14, 35520, Note_on_c, 11, 78, 64
14, 35520, Note_on_c, 11, 82, 64
14, 36480, Note_off_c, 11, 66, 0
14, 36480, Note_off_c, 11, 70, 0
14, 36480, Note_off_c, 11, 78, 0
14, 36480, Note_off_c, 11, 82, 0
14, 36480, Note_on_c, 11, 71, 64
14, 36480, Note_on_c, 11, 63, 64
14, 36480, Note_on_c, 11, 83, 64
14, 36480, Note_on_c, 11, 75, 64
14, 40320, Note_off_c, 11, 71, 0
14, 40320, Note_off_c, 11, 63, 0
14, 40320, Note_off_c, 11, 83, 0
14, 40320, Note_off_c, 11, 75, 0
14, 51790, Control_c, 11, 7, 13
14, 51810, Control_c, 11, 7, 15
14, 51840, Note_on_c, 11, 59, 64
14, 51840, Note_on_c, 11, 71, 64
14, 51840, Note_on_c, 11, 66, 64
14, 51840, Note_on_c, 11, 54, 64
14, 51858, Control_c, 11, 7, 17
14, 51906, Control_c, 11, 7, 18
14, 51954, Control_c, 11, 7, 19
14, 52002, Control_c, 11, 7, 21
14, 52050, Control_c, 11, 7, 22
14, 52098, Control_c, 11, 7, 23
14, 52146, Control_c, 11, 7, 25
14, 52194, Control_c, 11, 7, 26
14, 52242, Control_c, 11, 7, 27
14, 52290, Control_c, 11, 7, 29
14, 52338, Control_c, 11, 7, 30
14, 52386, Control_c, 11, 7, 31
14, 52434, Control_c, 11, 7, 33
14, 52482, Control_c, 11, 7, 34
14, 52530, Control_c, 11, 7, 35
14, 52578, Control_c, 11, 7, 37
14, 52626, Control_c, 11, 7, 38
14, 52674, Control_c, 11, 7, 39
14, 52722, Control_c, 11, 7, 40
14, 52770, Control_c, 11, 7, 42
14, 52818, Control_c, 11, 7, 43
14, 52866, Control_c, 11, 7, 44
14, 52914, Control_c, 11, 7, 46
14, 52962, Control_c, 11, 7, 47
14, 53010, Control_c, 11, 7, 48
14, 53058, Control_c, 11, 7, 50
14, 53106, Control_c, 11, 7, 51
14, 53154, Control_c, 11, 7, 52
14, 53202, Control_c, 11, 7, 54
14, 53250, Control_c, 11, 7, 55
14, 53298, Control_c, 11, 7, 56
14, 53346, Control_c, 11, 7, 58
14, 53394, Control_c, 11, 7, 59
14, 53442, Control_c, 11, 7, 60
14, 53490, Control_c, 11, 7, 62
14, 53538, Control_c, 11, 7, 63
14, 53586, Control_c, 11, 7, 64
14, 53634, Control_c, 11, 7, 66
14, 53682, Control_c, 11, 7, 67
14, 53730, Control_c, 11, 7, 68
14, 53778, Control_c, 11, 7, 70
14, 53826, Control_c, 11, 7, 71
14, 53874, Control_c, 11, 7, 72
14, 53922, Control_c, 11, 7, 74
14, 53970, Control_c, 11, 7, 75
14, 54018, Control_c, 11, 7, 76
14, 54066, Control_c, 11, 7, 78
14, 54114, Control_c, 11, 7, 79
14, 54162, Control_c, 11, 7, 80
14, 54210, Control_c, 11, 7, 82
14, 54258, Control_c, 11, 7, 83
14, 54306, Control_c, 11, 7, 84
14, 54354, Control_c, 11, 7, 86
14, 54402, Control_c, 11, 7, 87
14, 54450, Control_c, 11, 7, 88
14, 54498, Control_c, 11, 7, 90
14, 54546, Control_c, 11, 7, 91
14, 54594, Control_c, 11, 7, 92
14, 54642, Control_c, 11, 7, 94
14, 54690, Control_c, 11, 7, 95
14, 54700, Control_c, 11, 7, 95
14, 54720, Note_off_c, 11, 59, 0
14, 54720, Note_off_c, 11, 71, 0
14, 54720, Note_off_c, 11, 66, 0
14, 54720, Note_off_c, 11, 54, 0
14, 54720, Note_on_c, 11, 54, 64
14, 54720, Note_on_c, 11, 61, 64
14, 54720, Note_on_c, 11, 70, 64
14, 54720, Note_on_c, 11, 78, 64
14, 55680, Note_off_c, 11, 54, 0
14, 55680, Note_off_c, 11, 61, 0
14, 55680, Note_off_c, 11, 70, 0
14, 55680, Note_off_c, 11, 78, 0
14, 55680, Note_on_c, 11, 59, 64
14, 55680, Note_on_c, 11, 71, 64
14, 55680, Note_on_c, 11, 64, 64
14, 55680, Note_on_c, 11, 75, 64
14, 57600, Note_off_c, 11, 59, 0
14, 57600, Note_off_c, 11, 71, 0
14, 57600, Note_off_c, 11, 64, 0
14, 57600, Note_off_c, 11, 75, 0
14, 57600, Note_on_c, 11, 61, 64
14, 57600, Note_on_c, 11, 73, 64
14, 57600, Note_on_c, 11, 66, 64
14, 57600, Note_on_c, 11, 78, 64
14, 59520, Note_off_c, 11, 61, 0
14, 59520, Note_off_c, 11, 73, 0
14, 59520, Note_off_c, 11, 66, 0
14, 59520, Note_off_c, 11, 78, 0
14, 59520, Note_on_c, 11, 63, 64
14, 59520, Note_on_c, 11, 75, 64
14, 59520, Note_on_c, 11, 68, 64
14, 59520, Note_on_c, 11, 80, 64
14, 59520, Note_on_c, 11, 56, 64
14, 63360, Note_off_c, 11, 63, 0
14, 63360, Note_off_c, 11, 75, 0
14, 63360, Note_off_c, 11, 68, 0
14, 63360, Note_off_c, 11, 80, 0
14, 63360, Note_off_c, 11, 56, 0
14, 63360, Note_on_c, 11, 59, 64
14, 63360, Note_on_c, 11, 71, 64
14, 63360, Note_on_c, 11, 64, 64
14, 63360, Note_on_c, 11, 75, 64
14, 65280, Note_off_c, 11, 59, 0
14, 65280, Note_off_c, 11, 71, 0
14, 65280, Note_off_c, 11, 64, 0
14, 65280, Note_off_c, 11, 75, 0
14, 65280, Note_on_c, 11, 61, 64
14, 65280, Note_on_c, 11, 73, 64
14, 65280, Note_on_c, 11, 66, 64
14, 65280, Note_on_c, 11, 78, 64
14, 67200, Note_off_c, 11, 61, 0
14, 67200, Note_off_c, 11, 73, 0
14, 67200, Note_off_c, 11, 66, 0
14, 67200, Note_off_c, 11, 78, 0
14, 67200, Note_on_c, 11, 63, 64
14, 67200, Note_on_c, 11, 75, 64
14, 67200, Note_on_c, 11, 68, 64
14, 67200, Note_on_c, 11, 80, 64
14, 67200, Note_on_c, 11, 56, 64
14, 71040, Note_off_c, 11, 63, 0
14, 71040, Note_off_c, 11, 75, 0
14, 71040, Note_off_c, 11, 68, 0
14, 71040, Note_off_c, 11, 80, 0
14, 71040, Note_off_c, 11, 56, 0
14, 71040, Note_on_c, 11, 59, 64
14, 71040, Note_on_c, 11, 71, 64
14, 71040, Note_on_c, 11, 64, 64
14, 71040, Note_on_c, 11, 75, 64
14, 72960, Note_off_c, 11, 59, 0
14, 72960, Note_off_c, 11, 71, 0
14, 72960, Note_off_c, 11, 64, 0
14, 72960, Note_off_c, 11, 75, 0
14, 72960, Note_on_c, 11, 61, 64
14, 72960, Note_on_c, 11, 73, 64
14, 72960, Note_on_c, 11, 66, 64
14, 72960, Note_on_c, 11, 78, 64
14, 74880, Note_off_c, 11, 61, 0
14, 74880, Note_off_c, 11, 73, 0
14, 74880, Note_off_c, 11, 66, 0
14, 74880, Note_off_c, 11, 78, 0
14, 74880, Note_on_c, 11, 63, 64
14, 74880, Note_on_c, 11, 75, 64
14, 74880, Note_on_c, 11, 68, 64
14, 74880, Note_on_c, 11, 80, 64
14, 74880, Note_on_c, 11, 56, 64
14, 78720, Note_off_c, 11, 63, 0
14, 78720, Note_off_c, 11, 75, 0
14, 78720, Note_off_c, 11, 68, 0
14, 78720, Note_off_c, 11, 80, 0
14, 78720, Note_off_c, 11, 56, 0
14, 78720, Note_on_c, 11, 59, 64
14, 78720, Note_on_c, 11, 71, 64
14, 78720, Note_on_c, 11, 64, 64
14, 78720, Note_on_c, 11, 75, 64
14, 80640, Note_off_c, 11, 59, 0
14, 80640, Note_off_c, 11, 71, 0
14, 80640, Note_off_c, 11, 64, 0
14, 80640, Note_off_c, 11, 75, 0
14, 80640, Note_on_c, 11, 61, 64
14, 80640, Note_on_c, 11, 73, 64
14, 80640, Note_on_c, 11, 66, 64
14, 80640, Note_on_c, 11, 78, 64
14, 82560, Note_off_c, 11, 61, 0
14, 82560, Note_off_c, 11, 73, 0
14, 82560, Note_off_c, 11, 66, 0
14, 82560, Note_off_c, 11, 78, 0
14, 82560, Note_on_c, 11, 63, 64
14, 82560, Note_on_c, 11, 75, 64
14, 82560, Note_on_c, 11, 68, 64
14, 82560, Note_on_c, 11, 80, 64
14, 82560, Note_on_c, 11, 56, 64
14, 86400, Note_off_c, 11, 63, 0
14, 86400, Note_off_c, 11, 75, 0
14, 86400, Note_off_c, 11, 68, 0
14, 86400, Note_off_c, 11, 80, 0
14, 86400, Note_off_c, 11, 56, 0
14, 120960, Note_on_c, 11, 59, 64
14, 120960, Note_on_c, 11, 71, 64
14, 120960, Note_on_c, 11, 66, 64
14, 120960, Note_on_c, 11, 54, 64
14, 123840, Note_off_c, 11, 59, 0
14, 123840, Note_off_c, 11, 71, 0
14, 123840, Note_off_c, 11, 66, 0
14, 123840, Note_off_c, 11, 54, 0
14, 123840, Note_on_c, 11, 54, 64
14, 123840, Note_on_c, 11, 61, 64
14, 123840, Note_on_c, 11, 70, 64
14, 123840, Note_on_c, 11, 78, 64
14, 124800, Note_off_c, 11, 54, 0
14, 124800, Note_off_c, 11, 61, 0
14, 124800, Note_off_c, 11, 70, 0
14, 124800, Note_off_c, 11, 78, 0
14, 124800, Note_on_c, 11, 59, 64
14, 124800, Note_on_c, 11, 71, 64
14, 124800, Note_on_c, 11, 64, 64
14, 124800, Note_on_c, 11, 75, 64
14, 126720, Note_off_c, 11, 59, 0
14, 126720, Note_off_c, 11, 71, 0
14, 126720, Note_off_c, 11, 64, 0
14, 126720, Note_off_c, 11, 75, 0
14, 126720, Note_on_c, 11, 61, 64
14, 126720, Note_on_c, 11, 73, 64
14, 126720, Note_on_c, 11, 66, 64
14, 126720, Note_on_c, 11, 78, 64
14, 128640, Note_off_c, 11, 61, 0
14, 128640, Note_off_c, 11, 73, 0
14, 128640, Note_off_c, 11, 66, 0
14, 128640, Note_off_c, 11, 78, 0
14, 128640, Note_on_c, 11, 63, 64
14, 128640, Note_on_c, 11, 75, 64
14, 128640, Note_on_c, 11, 68, 64
14, 128640, Note_on_c, 11, 80, 64
14, 128640, Note_on_c, 11, 56, 64
14, 132480, Note_off_c, 11, 63, 0
14, 132480, Note_off_c, 11, 75, 0
14, 132480, Note_off_c, 11, 68, 0
14, 132480, Note_off_c, 11, 80, 0
14, 132480, Note_off_c, 11, 56, 0
14, 132480, Note_on_c, 11, 59, 64
14, 132480, Note_on_c, 11, 71, 64
14, 132480, Note_on_c, 11, 64, 64
14, 132480, Note_on_c, 11, 75, 64
14, 134400, Note_off_c, 11, 59, 0
14, 134400, Note_off_c, 11, 71, 0
14, 134400, Note_off_c, 11, 64, 0
14, 134400, Note_off_c, 11, 75, 0
14, 134400, Note_on_c, 11, 61, 64
14, 134400, Note_on_c, 11, 73, 64
14, 134400, Note_on_c, 11, 66, 64
14, 134400, Note_on_c, 11, 78, 64
14, 136320, Note_off_c, 11, 61, 0
14, 136320, Note_off_c, 11, 73, 0
14, 136320, Note_off_c, 11, 66, 0
14, 136320, Note_off_c, 11, 78, 0
14, 136320, Note_on_c, 11, 63, 64
14, 136320, Note_on_c, 11, 75, 64
14, 136320, Note_on_c, 11, 68, 64
14, 136320, Note_on_c, 11, 80, 64
14, 136320, Note_on_c, 11, 56, 64
14, 140160, Note_off_c, 11, 63, 0
14, 140160, Note_off_c, 11, 75, 0
14, 140160, Note_off_c, 11, 68, 0
14, 140160, Note_off_c, 11, 80, 0
14, 140160, Note_off_c, 11, 56, 0
14, 140160, Note_on_c, 11, 59, 64
14, 140160, Note_on_c, 11, 71, 64
14, 140160, Note_on_c, 11, 64, 64
14, 140160, Note_on_c, 11, 75, 64
14, 142080, Note_off_c, 11, 59, 0
14, 142080, Note_off_c, 11, 71, 0
14, 142080, Note_off_c, 11, 64, 0
14, 142080, Note_off_c, 11, 75, 0
14, 142080, Note_on_c, 11, 61, 64
14, 142080, Note_on_c, 11, 73, 64
14, 142080, Note_on_c, 11, 66, 64
14, 142080, Note_on_c, 11, 78, 64
14, 144000, Note_off_c, 11, 61, 0
14, 144000, Note_off_c, 11, 73, 0
14, 144000, Note_off_c, 11, 66, 0
14, 144000, Note_off_c, 11, 78, 0
14, 144000, Note_on_c, 11, 63, 64
14, 144000, Note_on_c, 11, 75, 64
14, 144000, Note_on_c, 11, 68, 64
14, 144000, Note_on_c, 11, 80, 64
14, 144000, Note_on_c, 11, 56, 64
14, 147840, Note_off_c, 11, 63, 0
14, 147840, Note_off_c, 11, 75, 0
14, 147840, Note_off_c, 11, 68, 0
14, 147840, Note_off_c, 11, 80, 0
14, 147840, Note_off_c, 11, 56, 0
14, 147840, Note_on_c, 11, 59, 64
14, 147840, Note_on_c, 11, 71, 64
14, 147840, Note_on_c, 11, 64, 64
14, 147840, Note_on_c, 11, 75, 64
14, 149760, Note_off_c, 11, 59, 0
14, 149760, Note_off_c, 11, 71, 0
14, 149760, Note_off_c, 11, 64, 0
14, 149760, Note_off_c, 11, 75, 0
14, 149760, Note_on_c, 11, 61, 64
14, 149760, Note_on_c, 11, 73, 64
14, 149760, Note_on_c, 11, 66, 64
14, 149760, Note_on_c, 11, 78, 64
14, 151680, Note_off_c, 11, 61, 0
14, 151680, Note_off_c, 11, 73, 0
14, 151680, Note_off_c, 11, 66, 0
14, 151680, Note_off_c, 11, 78, 0
14, 151680, Note_on_c, 11, 63, 64
14, 151680, Note_on_c, 11, 75, 64
14, 151680, Note_on_c, 11, 68, 64
14, 151680, Note_on_c, 11, 80, 64
14, 151680, Note_on_c, 11, 56, 64
14, 154560, Note_off_c, 11, 63, 0
14, 154560, Note_off_c, 11, 75, 0
14, 154560, Note_off_c, 11, 68, 0
14, 154560, Note_off_c, 11, 80, 0
14, 154560, Note_off_c, 11, 56, 0
14, 154560, Note_on_c, 11, 58, 64
14, 154560, Note_on_c, 11, 65, 64
14, 154560, Note_on_c, 11, 82, 64
14, 154560, Note_on_c, 11, 70, 64
14, 155520, Note_off_c, 11, 58, 0
14, 155520, Note_off_c, 11, 65, 0
14, 155520, Note_off_c, 11, 82, 0
14, 155520, Note_off_c, 11, 70, 0
14, 155520, Note_on_c, 11, 61, 64
14, 155520, Note_on_c, 11, 73, 64
14, 155520, Note_on_c, 11, 66, 64
14, 155520, Note_on_c, 11, 77, 64
14, 157440, Note_off_c, 11, 61, 0
14, 157440, Note_off_c, 11, 73, 0
14, 157440, Note_off_c, 11, 66, 0
14, 157440, Note_off_c, 11, 77, 0
14, 157440, Note_on_c, 11, 63, 64
14, 157440, Note_on_c, 11, 75, 64
14, 157440, Note_on_c, 11, 68, 64
14, 157440, Note_on_c, 11, 80, 64
14, 159360, Note_off_c, 11, 63, 0
14, 159360, Note_off_c, 11, 75, 0
14, 159360, Note_off_c, 11, 68, 0
14, 159360, Note_off_c, 11, 80, 0
14, 159360, Note_on_c, 11, 65, 64
14, 159360, Note_on_c, 11, 77, 64
14, 159360, Note_on_c, 11, 70, 64
14, 159360, Note_on_c, 11, 82, 64
14, 159360, Note_on_c, 11, 58, 64
14, 163200, Note_off_c, 11, 65, 0
14, 163200, Note_off_c, 11, 77, 0
14, 163200, Note_off_c, 11, 70, 0
14, 163200, Note_off_c, 11, 82, 0
14, 163200, Note_off_c, 11, 58, 0
14, 163200, Note_on_c, 11, 61, 64
14, 163200, Note_on_c, 11, 73, 64
14, 163200, Note_on_c, 11, 66, 64
14, 163200, Note_on_c, 11, 77, 64
14, 165120, Note_off_c, 11, 61, 0
14, 165120, Note_off_c, 11, 73, 0
14, 165120, Note_off_c, 11, 66, 0
14, 165120, Note_off_c, 11, 77, 0
14, 165120, Note_on_c, 11, 63, 64
14, 165120, Note_on_c, 11, 75, 64
14, 165120, Note_on_c, 11, 68, 64
14, 165120, Note_on_c, 11, 80, 64
14, 167040, Note_off_c, 11, 63, 0
14, 167040, Note_off_c, 11, 75, 0
14, 167040, Note_off_c, 11, 68, 0
14, 167040, Note_off_c, 11, 80, 0
14, 167040, Note_on_c, 11, 65, 64
14, 167040, Note_on_c, 11, 77, 64
14, 167040, Note_on_c, 11, 70, 64
14, 167040, Note_on_c, 11, 82, 64
14, 167040, Note_on_c, 11, 58, 64
14, 170880, Note_off_c, 11, 65, 0
14, 170880, Note_off_c, 11, 77, 0
14, 170880, Note_off_c, 11, 70, 0
14, 170880, Note_off_c, 11, 82, 0
14, 170880, Note_off_c, 11, 58, 0
14, 170880, Note_on_c, 11, 61, 64
14, 170880, Note_on_c, 11, 73, 64
14, 170880, Note_on_c, 11, 66, 64
14, 170880, Note_on_c, 11, 77, 64
14, 172800, Note_off_c, 11, 61, 0
14, 172800, Note_off_c, 11, 73, 0
14, 172800, Note_off_c, 11, 66, 0
14, 172800, Note_off_c, 11, 77, 0
14, 172800, Note_on_c, 11, 63, 64
14, 172800, Note_on_c, 11, 75, 64
14, 172800, Note_on_c, 11, 68, 64
14, 172800, Note_on_c, 11, 80, 64
14, 174720, Note_off_c, 11, 63, 0
14, 174720, Note_off_c, 11, 75, 0
14, 174720, Note_off_c, 11, 68, 0
14, 174720, Note_off_c, 11, 80, 0
14, 174720, Note_on_c, 11, 65, 64
14, 174720, Note_on_c, 11, 77, 64
14, 174720, Note_on_c, 11, 70, 64
14, 174720, Note_on_c, 11, 82, 64
14, 174720, Note_on_c, 11, 58, 64
14, 178560, Note_off_c, 11, 65, 0
14, 178560, Note_off_c, 11, 77, 0
14, 178560, Note_off_c, 11, 70, 0
14, 178560, Note_off_c, 11, 82, 0
14, 178560, Note_off_c, 11, 58, 0
14, 178560, Note_on_c, 11, 61, 64
14, 178560, Note_on_c, 11, 73, 64
14, 178560, Note_on_c, 11, 66, 64
14, 178560, Note_on_c, 11, 77, 64
14, 180480, Note_off_c, 11, 61, 0
14, 180480, Note_off_c, 11, 73, 0
14, 180480, Note_off_c, 11, 66, 0
14, 180480, Note_off_c, 11, 77, 0
14, 180480, Note_on_c, 11, 63, 64
14, 180480, Note_on_c, 11, 75, 64
14, 180480, Note_on_c, 11, 68, 64
14, 180480, Note_on_c, 11, 80, 64
14, 182400, Note_off_c, 11, 63, 0
14, 182400, Note_off_c, 11, 75, 0
14, 182400, Note_off_c, 11, 68, 0
14, 182400, Note_off_c, 11, 80, 0
14, 182400, Note_on_c, 11, 65, 64
14, 182400, Note_on_c, 11, 77, 64
14, 182400, Note_on_c, 11, 70, 64
14, 182400, Note_on_c, 11, 82, 64
14, 182400, Note_on_c, 11, 58, 64
14, 186240, Note_off_c, 11, 65, 0
14, 186240, Note_off_c, 11, 77, 0
14, 186240, Note_off_c, 11, 70, 0
14, 186240, Note_off_c, 11, 82, 0
14, 186240, Note_off_c, 11, 58, 0
14, 186240, End_track
15, 0, Start_track
15, 0, Title_t, "CH13"
15, 0, MIDI_port, 0
15, 0, Text_t, "---- System Setup --------------------------------------------------"
15, 188, Text_t, "---- CH Setup --------------------------------------------------"
15, 188, Control_c, 12, 121, 0
15, 189, Control_c, 12, 0, 0
15, 189, Control_c, 12, 32, 0
15, 189, Program_c, 12, 29
15, 192, Control_c, 12, 10, 64
15, 193, Control_c, 12, 7, 100
15, 194, Control_c, 12, 91, 0
15, 195, Control_c, 12, 11, 127
15, 196, Control_c, 12, 1, 0
15, 197, Control_c, 12, 101, 0
15, 197, Control_c, 12, 100, 1
15, 197, Control_c, 12, 6, 64
15, 197, Control_c, 12, 38, 0
15, 201, Control_c, 12, 101, 0
15, 201, Control_c, 12, 100, 2
15, 201, Control_c, 12, 6, 64
15, 204, Control_c, 12, 101, 0
15, 204, Control_c, 12, 100, 0
15, 204, Control_c, 12, 6, 12
15, 207, Pitch_bend_c, 12, 8192
15, 208, Control_c, 12, 101, 127
15, 208, Control_c, 12, 100, 127
15, 210, Text_t, "---- End of CH Setup --------------------------------------------------"
15, 16320, Pitch_bend_c, 12, 8192
15, 16320, Note_on_c, 12, 83, 70
15, 16322, Pitch_bend_c, 12, 8254
15, 16325, Pitch_bend_c, 12, 8295
15, 16330, Pitch_bend_c, 12, 8336
15, 16332, Pitch_bend_c, 12, 8378
15, 16335, Pitch_bend_c, 12, 8419
15, 16337, Pitch_bend_c, 12, 8460
15, 16342, Pitch_bend_c, 12, 8502
15, 16347, Pitch_bend_c, 12, 8543
15, 16350, Pitch_bend_c, 12, 8584
15, 16352, Pitch_bend_c, 12, 8625
15, 16357, Pitch_bend_c, 12, 8667
15, 16360, Pitch_bend_c, 12, 8708
15, 16365, Pitch_bend_c, 12, 8790
15, 16370, Pitch_bend_c, 12, 8832
15, 16375, Pitch_bend_c, 12, 8873
15, 16377, Pitch_bend_c, 12, 8914
15, 16380, Pitch_bend_c, 12, 8873
15, 16382, Pitch_bend_c, 12, 8832
15, 16385, Pitch_bend_c, 12, 8790
15, 16387, Pitch_bend_c, 12, 8667
15, 16390, Pitch_bend_c, 12, 8625
15, 16392, Pitch_bend_c, 12, 8543
15, 16395, Pitch_bend_c, 12, 8460
15, 16397, Pitch_bend_c, 12, 8419
15, 16400, Pitch_bend_c, 12, 8378
15, 16402, Pitch_bend_c, 12, 8336
15, 16405, Pitch_bend_c, 12, 8254
15, 16407, Pitch_bend_c, 12, 8192
15, 16410, Pitch_bend_c, 12, 8171
15, 16412, Pitch_bend_c, 12, 8130
15, 16415, Pitch_bend_c, 12, 8089
15, 16420, Pitch_bend_c, 12, 8048
15, 16422, Pitch_bend_c, 12, 8006
15, 16425, Pitch_bend_c, 12, 7965
15, 16430, Pitch_bend_c, 12, 7924
15, 16435, Pitch_bend_c, 12, 7882
15, 16437, Pitch_bend_c, 12, 7841
15, 16442, Pitch_bend_c, 12, 7759
15, 16447, Pitch_bend_c, 12, 7552
15, 16450, Pitch_bend_c, 12, 7429
15, 16457, Pitch_bend_c, 12, 7552
15, 16460, Pitch_bend_c, 12, 7594
15, 16462, Pitch_bend_c, 12, 7676
15, 16465, Pitch_bend_c, 12, 7717
15, 16467, Pitch_bend_c, 12, 7800
15, 16470, Pitch_bend_c, 12, 7882
15, 16472, Pitch_bend_c, 12, 7965
15, 16475, Pitch_bend_c, 12, 8089
15, 16477, Pitch_bend_c, 12, 8130
15, 16482, Pitch_bend_c, 12, 8171
15, 16485, Pitch_bend_c, 12, 8192
15, 16487, Pitch_bend_c, 12, 8254
15, 16490, Pitch_bend_c, 12, 8295
15, 16497, Pitch_bend_c, 12, 8336
15, 16502, Pitch_bend_c, 12, 8460
15, 16505, Pitch_bend_c, 12, 8502
15, 16507, Pitch_bend_c, 12, 8543
15, 16512, Pitch_bend_c, 12, 8584
15, 16520, Pitch_bend_c, 12, 8625
15, 16522, Pitch_bend_c, 12, 8749
15, 16525, Pitch_bend_c, 12, 8790
15, 16527, Pitch_bend_c, 12, 8832
15, 16530, Pitch_bend_c, 12, 8749
15, 16532, Pitch_bend_c, 12, 8708
15, 16535, Pitch_bend_c, 12, 8667
15, 16537, Pitch_bend_c, 12, 8584
15, 16540, Pitch_bend_c, 12, 8502
15, 16542, Pitch_bend_c, 12, 8378
15, 16545, Pitch_bend_c, 12, 8336
15, 16547, Pitch_bend_c, 12, 8295
15, 16550, Pitch_bend_c, 12, 8130
15, 16552, Pitch_bend_c, 12, 8089
15, 16555, Pitch_bend_c, 12, 8006
15, 16557, Pitch_bend_c, 12, 7924
15, 16562, Pitch_bend_c, 12, 7841
15, 16565, Pitch_bend_c, 12, 7759
15, 16567, Pitch_bend_c, 12, 7717
15, 16570, Pitch_bend_c, 12, 7552
15, 16572, Pitch_bend_c, 12, 7429
15, 16575, Pitch_bend_c, 12, 7387
15, 16580, Pitch_bend_c, 12, 7346
15, 16582, Pitch_bend_c, 12, 7305
15, 16587, Pitch_bend_c, 12, 7263
15, 16595, Pitch_bend_c, 12, 7305
15, 16597, Pitch_bend_c, 12, 7387
15, 16600, Pitch_bend_c, 12, 7429
15, 16602, Pitch_bend_c, 12, 7470
15, 16607, Pitch_bend_c, 12, 7511
15, 16610, Pitch_bend_c, 12, 7552
15, 16612, Pitch_bend_c, 12, 7676
15, 16617, Pitch_bend_c, 12, 7759
15, 16620, Pitch_bend_c, 12, 7841
15, 16622, Pitch_bend_c, 12, 7882
15, 16625, Pitch_bend_c, 12, 7924
15, 16627, Pitch_bend_c, 12, 7965
15, 16630, Pitch_bend_c, 12, 8048
15, 16632, Pitch_bend_c, 12, 8130
15, 16635, Pitch_bend_c, 12, 8192
15, 16637, Pitch_bend_c, 12, 8254
15, 16642, Pitch_bend_c, 12, 8336
15, 16645, Pitch_bend_c, 12, 8378
15, 16647, Pitch_bend_c, 12, 8419
15, 16650, Pitch_bend_c, 12, 8460
15, 16652, Pitch_bend_c, 12, 8502
15, 16655, Pitch_bend_c, 12, 8584
15, 16657, Pitch_bend_c, 12, 8625
15, 16660, Pitch_bend_c, 12, 8667
15, 16662, Pitch_bend_c, 12, 8708
15, 16665, Pitch_bend_c, 12, 8749
15, 16667, Pitch_bend_c, 12, 8749
15, 16670, Pitch_bend_c, 12, 8708
15, 16672, Pitch_bend_c, 12, 8667
15, 16677, Pitch_bend_c, 12, 8625
15, 16705, Pitch_bend_c, 12, 8584
15, 16727, Pitch_bend_c, 12, 8543
15, 16752, Pitch_bend_c, 12, 8502
15, 16757, Pitch_bend_c, 12, 8460
15, 16760, Pitch_bend_c, 12, 8419
15, 16765, Pitch_bend_c, 12, 8378
15, 16770, Pitch_bend_c, 12, 8336
15, 16790, Pitch_bend_c, 12, 8295
15, 16795, Pitch_bend_c, 12, 8192
15, 16800, Note_off_c, 12, 83, 0
15, 31680, Pitch_bend_c, 12, 8192
15, 31680, Note_on_c, 12, 83, 70
15, 31682, Pitch_bend_c, 12, 8254
15, 31685, Pitch_bend_c, 12, 8295
15, 31690, Pitch_bend_c, 12, 8336
15, 31692, Pitch_bend_c, 12, 8378
15, 31695, Pitch_bend_c, 12, 8419
15, 31697, Pitch_bend_c, 12, 8460
15, 31702, Pitch_bend_c, 12, 8502
15, 31707, Pitch_bend_c, 12, 8543
15, 31710, Pitch_bend_c, 12, 8584
15, 31712, Pitch_bend_c, 12, 8625
15, 31717, Pitch_bend_c, 12, 8667
15, 31720, Pitch_bend_c, 12, 8708
15, 31725, Pitch_bend_c, 12, 8790
15, 31730, Pitch_bend_c, 12, 8832
15, 31735, Pitch_bend_c, 12, 8873
15, 31737, Pitch_bend_c, 12, 8914
15, 31740, Pitch_bend_c, 12, 8873
15, 31742, Pitch_bend_c, 12, 8832
15, 31745, Pitch_bend_c, 12, 8790
15, 31747, Pitch_bend_c, 12, 8667
15, 31750, Pitch_bend_c, 12, 8625
15, 31752, Pitch_bend_c, 12, 8543
15, 31755, Pitch_bend_c, 12, 8460
15, 31757, Pitch_bend_c, 12, 8419
15, 31760, Pitch_bend_c, 12, 8378
15, 31762, Pitch_bend_c, 12, 8336
15, 31765, Pitch_bend_c, 12, 8254
15, 31767, Pitch_bend_c, 12, 8192
15, 31770, Pitch_bend_c, 12, 8171
15, 31772, Pitch_bend_c, 12, 8130
15, 31775, Pitch_bend_c, 12, 8089
15, 31780, Pitch_bend_c, 12, 8048
15, 31782, Pitch_bend_c, 12, 8006
15, 31785, Pitch_bend_c, 12, 7965
15, 31790, Pitch_bend_c, 12, 7924
15, 31795, Pitch_bend_c, 12, 7882
15, 31797, Pitch_bend_c, 12, 7841
15, 31802, Pitch_bend_c, 12, 7759
15, 31807, Pitch_bend_c, 12, 7552
15, 31810, Pitch_bend_c, 12, 7429
15, 31817, Pitch_bend_c, 12, 7552
15, 31820, Pitch_bend_c, 12, 7594
15, 31822, Pitch_bend_c, 12, 7676
15, 31825, Pitch_bend_c, 12, 7717
15, 31827, Pitch_bend_c, 12, 7800
15, 31830, Pitch_bend_c, 12, 7882
15, 31832, Pitch_bend_c, 12, 7965
15, 31835, Pitch_bend_c, 12, 8089
15, 31837, Pitch_bend_c, 12, 8130
15, 31842, Pitch_bend_c, 12, 8171
15, 31845, Pitch_bend_c, 12, 8192
15, 31847, Pitch_bend_c, 12, 8254
15, 31850, Pitch_bend_c, 12, 8295
15, 31857, Pitch_bend_c, 12, 8336
15, 31862, Pitch_bend_c, 12, 8460
15, 31865, Pitch_bend_c, 12, 8502
15, 31867, Pitch_bend_c, 12, 8543
15, 31872, Pitch_bend_c, 12, 8584
15, 31880, Pitch_bend_c, 12, 8625
15, 31882, Pitch_bend_c, 12, 8749
15, 31885, Pitch_bend_c, 12, 8790
15, 31887, Pitch_bend_c, 12, 8832
15, 31890, Pitch_bend_c, 12, 8749
15, 31892, Pitch_bend_c, 12, 8708
15, 31895, Pitch_bend_c, 12, 8667
15, 31897, Pitch_bend_c, 12, 8584
15, 31900, Pitch_bend_c, 12, 8502
15, 31902, Pitch_bend_c, 12, 8378
15, 31905, Pitch_bend_c, 12, 8336
15, 31907, Pitch_bend_c, 12, 8295
15, 31910, Pitch_bend_c, 12, 8130
15, 31912, Pitch_bend_c, 12, 8089
15, 31915, Pitch_bend_c, 12, 8006
15, 31917, Pitch_bend_c, 12, 7924
15, 31922, Pitch_bend_c, 12, 7841
15, 31925, Pitch_bend_c, 12, 7759
15, 31927, Pitch_bend_c, 12, 7717
15, 31930, Pitch_bend_c, 12, 7552
15, 31932, Pitch_bend_c, 12, 7429
15, 31935, Pitch_bend_c, 12, 7387
15, 31940, Pitch_bend_c, 12, 7346
15, 31942, Pitch_bend_c, 12, 7305
15, 31947, Pitch_bend_c, 12, 7263
15, 31955, Pitch_bend_c, 12, 7305
15, 31957, Pitch_bend_c, 12, 7387
15, 31960, Pitch_bend_c, 12, 7429
15, 31962, Pitch_bend_c, 12, 7470
15, 31967, Pitch_bend_c, 12, 7511
15, 31970, Pitch_bend_c, 12, 7552
15, 31972, Pitch_bend_c, 12, 7676
15, 31977, Pitch_bend_c, 12, 7759
15, 31980, Pitch_bend_c, 12, 7841
15, 31982, Pitch_bend_c, 12, 7882
15, 31985, Pitch_bend_c, 12, 7924
15, 31987, Pitch_bend_c, 12, 7965
15, 31990, Pitch_bend_c, 12, 8048
15, 31992, Pitch_bend_c, 12, 8130
15, 31995, Pitch_bend_c, 12, 8192
15, 31997, Pitch_bend_c, 12, 8254
15, 32002, Pitch_bend_c, 12, 8336
15, 32005, Pitch_bend_c, 12, 8378
15, 32007, Pitch_bend_c, 12, 8419
15, 32010, Pitch_bend_c, 12, 8460
15, 32012, Pitch_bend_c, 12, 8502
15, 32015, Pitch_bend_c, 12, 8584
15, 32017, Pitch_bend_c, 12, 8625
15, 32020, Pitch_bend_c, 12, 8667
15, 32022, Pitch_bend_c, 12, 8708
15, 32025, Pitch_bend_c, 12, 8749
15, 32027, Pitch_bend_c, 12, 8749
15, 32030, Pitch_bend_c, 12, 8708
15, 32032, Pitch_bend_c, 12, 8667
15, 32037, Pitch_bend_c, 12, 8625
15, 32065, Pitch_bend_c, 12, 8584
15, 32087, Pitch_bend_c, 12, 8543
15, 32112, Pitch_bend_c, 12, 8502
15, 32117, Pitch_bend_c, 12, 8460
15, 32120, Pitch_bend_c, 12, 8419
15, 32125, Pitch_bend_c, 12, 8378
15, 32130, Pitch_bend_c, 12, 8336
15, 32150, Pitch_bend_c, 12, 8295
15, 32155, Pitch_bend_c, 12, 8192
15, 32160, Note_off_c, 12, 83, 0
15, 100800, Pitch_bend_c, 12, 8192
15, 100800, Note_on_c, 12, 83, 70
15, 100802, Pitch_bend_c, 12, 8254
15, 100805, Pitch_bend_c, 12, 8295
15, 100810, Pitch_bend_c, 12, 8336
15, 100812, Pitch_bend_c, 12, 8378
15, 100815, Pitch_bend_c, 12, 8419
15, 100817, Pitch_bend_c, 12, 8460
15, 100822, Pitch_bend_c, 12, 8502
15, 100827, Pitch_bend_c, 12, 8543
15, 100830, Pitch_bend_c, 12, 8584
15, 100832, Pitch_bend_c, 12, 8625
15, 100837, Pitch_bend_c, 12, 8667
15, 100840, Pitch_bend_c, 12, 8708
15, 100845, Pitch_bend_c, 12, 8790
15, 100850, Pitch_bend_c, 12, 8832
15, 100855, Pitch_bend_c, 12, 8873
15, 100857, Pitch_bend_c, 12, 8914
15, 100860, Pitch_bend_c, 12, 8873
15, 100862, Pitch_bend_c, 12, 8832
15, 100865, Pitch_bend_c, 12, 8790
15, 100867, Pitch_bend_c, 12, 8667
15, 100870, Pitch_bend_c, 12, 8625
15, 100872, Pitch_bend_c, 12, 8543
15, 100875, Pitch_bend_c, 12, 8460
15, 100877, Pitch_bend_c, 12, 8419
15, 100880, Pitch_bend_c, 12, 8378
15, 100882, Pitch_bend_c, 12, 8336
15, 100885, Pitch_bend_c, 12, 8254
15, 100887, Pitch_bend_c, 12, 8192
15, 100890, Pitch_bend_c, 12, 8171
15, 100892, Pitch_bend_c, 12, 8130
15, 100895, Pitch_bend_c, 12, 8089
15, 100900, Pitch_bend_c, 12, 8048
15, 100902, Pitch_bend_c, 12, 8006
15, 100905, Pitch_bend_c, 12, 7965
15, 100910, Pitch_bend_c, 12, 7924
15, 100915, Pitch_bend_c, 12, 7882
15, 100917, Pitch_bend_c, 12, 7841
15, 100922, Pitch_bend_c, 12, 7759
15, 100927, Pitch_bend_c, 12, 7552
15, 100930, Pitch_bend_c, 12, 7429
15, 100937, Pitch_bend_c, 12, 7552
15, 100940, Pitch_bend_c, 12, 7594
15, 100942, Pitch_bend_c, 12, 7676
15, 100945, Pitch_bend_c, 12, 7717
15, 100947, Pitch_bend_c, 12, 7800
15, 100950, Pitch_bend_c, 12, 7882
15, 100952, Pitch_bend_c, 12, 7965
15, 100955, Pitch_bend_c, 12, 8089
15, 100957, Pitch_bend_c, 12, 8130
15, 100962, Pitch_bend_c, 12, 8171
15, 100965, Pitch_bend_c, 12, 8192
15, 100967, Pitch_bend_c, 12, 8254
15, 100970, Pitch_bend_c, 12, 8295
15, 100977, Pitch_bend_c, 12, 8336
15, 100982, Pitch_bend_c, 12, 8460
15, 100985, Pitch_bend_c, 12, 8502
15, 100987, Pitch_bend_c, 12, 8543
15, 100992, Pitch_bend_c, 12, 8584
15, 101000, Pitch_bend_c, 12, 8625
15, 101002, Pitch_bend_c, 12, 8749
15, 101005, Pitch_bend_c, 12, 8790
15, 101007, Pitch_bend_c, 12, 8832
15, 101010, Pitch_bend_c, 12, 8749
15, 101012, Pitch_bend_c, 12, 8708
15, 101015, Pitch_bend_c, 12, 8667
15, 101017, Pitch_bend_c, 12, 8584
15, 101020, Pitch_bend_c, 12, 8502
15, 101022, Pitch_bend_c, 12, 8378
15, 101025, Pitch_bend_c, 12, 8336
15, 101027, Pitch_bend_c, 12, 8295
15, 101030, Pitch_bend_c, 12, 8130
15, 101032, Pitch_bend_c, 12, 8089
15, 101035, Pitch_bend_c, 12, 8006
15, 101037, Pitch_bend_c, 12, 7924
15, 101042, Pitch_bend_c, 12, 7841
15, 101045, Pitch_bend_c, 12, 7759
15, 101047, Pitch_bend_c, 12, 7717
15, 101050, Pitch_bend_c, 12, 7552
15, 101052, Pitch_bend_c, 12, 7429
15, 101055, Pitch_bend_c, 12, 7387
15, 101060, Pitch_bend_c, 12, 7346
15, 101062, Pitch_bend_c, 12, 7305
15, 101067, Pitch_bend_c, 12, 7263
15, 101075, Pitch_bend_c, 12, 7305
15, 101077, Pitch_bend_c, 12, 7387
15, 101080, Pitch_bend_c, 12, 7429
15, 101082, Pitch_bend_c, 12, 7470
15, 101087, Pitch_bend_c, 12, 7511
15, 101090, Pitch_bend_c, 12, 7552
15, 101092, Pitch_bend_c, 12, 7676
15, 101097, Pitch_bend_c, 12, 7759
15, 101100, Pitch_bend_c, 12, 7841
15, 101102, Pitch_bend_c, 12, 7882
15, 101105, Pitch_bend_c, 12, 7924
15, 101107, Pitch_bend_c, 12, 7965
15, 101110, Pitch_bend_c, 12, 8048
15, 101112, Pitch_bend_c, 12, 8130
15, 101115, Pitch_bend_c, 12, 8192
15, 101117, Pitch_bend_c, 12, 8254
15, 101122, Pitch_bend_c, 12, 8336
15, 101125, Pitch_bend_c, 12, 8378
15, 101127, Pitch_bend_c, 12, 8419
15, 101130, Pitch_bend_c, 12, 8460
15, 101132, Pitch_bend_c, 12, 8502
15, 101135, Pitch_bend_c, 12, 8584
15, 101137, Pitch_bend_c, 12, 8625
15, 101140, Pitch_bend_c, 12, 8667
15, 101142, Pitch_bend_c, 12, 8708
15, 101145, Pitch_bend_c, 12, 8749
15, 101147, Pitch_bend_c, 12, 8749
15, 101150, Pitch_bend_c, 12, 8708
15, 101152, Pitch_bend_c, 12, 8667
15, 101157, Pitch_bend_c, 12, 8625
15, 101185, Pitch_bend_c, 12, 8584
15, 101207, Pitch_bend_c, 12, 8543
15, 101232, Pitch_bend_c, 12, 8502
15, 101237, Pitch_bend_c, 12, 8460
15, 101240, Pitch_bend_c, 12, 8419
15, 101245, Pitch_bend_c, 12, 8378
15, 101250, Pitch_bend_c, 12, 8336
15, 101270, Pitch_bend_c, 12, 8295
15, 101275, Pitch_bend_c, 12, 8192
15, 101280, Note_off_c, 12, 83, 0
15, 101280, End_track
16, 0, Start_track
16, 0, Title_t, "CH14"
16, 0, MIDI_port, 0
16, 0, Text_t, "---- System Setup --------------------------------------------------"
16, 188, Text_t, "---- CH Setup --------------------------------------------------"
16, 188, Control_c, 13, 121, 0
16, 189, Control_c, 13, 0, 0
16, 189, Control_c, 13, 32, 0
16, 189, Program_c, 13, 0
16, 192, Control_c, 13, 10, 64
16, 193, Control_c, 13, 7, 100
16, 194, Control_c, 13, 91, 0
16, 195, Control_c, 13, 11, 127
16, 196, Control_c, 13, 1, 0
16, 197, Control_c, 13, 101, 0
16, 197, Control_c, 13, 100, 1
16, 197, Control_c, 13, 6, 64
16, 197, Control_c, 13, 38, 0
16, 201, Control_c, 13, 101, 0
16, 201, Control_c, 13, 100, 2
16, 201, Control_c, 13, 6, 64
16, 204, Control_c, 13, 101, 0
16, 204, Control_c, 13, 100, 0
16, 204, Control_c, 13, 6, 12
16, 207, Pitch_bend_c, 13, 8192
16, 208, Control_c, 13, 101, 127
16, 208, Control_c, 13, 100, 127
16, 210, Text_t, "---- End of CH Setup --------------------------------------------------"
16, 240, End_track
17, 0, Start_track
17, 0, Title_t, "CH15"
17, 0, MIDI_port, 0
17, 0, Text_t, "---- System Setup --------------------------------------------------"
17, 188, Text_t, "---- CH Setup --------------------------------------------------"
17, 188, Control_c, 14, 121, 0
17, 189, Control_c, 14, 0, 0
17, 189, Control_c, 14, 32, 0
17, 189, Program_c, 14, 0
17, 192, Control_c, 14, 10, 64
17, 193, Control_c, 14, 7, 100
17, 194, Control_c, 14, 91, 0
17, 195, Control_c, 14, 11, 127
17, 196, Control_c, 14, 1, 0
17, 197, Control_c, 14, 101, 0
17, 197, Control_c, 14, 100, 1
17, 197, Control_c, 14, 6, 64
17, 197, Control_c, 14, 38, 0
17, 201, Control_c, 14, 101, 0
17, 201, Control_c, 14, 100, 2
17, 201, Control_c, 14, 6, 64
17, 204, Control_c, 14, 101, 0
17, 204, Control_c, 14, 100, 0
17, 204, Control_c, 14, 6, 12
17, 207, Pitch_bend_c, 14, 8192
17, 208, Control_c, 14, 101, 127
17, 208, Control_c, 14, 100, 127
17, 210, Text_t, "---- End of CH Setup --------------------------------------------------"
17, 240, End_track
18, 0, Start_track
18, 0, Title_t, "CH16"
18, 0, MIDI_port, 0
18, 0, Text_t, "---- System Setup --------------------------------------------------"
18, 188, Text_t, "---- CH Setup --------------------------------------------------"
18, 188, Control_c, 15, 121, 0
18, 189, Control_c, 15, 0, 0
18, 189, Control_c, 15, 32, 0
18, 189, Program_c, 15, 0
18, 192, Control_c, 15, 10, 64
18, 193, Control_c, 15, 7, 100
18, 194, Control_c, 15, 91, 0
18, 195, Control_c, 15, 11, 127
18, 196, Control_c, 15, 1, 0
18, 197, Control_c, 15, 101, 0
18, 197, Control_c, 15, 100, 1
18, 197, Control_c, 15, 6, 64
18, 197, Control_c, 15, 38, 0
18, 201, Control_c, 15, 101, 0
18, 201, Control_c, 15, 100, 2
18, 201, Control_c, 15, 6, 64
18, 204, Control_c, 15, 101, 0
18, 204, Control_c, 15, 100, 0
18, 204, Control_c, 15, 6, 12
18, 207, Pitch_bend_c, 15, 8192
18, 208, Control_c, 15, 101, 127
18, 208, Control_c, 15, 100, 127
18, 210, Text_t, "---- End of CH Setup --------------------------------------------------"
18, 240, End_track
0, 0, End_of_file
